%TF.GenerationSoftware,KiCad,Pcbnew,10.0.3*%
%TF.CreationDate,2026-09-27T23:05:41+08:00*%
%TF.ProjectId,One Peace,4f6e6520-5065-4616-9365-2e6b69636164,rev?*%
%TF.SameCoordinates,Original*%
%TF.FileFunction,Legend,Top*%
%TF.FilePolarity,Positive*%
%FSLAX46Y46*%
G04 Gerber Fmt 4.6, Leading zero omitted, Abs format (unit mm)*
G04 Created by KiCad (PCBNEW 10.0.3) date 2026-09-27 23:05:41*
%MOMM*%
%LPD*%
G01*
G04 APERTURE LIST*
%ADD10C,0.150000*%
%ADD11C,0.120000*%
%ADD12C,0.200000*%
%ADD13C,0.060000*%
%ADD14C,0.250000*%
%ADD15C,0.300000*%
%ADD16C,0.500000*%
G04 APERTURE END LIST*
D10*
X195554819Y-57333333D02*
X196269104Y-57333333D01*
X196269104Y-57333333D02*
X196411961Y-57380952D01*
X196411961Y-57380952D02*
X196507200Y-57476190D01*
X196507200Y-57476190D02*
X196554819Y-57619047D01*
X196554819Y-57619047D02*
X196554819Y-57714285D01*
X195650057Y-56904761D02*
X195602438Y-56857142D01*
X195602438Y-56857142D02*
X195554819Y-56761904D01*
X195554819Y-56761904D02*
X195554819Y-56523809D01*
X195554819Y-56523809D02*
X195602438Y-56428571D01*
X195602438Y-56428571D02*
X195650057Y-56380952D01*
X195650057Y-56380952D02*
X195745295Y-56333333D01*
X195745295Y-56333333D02*
X195840533Y-56333333D01*
X195840533Y-56333333D02*
X195983390Y-56380952D01*
X195983390Y-56380952D02*
X196554819Y-56952380D01*
X196554819Y-56952380D02*
X196554819Y-56333333D01*
X165999819Y-93253094D02*
X164999819Y-93253094D01*
X164999819Y-93253094D02*
X164999819Y-93014999D01*
X164999819Y-93014999D02*
X165047438Y-92872142D01*
X165047438Y-92872142D02*
X165142676Y-92776904D01*
X165142676Y-92776904D02*
X165237914Y-92729285D01*
X165237914Y-92729285D02*
X165428390Y-92681666D01*
X165428390Y-92681666D02*
X165571247Y-92681666D01*
X165571247Y-92681666D02*
X165761723Y-92729285D01*
X165761723Y-92729285D02*
X165856961Y-92776904D01*
X165856961Y-92776904D02*
X165952200Y-92872142D01*
X165952200Y-92872142D02*
X165999819Y-93014999D01*
X165999819Y-93014999D02*
X165999819Y-93253094D01*
X164999819Y-91776904D02*
X164999819Y-92253094D01*
X164999819Y-92253094D02*
X165476009Y-92300713D01*
X165476009Y-92300713D02*
X165428390Y-92253094D01*
X165428390Y-92253094D02*
X165380771Y-92157856D01*
X165380771Y-92157856D02*
X165380771Y-91919761D01*
X165380771Y-91919761D02*
X165428390Y-91824523D01*
X165428390Y-91824523D02*
X165476009Y-91776904D01*
X165476009Y-91776904D02*
X165571247Y-91729285D01*
X165571247Y-91729285D02*
X165809342Y-91729285D01*
X165809342Y-91729285D02*
X165904580Y-91776904D01*
X165904580Y-91776904D02*
X165952200Y-91824523D01*
X165952200Y-91824523D02*
X165999819Y-91919761D01*
X165999819Y-91919761D02*
X165999819Y-92157856D01*
X165999819Y-92157856D02*
X165952200Y-92253094D01*
X165952200Y-92253094D02*
X165904580Y-92300713D01*
X197459580Y-104642857D02*
X197507200Y-104690476D01*
X197507200Y-104690476D02*
X197554819Y-104833333D01*
X197554819Y-104833333D02*
X197554819Y-104928571D01*
X197554819Y-104928571D02*
X197507200Y-105071428D01*
X197507200Y-105071428D02*
X197411961Y-105166666D01*
X197411961Y-105166666D02*
X197316723Y-105214285D01*
X197316723Y-105214285D02*
X197126247Y-105261904D01*
X197126247Y-105261904D02*
X196983390Y-105261904D01*
X196983390Y-105261904D02*
X196792914Y-105214285D01*
X196792914Y-105214285D02*
X196697676Y-105166666D01*
X196697676Y-105166666D02*
X196602438Y-105071428D01*
X196602438Y-105071428D02*
X196554819Y-104928571D01*
X196554819Y-104928571D02*
X196554819Y-104833333D01*
X196554819Y-104833333D02*
X196602438Y-104690476D01*
X196602438Y-104690476D02*
X196650057Y-104642857D01*
X197554819Y-103690476D02*
X197554819Y-104261904D01*
X197554819Y-103976190D02*
X196554819Y-103976190D01*
X196554819Y-103976190D02*
X196697676Y-104071428D01*
X196697676Y-104071428D02*
X196792914Y-104166666D01*
X196792914Y-104166666D02*
X196840533Y-104261904D01*
X196554819Y-103357142D02*
X196554819Y-102738095D01*
X196554819Y-102738095D02*
X196935771Y-103071428D01*
X196935771Y-103071428D02*
X196935771Y-102928571D01*
X196935771Y-102928571D02*
X196983390Y-102833333D01*
X196983390Y-102833333D02*
X197031009Y-102785714D01*
X197031009Y-102785714D02*
X197126247Y-102738095D01*
X197126247Y-102738095D02*
X197364342Y-102738095D01*
X197364342Y-102738095D02*
X197459580Y-102785714D01*
X197459580Y-102785714D02*
X197507200Y-102833333D01*
X197507200Y-102833333D02*
X197554819Y-102928571D01*
X197554819Y-102928571D02*
X197554819Y-103214285D01*
X197554819Y-103214285D02*
X197507200Y-103309523D01*
X197507200Y-103309523D02*
X197459580Y-103357142D01*
X180538095Y-98454819D02*
X180538095Y-99264342D01*
X180538095Y-99264342D02*
X180585714Y-99359580D01*
X180585714Y-99359580D02*
X180633333Y-99407200D01*
X180633333Y-99407200D02*
X180728571Y-99454819D01*
X180728571Y-99454819D02*
X180919047Y-99454819D01*
X180919047Y-99454819D02*
X181014285Y-99407200D01*
X181014285Y-99407200D02*
X181061904Y-99359580D01*
X181061904Y-99359580D02*
X181109523Y-99264342D01*
X181109523Y-99264342D02*
X181109523Y-98454819D01*
X181490476Y-98454819D02*
X182109523Y-98454819D01*
X182109523Y-98454819D02*
X181776190Y-98835771D01*
X181776190Y-98835771D02*
X181919047Y-98835771D01*
X181919047Y-98835771D02*
X182014285Y-98883390D01*
X182014285Y-98883390D02*
X182061904Y-98931009D01*
X182061904Y-98931009D02*
X182109523Y-99026247D01*
X182109523Y-99026247D02*
X182109523Y-99264342D01*
X182109523Y-99264342D02*
X182061904Y-99359580D01*
X182061904Y-99359580D02*
X182014285Y-99407200D01*
X182014285Y-99407200D02*
X181919047Y-99454819D01*
X181919047Y-99454819D02*
X181633333Y-99454819D01*
X181633333Y-99454819D02*
X181538095Y-99407200D01*
X181538095Y-99407200D02*
X181490476Y-99359580D01*
X204854819Y-104742857D02*
X204378628Y-105076190D01*
X204854819Y-105314285D02*
X203854819Y-105314285D01*
X203854819Y-105314285D02*
X203854819Y-104933333D01*
X203854819Y-104933333D02*
X203902438Y-104838095D01*
X203902438Y-104838095D02*
X203950057Y-104790476D01*
X203950057Y-104790476D02*
X204045295Y-104742857D01*
X204045295Y-104742857D02*
X204188152Y-104742857D01*
X204188152Y-104742857D02*
X204283390Y-104790476D01*
X204283390Y-104790476D02*
X204331009Y-104838095D01*
X204331009Y-104838095D02*
X204378628Y-104933333D01*
X204378628Y-104933333D02*
X204378628Y-105314285D01*
X203950057Y-104361904D02*
X203902438Y-104314285D01*
X203902438Y-104314285D02*
X203854819Y-104219047D01*
X203854819Y-104219047D02*
X203854819Y-103980952D01*
X203854819Y-103980952D02*
X203902438Y-103885714D01*
X203902438Y-103885714D02*
X203950057Y-103838095D01*
X203950057Y-103838095D02*
X204045295Y-103790476D01*
X204045295Y-103790476D02*
X204140533Y-103790476D01*
X204140533Y-103790476D02*
X204283390Y-103838095D01*
X204283390Y-103838095D02*
X204854819Y-104409523D01*
X204854819Y-104409523D02*
X204854819Y-103790476D01*
X204854819Y-102838095D02*
X204854819Y-103409523D01*
X204854819Y-103123809D02*
X203854819Y-103123809D01*
X203854819Y-103123809D02*
X203997676Y-103219047D01*
X203997676Y-103219047D02*
X204092914Y-103314285D01*
X204092914Y-103314285D02*
X204140533Y-103409523D01*
X214490476Y-58154819D02*
X214490476Y-57154819D01*
X214490476Y-57154819D02*
X214823809Y-57869104D01*
X214823809Y-57869104D02*
X215157142Y-57154819D01*
X215157142Y-57154819D02*
X215157142Y-58154819D01*
X216157142Y-58154819D02*
X215585714Y-58154819D01*
X215871428Y-58154819D02*
X215871428Y-57154819D01*
X215871428Y-57154819D02*
X215776190Y-57297676D01*
X215776190Y-57297676D02*
X215680952Y-57392914D01*
X215680952Y-57392914D02*
X215585714Y-57440533D01*
X198959580Y-104642857D02*
X199007200Y-104690476D01*
X199007200Y-104690476D02*
X199054819Y-104833333D01*
X199054819Y-104833333D02*
X199054819Y-104928571D01*
X199054819Y-104928571D02*
X199007200Y-105071428D01*
X199007200Y-105071428D02*
X198911961Y-105166666D01*
X198911961Y-105166666D02*
X198816723Y-105214285D01*
X198816723Y-105214285D02*
X198626247Y-105261904D01*
X198626247Y-105261904D02*
X198483390Y-105261904D01*
X198483390Y-105261904D02*
X198292914Y-105214285D01*
X198292914Y-105214285D02*
X198197676Y-105166666D01*
X198197676Y-105166666D02*
X198102438Y-105071428D01*
X198102438Y-105071428D02*
X198054819Y-104928571D01*
X198054819Y-104928571D02*
X198054819Y-104833333D01*
X198054819Y-104833333D02*
X198102438Y-104690476D01*
X198102438Y-104690476D02*
X198150057Y-104642857D01*
X199054819Y-103690476D02*
X199054819Y-104261904D01*
X199054819Y-103976190D02*
X198054819Y-103976190D01*
X198054819Y-103976190D02*
X198197676Y-104071428D01*
X198197676Y-104071428D02*
X198292914Y-104166666D01*
X198292914Y-104166666D02*
X198340533Y-104261904D01*
X198388152Y-102833333D02*
X199054819Y-102833333D01*
X198007200Y-103071428D02*
X198721485Y-103309523D01*
X198721485Y-103309523D02*
X198721485Y-102690476D01*
X169308095Y-57354819D02*
X169308095Y-58164342D01*
X169308095Y-58164342D02*
X169355714Y-58259580D01*
X169355714Y-58259580D02*
X169403333Y-58307200D01*
X169403333Y-58307200D02*
X169498571Y-58354819D01*
X169498571Y-58354819D02*
X169689047Y-58354819D01*
X169689047Y-58354819D02*
X169784285Y-58307200D01*
X169784285Y-58307200D02*
X169831904Y-58259580D01*
X169831904Y-58259580D02*
X169879523Y-58164342D01*
X169879523Y-58164342D02*
X169879523Y-57354819D01*
X170831904Y-57354819D02*
X170355714Y-57354819D01*
X170355714Y-57354819D02*
X170308095Y-57831009D01*
X170308095Y-57831009D02*
X170355714Y-57783390D01*
X170355714Y-57783390D02*
X170450952Y-57735771D01*
X170450952Y-57735771D02*
X170689047Y-57735771D01*
X170689047Y-57735771D02*
X170784285Y-57783390D01*
X170784285Y-57783390D02*
X170831904Y-57831009D01*
X170831904Y-57831009D02*
X170879523Y-57926247D01*
X170879523Y-57926247D02*
X170879523Y-58164342D01*
X170879523Y-58164342D02*
X170831904Y-58259580D01*
X170831904Y-58259580D02*
X170784285Y-58307200D01*
X170784285Y-58307200D02*
X170689047Y-58354819D01*
X170689047Y-58354819D02*
X170450952Y-58354819D01*
X170450952Y-58354819D02*
X170355714Y-58307200D01*
X170355714Y-58307200D02*
X170308095Y-58259580D01*
X186804819Y-99066666D02*
X186804819Y-99542856D01*
X186804819Y-99542856D02*
X185804819Y-99542856D01*
X186804819Y-98209523D02*
X186804819Y-98780951D01*
X186804819Y-98495237D02*
X185804819Y-98495237D01*
X185804819Y-98495237D02*
X185947676Y-98590475D01*
X185947676Y-98590475D02*
X186042914Y-98685713D01*
X186042914Y-98685713D02*
X186090533Y-98780951D01*
X195934580Y-104605357D02*
X195982200Y-104652976D01*
X195982200Y-104652976D02*
X196029819Y-104795833D01*
X196029819Y-104795833D02*
X196029819Y-104891071D01*
X196029819Y-104891071D02*
X195982200Y-105033928D01*
X195982200Y-105033928D02*
X195886961Y-105129166D01*
X195886961Y-105129166D02*
X195791723Y-105176785D01*
X195791723Y-105176785D02*
X195601247Y-105224404D01*
X195601247Y-105224404D02*
X195458390Y-105224404D01*
X195458390Y-105224404D02*
X195267914Y-105176785D01*
X195267914Y-105176785D02*
X195172676Y-105129166D01*
X195172676Y-105129166D02*
X195077438Y-105033928D01*
X195077438Y-105033928D02*
X195029819Y-104891071D01*
X195029819Y-104891071D02*
X195029819Y-104795833D01*
X195029819Y-104795833D02*
X195077438Y-104652976D01*
X195077438Y-104652976D02*
X195125057Y-104605357D01*
X196029819Y-103652976D02*
X196029819Y-104224404D01*
X196029819Y-103938690D02*
X195029819Y-103938690D01*
X195029819Y-103938690D02*
X195172676Y-104033928D01*
X195172676Y-104033928D02*
X195267914Y-104129166D01*
X195267914Y-104129166D02*
X195315533Y-104224404D01*
X195125057Y-103272023D02*
X195077438Y-103224404D01*
X195077438Y-103224404D02*
X195029819Y-103129166D01*
X195029819Y-103129166D02*
X195029819Y-102891071D01*
X195029819Y-102891071D02*
X195077438Y-102795833D01*
X195077438Y-102795833D02*
X195125057Y-102748214D01*
X195125057Y-102748214D02*
X195220295Y-102700595D01*
X195220295Y-102700595D02*
X195315533Y-102700595D01*
X195315533Y-102700595D02*
X195458390Y-102748214D01*
X195458390Y-102748214D02*
X196029819Y-103319642D01*
X196029819Y-103319642D02*
X196029819Y-102700595D01*
X166263095Y-102454819D02*
X166263095Y-103264342D01*
X166263095Y-103264342D02*
X166310714Y-103359580D01*
X166310714Y-103359580D02*
X166358333Y-103407200D01*
X166358333Y-103407200D02*
X166453571Y-103454819D01*
X166453571Y-103454819D02*
X166644047Y-103454819D01*
X166644047Y-103454819D02*
X166739285Y-103407200D01*
X166739285Y-103407200D02*
X166786904Y-103359580D01*
X166786904Y-103359580D02*
X166834523Y-103264342D01*
X166834523Y-103264342D02*
X166834523Y-102454819D01*
X167739285Y-102788152D02*
X167739285Y-103454819D01*
X167501190Y-102407200D02*
X167263095Y-103121485D01*
X167263095Y-103121485D02*
X167882142Y-103121485D01*
X153066667Y-73107200D02*
X153209524Y-73154819D01*
X153209524Y-73154819D02*
X153447619Y-73154819D01*
X153447619Y-73154819D02*
X153542857Y-73107200D01*
X153542857Y-73107200D02*
X153590476Y-73059580D01*
X153590476Y-73059580D02*
X153638095Y-72964342D01*
X153638095Y-72964342D02*
X153638095Y-72869104D01*
X153638095Y-72869104D02*
X153590476Y-72773866D01*
X153590476Y-72773866D02*
X153542857Y-72726247D01*
X153542857Y-72726247D02*
X153447619Y-72678628D01*
X153447619Y-72678628D02*
X153257143Y-72631009D01*
X153257143Y-72631009D02*
X153161905Y-72583390D01*
X153161905Y-72583390D02*
X153114286Y-72535771D01*
X153114286Y-72535771D02*
X153066667Y-72440533D01*
X153066667Y-72440533D02*
X153066667Y-72345295D01*
X153066667Y-72345295D02*
X153114286Y-72250057D01*
X153114286Y-72250057D02*
X153161905Y-72202438D01*
X153161905Y-72202438D02*
X153257143Y-72154819D01*
X153257143Y-72154819D02*
X153495238Y-72154819D01*
X153495238Y-72154819D02*
X153638095Y-72202438D01*
X153971429Y-72154819D02*
X154209524Y-73154819D01*
X154209524Y-73154819D02*
X154400000Y-72440533D01*
X154400000Y-72440533D02*
X154590476Y-73154819D01*
X154590476Y-73154819D02*
X154828572Y-72154819D01*
X155638095Y-72488152D02*
X155638095Y-73154819D01*
X155400000Y-72107200D02*
X155161905Y-72821485D01*
X155161905Y-72821485D02*
X155780952Y-72821485D01*
X194957142Y-106459580D02*
X194909523Y-106507200D01*
X194909523Y-106507200D02*
X194766666Y-106554819D01*
X194766666Y-106554819D02*
X194671428Y-106554819D01*
X194671428Y-106554819D02*
X194528571Y-106507200D01*
X194528571Y-106507200D02*
X194433333Y-106411961D01*
X194433333Y-106411961D02*
X194385714Y-106316723D01*
X194385714Y-106316723D02*
X194338095Y-106126247D01*
X194338095Y-106126247D02*
X194338095Y-105983390D01*
X194338095Y-105983390D02*
X194385714Y-105792914D01*
X194385714Y-105792914D02*
X194433333Y-105697676D01*
X194433333Y-105697676D02*
X194528571Y-105602438D01*
X194528571Y-105602438D02*
X194671428Y-105554819D01*
X194671428Y-105554819D02*
X194766666Y-105554819D01*
X194766666Y-105554819D02*
X194909523Y-105602438D01*
X194909523Y-105602438D02*
X194957142Y-105650057D01*
X195909523Y-106554819D02*
X195338095Y-106554819D01*
X195623809Y-106554819D02*
X195623809Y-105554819D01*
X195623809Y-105554819D02*
X195528571Y-105697676D01*
X195528571Y-105697676D02*
X195433333Y-105792914D01*
X195433333Y-105792914D02*
X195338095Y-105840533D01*
X196861904Y-106554819D02*
X196290476Y-106554819D01*
X196576190Y-106554819D02*
X196576190Y-105554819D01*
X196576190Y-105554819D02*
X196480952Y-105697676D01*
X196480952Y-105697676D02*
X196385714Y-105792914D01*
X196385714Y-105792914D02*
X196290476Y-105840533D01*
X177866666Y-101354819D02*
X177866666Y-102069104D01*
X177866666Y-102069104D02*
X177819047Y-102211961D01*
X177819047Y-102211961D02*
X177723809Y-102307200D01*
X177723809Y-102307200D02*
X177580952Y-102354819D01*
X177580952Y-102354819D02*
X177485714Y-102354819D01*
X178866666Y-102354819D02*
X178295238Y-102354819D01*
X178580952Y-102354819D02*
X178580952Y-101354819D01*
X178580952Y-101354819D02*
X178485714Y-101497676D01*
X178485714Y-101497676D02*
X178390476Y-101592914D01*
X178390476Y-101592914D02*
X178295238Y-101640533D01*
X171154819Y-101442857D02*
X170678628Y-101776190D01*
X171154819Y-102014285D02*
X170154819Y-102014285D01*
X170154819Y-102014285D02*
X170154819Y-101633333D01*
X170154819Y-101633333D02*
X170202438Y-101538095D01*
X170202438Y-101538095D02*
X170250057Y-101490476D01*
X170250057Y-101490476D02*
X170345295Y-101442857D01*
X170345295Y-101442857D02*
X170488152Y-101442857D01*
X170488152Y-101442857D02*
X170583390Y-101490476D01*
X170583390Y-101490476D02*
X170631009Y-101538095D01*
X170631009Y-101538095D02*
X170678628Y-101633333D01*
X170678628Y-101633333D02*
X170678628Y-102014285D01*
X171154819Y-100490476D02*
X171154819Y-101061904D01*
X171154819Y-100776190D02*
X170154819Y-100776190D01*
X170154819Y-100776190D02*
X170297676Y-100871428D01*
X170297676Y-100871428D02*
X170392914Y-100966666D01*
X170392914Y-100966666D02*
X170440533Y-101061904D01*
X170154819Y-100157142D02*
X170154819Y-99538095D01*
X170154819Y-99538095D02*
X170535771Y-99871428D01*
X170535771Y-99871428D02*
X170535771Y-99728571D01*
X170535771Y-99728571D02*
X170583390Y-99633333D01*
X170583390Y-99633333D02*
X170631009Y-99585714D01*
X170631009Y-99585714D02*
X170726247Y-99538095D01*
X170726247Y-99538095D02*
X170964342Y-99538095D01*
X170964342Y-99538095D02*
X171059580Y-99585714D01*
X171059580Y-99585714D02*
X171107200Y-99633333D01*
X171107200Y-99633333D02*
X171154819Y-99728571D01*
X171154819Y-99728571D02*
X171154819Y-100014285D01*
X171154819Y-100014285D02*
X171107200Y-100109523D01*
X171107200Y-100109523D02*
X171059580Y-100157142D01*
X178538095Y-84854819D02*
X178538095Y-85664342D01*
X178538095Y-85664342D02*
X178585714Y-85759580D01*
X178585714Y-85759580D02*
X178633333Y-85807200D01*
X178633333Y-85807200D02*
X178728571Y-85854819D01*
X178728571Y-85854819D02*
X178919047Y-85854819D01*
X178919047Y-85854819D02*
X179014285Y-85807200D01*
X179014285Y-85807200D02*
X179061904Y-85759580D01*
X179061904Y-85759580D02*
X179109523Y-85664342D01*
X179109523Y-85664342D02*
X179109523Y-84854819D01*
X180109523Y-85854819D02*
X179538095Y-85854819D01*
X179823809Y-85854819D02*
X179823809Y-84854819D01*
X179823809Y-84854819D02*
X179728571Y-84997676D01*
X179728571Y-84997676D02*
X179633333Y-85092914D01*
X179633333Y-85092914D02*
X179538095Y-85140533D01*
X158659580Y-61766666D02*
X158707200Y-61814285D01*
X158707200Y-61814285D02*
X158754819Y-61957142D01*
X158754819Y-61957142D02*
X158754819Y-62052380D01*
X158754819Y-62052380D02*
X158707200Y-62195237D01*
X158707200Y-62195237D02*
X158611961Y-62290475D01*
X158611961Y-62290475D02*
X158516723Y-62338094D01*
X158516723Y-62338094D02*
X158326247Y-62385713D01*
X158326247Y-62385713D02*
X158183390Y-62385713D01*
X158183390Y-62385713D02*
X157992914Y-62338094D01*
X157992914Y-62338094D02*
X157897676Y-62290475D01*
X157897676Y-62290475D02*
X157802438Y-62195237D01*
X157802438Y-62195237D02*
X157754819Y-62052380D01*
X157754819Y-62052380D02*
X157754819Y-61957142D01*
X157754819Y-61957142D02*
X157802438Y-61814285D01*
X157802438Y-61814285D02*
X157850057Y-61766666D01*
X158088152Y-60909523D02*
X158754819Y-60909523D01*
X157707200Y-61147618D02*
X158421485Y-61385713D01*
X158421485Y-61385713D02*
X158421485Y-60766666D01*
X153659580Y-62766666D02*
X153707200Y-62814285D01*
X153707200Y-62814285D02*
X153754819Y-62957142D01*
X153754819Y-62957142D02*
X153754819Y-63052380D01*
X153754819Y-63052380D02*
X153707200Y-63195237D01*
X153707200Y-63195237D02*
X153611961Y-63290475D01*
X153611961Y-63290475D02*
X153516723Y-63338094D01*
X153516723Y-63338094D02*
X153326247Y-63385713D01*
X153326247Y-63385713D02*
X153183390Y-63385713D01*
X153183390Y-63385713D02*
X152992914Y-63338094D01*
X152992914Y-63338094D02*
X152897676Y-63290475D01*
X152897676Y-63290475D02*
X152802438Y-63195237D01*
X152802438Y-63195237D02*
X152754819Y-63052380D01*
X152754819Y-63052380D02*
X152754819Y-62957142D01*
X152754819Y-62957142D02*
X152802438Y-62814285D01*
X152802438Y-62814285D02*
X152850057Y-62766666D01*
X152754819Y-62433332D02*
X152754819Y-61766666D01*
X152754819Y-61766666D02*
X153754819Y-62195237D01*
X189238095Y-72154819D02*
X189238095Y-72964342D01*
X189238095Y-72964342D02*
X189285714Y-73059580D01*
X189285714Y-73059580D02*
X189333333Y-73107200D01*
X189333333Y-73107200D02*
X189428571Y-73154819D01*
X189428571Y-73154819D02*
X189619047Y-73154819D01*
X189619047Y-73154819D02*
X189714285Y-73107200D01*
X189714285Y-73107200D02*
X189761904Y-73059580D01*
X189761904Y-73059580D02*
X189809523Y-72964342D01*
X189809523Y-72964342D02*
X189809523Y-72154819D01*
X190238095Y-72250057D02*
X190285714Y-72202438D01*
X190285714Y-72202438D02*
X190380952Y-72154819D01*
X190380952Y-72154819D02*
X190619047Y-72154819D01*
X190619047Y-72154819D02*
X190714285Y-72202438D01*
X190714285Y-72202438D02*
X190761904Y-72250057D01*
X190761904Y-72250057D02*
X190809523Y-72345295D01*
X190809523Y-72345295D02*
X190809523Y-72440533D01*
X190809523Y-72440533D02*
X190761904Y-72583390D01*
X190761904Y-72583390D02*
X190190476Y-73154819D01*
X190190476Y-73154819D02*
X190809523Y-73154819D01*
X188133333Y-95759580D02*
X188085714Y-95807200D01*
X188085714Y-95807200D02*
X187942857Y-95854819D01*
X187942857Y-95854819D02*
X187847619Y-95854819D01*
X187847619Y-95854819D02*
X187704762Y-95807200D01*
X187704762Y-95807200D02*
X187609524Y-95711961D01*
X187609524Y-95711961D02*
X187561905Y-95616723D01*
X187561905Y-95616723D02*
X187514286Y-95426247D01*
X187514286Y-95426247D02*
X187514286Y-95283390D01*
X187514286Y-95283390D02*
X187561905Y-95092914D01*
X187561905Y-95092914D02*
X187609524Y-94997676D01*
X187609524Y-94997676D02*
X187704762Y-94902438D01*
X187704762Y-94902438D02*
X187847619Y-94854819D01*
X187847619Y-94854819D02*
X187942857Y-94854819D01*
X187942857Y-94854819D02*
X188085714Y-94902438D01*
X188085714Y-94902438D02*
X188133333Y-94950057D01*
X188609524Y-95854819D02*
X188800000Y-95854819D01*
X188800000Y-95854819D02*
X188895238Y-95807200D01*
X188895238Y-95807200D02*
X188942857Y-95759580D01*
X188942857Y-95759580D02*
X189038095Y-95616723D01*
X189038095Y-95616723D02*
X189085714Y-95426247D01*
X189085714Y-95426247D02*
X189085714Y-95045295D01*
X189085714Y-95045295D02*
X189038095Y-94950057D01*
X189038095Y-94950057D02*
X188990476Y-94902438D01*
X188990476Y-94902438D02*
X188895238Y-94854819D01*
X188895238Y-94854819D02*
X188704762Y-94854819D01*
X188704762Y-94854819D02*
X188609524Y-94902438D01*
X188609524Y-94902438D02*
X188561905Y-94950057D01*
X188561905Y-94950057D02*
X188514286Y-95045295D01*
X188514286Y-95045295D02*
X188514286Y-95283390D01*
X188514286Y-95283390D02*
X188561905Y-95378628D01*
X188561905Y-95378628D02*
X188609524Y-95426247D01*
X188609524Y-95426247D02*
X188704762Y-95473866D01*
X188704762Y-95473866D02*
X188895238Y-95473866D01*
X188895238Y-95473866D02*
X188990476Y-95426247D01*
X188990476Y-95426247D02*
X189038095Y-95378628D01*
X189038095Y-95378628D02*
X189085714Y-95283390D01*
X162132142Y-98639819D02*
X161798809Y-98163628D01*
X161560714Y-98639819D02*
X161560714Y-97639819D01*
X161560714Y-97639819D02*
X161941666Y-97639819D01*
X161941666Y-97639819D02*
X162036904Y-97687438D01*
X162036904Y-97687438D02*
X162084523Y-97735057D01*
X162084523Y-97735057D02*
X162132142Y-97830295D01*
X162132142Y-97830295D02*
X162132142Y-97973152D01*
X162132142Y-97973152D02*
X162084523Y-98068390D01*
X162084523Y-98068390D02*
X162036904Y-98116009D01*
X162036904Y-98116009D02*
X161941666Y-98163628D01*
X161941666Y-98163628D02*
X161560714Y-98163628D01*
X163084523Y-98639819D02*
X162513095Y-98639819D01*
X162798809Y-98639819D02*
X162798809Y-97639819D01*
X162798809Y-97639819D02*
X162703571Y-97782676D01*
X162703571Y-97782676D02*
X162608333Y-97877914D01*
X162608333Y-97877914D02*
X162513095Y-97925533D01*
X163703571Y-97639819D02*
X163798809Y-97639819D01*
X163798809Y-97639819D02*
X163894047Y-97687438D01*
X163894047Y-97687438D02*
X163941666Y-97735057D01*
X163941666Y-97735057D02*
X163989285Y-97830295D01*
X163989285Y-97830295D02*
X164036904Y-98020771D01*
X164036904Y-98020771D02*
X164036904Y-98258866D01*
X164036904Y-98258866D02*
X163989285Y-98449342D01*
X163989285Y-98449342D02*
X163941666Y-98544580D01*
X163941666Y-98544580D02*
X163894047Y-98592200D01*
X163894047Y-98592200D02*
X163798809Y-98639819D01*
X163798809Y-98639819D02*
X163703571Y-98639819D01*
X163703571Y-98639819D02*
X163608333Y-98592200D01*
X163608333Y-98592200D02*
X163560714Y-98544580D01*
X163560714Y-98544580D02*
X163513095Y-98449342D01*
X163513095Y-98449342D02*
X163465476Y-98258866D01*
X163465476Y-98258866D02*
X163465476Y-98020771D01*
X163465476Y-98020771D02*
X163513095Y-97830295D01*
X163513095Y-97830295D02*
X163560714Y-97735057D01*
X163560714Y-97735057D02*
X163608333Y-97687438D01*
X163608333Y-97687438D02*
X163703571Y-97639819D01*
X182333333Y-103619580D02*
X182285714Y-103667200D01*
X182285714Y-103667200D02*
X182142857Y-103714819D01*
X182142857Y-103714819D02*
X182047619Y-103714819D01*
X182047619Y-103714819D02*
X181904762Y-103667200D01*
X181904762Y-103667200D02*
X181809524Y-103571961D01*
X181809524Y-103571961D02*
X181761905Y-103476723D01*
X181761905Y-103476723D02*
X181714286Y-103286247D01*
X181714286Y-103286247D02*
X181714286Y-103143390D01*
X181714286Y-103143390D02*
X181761905Y-102952914D01*
X181761905Y-102952914D02*
X181809524Y-102857676D01*
X181809524Y-102857676D02*
X181904762Y-102762438D01*
X181904762Y-102762438D02*
X182047619Y-102714819D01*
X182047619Y-102714819D02*
X182142857Y-102714819D01*
X182142857Y-102714819D02*
X182285714Y-102762438D01*
X182285714Y-102762438D02*
X182333333Y-102810057D01*
X182904762Y-103143390D02*
X182809524Y-103095771D01*
X182809524Y-103095771D02*
X182761905Y-103048152D01*
X182761905Y-103048152D02*
X182714286Y-102952914D01*
X182714286Y-102952914D02*
X182714286Y-102905295D01*
X182714286Y-102905295D02*
X182761905Y-102810057D01*
X182761905Y-102810057D02*
X182809524Y-102762438D01*
X182809524Y-102762438D02*
X182904762Y-102714819D01*
X182904762Y-102714819D02*
X183095238Y-102714819D01*
X183095238Y-102714819D02*
X183190476Y-102762438D01*
X183190476Y-102762438D02*
X183238095Y-102810057D01*
X183238095Y-102810057D02*
X183285714Y-102905295D01*
X183285714Y-102905295D02*
X183285714Y-102952914D01*
X183285714Y-102952914D02*
X183238095Y-103048152D01*
X183238095Y-103048152D02*
X183190476Y-103095771D01*
X183190476Y-103095771D02*
X183095238Y-103143390D01*
X183095238Y-103143390D02*
X182904762Y-103143390D01*
X182904762Y-103143390D02*
X182809524Y-103191009D01*
X182809524Y-103191009D02*
X182761905Y-103238628D01*
X182761905Y-103238628D02*
X182714286Y-103333866D01*
X182714286Y-103333866D02*
X182714286Y-103524342D01*
X182714286Y-103524342D02*
X182761905Y-103619580D01*
X182761905Y-103619580D02*
X182809524Y-103667200D01*
X182809524Y-103667200D02*
X182904762Y-103714819D01*
X182904762Y-103714819D02*
X183095238Y-103714819D01*
X183095238Y-103714819D02*
X183190476Y-103667200D01*
X183190476Y-103667200D02*
X183238095Y-103619580D01*
X183238095Y-103619580D02*
X183285714Y-103524342D01*
X183285714Y-103524342D02*
X183285714Y-103333866D01*
X183285714Y-103333866D02*
X183238095Y-103238628D01*
X183238095Y-103238628D02*
X183190476Y-103191009D01*
X183190476Y-103191009D02*
X183095238Y-103143390D01*
X181554819Y-106162857D02*
X181078628Y-106496190D01*
X181554819Y-106734285D02*
X180554819Y-106734285D01*
X180554819Y-106734285D02*
X180554819Y-106353333D01*
X180554819Y-106353333D02*
X180602438Y-106258095D01*
X180602438Y-106258095D02*
X180650057Y-106210476D01*
X180650057Y-106210476D02*
X180745295Y-106162857D01*
X180745295Y-106162857D02*
X180888152Y-106162857D01*
X180888152Y-106162857D02*
X180983390Y-106210476D01*
X180983390Y-106210476D02*
X181031009Y-106258095D01*
X181031009Y-106258095D02*
X181078628Y-106353333D01*
X181078628Y-106353333D02*
X181078628Y-106734285D01*
X181554819Y-105210476D02*
X181554819Y-105781904D01*
X181554819Y-105496190D02*
X180554819Y-105496190D01*
X180554819Y-105496190D02*
X180697676Y-105591428D01*
X180697676Y-105591428D02*
X180792914Y-105686666D01*
X180792914Y-105686666D02*
X180840533Y-105781904D01*
X180888152Y-104353333D02*
X181554819Y-104353333D01*
X180507200Y-104591428D02*
X181221485Y-104829523D01*
X181221485Y-104829523D02*
X181221485Y-104210476D01*
X171754819Y-96066666D02*
X171278628Y-96399999D01*
X171754819Y-96638094D02*
X170754819Y-96638094D01*
X170754819Y-96638094D02*
X170754819Y-96257142D01*
X170754819Y-96257142D02*
X170802438Y-96161904D01*
X170802438Y-96161904D02*
X170850057Y-96114285D01*
X170850057Y-96114285D02*
X170945295Y-96066666D01*
X170945295Y-96066666D02*
X171088152Y-96066666D01*
X171088152Y-96066666D02*
X171183390Y-96114285D01*
X171183390Y-96114285D02*
X171231009Y-96161904D01*
X171231009Y-96161904D02*
X171278628Y-96257142D01*
X171278628Y-96257142D02*
X171278628Y-96638094D01*
X170754819Y-95209523D02*
X170754819Y-95399999D01*
X170754819Y-95399999D02*
X170802438Y-95495237D01*
X170802438Y-95495237D02*
X170850057Y-95542856D01*
X170850057Y-95542856D02*
X170992914Y-95638094D01*
X170992914Y-95638094D02*
X171183390Y-95685713D01*
X171183390Y-95685713D02*
X171564342Y-95685713D01*
X171564342Y-95685713D02*
X171659580Y-95638094D01*
X171659580Y-95638094D02*
X171707200Y-95590475D01*
X171707200Y-95590475D02*
X171754819Y-95495237D01*
X171754819Y-95495237D02*
X171754819Y-95304761D01*
X171754819Y-95304761D02*
X171707200Y-95209523D01*
X171707200Y-95209523D02*
X171659580Y-95161904D01*
X171659580Y-95161904D02*
X171564342Y-95114285D01*
X171564342Y-95114285D02*
X171326247Y-95114285D01*
X171326247Y-95114285D02*
X171231009Y-95161904D01*
X171231009Y-95161904D02*
X171183390Y-95209523D01*
X171183390Y-95209523D02*
X171135771Y-95304761D01*
X171135771Y-95304761D02*
X171135771Y-95495237D01*
X171135771Y-95495237D02*
X171183390Y-95590475D01*
X171183390Y-95590475D02*
X171231009Y-95638094D01*
X171231009Y-95638094D02*
X171326247Y-95685713D01*
X218233333Y-69859580D02*
X218185714Y-69907200D01*
X218185714Y-69907200D02*
X218042857Y-69954819D01*
X218042857Y-69954819D02*
X217947619Y-69954819D01*
X217947619Y-69954819D02*
X217804762Y-69907200D01*
X217804762Y-69907200D02*
X217709524Y-69811961D01*
X217709524Y-69811961D02*
X217661905Y-69716723D01*
X217661905Y-69716723D02*
X217614286Y-69526247D01*
X217614286Y-69526247D02*
X217614286Y-69383390D01*
X217614286Y-69383390D02*
X217661905Y-69192914D01*
X217661905Y-69192914D02*
X217709524Y-69097676D01*
X217709524Y-69097676D02*
X217804762Y-69002438D01*
X217804762Y-69002438D02*
X217947619Y-68954819D01*
X217947619Y-68954819D02*
X218042857Y-68954819D01*
X218042857Y-68954819D02*
X218185714Y-69002438D01*
X218185714Y-69002438D02*
X218233333Y-69050057D01*
X219185714Y-69954819D02*
X218614286Y-69954819D01*
X218900000Y-69954819D02*
X218900000Y-68954819D01*
X218900000Y-68954819D02*
X218804762Y-69097676D01*
X218804762Y-69097676D02*
X218709524Y-69192914D01*
X218709524Y-69192914D02*
X218614286Y-69240533D01*
X170999819Y-93253094D02*
X169999819Y-93253094D01*
X169999819Y-93253094D02*
X169999819Y-93014999D01*
X169999819Y-93014999D02*
X170047438Y-92872142D01*
X170047438Y-92872142D02*
X170142676Y-92776904D01*
X170142676Y-92776904D02*
X170237914Y-92729285D01*
X170237914Y-92729285D02*
X170428390Y-92681666D01*
X170428390Y-92681666D02*
X170571247Y-92681666D01*
X170571247Y-92681666D02*
X170761723Y-92729285D01*
X170761723Y-92729285D02*
X170856961Y-92776904D01*
X170856961Y-92776904D02*
X170952200Y-92872142D01*
X170952200Y-92872142D02*
X170999819Y-93014999D01*
X170999819Y-93014999D02*
X170999819Y-93253094D01*
X169999819Y-92348332D02*
X169999819Y-91729285D01*
X169999819Y-91729285D02*
X170380771Y-92062618D01*
X170380771Y-92062618D02*
X170380771Y-91919761D01*
X170380771Y-91919761D02*
X170428390Y-91824523D01*
X170428390Y-91824523D02*
X170476009Y-91776904D01*
X170476009Y-91776904D02*
X170571247Y-91729285D01*
X170571247Y-91729285D02*
X170809342Y-91729285D01*
X170809342Y-91729285D02*
X170904580Y-91776904D01*
X170904580Y-91776904D02*
X170952200Y-91824523D01*
X170952200Y-91824523D02*
X170999819Y-91919761D01*
X170999819Y-91919761D02*
X170999819Y-92205475D01*
X170999819Y-92205475D02*
X170952200Y-92300713D01*
X170952200Y-92300713D02*
X170904580Y-92348332D01*
X155859580Y-62766666D02*
X155907200Y-62814285D01*
X155907200Y-62814285D02*
X155954819Y-62957142D01*
X155954819Y-62957142D02*
X155954819Y-63052380D01*
X155954819Y-63052380D02*
X155907200Y-63195237D01*
X155907200Y-63195237D02*
X155811961Y-63290475D01*
X155811961Y-63290475D02*
X155716723Y-63338094D01*
X155716723Y-63338094D02*
X155526247Y-63385713D01*
X155526247Y-63385713D02*
X155383390Y-63385713D01*
X155383390Y-63385713D02*
X155192914Y-63338094D01*
X155192914Y-63338094D02*
X155097676Y-63290475D01*
X155097676Y-63290475D02*
X155002438Y-63195237D01*
X155002438Y-63195237D02*
X154954819Y-63052380D01*
X154954819Y-63052380D02*
X154954819Y-62957142D01*
X154954819Y-62957142D02*
X155002438Y-62814285D01*
X155002438Y-62814285D02*
X155050057Y-62766666D01*
X154954819Y-61861904D02*
X154954819Y-62338094D01*
X154954819Y-62338094D02*
X155431009Y-62385713D01*
X155431009Y-62385713D02*
X155383390Y-62338094D01*
X155383390Y-62338094D02*
X155335771Y-62242856D01*
X155335771Y-62242856D02*
X155335771Y-62004761D01*
X155335771Y-62004761D02*
X155383390Y-61909523D01*
X155383390Y-61909523D02*
X155431009Y-61861904D01*
X155431009Y-61861904D02*
X155526247Y-61814285D01*
X155526247Y-61814285D02*
X155764342Y-61814285D01*
X155764342Y-61814285D02*
X155859580Y-61861904D01*
X155859580Y-61861904D02*
X155907200Y-61909523D01*
X155907200Y-61909523D02*
X155954819Y-62004761D01*
X155954819Y-62004761D02*
X155954819Y-62242856D01*
X155954819Y-62242856D02*
X155907200Y-62338094D01*
X155907200Y-62338094D02*
X155859580Y-62385713D01*
X188157142Y-94259580D02*
X188109523Y-94307200D01*
X188109523Y-94307200D02*
X187966666Y-94354819D01*
X187966666Y-94354819D02*
X187871428Y-94354819D01*
X187871428Y-94354819D02*
X187728571Y-94307200D01*
X187728571Y-94307200D02*
X187633333Y-94211961D01*
X187633333Y-94211961D02*
X187585714Y-94116723D01*
X187585714Y-94116723D02*
X187538095Y-93926247D01*
X187538095Y-93926247D02*
X187538095Y-93783390D01*
X187538095Y-93783390D02*
X187585714Y-93592914D01*
X187585714Y-93592914D02*
X187633333Y-93497676D01*
X187633333Y-93497676D02*
X187728571Y-93402438D01*
X187728571Y-93402438D02*
X187871428Y-93354819D01*
X187871428Y-93354819D02*
X187966666Y-93354819D01*
X187966666Y-93354819D02*
X188109523Y-93402438D01*
X188109523Y-93402438D02*
X188157142Y-93450057D01*
X189109523Y-94354819D02*
X188538095Y-94354819D01*
X188823809Y-94354819D02*
X188823809Y-93354819D01*
X188823809Y-93354819D02*
X188728571Y-93497676D01*
X188728571Y-93497676D02*
X188633333Y-93592914D01*
X188633333Y-93592914D02*
X188538095Y-93640533D01*
X189728571Y-93354819D02*
X189823809Y-93354819D01*
X189823809Y-93354819D02*
X189919047Y-93402438D01*
X189919047Y-93402438D02*
X189966666Y-93450057D01*
X189966666Y-93450057D02*
X190014285Y-93545295D01*
X190014285Y-93545295D02*
X190061904Y-93735771D01*
X190061904Y-93735771D02*
X190061904Y-93973866D01*
X190061904Y-93973866D02*
X190014285Y-94164342D01*
X190014285Y-94164342D02*
X189966666Y-94259580D01*
X189966666Y-94259580D02*
X189919047Y-94307200D01*
X189919047Y-94307200D02*
X189823809Y-94354819D01*
X189823809Y-94354819D02*
X189728571Y-94354819D01*
X189728571Y-94354819D02*
X189633333Y-94307200D01*
X189633333Y-94307200D02*
X189585714Y-94259580D01*
X189585714Y-94259580D02*
X189538095Y-94164342D01*
X189538095Y-94164342D02*
X189490476Y-93973866D01*
X189490476Y-93973866D02*
X189490476Y-93735771D01*
X189490476Y-93735771D02*
X189538095Y-93545295D01*
X189538095Y-93545295D02*
X189585714Y-93450057D01*
X189585714Y-93450057D02*
X189633333Y-93402438D01*
X189633333Y-93402438D02*
X189728571Y-93354819D01*
X166054819Y-96066666D02*
X165578628Y-96399999D01*
X166054819Y-96638094D02*
X165054819Y-96638094D01*
X165054819Y-96638094D02*
X165054819Y-96257142D01*
X165054819Y-96257142D02*
X165102438Y-96161904D01*
X165102438Y-96161904D02*
X165150057Y-96114285D01*
X165150057Y-96114285D02*
X165245295Y-96066666D01*
X165245295Y-96066666D02*
X165388152Y-96066666D01*
X165388152Y-96066666D02*
X165483390Y-96114285D01*
X165483390Y-96114285D02*
X165531009Y-96161904D01*
X165531009Y-96161904D02*
X165578628Y-96257142D01*
X165578628Y-96257142D02*
X165578628Y-96638094D01*
X165483390Y-95495237D02*
X165435771Y-95590475D01*
X165435771Y-95590475D02*
X165388152Y-95638094D01*
X165388152Y-95638094D02*
X165292914Y-95685713D01*
X165292914Y-95685713D02*
X165245295Y-95685713D01*
X165245295Y-95685713D02*
X165150057Y-95638094D01*
X165150057Y-95638094D02*
X165102438Y-95590475D01*
X165102438Y-95590475D02*
X165054819Y-95495237D01*
X165054819Y-95495237D02*
X165054819Y-95304761D01*
X165054819Y-95304761D02*
X165102438Y-95209523D01*
X165102438Y-95209523D02*
X165150057Y-95161904D01*
X165150057Y-95161904D02*
X165245295Y-95114285D01*
X165245295Y-95114285D02*
X165292914Y-95114285D01*
X165292914Y-95114285D02*
X165388152Y-95161904D01*
X165388152Y-95161904D02*
X165435771Y-95209523D01*
X165435771Y-95209523D02*
X165483390Y-95304761D01*
X165483390Y-95304761D02*
X165483390Y-95495237D01*
X165483390Y-95495237D02*
X165531009Y-95590475D01*
X165531009Y-95590475D02*
X165578628Y-95638094D01*
X165578628Y-95638094D02*
X165673866Y-95685713D01*
X165673866Y-95685713D02*
X165864342Y-95685713D01*
X165864342Y-95685713D02*
X165959580Y-95638094D01*
X165959580Y-95638094D02*
X166007200Y-95590475D01*
X166007200Y-95590475D02*
X166054819Y-95495237D01*
X166054819Y-95495237D02*
X166054819Y-95304761D01*
X166054819Y-95304761D02*
X166007200Y-95209523D01*
X166007200Y-95209523D02*
X165959580Y-95161904D01*
X165959580Y-95161904D02*
X165864342Y-95114285D01*
X165864342Y-95114285D02*
X165673866Y-95114285D01*
X165673866Y-95114285D02*
X165578628Y-95161904D01*
X165578628Y-95161904D02*
X165531009Y-95209523D01*
X165531009Y-95209523D02*
X165483390Y-95304761D01*
X202054819Y-104692857D02*
X201578628Y-105026190D01*
X202054819Y-105264285D02*
X201054819Y-105264285D01*
X201054819Y-105264285D02*
X201054819Y-104883333D01*
X201054819Y-104883333D02*
X201102438Y-104788095D01*
X201102438Y-104788095D02*
X201150057Y-104740476D01*
X201150057Y-104740476D02*
X201245295Y-104692857D01*
X201245295Y-104692857D02*
X201388152Y-104692857D01*
X201388152Y-104692857D02*
X201483390Y-104740476D01*
X201483390Y-104740476D02*
X201531009Y-104788095D01*
X201531009Y-104788095D02*
X201578628Y-104883333D01*
X201578628Y-104883333D02*
X201578628Y-105264285D01*
X202054819Y-103740476D02*
X202054819Y-104311904D01*
X202054819Y-104026190D02*
X201054819Y-104026190D01*
X201054819Y-104026190D02*
X201197676Y-104121428D01*
X201197676Y-104121428D02*
X201292914Y-104216666D01*
X201292914Y-104216666D02*
X201340533Y-104311904D01*
X202054819Y-103264285D02*
X202054819Y-103073809D01*
X202054819Y-103073809D02*
X202007200Y-102978571D01*
X202007200Y-102978571D02*
X201959580Y-102930952D01*
X201959580Y-102930952D02*
X201816723Y-102835714D01*
X201816723Y-102835714D02*
X201626247Y-102788095D01*
X201626247Y-102788095D02*
X201245295Y-102788095D01*
X201245295Y-102788095D02*
X201150057Y-102835714D01*
X201150057Y-102835714D02*
X201102438Y-102883333D01*
X201102438Y-102883333D02*
X201054819Y-102978571D01*
X201054819Y-102978571D02*
X201054819Y-103169047D01*
X201054819Y-103169047D02*
X201102438Y-103264285D01*
X201102438Y-103264285D02*
X201150057Y-103311904D01*
X201150057Y-103311904D02*
X201245295Y-103359523D01*
X201245295Y-103359523D02*
X201483390Y-103359523D01*
X201483390Y-103359523D02*
X201578628Y-103311904D01*
X201578628Y-103311904D02*
X201626247Y-103264285D01*
X201626247Y-103264285D02*
X201673866Y-103169047D01*
X201673866Y-103169047D02*
X201673866Y-102978571D01*
X201673866Y-102978571D02*
X201626247Y-102883333D01*
X201626247Y-102883333D02*
X201578628Y-102835714D01*
X201578628Y-102835714D02*
X201483390Y-102788095D01*
X208466666Y-57154819D02*
X208466666Y-57869104D01*
X208466666Y-57869104D02*
X208419047Y-58011961D01*
X208419047Y-58011961D02*
X208323809Y-58107200D01*
X208323809Y-58107200D02*
X208180952Y-58154819D01*
X208180952Y-58154819D02*
X208085714Y-58154819D01*
X208847619Y-57154819D02*
X209466666Y-57154819D01*
X209466666Y-57154819D02*
X209133333Y-57535771D01*
X209133333Y-57535771D02*
X209276190Y-57535771D01*
X209276190Y-57535771D02*
X209371428Y-57583390D01*
X209371428Y-57583390D02*
X209419047Y-57631009D01*
X209419047Y-57631009D02*
X209466666Y-57726247D01*
X209466666Y-57726247D02*
X209466666Y-57964342D01*
X209466666Y-57964342D02*
X209419047Y-58059580D01*
X209419047Y-58059580D02*
X209371428Y-58107200D01*
X209371428Y-58107200D02*
X209276190Y-58154819D01*
X209276190Y-58154819D02*
X208990476Y-58154819D01*
X208990476Y-58154819D02*
X208895238Y-58107200D01*
X208895238Y-58107200D02*
X208847619Y-58059580D01*
X163533333Y-104289580D02*
X163485714Y-104337200D01*
X163485714Y-104337200D02*
X163342857Y-104384819D01*
X163342857Y-104384819D02*
X163247619Y-104384819D01*
X163247619Y-104384819D02*
X163104762Y-104337200D01*
X163104762Y-104337200D02*
X163009524Y-104241961D01*
X163009524Y-104241961D02*
X162961905Y-104146723D01*
X162961905Y-104146723D02*
X162914286Y-103956247D01*
X162914286Y-103956247D02*
X162914286Y-103813390D01*
X162914286Y-103813390D02*
X162961905Y-103622914D01*
X162961905Y-103622914D02*
X163009524Y-103527676D01*
X163009524Y-103527676D02*
X163104762Y-103432438D01*
X163104762Y-103432438D02*
X163247619Y-103384819D01*
X163247619Y-103384819D02*
X163342857Y-103384819D01*
X163342857Y-103384819D02*
X163485714Y-103432438D01*
X163485714Y-103432438D02*
X163533333Y-103480057D01*
X163866667Y-103384819D02*
X164485714Y-103384819D01*
X164485714Y-103384819D02*
X164152381Y-103765771D01*
X164152381Y-103765771D02*
X164295238Y-103765771D01*
X164295238Y-103765771D02*
X164390476Y-103813390D01*
X164390476Y-103813390D02*
X164438095Y-103861009D01*
X164438095Y-103861009D02*
X164485714Y-103956247D01*
X164485714Y-103956247D02*
X164485714Y-104194342D01*
X164485714Y-104194342D02*
X164438095Y-104289580D01*
X164438095Y-104289580D02*
X164390476Y-104337200D01*
X164390476Y-104337200D02*
X164295238Y-104384819D01*
X164295238Y-104384819D02*
X164009524Y-104384819D01*
X164009524Y-104384819D02*
X163914286Y-104337200D01*
X163914286Y-104337200D02*
X163866667Y-104289580D01*
X154057142Y-64654819D02*
X153723809Y-64178628D01*
X153485714Y-64654819D02*
X153485714Y-63654819D01*
X153485714Y-63654819D02*
X153866666Y-63654819D01*
X153866666Y-63654819D02*
X153961904Y-63702438D01*
X153961904Y-63702438D02*
X154009523Y-63750057D01*
X154009523Y-63750057D02*
X154057142Y-63845295D01*
X154057142Y-63845295D02*
X154057142Y-63988152D01*
X154057142Y-63988152D02*
X154009523Y-64083390D01*
X154009523Y-64083390D02*
X153961904Y-64131009D01*
X153961904Y-64131009D02*
X153866666Y-64178628D01*
X153866666Y-64178628D02*
X153485714Y-64178628D01*
X155009523Y-64654819D02*
X154438095Y-64654819D01*
X154723809Y-64654819D02*
X154723809Y-63654819D01*
X154723809Y-63654819D02*
X154628571Y-63797676D01*
X154628571Y-63797676D02*
X154533333Y-63892914D01*
X154533333Y-63892914D02*
X154438095Y-63940533D01*
X155580952Y-64083390D02*
X155485714Y-64035771D01*
X155485714Y-64035771D02*
X155438095Y-63988152D01*
X155438095Y-63988152D02*
X155390476Y-63892914D01*
X155390476Y-63892914D02*
X155390476Y-63845295D01*
X155390476Y-63845295D02*
X155438095Y-63750057D01*
X155438095Y-63750057D02*
X155485714Y-63702438D01*
X155485714Y-63702438D02*
X155580952Y-63654819D01*
X155580952Y-63654819D02*
X155771428Y-63654819D01*
X155771428Y-63654819D02*
X155866666Y-63702438D01*
X155866666Y-63702438D02*
X155914285Y-63750057D01*
X155914285Y-63750057D02*
X155961904Y-63845295D01*
X155961904Y-63845295D02*
X155961904Y-63892914D01*
X155961904Y-63892914D02*
X155914285Y-63988152D01*
X155914285Y-63988152D02*
X155866666Y-64035771D01*
X155866666Y-64035771D02*
X155771428Y-64083390D01*
X155771428Y-64083390D02*
X155580952Y-64083390D01*
X155580952Y-64083390D02*
X155485714Y-64131009D01*
X155485714Y-64131009D02*
X155438095Y-64178628D01*
X155438095Y-64178628D02*
X155390476Y-64273866D01*
X155390476Y-64273866D02*
X155390476Y-64464342D01*
X155390476Y-64464342D02*
X155438095Y-64559580D01*
X155438095Y-64559580D02*
X155485714Y-64607200D01*
X155485714Y-64607200D02*
X155580952Y-64654819D01*
X155580952Y-64654819D02*
X155771428Y-64654819D01*
X155771428Y-64654819D02*
X155866666Y-64607200D01*
X155866666Y-64607200D02*
X155914285Y-64559580D01*
X155914285Y-64559580D02*
X155961904Y-64464342D01*
X155961904Y-64464342D02*
X155961904Y-64273866D01*
X155961904Y-64273866D02*
X155914285Y-64178628D01*
X155914285Y-64178628D02*
X155866666Y-64131009D01*
X155866666Y-64131009D02*
X155771428Y-64083390D01*
X170554819Y-96066666D02*
X170078628Y-96399999D01*
X170554819Y-96638094D02*
X169554819Y-96638094D01*
X169554819Y-96638094D02*
X169554819Y-96257142D01*
X169554819Y-96257142D02*
X169602438Y-96161904D01*
X169602438Y-96161904D02*
X169650057Y-96114285D01*
X169650057Y-96114285D02*
X169745295Y-96066666D01*
X169745295Y-96066666D02*
X169888152Y-96066666D01*
X169888152Y-96066666D02*
X169983390Y-96114285D01*
X169983390Y-96114285D02*
X170031009Y-96161904D01*
X170031009Y-96161904D02*
X170078628Y-96257142D01*
X170078628Y-96257142D02*
X170078628Y-96638094D01*
X169554819Y-95733332D02*
X169554819Y-95066666D01*
X169554819Y-95066666D02*
X170554819Y-95495237D01*
X157254819Y-71342857D02*
X156778628Y-71676190D01*
X157254819Y-71914285D02*
X156254819Y-71914285D01*
X156254819Y-71914285D02*
X156254819Y-71533333D01*
X156254819Y-71533333D02*
X156302438Y-71438095D01*
X156302438Y-71438095D02*
X156350057Y-71390476D01*
X156350057Y-71390476D02*
X156445295Y-71342857D01*
X156445295Y-71342857D02*
X156588152Y-71342857D01*
X156588152Y-71342857D02*
X156683390Y-71390476D01*
X156683390Y-71390476D02*
X156731009Y-71438095D01*
X156731009Y-71438095D02*
X156778628Y-71533333D01*
X156778628Y-71533333D02*
X156778628Y-71914285D01*
X157254819Y-70390476D02*
X157254819Y-70961904D01*
X157254819Y-70676190D02*
X156254819Y-70676190D01*
X156254819Y-70676190D02*
X156397676Y-70771428D01*
X156397676Y-70771428D02*
X156492914Y-70866666D01*
X156492914Y-70866666D02*
X156540533Y-70961904D01*
X156254819Y-70057142D02*
X156254819Y-69390476D01*
X156254819Y-69390476D02*
X157254819Y-69819047D01*
X160999819Y-93253094D02*
X159999819Y-93253094D01*
X159999819Y-93253094D02*
X159999819Y-93014999D01*
X159999819Y-93014999D02*
X160047438Y-92872142D01*
X160047438Y-92872142D02*
X160142676Y-92776904D01*
X160142676Y-92776904D02*
X160237914Y-92729285D01*
X160237914Y-92729285D02*
X160428390Y-92681666D01*
X160428390Y-92681666D02*
X160571247Y-92681666D01*
X160571247Y-92681666D02*
X160761723Y-92729285D01*
X160761723Y-92729285D02*
X160856961Y-92776904D01*
X160856961Y-92776904D02*
X160952200Y-92872142D01*
X160952200Y-92872142D02*
X160999819Y-93014999D01*
X160999819Y-93014999D02*
X160999819Y-93253094D01*
X160333152Y-91824523D02*
X160999819Y-91824523D01*
X159952200Y-92062618D02*
X160666485Y-92300713D01*
X160666485Y-92300713D02*
X160666485Y-91681666D01*
X173633333Y-97954819D02*
X173300000Y-97478628D01*
X173061905Y-97954819D02*
X173061905Y-96954819D01*
X173061905Y-96954819D02*
X173442857Y-96954819D01*
X173442857Y-96954819D02*
X173538095Y-97002438D01*
X173538095Y-97002438D02*
X173585714Y-97050057D01*
X173585714Y-97050057D02*
X173633333Y-97145295D01*
X173633333Y-97145295D02*
X173633333Y-97288152D01*
X173633333Y-97288152D02*
X173585714Y-97383390D01*
X173585714Y-97383390D02*
X173538095Y-97431009D01*
X173538095Y-97431009D02*
X173442857Y-97478628D01*
X173442857Y-97478628D02*
X173061905Y-97478628D01*
X174109524Y-97954819D02*
X174300000Y-97954819D01*
X174300000Y-97954819D02*
X174395238Y-97907200D01*
X174395238Y-97907200D02*
X174442857Y-97859580D01*
X174442857Y-97859580D02*
X174538095Y-97716723D01*
X174538095Y-97716723D02*
X174585714Y-97526247D01*
X174585714Y-97526247D02*
X174585714Y-97145295D01*
X174585714Y-97145295D02*
X174538095Y-97050057D01*
X174538095Y-97050057D02*
X174490476Y-97002438D01*
X174490476Y-97002438D02*
X174395238Y-96954819D01*
X174395238Y-96954819D02*
X174204762Y-96954819D01*
X174204762Y-96954819D02*
X174109524Y-97002438D01*
X174109524Y-97002438D02*
X174061905Y-97050057D01*
X174061905Y-97050057D02*
X174014286Y-97145295D01*
X174014286Y-97145295D02*
X174014286Y-97383390D01*
X174014286Y-97383390D02*
X174061905Y-97478628D01*
X174061905Y-97478628D02*
X174109524Y-97526247D01*
X174109524Y-97526247D02*
X174204762Y-97573866D01*
X174204762Y-97573866D02*
X174395238Y-97573866D01*
X174395238Y-97573866D02*
X174490476Y-97526247D01*
X174490476Y-97526247D02*
X174538095Y-97478628D01*
X174538095Y-97478628D02*
X174585714Y-97383390D01*
X195757142Y-108054819D02*
X195423809Y-107578628D01*
X195185714Y-108054819D02*
X195185714Y-107054819D01*
X195185714Y-107054819D02*
X195566666Y-107054819D01*
X195566666Y-107054819D02*
X195661904Y-107102438D01*
X195661904Y-107102438D02*
X195709523Y-107150057D01*
X195709523Y-107150057D02*
X195757142Y-107245295D01*
X195757142Y-107245295D02*
X195757142Y-107388152D01*
X195757142Y-107388152D02*
X195709523Y-107483390D01*
X195709523Y-107483390D02*
X195661904Y-107531009D01*
X195661904Y-107531009D02*
X195566666Y-107578628D01*
X195566666Y-107578628D02*
X195185714Y-107578628D01*
X196138095Y-107150057D02*
X196185714Y-107102438D01*
X196185714Y-107102438D02*
X196280952Y-107054819D01*
X196280952Y-107054819D02*
X196519047Y-107054819D01*
X196519047Y-107054819D02*
X196614285Y-107102438D01*
X196614285Y-107102438D02*
X196661904Y-107150057D01*
X196661904Y-107150057D02*
X196709523Y-107245295D01*
X196709523Y-107245295D02*
X196709523Y-107340533D01*
X196709523Y-107340533D02*
X196661904Y-107483390D01*
X196661904Y-107483390D02*
X196090476Y-108054819D01*
X196090476Y-108054819D02*
X196709523Y-108054819D01*
X197090476Y-107150057D02*
X197138095Y-107102438D01*
X197138095Y-107102438D02*
X197233333Y-107054819D01*
X197233333Y-107054819D02*
X197471428Y-107054819D01*
X197471428Y-107054819D02*
X197566666Y-107102438D01*
X197566666Y-107102438D02*
X197614285Y-107150057D01*
X197614285Y-107150057D02*
X197661904Y-107245295D01*
X197661904Y-107245295D02*
X197661904Y-107340533D01*
X197661904Y-107340533D02*
X197614285Y-107483390D01*
X197614285Y-107483390D02*
X197042857Y-108054819D01*
X197042857Y-108054819D02*
X197661904Y-108054819D01*
X158559580Y-70266666D02*
X158607200Y-70314285D01*
X158607200Y-70314285D02*
X158654819Y-70457142D01*
X158654819Y-70457142D02*
X158654819Y-70552380D01*
X158654819Y-70552380D02*
X158607200Y-70695237D01*
X158607200Y-70695237D02*
X158511961Y-70790475D01*
X158511961Y-70790475D02*
X158416723Y-70838094D01*
X158416723Y-70838094D02*
X158226247Y-70885713D01*
X158226247Y-70885713D02*
X158083390Y-70885713D01*
X158083390Y-70885713D02*
X157892914Y-70838094D01*
X157892914Y-70838094D02*
X157797676Y-70790475D01*
X157797676Y-70790475D02*
X157702438Y-70695237D01*
X157702438Y-70695237D02*
X157654819Y-70552380D01*
X157654819Y-70552380D02*
X157654819Y-70457142D01*
X157654819Y-70457142D02*
X157702438Y-70314285D01*
X157702438Y-70314285D02*
X157750057Y-70266666D01*
X157654819Y-69409523D02*
X157654819Y-69599999D01*
X157654819Y-69599999D02*
X157702438Y-69695237D01*
X157702438Y-69695237D02*
X157750057Y-69742856D01*
X157750057Y-69742856D02*
X157892914Y-69838094D01*
X157892914Y-69838094D02*
X158083390Y-69885713D01*
X158083390Y-69885713D02*
X158464342Y-69885713D01*
X158464342Y-69885713D02*
X158559580Y-69838094D01*
X158559580Y-69838094D02*
X158607200Y-69790475D01*
X158607200Y-69790475D02*
X158654819Y-69695237D01*
X158654819Y-69695237D02*
X158654819Y-69504761D01*
X158654819Y-69504761D02*
X158607200Y-69409523D01*
X158607200Y-69409523D02*
X158559580Y-69361904D01*
X158559580Y-69361904D02*
X158464342Y-69314285D01*
X158464342Y-69314285D02*
X158226247Y-69314285D01*
X158226247Y-69314285D02*
X158131009Y-69361904D01*
X158131009Y-69361904D02*
X158083390Y-69409523D01*
X158083390Y-69409523D02*
X158035771Y-69504761D01*
X158035771Y-69504761D02*
X158035771Y-69695237D01*
X158035771Y-69695237D02*
X158083390Y-69790475D01*
X158083390Y-69790475D02*
X158131009Y-69838094D01*
X158131009Y-69838094D02*
X158226247Y-69885713D01*
X203554819Y-104692857D02*
X203078628Y-105026190D01*
X203554819Y-105264285D02*
X202554819Y-105264285D01*
X202554819Y-105264285D02*
X202554819Y-104883333D01*
X202554819Y-104883333D02*
X202602438Y-104788095D01*
X202602438Y-104788095D02*
X202650057Y-104740476D01*
X202650057Y-104740476D02*
X202745295Y-104692857D01*
X202745295Y-104692857D02*
X202888152Y-104692857D01*
X202888152Y-104692857D02*
X202983390Y-104740476D01*
X202983390Y-104740476D02*
X203031009Y-104788095D01*
X203031009Y-104788095D02*
X203078628Y-104883333D01*
X203078628Y-104883333D02*
X203078628Y-105264285D01*
X202650057Y-104311904D02*
X202602438Y-104264285D01*
X202602438Y-104264285D02*
X202554819Y-104169047D01*
X202554819Y-104169047D02*
X202554819Y-103930952D01*
X202554819Y-103930952D02*
X202602438Y-103835714D01*
X202602438Y-103835714D02*
X202650057Y-103788095D01*
X202650057Y-103788095D02*
X202745295Y-103740476D01*
X202745295Y-103740476D02*
X202840533Y-103740476D01*
X202840533Y-103740476D02*
X202983390Y-103788095D01*
X202983390Y-103788095D02*
X203554819Y-104359523D01*
X203554819Y-104359523D02*
X203554819Y-103740476D01*
X202554819Y-103121428D02*
X202554819Y-103026190D01*
X202554819Y-103026190D02*
X202602438Y-102930952D01*
X202602438Y-102930952D02*
X202650057Y-102883333D01*
X202650057Y-102883333D02*
X202745295Y-102835714D01*
X202745295Y-102835714D02*
X202935771Y-102788095D01*
X202935771Y-102788095D02*
X203173866Y-102788095D01*
X203173866Y-102788095D02*
X203364342Y-102835714D01*
X203364342Y-102835714D02*
X203459580Y-102883333D01*
X203459580Y-102883333D02*
X203507200Y-102930952D01*
X203507200Y-102930952D02*
X203554819Y-103026190D01*
X203554819Y-103026190D02*
X203554819Y-103121428D01*
X203554819Y-103121428D02*
X203507200Y-103216666D01*
X203507200Y-103216666D02*
X203459580Y-103264285D01*
X203459580Y-103264285D02*
X203364342Y-103311904D01*
X203364342Y-103311904D02*
X203173866Y-103359523D01*
X203173866Y-103359523D02*
X202935771Y-103359523D01*
X202935771Y-103359523D02*
X202745295Y-103311904D01*
X202745295Y-103311904D02*
X202650057Y-103264285D01*
X202650057Y-103264285D02*
X202602438Y-103216666D01*
X202602438Y-103216666D02*
X202554819Y-103121428D01*
X200459580Y-104642857D02*
X200507200Y-104690476D01*
X200507200Y-104690476D02*
X200554819Y-104833333D01*
X200554819Y-104833333D02*
X200554819Y-104928571D01*
X200554819Y-104928571D02*
X200507200Y-105071428D01*
X200507200Y-105071428D02*
X200411961Y-105166666D01*
X200411961Y-105166666D02*
X200316723Y-105214285D01*
X200316723Y-105214285D02*
X200126247Y-105261904D01*
X200126247Y-105261904D02*
X199983390Y-105261904D01*
X199983390Y-105261904D02*
X199792914Y-105214285D01*
X199792914Y-105214285D02*
X199697676Y-105166666D01*
X199697676Y-105166666D02*
X199602438Y-105071428D01*
X199602438Y-105071428D02*
X199554819Y-104928571D01*
X199554819Y-104928571D02*
X199554819Y-104833333D01*
X199554819Y-104833333D02*
X199602438Y-104690476D01*
X199602438Y-104690476D02*
X199650057Y-104642857D01*
X200554819Y-103690476D02*
X200554819Y-104261904D01*
X200554819Y-103976190D02*
X199554819Y-103976190D01*
X199554819Y-103976190D02*
X199697676Y-104071428D01*
X199697676Y-104071428D02*
X199792914Y-104166666D01*
X199792914Y-104166666D02*
X199840533Y-104261904D01*
X199554819Y-102785714D02*
X199554819Y-103261904D01*
X199554819Y-103261904D02*
X200031009Y-103309523D01*
X200031009Y-103309523D02*
X199983390Y-103261904D01*
X199983390Y-103261904D02*
X199935771Y-103166666D01*
X199935771Y-103166666D02*
X199935771Y-102928571D01*
X199935771Y-102928571D02*
X199983390Y-102833333D01*
X199983390Y-102833333D02*
X200031009Y-102785714D01*
X200031009Y-102785714D02*
X200126247Y-102738095D01*
X200126247Y-102738095D02*
X200364342Y-102738095D01*
X200364342Y-102738095D02*
X200459580Y-102785714D01*
X200459580Y-102785714D02*
X200507200Y-102833333D01*
X200507200Y-102833333D02*
X200554819Y-102928571D01*
X200554819Y-102928571D02*
X200554819Y-103166666D01*
X200554819Y-103166666D02*
X200507200Y-103261904D01*
X200507200Y-103261904D02*
X200459580Y-103309523D01*
%TO.C,J2*%
D11*
X201100000Y-55500000D02*
X201100000Y-56300000D01*
X200900000Y-55500000D02*
X201100000Y-55500000D01*
X198100000Y-55500000D02*
X198300000Y-55500000D01*
X201100000Y-56300000D02*
X201600000Y-56300000D01*
X198100000Y-56300000D02*
X198100000Y-55500000D01*
X201100000Y-57700000D02*
X201600000Y-57700000D01*
X201100000Y-57700000D02*
X201100000Y-58300000D01*
X201100000Y-58300000D02*
X200900000Y-58500000D01*
X198300000Y-58500000D02*
X198100000Y-58500000D01*
X198100000Y-58500000D02*
X198100000Y-57700000D01*
%TO.C,D5*%
X166240000Y-94175000D02*
X167710000Y-94175000D01*
X167710000Y-94175000D02*
X167710000Y-91715000D01*
X166240000Y-91715000D02*
X166240000Y-94175000D01*
%TO.C,C13*%
X186015000Y-104146267D02*
X186015000Y-103853733D01*
X187035000Y-104146267D02*
X187035000Y-103853733D01*
%TO.C,U3*%
D12*
X186600000Y-97950000D02*
X186600000Y-97450000D01*
X186600000Y-97450000D02*
X186430000Y-97450000D01*
X186600000Y-100150000D02*
X186600000Y-100650000D01*
X186600000Y-100650000D02*
X186430000Y-100650000D01*
X182400000Y-97950000D02*
X182400000Y-97450000D01*
X182400000Y-97450000D02*
X182570000Y-97450000D01*
X182570000Y-100650000D02*
X182400000Y-100650000D01*
X182400000Y-100650000D02*
X182400000Y-100150000D01*
D13*
X182530000Y-100550000D02*
G75*
G02*
X182470000Y-100550000I-30000J0D01*
G01*
X182470000Y-100550000D02*
G75*
G02*
X182530000Y-100550000I30000J0D01*
G01*
D14*
X182550000Y-101030000D02*
G75*
G02*
X182547571Y-101030025I0J-120000D01*
G01*
%TO.C,R21*%
D11*
X193577500Y-104137258D02*
X193577500Y-103662742D01*
X194622500Y-104137258D02*
X194622500Y-103662742D01*
%TO.C,M1*%
X214680000Y-56580000D02*
X214680000Y-55200000D01*
X216060000Y-56580000D02*
X214680000Y-56580000D01*
X217330000Y-56580000D02*
X222520000Y-56580000D01*
X217330000Y-56580000D02*
X217330000Y-53820000D01*
X222520000Y-56580000D02*
X222520000Y-53820000D01*
X217330000Y-53820000D02*
X222520000Y-53820000D01*
%TO.C,C14*%
X187515000Y-104146267D02*
X187515000Y-103853733D01*
X188535000Y-104146267D02*
X188535000Y-103853733D01*
%TO.C,U5*%
D14*
X159020000Y-54910000D02*
X181120000Y-54910000D01*
X159020000Y-84880000D02*
X159020000Y-54910000D01*
X159190000Y-84880000D02*
X159020000Y-84880000D01*
X160710000Y-84880000D02*
X160350000Y-84880000D01*
X179790000Y-84880000D02*
X179430000Y-84880000D01*
X181120000Y-54910000D02*
X181120000Y-84880000D01*
X181120000Y-84880000D02*
X180950000Y-84880000D01*
D15*
X158030000Y-62910000D02*
G75*
G02*
X157730000Y-62910000I-150000J0D01*
G01*
X157730000Y-62910000D02*
G75*
G02*
X158030000Y-62910000I150000J0D01*
G01*
D13*
X159100000Y-54900000D02*
G75*
G02*
X159040000Y-54900000I-30000J0D01*
G01*
X159040000Y-54900000D02*
G75*
G02*
X159100000Y-54900000I30000J0D01*
G01*
%TO.C,L1*%
D11*
X187190000Y-101010000D02*
X187190000Y-96790000D01*
X191410000Y-96790000D02*
X191410000Y-101010000D01*
%TO.C,C12*%
X184490000Y-104146267D02*
X184490000Y-103853733D01*
X185510000Y-104146267D02*
X185510000Y-103853733D01*
%TO.C,U4*%
X169135000Y-101810000D02*
X168410000Y-101810000D01*
X169135000Y-101085000D02*
X169135000Y-101810000D01*
X169135000Y-97590000D02*
X169135000Y-98315000D01*
X168410000Y-97590000D02*
X169135000Y-97590000D01*
X165640000Y-101810000D02*
X164915000Y-101810000D01*
X164915000Y-101810000D02*
X164915000Y-101085000D01*
X164915000Y-98315000D02*
X164915000Y-97590000D01*
X164915000Y-97590000D02*
X165640000Y-97590000D01*
X169635000Y-100700000D02*
X169965000Y-100460000D01*
X169965000Y-100940000D01*
X169635000Y-100700000D01*
G36*
X169965000Y-100940000D02*
G01*
X169635000Y-100700000D01*
X169965000Y-100460000D01*
X169965000Y-100940000D01*
G37*
%TO.C,SW4*%
X155800000Y-67950000D02*
X155800000Y-71250000D01*
X155500000Y-67950000D02*
X155800000Y-67950000D01*
X153300000Y-67950000D02*
X153000000Y-67950000D01*
X153000000Y-67950000D02*
X153000000Y-71250000D01*
X155800000Y-71250000D02*
X155500000Y-71250000D01*
X153000000Y-71250000D02*
X153300000Y-71250000D01*
%TO.C,C11*%
X192809165Y-105840000D02*
X193040835Y-105840000D01*
X192809165Y-106560000D02*
X193040835Y-106560000D01*
%TO.C,J1*%
X168905000Y-106075000D02*
X168905000Y-106975000D01*
X168905000Y-109675000D02*
X168905000Y-112405000D01*
X168905000Y-112405000D02*
X178095000Y-112405000D01*
X169025000Y-102995000D02*
X177975000Y-102995000D01*
X178095000Y-106075000D02*
X178095000Y-106975000D01*
X178095000Y-109675000D02*
X178095000Y-112405000D01*
%TO.C,R13*%
X171552500Y-101074724D02*
X171552500Y-100565276D01*
X172597500Y-101074724D02*
X172597500Y-100565276D01*
%TO.C,U1*%
X177450000Y-86490000D02*
X181210000Y-86490000D01*
X177450000Y-93310000D02*
X181210000Y-93310000D01*
X181210000Y-86490000D02*
X181210000Y-87750000D01*
X181210000Y-93310000D02*
X181210000Y-92050000D01*
X176170000Y-86590000D02*
X175930000Y-86260000D01*
X176410000Y-86260000D01*
X176170000Y-86590000D01*
G36*
X176170000Y-86590000D02*
G01*
X175930000Y-86260000D01*
X176410000Y-86260000D01*
X176170000Y-86590000D01*
G37*
%TO.C,C4*%
X157940000Y-64715835D02*
X157940000Y-64484165D01*
X158660000Y-64715835D02*
X158660000Y-64484165D01*
%TO.C,C7*%
X153660000Y-65884165D02*
X153660000Y-66115835D01*
X152940000Y-65884165D02*
X152940000Y-66115835D01*
%TO.C,U2*%
D14*
X183950000Y-55270000D02*
X183950000Y-54900000D01*
X183950000Y-62670000D02*
X183950000Y-60930000D01*
X196150000Y-70530000D02*
X196150000Y-70900000D01*
X196150000Y-70900000D02*
X183950000Y-70900000D01*
X183950000Y-70900000D02*
X183950000Y-70530000D01*
X196150000Y-60930000D02*
X196150000Y-62670000D01*
X183950000Y-54900000D02*
X196150000Y-54900000D01*
X196150000Y-54900000D02*
X196150000Y-55270000D01*
D13*
X196180000Y-70900000D02*
G75*
G02*
X196120000Y-70900000I-30000J0D01*
G01*
X196120000Y-70900000D02*
G75*
G02*
X196180000Y-70900000I30000J0D01*
G01*
D16*
X194330000Y-70120000D02*
G75*
G02*
X194344599Y-70120741I20000J250000D01*
G01*
%TO.C,C9*%
D11*
X185846267Y-95910000D02*
X185553733Y-95910000D01*
X185846267Y-94890000D02*
X185553733Y-94890000D01*
%TO.C,R10*%
X162520276Y-99092500D02*
X163029724Y-99092500D01*
X162520276Y-100137500D02*
X163029724Y-100137500D01*
%TO.C,C8*%
X182615835Y-102460000D02*
X182384165Y-102460000D01*
X182615835Y-101740000D02*
X182384165Y-101740000D01*
%TO.C,R14*%
X179127500Y-105774724D02*
X179127500Y-105265276D01*
X180172500Y-105774724D02*
X180172500Y-105265276D01*
%TO.C,R6*%
X168595000Y-96382621D02*
X168595000Y-96047379D01*
X169355000Y-96382621D02*
X169355000Y-96047379D01*
%TO.C,C1*%
X213810000Y-64140000D02*
X213810000Y-68660000D01*
X213810000Y-68660000D02*
X222050000Y-68660000D01*
X222050000Y-64140000D02*
X213810000Y-64140000D01*
%TO.C,D3*%
X171240000Y-94175000D02*
X172710000Y-94175000D01*
X172710000Y-94175000D02*
X172710000Y-91715000D01*
X171240000Y-91715000D02*
X171240000Y-94175000D01*
%TO.C,C5*%
X156290000Y-64283767D02*
X156290000Y-63991233D01*
X157310000Y-64283767D02*
X157310000Y-63991233D01*
%TO.C,C10*%
X185846267Y-94410000D02*
X185553733Y-94410000D01*
X185846267Y-93390000D02*
X185553733Y-93390000D01*
%TO.C,R8*%
X166395000Y-96082621D02*
X166395000Y-95747379D01*
X167155000Y-96082621D02*
X167155000Y-95747379D01*
%TO.C,R19*%
X190502500Y-104254724D02*
X190502500Y-103745276D01*
X191547500Y-104254724D02*
X191547500Y-103745276D01*
%TO.C,J3*%
X213680000Y-53820000D02*
X213680000Y-55200000D01*
X212300000Y-53820000D02*
X213680000Y-53820000D01*
X211030000Y-53820000D02*
X208380000Y-53820000D01*
X211030000Y-53820000D02*
X211030000Y-56580000D01*
X208380000Y-53820000D02*
X208380000Y-56580000D01*
X211030000Y-56580000D02*
X208380000Y-56580000D01*
%TO.C,C3*%
X163846267Y-103010000D02*
X163553733Y-103010000D01*
X163846267Y-101990000D02*
X163553733Y-101990000D01*
%TO.C,R18*%
X155067621Y-66980000D02*
X154732379Y-66980000D01*
X155067621Y-66220000D02*
X154732379Y-66220000D01*
%TO.C,R7*%
X167495000Y-96082621D02*
X167495000Y-95747379D01*
X168255000Y-96082621D02*
X168255000Y-95747379D01*
%TO.C,R17*%
X157322500Y-67245276D02*
X157322500Y-67754724D01*
X156277500Y-67245276D02*
X156277500Y-67754724D01*
%TO.C,D4*%
X161240000Y-94175000D02*
X162710000Y-94175000D01*
X162710000Y-94175000D02*
X162710000Y-91715000D01*
X161240000Y-91715000D02*
X161240000Y-94175000D01*
%TO.C,R9*%
X171429724Y-98037500D02*
X170920276Y-98037500D01*
X171429724Y-96992500D02*
X170920276Y-96992500D01*
%TO.C,R22*%
X193554724Y-108022500D02*
X193045276Y-108022500D01*
X193554724Y-106977500D02*
X193045276Y-106977500D01*
%TO.C,C6*%
X158810000Y-67353733D02*
X158810000Y-67646267D01*
X157790000Y-67353733D02*
X157790000Y-67646267D01*
%TO.C,R20*%
X192002500Y-104254724D02*
X192002500Y-103745276D01*
X193047500Y-104254724D02*
X193047500Y-103745276D01*
%TO.C,C15*%
X189015000Y-104146267D02*
X189015000Y-103853733D01*
X190035000Y-104146267D02*
X190035000Y-103853733D01*
%TD*%
M02*
