%TF.GenerationSoftware,KiCad,Pcbnew,10.0.3*%
%TF.CreationDate,2026-09-27T23:05:41+08:00*%
%TF.ProjectId,One Peace,4f6e6520-5065-4616-9365-2e6b69636164,rev?*%
%TF.SameCoordinates,Original*%
%TF.FileFunction,Copper,L2,Inr*%
%TF.FilePolarity,Positive*%
%FSLAX46Y46*%
G04 Gerber Fmt 4.6, Leading zero omitted, Abs format (unit mm)*
G04 Created by KiCad (PCBNEW 10.0.3) date 2026-09-27 23:05:41*
%MOMM*%
%LPD*%
G01*
G04 APERTURE LIST*
%TA.AperFunction,ComponentPad*%
%ADD10R,1.700000X1.700000*%
%TD*%
%TA.AperFunction,ComponentPad*%
%ADD11C,1.700000*%
%TD*%
%TA.AperFunction,ComponentPad*%
%ADD12C,0.700000*%
%TD*%
%TA.AperFunction,ComponentPad*%
%ADD13O,0.900000X2.400000*%
%TD*%
%TA.AperFunction,ComponentPad*%
%ADD14O,0.900000X1.700000*%
%TD*%
%TA.AperFunction,ComponentPad*%
%ADD15R,1.800000X1.800000*%
%TD*%
%TA.AperFunction,ComponentPad*%
%ADD16C,1.800000*%
%TD*%
%TA.AperFunction,ComponentPad*%
%ADD17C,3.000000*%
%TD*%
%TA.AperFunction,ViaPad*%
%ADD18C,0.600000*%
%TD*%
G04 APERTURE END LIST*
D10*
%TO.N,PWM*%
%TO.C,M1*%
X216060000Y-55200000D03*
D11*
%TO.N,+5V*%
X218600000Y-55200000D03*
%TO.N,GND*%
X221140000Y-55200000D03*
%TD*%
D12*
%TO.N,GND*%
%TO.C,J1*%
X170525000Y-103675000D03*
%TO.N,VBUS*%
X171375000Y-103675000D03*
%TO.N,Net-(J1-CC1)*%
X172225000Y-103675000D03*
%TO.N,D+*%
X173075000Y-103675000D03*
%TO.N,D-*%
X173925000Y-103675000D03*
%TO.N,unconnected-(J1-SBU1-PadA8)*%
X174775000Y-103675000D03*
%TO.N,VBUS*%
X175625000Y-103675000D03*
%TO.N,GND*%
X176475000Y-103675000D03*
X176475000Y-105025000D03*
%TO.N,VBUS*%
X175625000Y-105025000D03*
%TO.N,Net-(J1-CC2)*%
X174775000Y-105025000D03*
%TO.N,D+*%
X173925000Y-105025000D03*
%TO.N,D-*%
X173075000Y-105025000D03*
%TO.N,unconnected-(J1-SBU2-PadB8)*%
X172225000Y-105025000D03*
%TO.N,VBUS*%
X171375000Y-105025000D03*
%TO.N,GND*%
X170525000Y-105025000D03*
D13*
X169175000Y-104655000D03*
D14*
X169175000Y-108035000D03*
D13*
X177825000Y-104655000D03*
D14*
X177825000Y-108035000D03*
%TD*%
D10*
%TO.N,BAT+*%
%TO.C,J3*%
X212300000Y-55200000D03*
D11*
%TO.N,GND*%
X209760000Y-55200000D03*
%TD*%
D15*
%TO.N,+3V3*%
%TO.C,LCD1*%
X137080000Y-100310000D03*
D16*
%TO.N,GND*%
X137080000Y-97770000D03*
%TO.N,LCD_CS*%
X137080000Y-95230000D03*
%TO.N,RST*%
X137080000Y-92690000D03*
%TO.N,LCD_DC*%
X137080000Y-90150000D03*
%TO.N,MOSI*%
X137080000Y-87610000D03*
%TO.N,SCK*%
X137080000Y-85070000D03*
%TO.N,LED*%
X137080000Y-82530000D03*
%TO.N,MISO*%
X137080000Y-79990000D03*
%TO.N,SCK*%
X137080000Y-77450000D03*
%TO.N,TOUCH_CS*%
X137080000Y-74910000D03*
%TO.N,MOSI*%
X137080000Y-72370000D03*
%TO.N,MISO*%
X137080000Y-69830000D03*
%TO.N,unconnected-(LCD1-IRQ-Pad14)*%
X137080000Y-67290000D03*
D15*
%TO.N,unconnected-(LCD1-SD-CS-Pad15)*%
X218080000Y-87610000D03*
D16*
%TO.N,MOSI*%
X218080000Y-85070000D03*
%TO.N,MISO*%
X218080000Y-82530000D03*
%TO.N,SCK*%
X218080000Y-79990000D03*
D17*
%TO.N,*%
X142000000Y-105800000D03*
X142000000Y-61800000D03*
X218000000Y-61800000D03*
X218000000Y-105800000D03*
%TD*%
D18*
%TO.N,VBUS*%
X170300000Y-91700000D03*
X165300000Y-92600000D03*
X166200000Y-104400000D03*
X165300000Y-91400000D03*
%TO.N,GND*%
X181600000Y-63000000D03*
X170200000Y-99700000D03*
X161800000Y-102500000D03*
X181600000Y-61900000D03*
X168800000Y-63000000D03*
X162850000Y-62900000D03*
X167950000Y-62950000D03*
X179000000Y-85500000D03*
X197300000Y-55900000D03*
X179600000Y-87600000D03*
X182800000Y-69900000D03*
X158300000Y-69700000D03*
X183400000Y-101300000D03*
X168100000Y-105200000D03*
X154332500Y-65432500D03*
X182800000Y-55900000D03*
X176475000Y-102375000D03*
X201100000Y-58000000D03*
X197300000Y-58100000D03*
X156500000Y-71300000D03*
X198100000Y-55900000D03*
X175600000Y-62900000D03*
X172075000Y-98925000D03*
X182800000Y-67700000D03*
X164550000Y-62900000D03*
X165400000Y-62900000D03*
X173050000Y-62950000D03*
X158300000Y-63000000D03*
X221607500Y-69500000D03*
X172200000Y-63000000D03*
X159770000Y-85430000D03*
X167100000Y-62900000D03*
X170000000Y-98900000D03*
X194700000Y-58100000D03*
X198100000Y-58100000D03*
X174750000Y-62850000D03*
X188025000Y-106125000D03*
X162000000Y-62900000D03*
X179000000Y-62900000D03*
X185000000Y-106000000D03*
X194700000Y-55900000D03*
X222900000Y-55200000D03*
X195300000Y-107500000D03*
X178800000Y-87600000D03*
X173900000Y-62900000D03*
X207300000Y-55200000D03*
X169650000Y-62950000D03*
X139470000Y-97770000D03*
X179400000Y-103400000D03*
X187900000Y-95400000D03*
X180400000Y-85500000D03*
X201100000Y-56000000D03*
X161000000Y-85400000D03*
X170500000Y-62900000D03*
X166250000Y-62950000D03*
X165300000Y-96900000D03*
X178150000Y-62850000D03*
X181900000Y-83300000D03*
X183067500Y-103000000D03*
X161150000Y-62900000D03*
X172100000Y-96400000D03*
X186525000Y-106075000D03*
X164200000Y-98000000D03*
X158300000Y-61900000D03*
X171350000Y-62950000D03*
X176450000Y-62850000D03*
X160700000Y-63900000D03*
X177300000Y-62900000D03*
X155600000Y-63300000D03*
X170525000Y-106000000D03*
X177900000Y-87600000D03*
X180800000Y-104600000D03*
X189400000Y-106100000D03*
X167800000Y-108000000D03*
X197300000Y-63300000D03*
X187900000Y-93900000D03*
%TO.N,Net-(U3-EN)*%
X182300000Y-101100000D03*
X182300000Y-96200000D03*
%TO.N,Vout*%
X183200000Y-93900000D03*
X168700000Y-101500000D03*
%TO.N,+5V*%
X181550000Y-97600000D03*
X195575000Y-106200000D03*
X178225000Y-94275000D03*
X213757107Y-68100000D03*
%TO.N,PWM*%
X181750000Y-72350000D03*
%TO.N,+3V3*%
X155500000Y-65000000D03*
X157000000Y-69500000D03*
X180700000Y-89900000D03*
X182800000Y-68800000D03*
X179800000Y-89900000D03*
X177900000Y-89900000D03*
X178900000Y-89900000D03*
X139390000Y-100310000D03*
%TO.N,TOUCH_CS*%
X155310000Y-74910000D03*
%TO.N,RST*%
X156600000Y-75300000D03*
%TO.N,LCD_CS*%
X158400000Y-75750000D03*
%TO.N,MOSI*%
X202470000Y-85070000D03*
X164900000Y-78800000D03*
%TO.N,SCK*%
X208590000Y-79990000D03*
X161450000Y-77450000D03*
X146300000Y-77450000D03*
%TO.N,MISO*%
X162800000Y-78300000D03*
X205630000Y-82530000D03*
%TO.N,LCD_DC*%
X155810000Y-82910000D03*
%TO.N,BAT+*%
X159200000Y-88900000D03*
X187300000Y-84200000D03*
%TD*%
%TA.AperFunction,Conductor*%
%TO.N,GND*%
G36*
X224442539Y-52520185D02*
G01*
X224488294Y-52572989D01*
X224499500Y-52624500D01*
X224499500Y-109375500D01*
X224479815Y-109442539D01*
X224427011Y-109488294D01*
X224375500Y-109499500D01*
X178350592Y-109499500D01*
X178283553Y-109479815D01*
X178237798Y-109427011D01*
X178227854Y-109357853D01*
X178256879Y-109294297D01*
X178281701Y-109272398D01*
X178430589Y-109172913D01*
X178430593Y-109172910D01*
X178562910Y-109040593D01*
X178562913Y-109040589D01*
X178666875Y-108885000D01*
X178666880Y-108884991D01*
X178738491Y-108712105D01*
X178738493Y-108712097D01*
X178774999Y-108528571D01*
X178775000Y-108528569D01*
X178775000Y-108285000D01*
X178125000Y-108285000D01*
X178125000Y-107785000D01*
X178775000Y-107785000D01*
X178775000Y-107541430D01*
X178774999Y-107541428D01*
X178738493Y-107357902D01*
X178738491Y-107357894D01*
X178666880Y-107185008D01*
X178666875Y-107184999D01*
X178562913Y-107029410D01*
X178562910Y-107029406D01*
X178430593Y-106897089D01*
X178430589Y-106897086D01*
X178275000Y-106793124D01*
X178274991Y-106793119D01*
X178102103Y-106721507D01*
X178102100Y-106721506D01*
X178075000Y-106716115D01*
X178075000Y-107468011D01*
X178065060Y-107450795D01*
X178009205Y-107394940D01*
X177940796Y-107355444D01*
X177864496Y-107335000D01*
X177785504Y-107335000D01*
X177709204Y-107355444D01*
X177640795Y-107394940D01*
X177584940Y-107450795D01*
X177575000Y-107468011D01*
X177575000Y-106716116D01*
X177574999Y-106716115D01*
X177547899Y-106721506D01*
X177547896Y-106721507D01*
X177375008Y-106793119D01*
X177374999Y-106793124D01*
X177219410Y-106897086D01*
X177219406Y-106897089D01*
X177087089Y-107029406D01*
X177087086Y-107029410D01*
X176983124Y-107184999D01*
X176983119Y-107185008D01*
X176911508Y-107357894D01*
X176911506Y-107357902D01*
X176875000Y-107541428D01*
X176875000Y-107785000D01*
X177525000Y-107785000D01*
X177525000Y-108285000D01*
X176875000Y-108285000D01*
X176875000Y-108528571D01*
X176911506Y-108712097D01*
X176911508Y-108712105D01*
X176983119Y-108884991D01*
X176983124Y-108885000D01*
X177087086Y-109040589D01*
X177087089Y-109040593D01*
X177219406Y-109172910D01*
X177219410Y-109172913D01*
X177368299Y-109272398D01*
X177413104Y-109326010D01*
X177421811Y-109395335D01*
X177391657Y-109458363D01*
X177332214Y-109495082D01*
X177299408Y-109499500D01*
X169700592Y-109499500D01*
X169633553Y-109479815D01*
X169587798Y-109427011D01*
X169577854Y-109357853D01*
X169606879Y-109294297D01*
X169631701Y-109272398D01*
X169780589Y-109172913D01*
X169780593Y-109172910D01*
X169912910Y-109040593D01*
X169912913Y-109040589D01*
X170016875Y-108885000D01*
X170016880Y-108884991D01*
X170088491Y-108712105D01*
X170088493Y-108712097D01*
X170124999Y-108528571D01*
X170125000Y-108528569D01*
X170125000Y-108285000D01*
X169475000Y-108285000D01*
X169475000Y-107785000D01*
X170125000Y-107785000D01*
X170125000Y-107541430D01*
X170124999Y-107541428D01*
X170088493Y-107357902D01*
X170088491Y-107357894D01*
X170016880Y-107185008D01*
X170016875Y-107184999D01*
X169912913Y-107029410D01*
X169912910Y-107029406D01*
X169780593Y-106897089D01*
X169780589Y-106897086D01*
X169625000Y-106793124D01*
X169624991Y-106793119D01*
X169452103Y-106721507D01*
X169452100Y-106721506D01*
X169425000Y-106716115D01*
X169425000Y-107468011D01*
X169415060Y-107450795D01*
X169359205Y-107394940D01*
X169290796Y-107355444D01*
X169214496Y-107335000D01*
X169135504Y-107335000D01*
X169059204Y-107355444D01*
X168990795Y-107394940D01*
X168934940Y-107450795D01*
X168925000Y-107468011D01*
X168925000Y-106716116D01*
X168924999Y-106716115D01*
X168897899Y-106721506D01*
X168897896Y-106721507D01*
X168725008Y-106793119D01*
X168724999Y-106793124D01*
X168569410Y-106897086D01*
X168569406Y-106897089D01*
X168437089Y-107029406D01*
X168437086Y-107029410D01*
X168333124Y-107184999D01*
X168333119Y-107185008D01*
X168261508Y-107357894D01*
X168261506Y-107357902D01*
X168225000Y-107541428D01*
X168225000Y-107785000D01*
X168875000Y-107785000D01*
X168875000Y-108285000D01*
X168225000Y-108285000D01*
X168225000Y-108528571D01*
X168261506Y-108712097D01*
X168261508Y-108712105D01*
X168333119Y-108884991D01*
X168333124Y-108885000D01*
X168437086Y-109040589D01*
X168437089Y-109040593D01*
X168569406Y-109172910D01*
X168569410Y-109172913D01*
X168718299Y-109272398D01*
X168763104Y-109326010D01*
X168771811Y-109395335D01*
X168741657Y-109458363D01*
X168682214Y-109495082D01*
X168649408Y-109499500D01*
X133624500Y-109499500D01*
X133557461Y-109479815D01*
X133511706Y-109427011D01*
X133500500Y-109375500D01*
X133500500Y-105668872D01*
X139999500Y-105668872D01*
X139999500Y-105931127D01*
X140024519Y-106121153D01*
X140033730Y-106191116D01*
X140098677Y-106433501D01*
X140101602Y-106444418D01*
X140101605Y-106444428D01*
X140201953Y-106686690D01*
X140201958Y-106686700D01*
X140333075Y-106913803D01*
X140492718Y-107121851D01*
X140492726Y-107121860D01*
X140678140Y-107307274D01*
X140678148Y-107307281D01*
X140886196Y-107466924D01*
X141113299Y-107598041D01*
X141113309Y-107598046D01*
X141355571Y-107698394D01*
X141355581Y-107698398D01*
X141608884Y-107766270D01*
X141868880Y-107800500D01*
X141868887Y-107800500D01*
X142131113Y-107800500D01*
X142131120Y-107800500D01*
X142391116Y-107766270D01*
X142644419Y-107698398D01*
X142886697Y-107598043D01*
X143113803Y-107466924D01*
X143321851Y-107307282D01*
X143321855Y-107307277D01*
X143321860Y-107307274D01*
X143507274Y-107121860D01*
X143507277Y-107121855D01*
X143507282Y-107121851D01*
X143666924Y-106913803D01*
X143798043Y-106686697D01*
X143898398Y-106444419D01*
X143966270Y-106191116D01*
X144000500Y-105931120D01*
X144000500Y-105668880D01*
X143966270Y-105408884D01*
X143898398Y-105155581D01*
X143893800Y-105144481D01*
X143798046Y-104913309D01*
X143798041Y-104913299D01*
X143666924Y-104686196D01*
X143507281Y-104478148D01*
X143507274Y-104478140D01*
X143350287Y-104321153D01*
X165399500Y-104321153D01*
X165399500Y-104478846D01*
X165430261Y-104633489D01*
X165430264Y-104633501D01*
X165490602Y-104779172D01*
X165490609Y-104779185D01*
X165578210Y-104910288D01*
X165578213Y-104910292D01*
X165689707Y-105021786D01*
X165689711Y-105021789D01*
X165820814Y-105109390D01*
X165820827Y-105109397D01*
X165932303Y-105155571D01*
X165966503Y-105169737D01*
X166091256Y-105194552D01*
X166121153Y-105200499D01*
X166121156Y-105200500D01*
X166121158Y-105200500D01*
X166278844Y-105200500D01*
X166278845Y-105200499D01*
X166433497Y-105169737D01*
X166579179Y-105109394D01*
X166710289Y-105021789D01*
X166821789Y-104910289D01*
X166909394Y-104779179D01*
X166969737Y-104633497D01*
X167000500Y-104478842D01*
X167000500Y-104321158D01*
X167000500Y-104321155D01*
X167000499Y-104321153D01*
X166969738Y-104166510D01*
X166969737Y-104166503D01*
X166955891Y-104133075D01*
X166909397Y-104020827D01*
X166909390Y-104020814D01*
X166821789Y-103889711D01*
X166821786Y-103889707D01*
X166743507Y-103811428D01*
X168225000Y-103811428D01*
X168225000Y-104405000D01*
X168875000Y-104405000D01*
X168875000Y-104905000D01*
X168225000Y-104905000D01*
X168225000Y-105498571D01*
X168261506Y-105682097D01*
X168261508Y-105682105D01*
X168333119Y-105854991D01*
X168333124Y-105855000D01*
X168437086Y-106010589D01*
X168437089Y-106010593D01*
X168569406Y-106142910D01*
X168569410Y-106142913D01*
X168724999Y-106246875D01*
X168725012Y-106246882D01*
X168897889Y-106318489D01*
X168897896Y-106318491D01*
X168925000Y-106323882D01*
X168925000Y-105571988D01*
X168934940Y-105589205D01*
X168990795Y-105645060D01*
X169059204Y-105684556D01*
X169135504Y-105705000D01*
X169214496Y-105705000D01*
X169290796Y-105684556D01*
X169359205Y-105645060D01*
X169415060Y-105589205D01*
X169425000Y-105571988D01*
X169425000Y-106323881D01*
X169452103Y-106318491D01*
X169452110Y-106318489D01*
X169624987Y-106246882D01*
X169625000Y-106246875D01*
X169780589Y-106142913D01*
X169780593Y-106142910D01*
X169912913Y-106010590D01*
X170020264Y-105849928D01*
X170021367Y-105850665D01*
X170065546Y-105805675D01*
X170133681Y-105790203D01*
X170173414Y-105799401D01*
X170277063Y-105842334D01*
X170277071Y-105842336D01*
X170441277Y-105874999D01*
X170441280Y-105875000D01*
X170608720Y-105875000D01*
X170608722Y-105874999D01*
X170772928Y-105842336D01*
X170772932Y-105842335D01*
X170901892Y-105788918D01*
X170971362Y-105781449D01*
X170996795Y-105788916D01*
X171126918Y-105842816D01*
X171288714Y-105874999D01*
X171291228Y-105875499D01*
X171291232Y-105875500D01*
X171291233Y-105875500D01*
X171458768Y-105875500D01*
X171458769Y-105875499D01*
X171623082Y-105842816D01*
X171752548Y-105789188D01*
X171822016Y-105781720D01*
X171847450Y-105789188D01*
X171976918Y-105842816D01*
X172138714Y-105874999D01*
X172141228Y-105875499D01*
X172141232Y-105875500D01*
X172141233Y-105875500D01*
X172308768Y-105875500D01*
X172308769Y-105875499D01*
X172473082Y-105842816D01*
X172602548Y-105789188D01*
X172672016Y-105781720D01*
X172697450Y-105789188D01*
X172826918Y-105842816D01*
X172988714Y-105874999D01*
X172991228Y-105875499D01*
X172991232Y-105875500D01*
X172991233Y-105875500D01*
X173158768Y-105875500D01*
X173158769Y-105875499D01*
X173323082Y-105842816D01*
X173452548Y-105789188D01*
X173522016Y-105781720D01*
X173547450Y-105789188D01*
X173676918Y-105842816D01*
X173838714Y-105874999D01*
X173841228Y-105875499D01*
X173841232Y-105875500D01*
X173841233Y-105875500D01*
X174008768Y-105875500D01*
X174008769Y-105875499D01*
X174173082Y-105842816D01*
X174302548Y-105789188D01*
X174372016Y-105781720D01*
X174397450Y-105789188D01*
X174526918Y-105842816D01*
X174688714Y-105874999D01*
X174691228Y-105875499D01*
X174691232Y-105875500D01*
X174691233Y-105875500D01*
X174858768Y-105875500D01*
X174858769Y-105875499D01*
X175023082Y-105842816D01*
X175152548Y-105789188D01*
X175222016Y-105781720D01*
X175247450Y-105789188D01*
X175376918Y-105842816D01*
X175538714Y-105874999D01*
X175541228Y-105875499D01*
X175541232Y-105875500D01*
X175541233Y-105875500D01*
X175708768Y-105875500D01*
X175708769Y-105875499D01*
X175873082Y-105842816D01*
X176003203Y-105788917D01*
X176072667Y-105781449D01*
X176098105Y-105788918D01*
X176227063Y-105842334D01*
X176227071Y-105842336D01*
X176391277Y-105874999D01*
X176391280Y-105875000D01*
X176558720Y-105875000D01*
X176558722Y-105874999D01*
X176722928Y-105842336D01*
X176722936Y-105842334D01*
X176826585Y-105799402D01*
X176896055Y-105791933D01*
X176958534Y-105823208D01*
X176979315Y-105850209D01*
X176979736Y-105849929D01*
X177087086Y-106010589D01*
X177087089Y-106010593D01*
X177219406Y-106142910D01*
X177219410Y-106142913D01*
X177374999Y-106246875D01*
X177375012Y-106246882D01*
X177547889Y-106318489D01*
X177547896Y-106318491D01*
X177575000Y-106323882D01*
X177575000Y-105571988D01*
X177584940Y-105589205D01*
X177640795Y-105645060D01*
X177709204Y-105684556D01*
X177785504Y-105705000D01*
X177864496Y-105705000D01*
X177940796Y-105684556D01*
X178009205Y-105645060D01*
X178065060Y-105589205D01*
X178075000Y-105571988D01*
X178075000Y-106323881D01*
X178102103Y-106318491D01*
X178102110Y-106318489D01*
X178274987Y-106246882D01*
X178275000Y-106246875D01*
X178430589Y-106142913D01*
X178430593Y-106142910D01*
X178452350Y-106121153D01*
X194774500Y-106121153D01*
X194774500Y-106278846D01*
X194805261Y-106433489D01*
X194805264Y-106433501D01*
X194865602Y-106579172D01*
X194865609Y-106579185D01*
X194953210Y-106710288D01*
X194953213Y-106710292D01*
X195064707Y-106821786D01*
X195064711Y-106821789D01*
X195195814Y-106909390D01*
X195195827Y-106909397D01*
X195341498Y-106969735D01*
X195341503Y-106969737D01*
X195496153Y-107000499D01*
X195496156Y-107000500D01*
X195496158Y-107000500D01*
X195653844Y-107000500D01*
X195653845Y-107000499D01*
X195808497Y-106969737D01*
X195954179Y-106909394D01*
X196085289Y-106821789D01*
X196196789Y-106710289D01*
X196284394Y-106579179D01*
X196344737Y-106433497D01*
X196375500Y-106278842D01*
X196375500Y-106121158D01*
X196375500Y-106121155D01*
X196375499Y-106121153D01*
X196353507Y-106010593D01*
X196344737Y-105966503D01*
X196307043Y-105875500D01*
X196284397Y-105820827D01*
X196284390Y-105820814D01*
X196226190Y-105733712D01*
X196196789Y-105689711D01*
X196196786Y-105689707D01*
X196175951Y-105668872D01*
X215999500Y-105668872D01*
X215999500Y-105931127D01*
X216024519Y-106121153D01*
X216033730Y-106191116D01*
X216098677Y-106433501D01*
X216101602Y-106444418D01*
X216101605Y-106444428D01*
X216201953Y-106686690D01*
X216201958Y-106686700D01*
X216333075Y-106913803D01*
X216492718Y-107121851D01*
X216492726Y-107121860D01*
X216678140Y-107307274D01*
X216678148Y-107307281D01*
X216886196Y-107466924D01*
X217113299Y-107598041D01*
X217113309Y-107598046D01*
X217355571Y-107698394D01*
X217355581Y-107698398D01*
X217608884Y-107766270D01*
X217868880Y-107800500D01*
X217868887Y-107800500D01*
X218131113Y-107800500D01*
X218131120Y-107800500D01*
X218391116Y-107766270D01*
X218644419Y-107698398D01*
X218886697Y-107598043D01*
X219113803Y-107466924D01*
X219321851Y-107307282D01*
X219321855Y-107307277D01*
X219321860Y-107307274D01*
X219507274Y-107121860D01*
X219507277Y-107121855D01*
X219507282Y-107121851D01*
X219666924Y-106913803D01*
X219798043Y-106686697D01*
X219898398Y-106444419D01*
X219966270Y-106191116D01*
X220000500Y-105931120D01*
X220000500Y-105668880D01*
X219966270Y-105408884D01*
X219898398Y-105155581D01*
X219893800Y-105144481D01*
X219798046Y-104913309D01*
X219798041Y-104913299D01*
X219666924Y-104686196D01*
X219507281Y-104478148D01*
X219507274Y-104478140D01*
X219321860Y-104292726D01*
X219321851Y-104292718D01*
X219113803Y-104133075D01*
X218886700Y-104001958D01*
X218886690Y-104001953D01*
X218644428Y-103901605D01*
X218644421Y-103901603D01*
X218644419Y-103901602D01*
X218391116Y-103833730D01*
X218333339Y-103826123D01*
X218131127Y-103799500D01*
X218131120Y-103799500D01*
X217868880Y-103799500D01*
X217868872Y-103799500D01*
X217637772Y-103829926D01*
X217608884Y-103833730D01*
X217454862Y-103875000D01*
X217355581Y-103901602D01*
X217355571Y-103901605D01*
X217113309Y-104001953D01*
X217113299Y-104001958D01*
X216886196Y-104133075D01*
X216678148Y-104292718D01*
X216492718Y-104478148D01*
X216333075Y-104686196D01*
X216201958Y-104913299D01*
X216201953Y-104913309D01*
X216101605Y-105155571D01*
X216101602Y-105155581D01*
X216036245Y-105399500D01*
X216033730Y-105408885D01*
X215999500Y-105668872D01*
X196175951Y-105668872D01*
X196085292Y-105578213D01*
X196085288Y-105578210D01*
X195954185Y-105490609D01*
X195954172Y-105490602D01*
X195808501Y-105430264D01*
X195808489Y-105430261D01*
X195653845Y-105399500D01*
X195653842Y-105399500D01*
X195496158Y-105399500D01*
X195496155Y-105399500D01*
X195341510Y-105430261D01*
X195341498Y-105430264D01*
X195195827Y-105490602D01*
X195195814Y-105490609D01*
X195064711Y-105578210D01*
X195064707Y-105578213D01*
X194953213Y-105689707D01*
X194953210Y-105689711D01*
X194865609Y-105820814D01*
X194865602Y-105820827D01*
X194805264Y-105966498D01*
X194805261Y-105966510D01*
X194774500Y-106121153D01*
X178452350Y-106121153D01*
X178546119Y-106027385D01*
X178562910Y-106010593D01*
X178562913Y-106010589D01*
X178666875Y-105855000D01*
X178666880Y-105854991D01*
X178738491Y-105682105D01*
X178738493Y-105682097D01*
X178774999Y-105498571D01*
X178775000Y-105498569D01*
X178775000Y-104905000D01*
X178125000Y-104905000D01*
X178125000Y-104405000D01*
X178775000Y-104405000D01*
X178775000Y-103811430D01*
X178774999Y-103811428D01*
X178738493Y-103627902D01*
X178738491Y-103627894D01*
X178666880Y-103455008D01*
X178666875Y-103454999D01*
X178562913Y-103299410D01*
X178562910Y-103299406D01*
X178430593Y-103167089D01*
X178430589Y-103167086D01*
X178275000Y-103063124D01*
X178274991Y-103063119D01*
X178102103Y-102991507D01*
X178102100Y-102991506D01*
X178075000Y-102986115D01*
X178075000Y-103738011D01*
X178065060Y-103720795D01*
X178009205Y-103664940D01*
X177940796Y-103625444D01*
X177864496Y-103605000D01*
X177785504Y-103605000D01*
X177709204Y-103625444D01*
X177640795Y-103664940D01*
X177584940Y-103720795D01*
X177575000Y-103738011D01*
X177575000Y-102986116D01*
X177574999Y-102986115D01*
X177547899Y-102991506D01*
X177547896Y-102991507D01*
X177375007Y-103063120D01*
X177299500Y-103113571D01*
X177293963Y-103169786D01*
X177267801Y-103234573D01*
X177258241Y-103245311D01*
X176828553Y-103674999D01*
X176828553Y-103675000D01*
X177257060Y-104103507D01*
X177290545Y-104164830D01*
X177285561Y-104234522D01*
X177257060Y-104278869D01*
X177185929Y-104350000D01*
X177257060Y-104421131D01*
X177290545Y-104482454D01*
X177285561Y-104552146D01*
X177257060Y-104596493D01*
X176739457Y-105114095D01*
X176731511Y-105118433D01*
X176726086Y-105125681D01*
X176701326Y-105134915D01*
X176678134Y-105147580D01*
X176669104Y-105146934D01*
X176660622Y-105150098D01*
X176637725Y-105145117D01*
X176644552Y-105138291D01*
X176675000Y-105064782D01*
X176675000Y-104985218D01*
X176644552Y-104911709D01*
X176588291Y-104855448D01*
X176514782Y-104825000D01*
X176452380Y-104825000D01*
X176443587Y-104780794D01*
X176449814Y-104711204D01*
X176477523Y-104668923D01*
X176796446Y-104350000D01*
X176796446Y-104349999D01*
X176477523Y-104031076D01*
X176444038Y-103969753D01*
X176443587Y-103919204D01*
X176452380Y-103875000D01*
X176514782Y-103875000D01*
X176588291Y-103844552D01*
X176644552Y-103788291D01*
X176675000Y-103714782D01*
X176675000Y-103635218D01*
X176644552Y-103561709D01*
X176588291Y-103505448D01*
X176514782Y-103475000D01*
X176452380Y-103475000D01*
X176443587Y-103430793D01*
X176449814Y-103361202D01*
X176477523Y-103318921D01*
X176875561Y-102920884D01*
X176722936Y-102857665D01*
X176722928Y-102857663D01*
X176558721Y-102825000D01*
X176391279Y-102825000D01*
X176227071Y-102857663D01*
X176227063Y-102857665D01*
X176098107Y-102911081D01*
X176028637Y-102918550D01*
X176003201Y-102911081D01*
X175873082Y-102857184D01*
X175873074Y-102857182D01*
X175708771Y-102824500D01*
X175708767Y-102824500D01*
X175541233Y-102824500D01*
X175541228Y-102824500D01*
X175376925Y-102857182D01*
X175376913Y-102857185D01*
X175247452Y-102910810D01*
X175177983Y-102918279D01*
X175152548Y-102910810D01*
X175023086Y-102857185D01*
X175023074Y-102857182D01*
X174858771Y-102824500D01*
X174858767Y-102824500D01*
X174691233Y-102824500D01*
X174691228Y-102824500D01*
X174526925Y-102857182D01*
X174526913Y-102857185D01*
X174397452Y-102910810D01*
X174327983Y-102918279D01*
X174302548Y-102910810D01*
X174173086Y-102857185D01*
X174173074Y-102857182D01*
X174008771Y-102824500D01*
X174008767Y-102824500D01*
X173841233Y-102824500D01*
X173841228Y-102824500D01*
X173676925Y-102857182D01*
X173676913Y-102857185D01*
X173547452Y-102910810D01*
X173477983Y-102918279D01*
X173452548Y-102910810D01*
X173323086Y-102857185D01*
X173323074Y-102857182D01*
X173158771Y-102824500D01*
X173158767Y-102824500D01*
X172991233Y-102824500D01*
X172991228Y-102824500D01*
X172826925Y-102857182D01*
X172826913Y-102857185D01*
X172697452Y-102910810D01*
X172627983Y-102918279D01*
X172602548Y-102910810D01*
X172473086Y-102857185D01*
X172473074Y-102857182D01*
X172308771Y-102824500D01*
X172308767Y-102824500D01*
X172141233Y-102824500D01*
X172141228Y-102824500D01*
X171976925Y-102857182D01*
X171976913Y-102857185D01*
X171847452Y-102910810D01*
X171777983Y-102918279D01*
X171752548Y-102910810D01*
X171623086Y-102857185D01*
X171623074Y-102857182D01*
X171458771Y-102824500D01*
X171458767Y-102824500D01*
X171291233Y-102824500D01*
X171291228Y-102824500D01*
X171126925Y-102857182D01*
X171126917Y-102857184D01*
X170996799Y-102911081D01*
X170927329Y-102918550D01*
X170901893Y-102911081D01*
X170772936Y-102857665D01*
X170772928Y-102857663D01*
X170608721Y-102825000D01*
X170441279Y-102825000D01*
X170277071Y-102857662D01*
X170277062Y-102857665D01*
X170124437Y-102920884D01*
X170522476Y-103318922D01*
X170555961Y-103380245D01*
X170556412Y-103430794D01*
X170547619Y-103475000D01*
X170485218Y-103475000D01*
X170411709Y-103505448D01*
X170355448Y-103561709D01*
X170325000Y-103635218D01*
X170325000Y-103714782D01*
X170355448Y-103788291D01*
X170411709Y-103844552D01*
X170485218Y-103875000D01*
X170547619Y-103875000D01*
X170556412Y-103919204D01*
X170550185Y-103988796D01*
X170522476Y-104031076D01*
X170203553Y-104349999D01*
X170203553Y-104350000D01*
X170522476Y-104668922D01*
X170525075Y-104673683D01*
X170529601Y-104676679D01*
X170541643Y-104704025D01*
X170555961Y-104730245D01*
X170556155Y-104736977D01*
X170557761Y-104740623D01*
X170556955Y-104764616D01*
X170557282Y-104775913D01*
X170556892Y-104778382D01*
X170547620Y-104825000D01*
X170485218Y-104825000D01*
X170411709Y-104855448D01*
X170355448Y-104911709D01*
X170325000Y-104985218D01*
X170325000Y-105064782D01*
X170355448Y-105138291D01*
X170363978Y-105146821D01*
X170304888Y-105142595D01*
X170260542Y-105114095D01*
X169742939Y-104596493D01*
X169709454Y-104535170D01*
X169714438Y-104465479D01*
X169742939Y-104421131D01*
X169814070Y-104350000D01*
X169742938Y-104278868D01*
X169709454Y-104217545D01*
X169714438Y-104147853D01*
X169742939Y-104103506D01*
X170171446Y-103674999D01*
X169741757Y-103245310D01*
X169708272Y-103183987D01*
X169706035Y-103169784D01*
X169700497Y-103113570D01*
X169625000Y-103063124D01*
X169624991Y-103063119D01*
X169452103Y-102991507D01*
X169452100Y-102991506D01*
X169425000Y-102986115D01*
X169425000Y-103738011D01*
X169415060Y-103720795D01*
X169359205Y-103664940D01*
X169290796Y-103625444D01*
X169214496Y-103605000D01*
X169135504Y-103605000D01*
X169059204Y-103625444D01*
X168990795Y-103664940D01*
X168934940Y-103720795D01*
X168925000Y-103738011D01*
X168925000Y-102986116D01*
X168924999Y-102986115D01*
X168897899Y-102991506D01*
X168897896Y-102991507D01*
X168725008Y-103063119D01*
X168724999Y-103063124D01*
X168569410Y-103167086D01*
X168569406Y-103167089D01*
X168437089Y-103299406D01*
X168437086Y-103299410D01*
X168333124Y-103454999D01*
X168333119Y-103455008D01*
X168261508Y-103627894D01*
X168261506Y-103627902D01*
X168225000Y-103811428D01*
X166743507Y-103811428D01*
X166710292Y-103778213D01*
X166710288Y-103778210D01*
X166579185Y-103690609D01*
X166579172Y-103690602D01*
X166433501Y-103630264D01*
X166433489Y-103630261D01*
X166278845Y-103599500D01*
X166278842Y-103599500D01*
X166121158Y-103599500D01*
X166121155Y-103599500D01*
X165966510Y-103630261D01*
X165966498Y-103630264D01*
X165820827Y-103690602D01*
X165820814Y-103690609D01*
X165689711Y-103778210D01*
X165689707Y-103778213D01*
X165578213Y-103889707D01*
X165578210Y-103889711D01*
X165490609Y-104020814D01*
X165490602Y-104020827D01*
X165430264Y-104166498D01*
X165430261Y-104166510D01*
X165399500Y-104321153D01*
X143350287Y-104321153D01*
X143321860Y-104292726D01*
X143321851Y-104292718D01*
X143113803Y-104133075D01*
X142886700Y-104001958D01*
X142886690Y-104001953D01*
X142644428Y-103901605D01*
X142644421Y-103901603D01*
X142644419Y-103901602D01*
X142391116Y-103833730D01*
X142333339Y-103826123D01*
X142131127Y-103799500D01*
X142131120Y-103799500D01*
X141868880Y-103799500D01*
X141868872Y-103799500D01*
X141637772Y-103829926D01*
X141608884Y-103833730D01*
X141454862Y-103875000D01*
X141355581Y-103901602D01*
X141355571Y-103901605D01*
X141113309Y-104001953D01*
X141113299Y-104001958D01*
X140886196Y-104133075D01*
X140678148Y-104292718D01*
X140492718Y-104478148D01*
X140333075Y-104686196D01*
X140201958Y-104913299D01*
X140201953Y-104913309D01*
X140101605Y-105155571D01*
X140101602Y-105155581D01*
X140036245Y-105399500D01*
X140033730Y-105408885D01*
X139999500Y-105668872D01*
X133500500Y-105668872D01*
X133500500Y-67179778D01*
X135679500Y-67179778D01*
X135679500Y-67400221D01*
X135713985Y-67617952D01*
X135782103Y-67827603D01*
X135782104Y-67827606D01*
X135850122Y-67961096D01*
X135880724Y-68021155D01*
X135882187Y-68024025D01*
X136011752Y-68202358D01*
X136011756Y-68202363D01*
X136167636Y-68358243D01*
X136167641Y-68358247D01*
X136307254Y-68459682D01*
X136349920Y-68515012D01*
X136355899Y-68584625D01*
X136323293Y-68646420D01*
X136307254Y-68660318D01*
X136167641Y-68761752D01*
X136167636Y-68761756D01*
X136011756Y-68917636D01*
X136011752Y-68917641D01*
X135882187Y-69095974D01*
X135782104Y-69292393D01*
X135782103Y-69292396D01*
X135713985Y-69502047D01*
X135679500Y-69719778D01*
X135679500Y-69940221D01*
X135713985Y-70157952D01*
X135782103Y-70367603D01*
X135782104Y-70367606D01*
X135882187Y-70564025D01*
X136011752Y-70742358D01*
X136011756Y-70742363D01*
X136167636Y-70898243D01*
X136167641Y-70898247D01*
X136307254Y-70999682D01*
X136349920Y-71055012D01*
X136355899Y-71124625D01*
X136323293Y-71186420D01*
X136307254Y-71200318D01*
X136167641Y-71301752D01*
X136167636Y-71301756D01*
X136011756Y-71457636D01*
X136011752Y-71457641D01*
X135882187Y-71635974D01*
X135782104Y-71832393D01*
X135782103Y-71832396D01*
X135713985Y-72042047D01*
X135679500Y-72259778D01*
X135679500Y-72480221D01*
X135713985Y-72697952D01*
X135782103Y-72907603D01*
X135782104Y-72907606D01*
X135882187Y-73104025D01*
X136011752Y-73282358D01*
X136011756Y-73282363D01*
X136167636Y-73438243D01*
X136167641Y-73438247D01*
X136307254Y-73539682D01*
X136349920Y-73595012D01*
X136355899Y-73664625D01*
X136323293Y-73726420D01*
X136307254Y-73740318D01*
X136167641Y-73841752D01*
X136167636Y-73841756D01*
X136011756Y-73997636D01*
X136011752Y-73997641D01*
X135882187Y-74175974D01*
X135782104Y-74372393D01*
X135782103Y-74372396D01*
X135713985Y-74582047D01*
X135698754Y-74678211D01*
X135679500Y-74799778D01*
X135679500Y-75020222D01*
X135686830Y-75066503D01*
X135713985Y-75237952D01*
X135782103Y-75447603D01*
X135782104Y-75447606D01*
X135825865Y-75533489D01*
X135869636Y-75619394D01*
X135882187Y-75644025D01*
X136011752Y-75822358D01*
X136011756Y-75822363D01*
X136167636Y-75978243D01*
X136167641Y-75978247D01*
X136307254Y-76079682D01*
X136349920Y-76135012D01*
X136355899Y-76204625D01*
X136323293Y-76266420D01*
X136307254Y-76280318D01*
X136167641Y-76381752D01*
X136167636Y-76381756D01*
X136011756Y-76537636D01*
X136011752Y-76537641D01*
X135882187Y-76715974D01*
X135782104Y-76912393D01*
X135782103Y-76912396D01*
X135713985Y-77122047D01*
X135679500Y-77339778D01*
X135679500Y-77560221D01*
X135713985Y-77777952D01*
X135782103Y-77987603D01*
X135782104Y-77987606D01*
X135834588Y-78090609D01*
X135882005Y-78183669D01*
X135882187Y-78184025D01*
X136011752Y-78362358D01*
X136011756Y-78362363D01*
X136167636Y-78518243D01*
X136167641Y-78518247D01*
X136307254Y-78619682D01*
X136349920Y-78675012D01*
X136355899Y-78744625D01*
X136323293Y-78806420D01*
X136307254Y-78820318D01*
X136167641Y-78921752D01*
X136167636Y-78921756D01*
X136011756Y-79077636D01*
X136011752Y-79077641D01*
X135882187Y-79255974D01*
X135782104Y-79452393D01*
X135782103Y-79452396D01*
X135713985Y-79662047D01*
X135679500Y-79879778D01*
X135679500Y-80100221D01*
X135713985Y-80317952D01*
X135782103Y-80527603D01*
X135782104Y-80527606D01*
X135850122Y-80661096D01*
X135869636Y-80699394D01*
X135882187Y-80724025D01*
X136011752Y-80902358D01*
X136011756Y-80902363D01*
X136167636Y-81058243D01*
X136167641Y-81058247D01*
X136307254Y-81159682D01*
X136349920Y-81215012D01*
X136355899Y-81284625D01*
X136323293Y-81346420D01*
X136307254Y-81360318D01*
X136167641Y-81461752D01*
X136167636Y-81461756D01*
X136011756Y-81617636D01*
X136011752Y-81617641D01*
X135882187Y-81795974D01*
X135782104Y-81992393D01*
X135782103Y-81992396D01*
X135713985Y-82202047D01*
X135713985Y-82202049D01*
X135679500Y-82419778D01*
X135679500Y-82640222D01*
X135696742Y-82749086D01*
X135713985Y-82857952D01*
X135782103Y-83067603D01*
X135782104Y-83067606D01*
X135850122Y-83201096D01*
X135869636Y-83239394D01*
X135882187Y-83264025D01*
X136011752Y-83442358D01*
X136011756Y-83442363D01*
X136167636Y-83598243D01*
X136167641Y-83598247D01*
X136307254Y-83699682D01*
X136349920Y-83755012D01*
X136355899Y-83824625D01*
X136323293Y-83886420D01*
X136307254Y-83900318D01*
X136167641Y-84001752D01*
X136167636Y-84001756D01*
X136011756Y-84157636D01*
X136011752Y-84157641D01*
X135882187Y-84335974D01*
X135782104Y-84532393D01*
X135782103Y-84532396D01*
X135713985Y-84742047D01*
X135679500Y-84959778D01*
X135679500Y-85180221D01*
X135713985Y-85397952D01*
X135782103Y-85607603D01*
X135782104Y-85607606D01*
X135850122Y-85741096D01*
X135869636Y-85779394D01*
X135882187Y-85804025D01*
X136011752Y-85982358D01*
X136011756Y-85982363D01*
X136167636Y-86138243D01*
X136167641Y-86138247D01*
X136307254Y-86239682D01*
X136349920Y-86295012D01*
X136355899Y-86364625D01*
X136323293Y-86426420D01*
X136307254Y-86440318D01*
X136167641Y-86541752D01*
X136167636Y-86541756D01*
X136011756Y-86697636D01*
X136011752Y-86697641D01*
X135882187Y-86875974D01*
X135782104Y-87072393D01*
X135782103Y-87072396D01*
X135713985Y-87282047D01*
X135679500Y-87499778D01*
X135679500Y-87720221D01*
X135713985Y-87937952D01*
X135782103Y-88147603D01*
X135782104Y-88147606D01*
X135882187Y-88344025D01*
X136011752Y-88522358D01*
X136011756Y-88522363D01*
X136167636Y-88678243D01*
X136167641Y-88678247D01*
X136307254Y-88779682D01*
X136349920Y-88835012D01*
X136355899Y-88904625D01*
X136323293Y-88966420D01*
X136307254Y-88980318D01*
X136167641Y-89081752D01*
X136167636Y-89081756D01*
X136011756Y-89237636D01*
X136011752Y-89237641D01*
X135882187Y-89415974D01*
X135782104Y-89612393D01*
X135782103Y-89612396D01*
X135713985Y-89822047D01*
X135713985Y-89822049D01*
X135679500Y-90039778D01*
X135679500Y-90260222D01*
X135696742Y-90369086D01*
X135713985Y-90477952D01*
X135782103Y-90687603D01*
X135782104Y-90687606D01*
X135882187Y-90884025D01*
X136011752Y-91062358D01*
X136011756Y-91062363D01*
X136167636Y-91218243D01*
X136167641Y-91218247D01*
X136307254Y-91319682D01*
X136349920Y-91375012D01*
X136355899Y-91444625D01*
X136323293Y-91506420D01*
X136307254Y-91520318D01*
X136167641Y-91621752D01*
X136167636Y-91621756D01*
X136011756Y-91777636D01*
X136011752Y-91777641D01*
X135882187Y-91955974D01*
X135782104Y-92152393D01*
X135782103Y-92152396D01*
X135713985Y-92362047D01*
X135679500Y-92579778D01*
X135679500Y-92800221D01*
X135713985Y-93017952D01*
X135782103Y-93227603D01*
X135782104Y-93227606D01*
X135823780Y-93309397D01*
X135870199Y-93400499D01*
X135882187Y-93424025D01*
X136011752Y-93602358D01*
X136011756Y-93602363D01*
X136167636Y-93758243D01*
X136167641Y-93758247D01*
X136307254Y-93859682D01*
X136349920Y-93915012D01*
X136355899Y-93984625D01*
X136323293Y-94046420D01*
X136307254Y-94060318D01*
X136167641Y-94161752D01*
X136167636Y-94161756D01*
X136011756Y-94317636D01*
X136011752Y-94317641D01*
X135882187Y-94495974D01*
X135782104Y-94692393D01*
X135782103Y-94692396D01*
X135713985Y-94902047D01*
X135679500Y-95119778D01*
X135679500Y-95340221D01*
X135713985Y-95557952D01*
X135782103Y-95767603D01*
X135782104Y-95767606D01*
X135882187Y-95964025D01*
X136011752Y-96142358D01*
X136011756Y-96142363D01*
X136167640Y-96298247D01*
X136307679Y-96399990D01*
X136350345Y-96455319D01*
X136356324Y-96524933D01*
X136323719Y-96586728D01*
X136307679Y-96600626D01*
X136282485Y-96618930D01*
X136282485Y-96618932D01*
X136942419Y-97278866D01*
X136883145Y-97294749D01*
X136766848Y-97361893D01*
X136671893Y-97456848D01*
X136604749Y-97573145D01*
X136588866Y-97632419D01*
X135928932Y-96972485D01*
X135928931Y-96972485D01*
X135882616Y-97036233D01*
X135782567Y-97232589D01*
X135714473Y-97442164D01*
X135680000Y-97659818D01*
X135680000Y-97880181D01*
X135714473Y-98097835D01*
X135782567Y-98307410D01*
X135882611Y-98503756D01*
X135928932Y-98567513D01*
X136588866Y-97907579D01*
X136604749Y-97966855D01*
X136671893Y-98083152D01*
X136766848Y-98178107D01*
X136883145Y-98245251D01*
X136942419Y-98261133D01*
X136330370Y-98873181D01*
X136269047Y-98906666D01*
X136242690Y-98909500D01*
X136132130Y-98909500D01*
X136132123Y-98909501D01*
X136072516Y-98915908D01*
X135937671Y-98966202D01*
X135937664Y-98966206D01*
X135822455Y-99052452D01*
X135822452Y-99052455D01*
X135736206Y-99167664D01*
X135736202Y-99167671D01*
X135685908Y-99302517D01*
X135679501Y-99362116D01*
X135679501Y-99362123D01*
X135679500Y-99362135D01*
X135679500Y-101257870D01*
X135679501Y-101257876D01*
X135685908Y-101317483D01*
X135736202Y-101452328D01*
X135736206Y-101452335D01*
X135822452Y-101567544D01*
X135822455Y-101567547D01*
X135937664Y-101653793D01*
X135937671Y-101653797D01*
X136072517Y-101704091D01*
X136072516Y-101704091D01*
X136079444Y-101704835D01*
X136132127Y-101710500D01*
X138027872Y-101710499D01*
X138087483Y-101704091D01*
X138222331Y-101653796D01*
X138337546Y-101567546D01*
X138423796Y-101452331D01*
X138435425Y-101421153D01*
X167899500Y-101421153D01*
X167899500Y-101578846D01*
X167930261Y-101733489D01*
X167930264Y-101733501D01*
X167990602Y-101879172D01*
X167990609Y-101879185D01*
X168078210Y-102010288D01*
X168078213Y-102010292D01*
X168189707Y-102121786D01*
X168189711Y-102121789D01*
X168320814Y-102209390D01*
X168320827Y-102209397D01*
X168466498Y-102269735D01*
X168466503Y-102269737D01*
X168621153Y-102300499D01*
X168621156Y-102300500D01*
X168621158Y-102300500D01*
X168778844Y-102300500D01*
X168778845Y-102300499D01*
X168933497Y-102269737D01*
X169079179Y-102209394D01*
X169210289Y-102121789D01*
X169321789Y-102010289D01*
X169409394Y-101879179D01*
X169469737Y-101733497D01*
X169500500Y-101578842D01*
X169500500Y-101421158D01*
X169500500Y-101421155D01*
X169500499Y-101421153D01*
X169483061Y-101333489D01*
X169469737Y-101266503D01*
X169433427Y-101178842D01*
X169409397Y-101120827D01*
X169409390Y-101120814D01*
X169384763Y-101083957D01*
X169342798Y-101021153D01*
X181499500Y-101021153D01*
X181499500Y-101178846D01*
X181530261Y-101333489D01*
X181530264Y-101333501D01*
X181590602Y-101479172D01*
X181590609Y-101479185D01*
X181678210Y-101610288D01*
X181678213Y-101610292D01*
X181789707Y-101721786D01*
X181789711Y-101721789D01*
X181920814Y-101809390D01*
X181920827Y-101809397D01*
X182066498Y-101869735D01*
X182066503Y-101869737D01*
X182221153Y-101900499D01*
X182221156Y-101900500D01*
X182221158Y-101900500D01*
X182378844Y-101900500D01*
X182378845Y-101900499D01*
X182533497Y-101869737D01*
X182679179Y-101809394D01*
X182810289Y-101721789D01*
X182921789Y-101610289D01*
X183009394Y-101479179D01*
X183069737Y-101333497D01*
X183100500Y-101178842D01*
X183100500Y-101021158D01*
X183100500Y-101021155D01*
X183100499Y-101021153D01*
X183082723Y-100931789D01*
X183069737Y-100866503D01*
X183013790Y-100731433D01*
X183009397Y-100720827D01*
X183009390Y-100720814D01*
X182921789Y-100589711D01*
X182921786Y-100589707D01*
X182810292Y-100478213D01*
X182810288Y-100478210D01*
X182679185Y-100390609D01*
X182679172Y-100390602D01*
X182533501Y-100330264D01*
X182533489Y-100330261D01*
X182378845Y-100299500D01*
X182378842Y-100299500D01*
X182221158Y-100299500D01*
X182221155Y-100299500D01*
X182066510Y-100330261D01*
X182066498Y-100330264D01*
X181920827Y-100390602D01*
X181920814Y-100390609D01*
X181789711Y-100478210D01*
X181789707Y-100478213D01*
X181678213Y-100589707D01*
X181678210Y-100589711D01*
X181590609Y-100720814D01*
X181590602Y-100720827D01*
X181530264Y-100866498D01*
X181530261Y-100866510D01*
X181499500Y-101021153D01*
X169342798Y-101021153D01*
X169321789Y-100989711D01*
X169321786Y-100989707D01*
X169210292Y-100878213D01*
X169210288Y-100878210D01*
X169079185Y-100790609D01*
X169079172Y-100790602D01*
X168933501Y-100730264D01*
X168933489Y-100730261D01*
X168778845Y-100699500D01*
X168778842Y-100699500D01*
X168621158Y-100699500D01*
X168621155Y-100699500D01*
X168466510Y-100730261D01*
X168466498Y-100730264D01*
X168320827Y-100790602D01*
X168320814Y-100790609D01*
X168189711Y-100878210D01*
X168189707Y-100878213D01*
X168078213Y-100989707D01*
X168078210Y-100989711D01*
X167990609Y-101120814D01*
X167990602Y-101120827D01*
X167930264Y-101266498D01*
X167930261Y-101266510D01*
X167899500Y-101421153D01*
X138435425Y-101421153D01*
X138474091Y-101317483D01*
X138480500Y-101257873D01*
X138480499Y-100798469D01*
X138500183Y-100731433D01*
X138552987Y-100685678D01*
X138622146Y-100675734D01*
X138685702Y-100704759D01*
X138707601Y-100729581D01*
X138768210Y-100820288D01*
X138768213Y-100820292D01*
X138879707Y-100931786D01*
X138879711Y-100931789D01*
X139010814Y-101019390D01*
X139010827Y-101019397D01*
X139156498Y-101079735D01*
X139156503Y-101079737D01*
X139311153Y-101110499D01*
X139311156Y-101110500D01*
X139311158Y-101110500D01*
X139468844Y-101110500D01*
X139468845Y-101110499D01*
X139623497Y-101079737D01*
X139736166Y-101033067D01*
X139769172Y-101019397D01*
X139769172Y-101019396D01*
X139769179Y-101019394D01*
X139900289Y-100931789D01*
X140011789Y-100820289D01*
X140099394Y-100689179D01*
X140159737Y-100543497D01*
X140190500Y-100388842D01*
X140190500Y-100231158D01*
X140190500Y-100231155D01*
X140190499Y-100231153D01*
X140159738Y-100076510D01*
X140159737Y-100076503D01*
X140104824Y-99943930D01*
X140099397Y-99930827D01*
X140099390Y-99930814D01*
X140011789Y-99799711D01*
X140011786Y-99799707D01*
X139900292Y-99688213D01*
X139900288Y-99688210D01*
X139769185Y-99600609D01*
X139769172Y-99600602D01*
X139623501Y-99540264D01*
X139623489Y-99540261D01*
X139468845Y-99509500D01*
X139468842Y-99509500D01*
X139311158Y-99509500D01*
X139311155Y-99509500D01*
X139156510Y-99540261D01*
X139156498Y-99540264D01*
X139010827Y-99600602D01*
X139010814Y-99600609D01*
X138879711Y-99688210D01*
X138879707Y-99688213D01*
X138768213Y-99799707D01*
X138707601Y-99890419D01*
X138653988Y-99935223D01*
X138584663Y-99943930D01*
X138521636Y-99913775D01*
X138484917Y-99854332D01*
X138480499Y-99821527D01*
X138480499Y-99362129D01*
X138480498Y-99362123D01*
X138480497Y-99362116D01*
X138474091Y-99302517D01*
X138423796Y-99167669D01*
X138423795Y-99167668D01*
X138423793Y-99167664D01*
X138337547Y-99052455D01*
X138337544Y-99052452D01*
X138222335Y-98966206D01*
X138222328Y-98966202D01*
X138087482Y-98915908D01*
X138087483Y-98915908D01*
X138027883Y-98909501D01*
X138027881Y-98909500D01*
X138027873Y-98909500D01*
X138027865Y-98909500D01*
X137917308Y-98909500D01*
X137850269Y-98889815D01*
X137829627Y-98873181D01*
X137217581Y-98261133D01*
X137276855Y-98245251D01*
X137393152Y-98178107D01*
X137488107Y-98083152D01*
X137555251Y-97966855D01*
X137571133Y-97907581D01*
X138231066Y-98567514D01*
X138231066Y-98567513D01*
X138277386Y-98503760D01*
X138377432Y-98307410D01*
X138445526Y-98097835D01*
X138480000Y-97880181D01*
X138480000Y-97659818D01*
X138460146Y-97534464D01*
X138458038Y-97521153D01*
X180749500Y-97521153D01*
X180749500Y-97678846D01*
X180780261Y-97833489D01*
X180780264Y-97833501D01*
X180840602Y-97979172D01*
X180840609Y-97979185D01*
X180928210Y-98110288D01*
X180928213Y-98110292D01*
X181039707Y-98221786D01*
X181039711Y-98221789D01*
X181170814Y-98309390D01*
X181170827Y-98309397D01*
X181316498Y-98369735D01*
X181316503Y-98369737D01*
X181471153Y-98400499D01*
X181471156Y-98400500D01*
X181471158Y-98400500D01*
X181628844Y-98400500D01*
X181628845Y-98400499D01*
X181783497Y-98369737D01*
X181929179Y-98309394D01*
X182060289Y-98221789D01*
X182171789Y-98110289D01*
X182259394Y-97979179D01*
X182319737Y-97833497D01*
X182350500Y-97678842D01*
X182350500Y-97521158D01*
X182350500Y-97521155D01*
X182350499Y-97521153D01*
X182319738Y-97366510D01*
X182319737Y-97366503D01*
X182319735Y-97366498D01*
X182259397Y-97220827D01*
X182259389Y-97220812D01*
X182241067Y-97193392D01*
X182220188Y-97126715D01*
X182238672Y-97059334D01*
X182290650Y-97012644D01*
X182344168Y-97000500D01*
X182378844Y-97000500D01*
X182378845Y-97000499D01*
X182533497Y-96969737D01*
X182679179Y-96909394D01*
X182810289Y-96821789D01*
X182921789Y-96710289D01*
X183009394Y-96579179D01*
X183069737Y-96433497D01*
X183100500Y-96278842D01*
X183100500Y-96121158D01*
X183100500Y-96121155D01*
X183100499Y-96121153D01*
X183069738Y-95966510D01*
X183069737Y-95966503D01*
X183068709Y-95964022D01*
X183009397Y-95820827D01*
X183009390Y-95820814D01*
X182921789Y-95689711D01*
X182921786Y-95689707D01*
X182810292Y-95578213D01*
X182810288Y-95578210D01*
X182679185Y-95490609D01*
X182679172Y-95490602D01*
X182533501Y-95430264D01*
X182533489Y-95430261D01*
X182378845Y-95399500D01*
X182378842Y-95399500D01*
X182221158Y-95399500D01*
X182221155Y-95399500D01*
X182066510Y-95430261D01*
X182066498Y-95430264D01*
X181920827Y-95490602D01*
X181920814Y-95490609D01*
X181789711Y-95578210D01*
X181789707Y-95578213D01*
X181678213Y-95689707D01*
X181678210Y-95689711D01*
X181590609Y-95820814D01*
X181590602Y-95820827D01*
X181530264Y-95966498D01*
X181530261Y-95966510D01*
X181499500Y-96121153D01*
X181499500Y-96278846D01*
X181530261Y-96433489D01*
X181530264Y-96433501D01*
X181590602Y-96579172D01*
X181590610Y-96579187D01*
X181608933Y-96606608D01*
X181629812Y-96673285D01*
X181611328Y-96740666D01*
X181559350Y-96787356D01*
X181505832Y-96799500D01*
X181471155Y-96799500D01*
X181316510Y-96830261D01*
X181316498Y-96830264D01*
X181170827Y-96890602D01*
X181170814Y-96890609D01*
X181039711Y-96978210D01*
X181039707Y-96978213D01*
X180928213Y-97089707D01*
X180928210Y-97089711D01*
X180840609Y-97220814D01*
X180840602Y-97220827D01*
X180780264Y-97366498D01*
X180780261Y-97366510D01*
X180749500Y-97521153D01*
X138458038Y-97521153D01*
X138445526Y-97442164D01*
X138377432Y-97232589D01*
X138277388Y-97036243D01*
X138231066Y-96972485D01*
X138231065Y-96972485D01*
X137571133Y-97632418D01*
X137555251Y-97573145D01*
X137488107Y-97456848D01*
X137393152Y-97361893D01*
X137276855Y-97294749D01*
X137217578Y-97278866D01*
X137877513Y-96618932D01*
X137852319Y-96600628D01*
X137809653Y-96545298D01*
X137803674Y-96475685D01*
X137836279Y-96413889D01*
X137852313Y-96399994D01*
X137992365Y-96298242D01*
X138148242Y-96142365D01*
X138277815Y-95964022D01*
X138377895Y-95767606D01*
X138446015Y-95557951D01*
X138480500Y-95340222D01*
X138480500Y-95119778D01*
X138446015Y-94902049D01*
X138380529Y-94700500D01*
X138377896Y-94692396D01*
X138377895Y-94692393D01*
X138290966Y-94521789D01*
X138277815Y-94495978D01*
X138174551Y-94353846D01*
X138148247Y-94317641D01*
X138148243Y-94317636D01*
X138026760Y-94196153D01*
X177424500Y-94196153D01*
X177424500Y-94353846D01*
X177455261Y-94508489D01*
X177455264Y-94508501D01*
X177515602Y-94654172D01*
X177515609Y-94654185D01*
X177603210Y-94785288D01*
X177603213Y-94785292D01*
X177714707Y-94896786D01*
X177714711Y-94896789D01*
X177845814Y-94984390D01*
X177845827Y-94984397D01*
X177991498Y-95044735D01*
X177991503Y-95044737D01*
X178146153Y-95075499D01*
X178146156Y-95075500D01*
X178146158Y-95075500D01*
X178303844Y-95075500D01*
X178303845Y-95075499D01*
X178458497Y-95044737D01*
X178604179Y-94984394D01*
X178735289Y-94896789D01*
X178846789Y-94785289D01*
X178934394Y-94654179D01*
X178994737Y-94508497D01*
X179025500Y-94353842D01*
X179025500Y-94196158D01*
X179025500Y-94196155D01*
X179025499Y-94196153D01*
X179013034Y-94133489D01*
X178994737Y-94041503D01*
X178950778Y-93935375D01*
X178934397Y-93895827D01*
X178934389Y-93895813D01*
X178926468Y-93883958D01*
X178926467Y-93883957D01*
X178884503Y-93821153D01*
X182399500Y-93821153D01*
X182399500Y-93978846D01*
X182430261Y-94133489D01*
X182430264Y-94133501D01*
X182490602Y-94279172D01*
X182490609Y-94279185D01*
X182578210Y-94410288D01*
X182578213Y-94410292D01*
X182689707Y-94521786D01*
X182689711Y-94521789D01*
X182820814Y-94609390D01*
X182820827Y-94609397D01*
X182966498Y-94669735D01*
X182966503Y-94669737D01*
X183080402Y-94692393D01*
X183121153Y-94700499D01*
X183121156Y-94700500D01*
X183121158Y-94700500D01*
X183278844Y-94700500D01*
X183278845Y-94700499D01*
X183433497Y-94669737D01*
X183579179Y-94609394D01*
X183710289Y-94521789D01*
X183821789Y-94410289D01*
X183909394Y-94279179D01*
X183969737Y-94133497D01*
X184000500Y-93978842D01*
X184000500Y-93821158D01*
X184000500Y-93821155D01*
X184000499Y-93821153D01*
X183969738Y-93666510D01*
X183969737Y-93666503D01*
X183964231Y-93653210D01*
X183909397Y-93520827D01*
X183909390Y-93520814D01*
X183821789Y-93389711D01*
X183821786Y-93389707D01*
X183710292Y-93278213D01*
X183710288Y-93278210D01*
X183579185Y-93190609D01*
X183579172Y-93190602D01*
X183433501Y-93130264D01*
X183433489Y-93130261D01*
X183278845Y-93099500D01*
X183278842Y-93099500D01*
X183121158Y-93099500D01*
X183121155Y-93099500D01*
X182966510Y-93130261D01*
X182966498Y-93130264D01*
X182820827Y-93190602D01*
X182820814Y-93190609D01*
X182689711Y-93278210D01*
X182689707Y-93278213D01*
X182578213Y-93389707D01*
X182578210Y-93389711D01*
X182490609Y-93520814D01*
X182490602Y-93520827D01*
X182430264Y-93666498D01*
X182430261Y-93666510D01*
X182399500Y-93821153D01*
X178884503Y-93821153D01*
X178846789Y-93764711D01*
X178846786Y-93764707D01*
X178735292Y-93653213D01*
X178735288Y-93653210D01*
X178604185Y-93565609D01*
X178604172Y-93565602D01*
X178458501Y-93505264D01*
X178458489Y-93505261D01*
X178303845Y-93474500D01*
X178303842Y-93474500D01*
X178146158Y-93474500D01*
X178146155Y-93474500D01*
X177991510Y-93505261D01*
X177991498Y-93505264D01*
X177845827Y-93565602D01*
X177845814Y-93565609D01*
X177714711Y-93653210D01*
X177714707Y-93653213D01*
X177603213Y-93764707D01*
X177603210Y-93764711D01*
X177515609Y-93895814D01*
X177515602Y-93895827D01*
X177455264Y-94041498D01*
X177455261Y-94041510D01*
X177424500Y-94196153D01*
X138026760Y-94196153D01*
X137992363Y-94161756D01*
X137992358Y-94161752D01*
X137852745Y-94060318D01*
X137810079Y-94004989D01*
X137804100Y-93935375D01*
X137836705Y-93873580D01*
X137852745Y-93859682D01*
X137992358Y-93758247D01*
X137992356Y-93758247D01*
X137992365Y-93758242D01*
X138148242Y-93602365D01*
X138277815Y-93424022D01*
X138377895Y-93227606D01*
X138446015Y-93017951D01*
X138480500Y-92800222D01*
X138480500Y-92579778D01*
X138446015Y-92362049D01*
X138377895Y-92152394D01*
X138377895Y-92152393D01*
X138340586Y-92079172D01*
X138277815Y-91955978D01*
X138261260Y-91933192D01*
X138148247Y-91777641D01*
X138148243Y-91777636D01*
X137992363Y-91621756D01*
X137992358Y-91621752D01*
X137852745Y-91520318D01*
X137835580Y-91498059D01*
X137815985Y-91477913D01*
X137814533Y-91470765D01*
X137810079Y-91464989D01*
X137807673Y-91436987D01*
X137802080Y-91409441D01*
X137804724Y-91402641D01*
X137804100Y-91395375D01*
X137817215Y-91370518D01*
X137827402Y-91344321D01*
X137834867Y-91337063D01*
X137836705Y-91333580D01*
X137851041Y-91321153D01*
X164499500Y-91321153D01*
X164499500Y-91478846D01*
X164530261Y-91633489D01*
X164530264Y-91633501D01*
X164590602Y-91779172D01*
X164590609Y-91779185D01*
X164678210Y-91910288D01*
X164678213Y-91910292D01*
X164680240Y-91912319D01*
X164680962Y-91913642D01*
X164682076Y-91914999D01*
X164681818Y-91915210D01*
X164713725Y-91973642D01*
X164708741Y-92043334D01*
X164682001Y-92084939D01*
X164682076Y-92085001D01*
X164681552Y-92085639D01*
X164680240Y-92087681D01*
X164678213Y-92089707D01*
X164678210Y-92089711D01*
X164590609Y-92220814D01*
X164590602Y-92220827D01*
X164530264Y-92366498D01*
X164530261Y-92366510D01*
X164499500Y-92521153D01*
X164499500Y-92678846D01*
X164530261Y-92833489D01*
X164530264Y-92833501D01*
X164590602Y-92979172D01*
X164590609Y-92979185D01*
X164678210Y-93110288D01*
X164678213Y-93110292D01*
X164789707Y-93221786D01*
X164789711Y-93221789D01*
X164920814Y-93309390D01*
X164920827Y-93309397D01*
X165066498Y-93369735D01*
X165066503Y-93369737D01*
X165221153Y-93400499D01*
X165221156Y-93400500D01*
X165221158Y-93400500D01*
X165378844Y-93400500D01*
X165378845Y-93400499D01*
X165533497Y-93369737D01*
X165679179Y-93309394D01*
X165810289Y-93221789D01*
X165921789Y-93110289D01*
X166009394Y-92979179D01*
X166069737Y-92833497D01*
X166100500Y-92678842D01*
X166100500Y-92521158D01*
X166100500Y-92521155D01*
X166100499Y-92521153D01*
X166078269Y-92409397D01*
X166069737Y-92366503D01*
X166051215Y-92321786D01*
X166009397Y-92220827D01*
X166009390Y-92220814D01*
X165921789Y-92089711D01*
X165919766Y-92087688D01*
X165919043Y-92086365D01*
X165917924Y-92085001D01*
X165918182Y-92084788D01*
X165886276Y-92026368D01*
X165891255Y-91956676D01*
X165917999Y-91915060D01*
X165917924Y-91914999D01*
X165918454Y-91914351D01*
X165919766Y-91912312D01*
X165921789Y-91910289D01*
X166009394Y-91779179D01*
X166069737Y-91633497D01*
X166072192Y-91621153D01*
X169499500Y-91621153D01*
X169499500Y-91778846D01*
X169530261Y-91933489D01*
X169530264Y-91933501D01*
X169590602Y-92079172D01*
X169590609Y-92079185D01*
X169678210Y-92210288D01*
X169678213Y-92210292D01*
X169789707Y-92321786D01*
X169789711Y-92321789D01*
X169920814Y-92409390D01*
X169920827Y-92409397D01*
X170066498Y-92469735D01*
X170066503Y-92469737D01*
X170221153Y-92500499D01*
X170221156Y-92500500D01*
X170221158Y-92500500D01*
X170378844Y-92500500D01*
X170378845Y-92500499D01*
X170533497Y-92469737D01*
X170679179Y-92409394D01*
X170810289Y-92321789D01*
X170921789Y-92210289D01*
X171009394Y-92079179D01*
X171069737Y-91933497D01*
X171100500Y-91778842D01*
X171100500Y-91621158D01*
X171100500Y-91621155D01*
X171100499Y-91621153D01*
X171094476Y-91590873D01*
X171069737Y-91466503D01*
X171050475Y-91420000D01*
X171009397Y-91320827D01*
X171009390Y-91320814D01*
X170921789Y-91189711D01*
X170921786Y-91189707D01*
X170810292Y-91078213D01*
X170810288Y-91078210D01*
X170679185Y-90990609D01*
X170679172Y-90990602D01*
X170533501Y-90930264D01*
X170533489Y-90930261D01*
X170378845Y-90899500D01*
X170378842Y-90899500D01*
X170221158Y-90899500D01*
X170221155Y-90899500D01*
X170066510Y-90930261D01*
X170066498Y-90930264D01*
X169920827Y-90990602D01*
X169920814Y-90990609D01*
X169789711Y-91078210D01*
X169789707Y-91078213D01*
X169678213Y-91189707D01*
X169678210Y-91189711D01*
X169590609Y-91320814D01*
X169590602Y-91320827D01*
X169530264Y-91466498D01*
X169530261Y-91466510D01*
X169499500Y-91621153D01*
X166072192Y-91621153D01*
X166078216Y-91590874D01*
X166078216Y-91590873D01*
X166100499Y-91478846D01*
X166100500Y-91478844D01*
X166100500Y-91321155D01*
X166100499Y-91321153D01*
X166100206Y-91319682D01*
X166069737Y-91166503D01*
X166069735Y-91166498D01*
X166009397Y-91020827D01*
X166009390Y-91020814D01*
X165921789Y-90889711D01*
X165921786Y-90889707D01*
X165810292Y-90778213D01*
X165810288Y-90778210D01*
X165679185Y-90690609D01*
X165679172Y-90690602D01*
X165533501Y-90630264D01*
X165533489Y-90630261D01*
X165378845Y-90599500D01*
X165378842Y-90599500D01*
X165221158Y-90599500D01*
X165221155Y-90599500D01*
X165066510Y-90630261D01*
X165066498Y-90630264D01*
X164920827Y-90690602D01*
X164920814Y-90690609D01*
X164789711Y-90778210D01*
X164789707Y-90778213D01*
X164678213Y-90889707D01*
X164678210Y-90889711D01*
X164590609Y-91020814D01*
X164590602Y-91020827D01*
X164530264Y-91166498D01*
X164530261Y-91166510D01*
X164499500Y-91321153D01*
X137851041Y-91321153D01*
X137852702Y-91319713D01*
X137853460Y-91319161D01*
X137992365Y-91218242D01*
X138148242Y-91062365D01*
X138277815Y-90884022D01*
X138377895Y-90687606D01*
X138446015Y-90477951D01*
X138480500Y-90260222D01*
X138480500Y-90039778D01*
X138446015Y-89822049D01*
X138445724Y-89821153D01*
X177099500Y-89821153D01*
X177099500Y-89978846D01*
X177130261Y-90133489D01*
X177130264Y-90133501D01*
X177190602Y-90279172D01*
X177190609Y-90279185D01*
X177278210Y-90410288D01*
X177278213Y-90410292D01*
X177389707Y-90521786D01*
X177389711Y-90521789D01*
X177520814Y-90609390D01*
X177520827Y-90609397D01*
X177666498Y-90669735D01*
X177666503Y-90669737D01*
X177821153Y-90700499D01*
X177821156Y-90700500D01*
X177821158Y-90700500D01*
X177978844Y-90700500D01*
X177978845Y-90700499D01*
X178133497Y-90669737D01*
X178279179Y-90609394D01*
X178331110Y-90574694D01*
X178397785Y-90553816D01*
X178465165Y-90572300D01*
X178468863Y-90574676D01*
X178520821Y-90609394D01*
X178520823Y-90609395D01*
X178520825Y-90609396D01*
X178666498Y-90669735D01*
X178666503Y-90669737D01*
X178821153Y-90700499D01*
X178821156Y-90700500D01*
X178821158Y-90700500D01*
X178978844Y-90700500D01*
X178978845Y-90700499D01*
X179133497Y-90669737D01*
X179279179Y-90609394D01*
X179281110Y-90608103D01*
X179282276Y-90607737D01*
X179284546Y-90606525D01*
X179284776Y-90606955D01*
X179347786Y-90587226D01*
X179415166Y-90605710D01*
X179418850Y-90608077D01*
X179420821Y-90609394D01*
X179420824Y-90609395D01*
X179420827Y-90609397D01*
X179566498Y-90669735D01*
X179566503Y-90669737D01*
X179721153Y-90700499D01*
X179721156Y-90700500D01*
X179721158Y-90700500D01*
X179878844Y-90700500D01*
X179878845Y-90700499D01*
X180033497Y-90669737D01*
X180179179Y-90609394D01*
X180181110Y-90608103D01*
X180182276Y-90607737D01*
X180184546Y-90606525D01*
X180184776Y-90606955D01*
X180247786Y-90587226D01*
X180315166Y-90605710D01*
X180318850Y-90608077D01*
X180320821Y-90609394D01*
X180320824Y-90609395D01*
X180320827Y-90609397D01*
X180466498Y-90669735D01*
X180466503Y-90669737D01*
X180621153Y-90700499D01*
X180621156Y-90700500D01*
X180621158Y-90700500D01*
X180778844Y-90700500D01*
X180778845Y-90700499D01*
X180933497Y-90669737D01*
X181079179Y-90609394D01*
X181210289Y-90521789D01*
X181321789Y-90410289D01*
X181409394Y-90279179D01*
X181469737Y-90133497D01*
X181500500Y-89978842D01*
X181500500Y-89821158D01*
X181500500Y-89821155D01*
X181500499Y-89821153D01*
X181469738Y-89666510D01*
X181469737Y-89666503D01*
X181469735Y-89666498D01*
X181409397Y-89520827D01*
X181409390Y-89520814D01*
X181321789Y-89389711D01*
X181321786Y-89389707D01*
X181210292Y-89278213D01*
X181210288Y-89278210D01*
X181079185Y-89190609D01*
X181079172Y-89190602D01*
X180933501Y-89130264D01*
X180933489Y-89130261D01*
X180778845Y-89099500D01*
X180778842Y-89099500D01*
X180621158Y-89099500D01*
X180621155Y-89099500D01*
X180466510Y-89130261D01*
X180466498Y-89130264D01*
X180320822Y-89190604D01*
X180320820Y-89190605D01*
X180318885Y-89191899D01*
X180317717Y-89192264D01*
X180315451Y-89193476D01*
X180315221Y-89193045D01*
X180252206Y-89212773D01*
X180184827Y-89194285D01*
X180181115Y-89191899D01*
X180179179Y-89190605D01*
X180179177Y-89190604D01*
X180033501Y-89130264D01*
X180033489Y-89130261D01*
X179878845Y-89099500D01*
X179878842Y-89099500D01*
X179721158Y-89099500D01*
X179721155Y-89099500D01*
X179566510Y-89130261D01*
X179566498Y-89130264D01*
X179420822Y-89190604D01*
X179420820Y-89190605D01*
X179418885Y-89191899D01*
X179417717Y-89192264D01*
X179415451Y-89193476D01*
X179415221Y-89193045D01*
X179352206Y-89212773D01*
X179284827Y-89194285D01*
X179281115Y-89191899D01*
X179279179Y-89190605D01*
X179279177Y-89190604D01*
X179133501Y-89130264D01*
X179133489Y-89130261D01*
X178978845Y-89099500D01*
X178978842Y-89099500D01*
X178821158Y-89099500D01*
X178821155Y-89099500D01*
X178666510Y-89130261D01*
X178666498Y-89130264D01*
X178520827Y-89190602D01*
X178520814Y-89190609D01*
X178468891Y-89225304D01*
X178402214Y-89246182D01*
X178334833Y-89227698D01*
X178331109Y-89225304D01*
X178279185Y-89190609D01*
X178279172Y-89190602D01*
X178133501Y-89130264D01*
X178133489Y-89130261D01*
X177978845Y-89099500D01*
X177978842Y-89099500D01*
X177821158Y-89099500D01*
X177821155Y-89099500D01*
X177666510Y-89130261D01*
X177666498Y-89130264D01*
X177520827Y-89190602D01*
X177520814Y-89190609D01*
X177389711Y-89278210D01*
X177389707Y-89278213D01*
X177278213Y-89389707D01*
X177278210Y-89389711D01*
X177190609Y-89520814D01*
X177190602Y-89520827D01*
X177130264Y-89666498D01*
X177130261Y-89666510D01*
X177099500Y-89821153D01*
X138445724Y-89821153D01*
X138377895Y-89612394D01*
X138377895Y-89612393D01*
X138331232Y-89520814D01*
X138277815Y-89415978D01*
X138178430Y-89279185D01*
X138148247Y-89237641D01*
X138148243Y-89237636D01*
X137992363Y-89081756D01*
X137992358Y-89081752D01*
X137852745Y-88980318D01*
X137835564Y-88958039D01*
X137815960Y-88937866D01*
X137814516Y-88930744D01*
X137810079Y-88924989D01*
X137807671Y-88896960D01*
X137802085Y-88869388D01*
X137804721Y-88862615D01*
X137804100Y-88855375D01*
X137817229Y-88830492D01*
X137820865Y-88821153D01*
X158399500Y-88821153D01*
X158399500Y-88978846D01*
X158430261Y-89133489D01*
X158430264Y-89133501D01*
X158490602Y-89279172D01*
X158490609Y-89279185D01*
X158578210Y-89410288D01*
X158578213Y-89410292D01*
X158689707Y-89521786D01*
X158689711Y-89521789D01*
X158820814Y-89609390D01*
X158820827Y-89609397D01*
X158958683Y-89666498D01*
X158966503Y-89669737D01*
X159121153Y-89700499D01*
X159121156Y-89700500D01*
X159121158Y-89700500D01*
X159278844Y-89700500D01*
X159278845Y-89700499D01*
X159289179Y-89698443D01*
X159314287Y-89693450D01*
X159314292Y-89693449D01*
X159399800Y-89676439D01*
X159433497Y-89669737D01*
X159546166Y-89623067D01*
X159579172Y-89609397D01*
X159579172Y-89609396D01*
X159579179Y-89609394D01*
X159710289Y-89521789D01*
X159821789Y-89410289D01*
X159909394Y-89279179D01*
X159969737Y-89133497D01*
X160000500Y-88978842D01*
X160000500Y-88821158D01*
X160000500Y-88821155D01*
X160000499Y-88821153D01*
X159997846Y-88807815D01*
X159969737Y-88666503D01*
X159969735Y-88666498D01*
X159909397Y-88520827D01*
X159909390Y-88520814D01*
X159821789Y-88389711D01*
X159821786Y-88389707D01*
X159710292Y-88278213D01*
X159710288Y-88278210D01*
X159579185Y-88190609D01*
X159579172Y-88190602D01*
X159433501Y-88130264D01*
X159433489Y-88130261D01*
X159278845Y-88099500D01*
X159278842Y-88099500D01*
X159121158Y-88099500D01*
X159121155Y-88099500D01*
X158966510Y-88130261D01*
X158966498Y-88130264D01*
X158820827Y-88190602D01*
X158820814Y-88190609D01*
X158689711Y-88278210D01*
X158689707Y-88278213D01*
X158578213Y-88389707D01*
X158578210Y-88389711D01*
X158490609Y-88520814D01*
X158490602Y-88520827D01*
X158430264Y-88666498D01*
X158430261Y-88666510D01*
X158399500Y-88821153D01*
X137820865Y-88821153D01*
X137827435Y-88804279D01*
X137834875Y-88797048D01*
X137836705Y-88793580D01*
X137852745Y-88779681D01*
X137890390Y-88752331D01*
X137942120Y-88714747D01*
X137942122Y-88714746D01*
X137992358Y-88678247D01*
X137992356Y-88678247D01*
X137992365Y-88678242D01*
X138148242Y-88522365D01*
X138277815Y-88344022D01*
X138377895Y-88147606D01*
X138446015Y-87937951D01*
X138480500Y-87720222D01*
X138480500Y-87499778D01*
X138446015Y-87282049D01*
X138377895Y-87072394D01*
X138377895Y-87072393D01*
X138343237Y-87004375D01*
X138277815Y-86875978D01*
X138261260Y-86853192D01*
X138148247Y-86697641D01*
X138148243Y-86697636D01*
X137992363Y-86541756D01*
X137992358Y-86541752D01*
X137852745Y-86440318D01*
X137810079Y-86384989D01*
X137804100Y-86315375D01*
X137836705Y-86253580D01*
X137852745Y-86239682D01*
X137992358Y-86138247D01*
X137992356Y-86138247D01*
X137992365Y-86138242D01*
X138148242Y-85982365D01*
X138277815Y-85804022D01*
X138377895Y-85607606D01*
X138446015Y-85397951D01*
X138480500Y-85180222D01*
X138480500Y-84959778D01*
X138446015Y-84742049D01*
X138386771Y-84559711D01*
X138377896Y-84532396D01*
X138377895Y-84532393D01*
X138327500Y-84433489D01*
X138277815Y-84335978D01*
X138269277Y-84324226D01*
X138170271Y-84187954D01*
X138170269Y-84187952D01*
X138148243Y-84157636D01*
X138111760Y-84121153D01*
X186499500Y-84121153D01*
X186499500Y-84278846D01*
X186530261Y-84433489D01*
X186530264Y-84433501D01*
X186590602Y-84579172D01*
X186590609Y-84579185D01*
X186678210Y-84710288D01*
X186678213Y-84710292D01*
X186789707Y-84821786D01*
X186789711Y-84821789D01*
X186920814Y-84909390D01*
X186920827Y-84909397D01*
X187066498Y-84969735D01*
X187066503Y-84969737D01*
X187221153Y-85000499D01*
X187221156Y-85000500D01*
X187221158Y-85000500D01*
X187378844Y-85000500D01*
X187378845Y-85000499D01*
X187425831Y-84991153D01*
X201669500Y-84991153D01*
X201669500Y-85148846D01*
X201700261Y-85303489D01*
X201700264Y-85303501D01*
X201760602Y-85449172D01*
X201760609Y-85449185D01*
X201848210Y-85580288D01*
X201848213Y-85580292D01*
X201959707Y-85691786D01*
X201959711Y-85691789D01*
X202090814Y-85779390D01*
X202090827Y-85779397D01*
X202236498Y-85839735D01*
X202236503Y-85839737D01*
X202391153Y-85870499D01*
X202391156Y-85870500D01*
X202391158Y-85870500D01*
X202548844Y-85870500D01*
X202548845Y-85870499D01*
X202703497Y-85839737D01*
X202849179Y-85779394D01*
X202980289Y-85691789D01*
X203091789Y-85580289D01*
X203179394Y-85449179D01*
X203239737Y-85303497D01*
X203270500Y-85148842D01*
X203270500Y-84991158D01*
X203270500Y-84991155D01*
X203270499Y-84991153D01*
X203264258Y-84959778D01*
X203239737Y-84836503D01*
X203233641Y-84821786D01*
X203179397Y-84690827D01*
X203179390Y-84690814D01*
X203091789Y-84559711D01*
X203091786Y-84559707D01*
X202980292Y-84448213D01*
X202980288Y-84448210D01*
X202849185Y-84360609D01*
X202849172Y-84360602D01*
X202703501Y-84300264D01*
X202703489Y-84300261D01*
X202548845Y-84269500D01*
X202548842Y-84269500D01*
X202391158Y-84269500D01*
X202391155Y-84269500D01*
X202236510Y-84300261D01*
X202236498Y-84300264D01*
X202090827Y-84360602D01*
X202090814Y-84360609D01*
X201959711Y-84448210D01*
X201959707Y-84448213D01*
X201848213Y-84559707D01*
X201848210Y-84559711D01*
X201760609Y-84690814D01*
X201760602Y-84690827D01*
X201700264Y-84836498D01*
X201700261Y-84836510D01*
X201669500Y-84991153D01*
X187425831Y-84991153D01*
X187533497Y-84969737D01*
X187679179Y-84909394D01*
X187679185Y-84909390D01*
X187720232Y-84881964D01*
X187788257Y-84836510D01*
X187810289Y-84821789D01*
X187921789Y-84710289D01*
X188009394Y-84579179D01*
X188069737Y-84433497D01*
X188100500Y-84278842D01*
X188100500Y-84121158D01*
X188100500Y-84121155D01*
X188100499Y-84121153D01*
X188069737Y-83966503D01*
X188069735Y-83966498D01*
X188009397Y-83820827D01*
X188009390Y-83820814D01*
X187921789Y-83689711D01*
X187921786Y-83689707D01*
X187810292Y-83578213D01*
X187810288Y-83578210D01*
X187679185Y-83490609D01*
X187679172Y-83490602D01*
X187533501Y-83430264D01*
X187533489Y-83430261D01*
X187378845Y-83399500D01*
X187378842Y-83399500D01*
X187221158Y-83399500D01*
X187221155Y-83399500D01*
X187066510Y-83430261D01*
X187066498Y-83430264D01*
X186920827Y-83490602D01*
X186920814Y-83490609D01*
X186789711Y-83578210D01*
X186789707Y-83578213D01*
X186678213Y-83689707D01*
X186678210Y-83689711D01*
X186590609Y-83820814D01*
X186590602Y-83820827D01*
X186530264Y-83966498D01*
X186530261Y-83966510D01*
X186499500Y-84121153D01*
X138111760Y-84121153D01*
X137992363Y-84001756D01*
X137992358Y-84001752D01*
X137852745Y-83900318D01*
X137810079Y-83844989D01*
X137804100Y-83775375D01*
X137836705Y-83713580D01*
X137852745Y-83699682D01*
X137992358Y-83598247D01*
X137992356Y-83598247D01*
X137992365Y-83598242D01*
X138148242Y-83442365D01*
X138277815Y-83264022D01*
X138377895Y-83067606D01*
X138446015Y-82857951D01*
X138450260Y-82831153D01*
X155009500Y-82831153D01*
X155009500Y-82988846D01*
X155040261Y-83143489D01*
X155040264Y-83143501D01*
X155100602Y-83289172D01*
X155100609Y-83289185D01*
X155188210Y-83420288D01*
X155188213Y-83420292D01*
X155299707Y-83531786D01*
X155299711Y-83531789D01*
X155430814Y-83619390D01*
X155430827Y-83619397D01*
X155576498Y-83679735D01*
X155576503Y-83679737D01*
X155676773Y-83699682D01*
X155731153Y-83710499D01*
X155731156Y-83710500D01*
X155731158Y-83710500D01*
X155888844Y-83710500D01*
X155888845Y-83710499D01*
X156043497Y-83679737D01*
X156189179Y-83619394D01*
X156320289Y-83531789D01*
X156431789Y-83420289D01*
X156519394Y-83289179D01*
X156579737Y-83143497D01*
X156610500Y-82988842D01*
X156610500Y-82831158D01*
X156610500Y-82831155D01*
X156610499Y-82831153D01*
X156579738Y-82676510D01*
X156579737Y-82676503D01*
X156551711Y-82608842D01*
X156519397Y-82530827D01*
X156519389Y-82530813D01*
X156508127Y-82513958D01*
X156508126Y-82513957D01*
X156466162Y-82451153D01*
X204829500Y-82451153D01*
X204829500Y-82608846D01*
X204860261Y-82763489D01*
X204860264Y-82763501D01*
X204920602Y-82909172D01*
X204920609Y-82909185D01*
X205008210Y-83040288D01*
X205008213Y-83040292D01*
X205119707Y-83151786D01*
X205119711Y-83151789D01*
X205250814Y-83239390D01*
X205250827Y-83239397D01*
X205371028Y-83289185D01*
X205396503Y-83299737D01*
X205551153Y-83330499D01*
X205551156Y-83330500D01*
X205551158Y-83330500D01*
X205708844Y-83330500D01*
X205708845Y-83330499D01*
X205863497Y-83299737D01*
X206009179Y-83239394D01*
X206140289Y-83151789D01*
X206251789Y-83040289D01*
X206339394Y-82909179D01*
X206399737Y-82763497D01*
X206430500Y-82608842D01*
X206430500Y-82451158D01*
X206430500Y-82451155D01*
X206430499Y-82451153D01*
X206399738Y-82296510D01*
X206399737Y-82296503D01*
X206396302Y-82288210D01*
X206339397Y-82150827D01*
X206339390Y-82150814D01*
X206251789Y-82019711D01*
X206251786Y-82019707D01*
X206140292Y-81908213D01*
X206140288Y-81908210D01*
X206009185Y-81820609D01*
X206009172Y-81820602D01*
X205863501Y-81760264D01*
X205863489Y-81760261D01*
X205708845Y-81729500D01*
X205708842Y-81729500D01*
X205551158Y-81729500D01*
X205551155Y-81729500D01*
X205396510Y-81760261D01*
X205396498Y-81760264D01*
X205250827Y-81820602D01*
X205250814Y-81820609D01*
X205119711Y-81908210D01*
X205119707Y-81908213D01*
X205008213Y-82019707D01*
X205008210Y-82019711D01*
X204920609Y-82150814D01*
X204920602Y-82150827D01*
X204860264Y-82296498D01*
X204860261Y-82296510D01*
X204829500Y-82451153D01*
X156466162Y-82451153D01*
X156431789Y-82399711D01*
X156431786Y-82399707D01*
X156320292Y-82288213D01*
X156320288Y-82288210D01*
X156189185Y-82200609D01*
X156189172Y-82200602D01*
X156043501Y-82140264D01*
X156043489Y-82140261D01*
X155888845Y-82109500D01*
X155888842Y-82109500D01*
X155731158Y-82109500D01*
X155731155Y-82109500D01*
X155576510Y-82140261D01*
X155576498Y-82140264D01*
X155430827Y-82200602D01*
X155430814Y-82200609D01*
X155299711Y-82288210D01*
X155299707Y-82288213D01*
X155188213Y-82399707D01*
X155188210Y-82399711D01*
X155100609Y-82530814D01*
X155100602Y-82530827D01*
X155040264Y-82676498D01*
X155040261Y-82676510D01*
X155009500Y-82831153D01*
X138450260Y-82831153D01*
X138460975Y-82763501D01*
X138467418Y-82722813D01*
X138480500Y-82640222D01*
X138480500Y-82419778D01*
X138446015Y-82202049D01*
X138386771Y-82019711D01*
X138377896Y-81992396D01*
X138377895Y-81992393D01*
X138335001Y-81908210D01*
X138277815Y-81795978D01*
X138229516Y-81729500D01*
X138148247Y-81617641D01*
X138148243Y-81617636D01*
X137992363Y-81461756D01*
X137992358Y-81461752D01*
X137852745Y-81360318D01*
X137810079Y-81304989D01*
X137804100Y-81235375D01*
X137836705Y-81173580D01*
X137852745Y-81159682D01*
X137992358Y-81058247D01*
X137992356Y-81058247D01*
X137992365Y-81058242D01*
X138148242Y-80902365D01*
X138277815Y-80724022D01*
X138377895Y-80527606D01*
X138446015Y-80317951D01*
X138480500Y-80100222D01*
X138480500Y-79911153D01*
X207789500Y-79911153D01*
X207789500Y-80068846D01*
X207820261Y-80223489D01*
X207820264Y-80223501D01*
X207880602Y-80369172D01*
X207880609Y-80369185D01*
X207968210Y-80500288D01*
X207968213Y-80500292D01*
X208079707Y-80611786D01*
X208079711Y-80611789D01*
X208210814Y-80699390D01*
X208210827Y-80699397D01*
X208356498Y-80759735D01*
X208356503Y-80759737D01*
X208511153Y-80790499D01*
X208511156Y-80790500D01*
X208511158Y-80790500D01*
X208668844Y-80790500D01*
X208668845Y-80790499D01*
X208823497Y-80759737D01*
X208969179Y-80699394D01*
X209100289Y-80611789D01*
X209211789Y-80500289D01*
X209299394Y-80369179D01*
X209359737Y-80223497D01*
X209390500Y-80068842D01*
X209390500Y-79911158D01*
X209388101Y-79899095D01*
X209388101Y-79899093D01*
X209384259Y-79879778D01*
X216679500Y-79879778D01*
X216679500Y-80100221D01*
X216713985Y-80317952D01*
X216782103Y-80527603D01*
X216782104Y-80527606D01*
X216850122Y-80661096D01*
X216869636Y-80699394D01*
X216882187Y-80724025D01*
X217011752Y-80902358D01*
X217011756Y-80902363D01*
X217167636Y-81058243D01*
X217167641Y-81058247D01*
X217307254Y-81159682D01*
X217349920Y-81215012D01*
X217355899Y-81284625D01*
X217323293Y-81346420D01*
X217307254Y-81360318D01*
X217167641Y-81461752D01*
X217167636Y-81461756D01*
X217011756Y-81617636D01*
X217011752Y-81617641D01*
X216882187Y-81795974D01*
X216782104Y-81992393D01*
X216782103Y-81992396D01*
X216713985Y-82202047D01*
X216713985Y-82202049D01*
X216679500Y-82419778D01*
X216679500Y-82640222D01*
X216696742Y-82749086D01*
X216713985Y-82857952D01*
X216782103Y-83067603D01*
X216782104Y-83067606D01*
X216850122Y-83201096D01*
X216869636Y-83239394D01*
X216882187Y-83264025D01*
X217011752Y-83442358D01*
X217011756Y-83442363D01*
X217167636Y-83598243D01*
X217167641Y-83598247D01*
X217307254Y-83699682D01*
X217349920Y-83755012D01*
X217355899Y-83824625D01*
X217323293Y-83886420D01*
X217307254Y-83900318D01*
X217167641Y-84001752D01*
X217167636Y-84001756D01*
X217011756Y-84157636D01*
X217011752Y-84157641D01*
X216882187Y-84335974D01*
X216782104Y-84532393D01*
X216782103Y-84532396D01*
X216713985Y-84742047D01*
X216679500Y-84959778D01*
X216679500Y-85180221D01*
X216713985Y-85397952D01*
X216782103Y-85607603D01*
X216782104Y-85607606D01*
X216850122Y-85741096D01*
X216869636Y-85779394D01*
X216882187Y-85804025D01*
X217011752Y-85982358D01*
X217011756Y-85982363D01*
X217061928Y-86032535D01*
X217095413Y-86093858D01*
X217090429Y-86163550D01*
X217048557Y-86219483D01*
X217017581Y-86236398D01*
X216937669Y-86266203D01*
X216937664Y-86266206D01*
X216822455Y-86352452D01*
X216822452Y-86352455D01*
X216736206Y-86467664D01*
X216736202Y-86467671D01*
X216685908Y-86602517D01*
X216679501Y-86662116D01*
X216679501Y-86662123D01*
X216679500Y-86662135D01*
X216679500Y-88557870D01*
X216679501Y-88557876D01*
X216685908Y-88617483D01*
X216736202Y-88752328D01*
X216736206Y-88752335D01*
X216822452Y-88867544D01*
X216822455Y-88867547D01*
X216937664Y-88953793D01*
X216937671Y-88953797D01*
X217072517Y-89004091D01*
X217072516Y-89004091D01*
X217079444Y-89004835D01*
X217132127Y-89010500D01*
X219027872Y-89010499D01*
X219087483Y-89004091D01*
X219222331Y-88953796D01*
X219337546Y-88867546D01*
X219423796Y-88752331D01*
X219474091Y-88617483D01*
X219480500Y-88557873D01*
X219480499Y-86662128D01*
X219474091Y-86602517D01*
X219451429Y-86541758D01*
X219423797Y-86467671D01*
X219423793Y-86467664D01*
X219337547Y-86352455D01*
X219337544Y-86352452D01*
X219222335Y-86266206D01*
X219222328Y-86266202D01*
X219142419Y-86236398D01*
X219086485Y-86194527D01*
X219062068Y-86129062D01*
X219076920Y-86060789D01*
X219098069Y-86032537D01*
X219148242Y-85982365D01*
X219277815Y-85804022D01*
X219377895Y-85607606D01*
X219446015Y-85397951D01*
X219480500Y-85180222D01*
X219480500Y-84959778D01*
X219446015Y-84742049D01*
X219386771Y-84559711D01*
X219377896Y-84532396D01*
X219377895Y-84532393D01*
X219327500Y-84433489D01*
X219277815Y-84335978D01*
X219251865Y-84300261D01*
X219148247Y-84157641D01*
X219148243Y-84157636D01*
X218992363Y-84001756D01*
X218992358Y-84001752D01*
X218852745Y-83900318D01*
X218810079Y-83844989D01*
X218804100Y-83775375D01*
X218836705Y-83713580D01*
X218852745Y-83699682D01*
X218992358Y-83598247D01*
X218992356Y-83598247D01*
X218992365Y-83598242D01*
X219148242Y-83442365D01*
X219277815Y-83264022D01*
X219377895Y-83067606D01*
X219446015Y-82857951D01*
X219480500Y-82640222D01*
X219480500Y-82419778D01*
X219446015Y-82202049D01*
X219386771Y-82019711D01*
X219377896Y-81992396D01*
X219377895Y-81992393D01*
X219335001Y-81908210D01*
X219277815Y-81795978D01*
X219229516Y-81729500D01*
X219148247Y-81617641D01*
X219148243Y-81617636D01*
X218992363Y-81461756D01*
X218992358Y-81461752D01*
X218852745Y-81360318D01*
X218810079Y-81304989D01*
X218804100Y-81235375D01*
X218836705Y-81173580D01*
X218852745Y-81159682D01*
X218992358Y-81058247D01*
X218992356Y-81058247D01*
X218992365Y-81058242D01*
X219148242Y-80902365D01*
X219277815Y-80724022D01*
X219377895Y-80527606D01*
X219446015Y-80317951D01*
X219480500Y-80100222D01*
X219480500Y-79879778D01*
X219446015Y-79662049D01*
X219386771Y-79479711D01*
X219377896Y-79452396D01*
X219377895Y-79452393D01*
X219335001Y-79368210D01*
X219277815Y-79255978D01*
X219222013Y-79179172D01*
X219148247Y-79077641D01*
X219148243Y-79077636D01*
X218992363Y-78921756D01*
X218992358Y-78921752D01*
X218814025Y-78792187D01*
X218814024Y-78792186D01*
X218814022Y-78792185D01*
X218751096Y-78760122D01*
X218617606Y-78692104D01*
X218617603Y-78692103D01*
X218407952Y-78623985D01*
X218299086Y-78606742D01*
X218190222Y-78589500D01*
X217969778Y-78589500D01*
X217897201Y-78600995D01*
X217752047Y-78623985D01*
X217542396Y-78692103D01*
X217542393Y-78692104D01*
X217345974Y-78792187D01*
X217167641Y-78921752D01*
X217167636Y-78921756D01*
X217011756Y-79077636D01*
X217011752Y-79077641D01*
X216882187Y-79255974D01*
X216782104Y-79452393D01*
X216782103Y-79452396D01*
X216713985Y-79662047D01*
X216679500Y-79879778D01*
X209384259Y-79879778D01*
X209359738Y-79756508D01*
X209359737Y-79756507D01*
X209359737Y-79756503D01*
X209359735Y-79756498D01*
X209299397Y-79610827D01*
X209299390Y-79610814D01*
X209211789Y-79479711D01*
X209211786Y-79479707D01*
X209100292Y-79368213D01*
X209100288Y-79368210D01*
X208969185Y-79280609D01*
X208969172Y-79280602D01*
X208823501Y-79220264D01*
X208823489Y-79220261D01*
X208668845Y-79189500D01*
X208668842Y-79189500D01*
X208511158Y-79189500D01*
X208511155Y-79189500D01*
X208356510Y-79220261D01*
X208356498Y-79220264D01*
X208210827Y-79280602D01*
X208210814Y-79280609D01*
X208079711Y-79368210D01*
X208079707Y-79368213D01*
X207968213Y-79479707D01*
X207968210Y-79479711D01*
X207880609Y-79610814D01*
X207880602Y-79610827D01*
X207820264Y-79756498D01*
X207820261Y-79756510D01*
X207789500Y-79911153D01*
X138480500Y-79911153D01*
X138480500Y-79879778D01*
X138446015Y-79662049D01*
X138386771Y-79479711D01*
X138377896Y-79452396D01*
X138377895Y-79452393D01*
X138335001Y-79368210D01*
X138277815Y-79255978D01*
X138222013Y-79179172D01*
X138148247Y-79077641D01*
X138148243Y-79077636D01*
X137992363Y-78921756D01*
X137992358Y-78921752D01*
X137852745Y-78820318D01*
X137810079Y-78764989D01*
X137804100Y-78695375D01*
X137836705Y-78633580D01*
X137852745Y-78619682D01*
X137992358Y-78518247D01*
X137992356Y-78518247D01*
X137992365Y-78518242D01*
X138148242Y-78362365D01*
X138277815Y-78184022D01*
X138377895Y-77987606D01*
X138446015Y-77777951D01*
X138480500Y-77560222D01*
X138480500Y-77371153D01*
X145499500Y-77371153D01*
X145499500Y-77528846D01*
X145530261Y-77683489D01*
X145530264Y-77683501D01*
X145590602Y-77829172D01*
X145590609Y-77829185D01*
X145678210Y-77960288D01*
X145678213Y-77960292D01*
X145789707Y-78071786D01*
X145789711Y-78071789D01*
X145920814Y-78159390D01*
X145920827Y-78159397D01*
X146066498Y-78219735D01*
X146066503Y-78219737D01*
X146187269Y-78243759D01*
X146221153Y-78250499D01*
X146221156Y-78250500D01*
X146221158Y-78250500D01*
X146378844Y-78250500D01*
X146378845Y-78250499D01*
X146533497Y-78219737D01*
X146679179Y-78159394D01*
X146810289Y-78071789D01*
X146921789Y-77960289D01*
X147009394Y-77829179D01*
X147069737Y-77683497D01*
X147100500Y-77528842D01*
X147100500Y-77371158D01*
X147100500Y-77371155D01*
X147100499Y-77371153D01*
X160649500Y-77371153D01*
X160649500Y-77528846D01*
X160680261Y-77683489D01*
X160680264Y-77683501D01*
X160740602Y-77829172D01*
X160740609Y-77829185D01*
X160828210Y-77960288D01*
X160828213Y-77960292D01*
X160939707Y-78071786D01*
X160939711Y-78071789D01*
X161070814Y-78159390D01*
X161070827Y-78159397D01*
X161216498Y-78219735D01*
X161216503Y-78219737D01*
X161337269Y-78243759D01*
X161371153Y-78250499D01*
X161371156Y-78250500D01*
X161371158Y-78250500D01*
X161528844Y-78250500D01*
X161528845Y-78250499D01*
X161683497Y-78219737D01*
X161769714Y-78184025D01*
X161828048Y-78159863D01*
X161897517Y-78152394D01*
X161959996Y-78183669D01*
X161995648Y-78243759D01*
X161999500Y-78274424D01*
X161999500Y-78378846D01*
X162030261Y-78533489D01*
X162030264Y-78533501D01*
X162090602Y-78679172D01*
X162090609Y-78679185D01*
X162178210Y-78810288D01*
X162178213Y-78810292D01*
X162289707Y-78921786D01*
X162289711Y-78921789D01*
X162420814Y-79009390D01*
X162420827Y-79009397D01*
X162566498Y-79069735D01*
X162566503Y-79069737D01*
X162721153Y-79100499D01*
X162721156Y-79100500D01*
X162721158Y-79100500D01*
X162878844Y-79100500D01*
X162878845Y-79100499D01*
X163033497Y-79069737D01*
X163179179Y-79009394D01*
X163310289Y-78921789D01*
X163421789Y-78810289D01*
X163481348Y-78721153D01*
X164099500Y-78721153D01*
X164099500Y-78878846D01*
X164130261Y-79033489D01*
X164130264Y-79033501D01*
X164190602Y-79179172D01*
X164190609Y-79179185D01*
X164278210Y-79310288D01*
X164278213Y-79310292D01*
X164389707Y-79421786D01*
X164389711Y-79421789D01*
X164520814Y-79509390D01*
X164520827Y-79509397D01*
X164666498Y-79569735D01*
X164666503Y-79569737D01*
X164821153Y-79600499D01*
X164821156Y-79600500D01*
X164821158Y-79600500D01*
X164978844Y-79600500D01*
X164978845Y-79600499D01*
X165133497Y-79569737D01*
X165279179Y-79509394D01*
X165410289Y-79421789D01*
X165521789Y-79310289D01*
X165609394Y-79179179D01*
X165669737Y-79033497D01*
X165700500Y-78878842D01*
X165700500Y-78721158D01*
X165700500Y-78721155D01*
X165700499Y-78721153D01*
X165694721Y-78692104D01*
X165669737Y-78566503D01*
X165649747Y-78518242D01*
X165609397Y-78420827D01*
X165609390Y-78420814D01*
X165521789Y-78289711D01*
X165521786Y-78289707D01*
X165410292Y-78178213D01*
X165410288Y-78178210D01*
X165279185Y-78090609D01*
X165279172Y-78090602D01*
X165133501Y-78030264D01*
X165133489Y-78030261D01*
X164978845Y-77999500D01*
X164978842Y-77999500D01*
X164821158Y-77999500D01*
X164821155Y-77999500D01*
X164666510Y-78030261D01*
X164666498Y-78030264D01*
X164520827Y-78090602D01*
X164520814Y-78090609D01*
X164389711Y-78178210D01*
X164389707Y-78178213D01*
X164278213Y-78289707D01*
X164278210Y-78289711D01*
X164190609Y-78420814D01*
X164190602Y-78420827D01*
X164130264Y-78566498D01*
X164130261Y-78566510D01*
X164099500Y-78721153D01*
X163481348Y-78721153D01*
X163509394Y-78679179D01*
X163569737Y-78533497D01*
X163600500Y-78378842D01*
X163600500Y-78221158D01*
X163600500Y-78221155D01*
X163600499Y-78221153D01*
X163591957Y-78178210D01*
X163569737Y-78066503D01*
X163569735Y-78066498D01*
X163509397Y-77920827D01*
X163509390Y-77920814D01*
X163421789Y-77789711D01*
X163421786Y-77789707D01*
X163310292Y-77678213D01*
X163310288Y-77678210D01*
X163179185Y-77590609D01*
X163179172Y-77590602D01*
X163033501Y-77530264D01*
X163033489Y-77530261D01*
X162878845Y-77499500D01*
X162878842Y-77499500D01*
X162721158Y-77499500D01*
X162721155Y-77499500D01*
X162566510Y-77530261D01*
X162566507Y-77530262D01*
X162566506Y-77530262D01*
X162566503Y-77530263D01*
X162494175Y-77560222D01*
X162421952Y-77590137D01*
X162352482Y-77597605D01*
X162290003Y-77566329D01*
X162254351Y-77506240D01*
X162250500Y-77475575D01*
X162250500Y-77371155D01*
X162250499Y-77371153D01*
X162219738Y-77216510D01*
X162219737Y-77216503D01*
X162219735Y-77216498D01*
X162159397Y-77070827D01*
X162159390Y-77070814D01*
X162071789Y-76939711D01*
X162071786Y-76939707D01*
X161960292Y-76828213D01*
X161960288Y-76828210D01*
X161829185Y-76740609D01*
X161829172Y-76740602D01*
X161683501Y-76680264D01*
X161683489Y-76680261D01*
X161528845Y-76649500D01*
X161528842Y-76649500D01*
X161371158Y-76649500D01*
X161371155Y-76649500D01*
X161216510Y-76680261D01*
X161216498Y-76680264D01*
X161070827Y-76740602D01*
X161070814Y-76740609D01*
X160939711Y-76828210D01*
X160939707Y-76828213D01*
X160828213Y-76939707D01*
X160828210Y-76939711D01*
X160740609Y-77070814D01*
X160740602Y-77070827D01*
X160680264Y-77216498D01*
X160680261Y-77216510D01*
X160649500Y-77371153D01*
X147100499Y-77371153D01*
X147069738Y-77216510D01*
X147069737Y-77216503D01*
X147069735Y-77216498D01*
X147009397Y-77070827D01*
X147009390Y-77070814D01*
X146921789Y-76939711D01*
X146921786Y-76939707D01*
X146810292Y-76828213D01*
X146810288Y-76828210D01*
X146679185Y-76740609D01*
X146679172Y-76740602D01*
X146533501Y-76680264D01*
X146533489Y-76680261D01*
X146378845Y-76649500D01*
X146378842Y-76649500D01*
X146221158Y-76649500D01*
X146221155Y-76649500D01*
X146066510Y-76680261D01*
X146066498Y-76680264D01*
X145920827Y-76740602D01*
X145920814Y-76740609D01*
X145789711Y-76828210D01*
X145789707Y-76828213D01*
X145678213Y-76939707D01*
X145678210Y-76939711D01*
X145590609Y-77070814D01*
X145590602Y-77070827D01*
X145530264Y-77216498D01*
X145530261Y-77216510D01*
X145499500Y-77371153D01*
X138480500Y-77371153D01*
X138480500Y-77339778D01*
X138446015Y-77122049D01*
X138386771Y-76939711D01*
X138377896Y-76912396D01*
X138377895Y-76912393D01*
X138335001Y-76828210D01*
X138277815Y-76715978D01*
X138229516Y-76649500D01*
X138148247Y-76537641D01*
X138148243Y-76537636D01*
X137992363Y-76381756D01*
X137992358Y-76381752D01*
X137852745Y-76280318D01*
X137810079Y-76224989D01*
X137804100Y-76155375D01*
X137836705Y-76093580D01*
X137852745Y-76079682D01*
X137992358Y-75978247D01*
X137992356Y-75978247D01*
X137992365Y-75978242D01*
X138148242Y-75822365D01*
X138277815Y-75644022D01*
X138377895Y-75447606D01*
X138446015Y-75237951D01*
X138480500Y-75020222D01*
X138480500Y-74831153D01*
X154509500Y-74831153D01*
X154509500Y-74988846D01*
X154540261Y-75143489D01*
X154540264Y-75143501D01*
X154600602Y-75289172D01*
X154600609Y-75289185D01*
X154688210Y-75420288D01*
X154688213Y-75420292D01*
X154799707Y-75531786D01*
X154799711Y-75531789D01*
X154930814Y-75619390D01*
X154930827Y-75619397D01*
X155075156Y-75679179D01*
X155076503Y-75679737D01*
X155231153Y-75710499D01*
X155231156Y-75710500D01*
X155231158Y-75710500D01*
X155388844Y-75710500D01*
X155388845Y-75710499D01*
X155543497Y-75679737D01*
X155689179Y-75619394D01*
X155701912Y-75610885D01*
X155768589Y-75590006D01*
X155835970Y-75608489D01*
X155882661Y-75660466D01*
X155885366Y-75666530D01*
X155890604Y-75679176D01*
X155890609Y-75679185D01*
X155978210Y-75810288D01*
X155978213Y-75810292D01*
X156089707Y-75921786D01*
X156089711Y-75921789D01*
X156220814Y-76009390D01*
X156220827Y-76009397D01*
X156366498Y-76069735D01*
X156366503Y-76069737D01*
X156521153Y-76100499D01*
X156521156Y-76100500D01*
X156521158Y-76100500D01*
X156678844Y-76100500D01*
X156678845Y-76100499D01*
X156833497Y-76069737D01*
X156979179Y-76009394D01*
X157110289Y-75921789D01*
X157221789Y-75810289D01*
X157309394Y-75679179D01*
X157309395Y-75679176D01*
X157309397Y-75679173D01*
X157312719Y-75671153D01*
X157599500Y-75671153D01*
X157599500Y-75828846D01*
X157630261Y-75983489D01*
X157630264Y-75983501D01*
X157690602Y-76129172D01*
X157690609Y-76129185D01*
X157778210Y-76260288D01*
X157778213Y-76260292D01*
X157889707Y-76371786D01*
X157889711Y-76371789D01*
X158020814Y-76459390D01*
X158020827Y-76459397D01*
X158166498Y-76519735D01*
X158166503Y-76519737D01*
X158321153Y-76550499D01*
X158321156Y-76550500D01*
X158321158Y-76550500D01*
X158478844Y-76550500D01*
X158478845Y-76550499D01*
X158633497Y-76519737D01*
X158779179Y-76459394D01*
X158910289Y-76371789D01*
X159021789Y-76260289D01*
X159109394Y-76129179D01*
X159169737Y-75983497D01*
X159200500Y-75828842D01*
X159200500Y-75671158D01*
X159200500Y-75671155D01*
X159200499Y-75671153D01*
X159173117Y-75533497D01*
X159169737Y-75516503D01*
X159141198Y-75447603D01*
X159109397Y-75370827D01*
X159109390Y-75370814D01*
X159021789Y-75239711D01*
X159021786Y-75239707D01*
X158910292Y-75128213D01*
X158910288Y-75128210D01*
X158779185Y-75040609D01*
X158779172Y-75040602D01*
X158633501Y-74980264D01*
X158633489Y-74980261D01*
X158478845Y-74949500D01*
X158478842Y-74949500D01*
X158321158Y-74949500D01*
X158321155Y-74949500D01*
X158166510Y-74980261D01*
X158166498Y-74980264D01*
X158020827Y-75040602D01*
X158020814Y-75040609D01*
X157889711Y-75128210D01*
X157889707Y-75128213D01*
X157778213Y-75239707D01*
X157778210Y-75239711D01*
X157690609Y-75370814D01*
X157690602Y-75370827D01*
X157630264Y-75516498D01*
X157630261Y-75516510D01*
X157599500Y-75671153D01*
X157312719Y-75671153D01*
X157334895Y-75617614D01*
X157334895Y-75617613D01*
X157369737Y-75533497D01*
X157400500Y-75378842D01*
X157400500Y-75221158D01*
X157400500Y-75221155D01*
X157400499Y-75221153D01*
X157385052Y-75143497D01*
X157369737Y-75066503D01*
X157369735Y-75066498D01*
X157309397Y-74920827D01*
X157309390Y-74920814D01*
X157221789Y-74789711D01*
X157221786Y-74789707D01*
X157110292Y-74678213D01*
X157110288Y-74678210D01*
X156979185Y-74590609D01*
X156979172Y-74590602D01*
X156833501Y-74530264D01*
X156833489Y-74530261D01*
X156678845Y-74499500D01*
X156678842Y-74499500D01*
X156521158Y-74499500D01*
X156521155Y-74499500D01*
X156366510Y-74530261D01*
X156366498Y-74530264D01*
X156220827Y-74590602D01*
X156220815Y-74590609D01*
X156208080Y-74599118D01*
X156141402Y-74619993D01*
X156074022Y-74601506D01*
X156027334Y-74549526D01*
X156024632Y-74543466D01*
X156019395Y-74530824D01*
X156019394Y-74530821D01*
X156019392Y-74530818D01*
X156019390Y-74530814D01*
X155931789Y-74399711D01*
X155931786Y-74399707D01*
X155820292Y-74288213D01*
X155820288Y-74288210D01*
X155689185Y-74200609D01*
X155689172Y-74200602D01*
X155543501Y-74140264D01*
X155543489Y-74140261D01*
X155388845Y-74109500D01*
X155388842Y-74109500D01*
X155231158Y-74109500D01*
X155231155Y-74109500D01*
X155076510Y-74140261D01*
X155076498Y-74140264D01*
X154930827Y-74200602D01*
X154930814Y-74200609D01*
X154799711Y-74288210D01*
X154799707Y-74288213D01*
X154688213Y-74399707D01*
X154688210Y-74399711D01*
X154600609Y-74530814D01*
X154600602Y-74530827D01*
X154540264Y-74676498D01*
X154540261Y-74676510D01*
X154509500Y-74831153D01*
X138480500Y-74831153D01*
X138480500Y-74799778D01*
X138446015Y-74582049D01*
X138386771Y-74399711D01*
X138377896Y-74372396D01*
X138377895Y-74372393D01*
X138335001Y-74288210D01*
X138277815Y-74175978D01*
X138229516Y-74109500D01*
X138148247Y-73997641D01*
X138148243Y-73997636D01*
X137992363Y-73841756D01*
X137992358Y-73841752D01*
X137852745Y-73740318D01*
X137810079Y-73684989D01*
X137804100Y-73615375D01*
X137836705Y-73553580D01*
X137852745Y-73539682D01*
X137992358Y-73438247D01*
X137992356Y-73438247D01*
X137992365Y-73438242D01*
X138148242Y-73282365D01*
X138277815Y-73104022D01*
X138377895Y-72907606D01*
X138446015Y-72697951D01*
X138480500Y-72480222D01*
X138480500Y-72271153D01*
X180949500Y-72271153D01*
X180949500Y-72428846D01*
X180980261Y-72583489D01*
X180980264Y-72583501D01*
X181040602Y-72729172D01*
X181040609Y-72729185D01*
X181128210Y-72860288D01*
X181128213Y-72860292D01*
X181239707Y-72971786D01*
X181239711Y-72971789D01*
X181370814Y-73059390D01*
X181370827Y-73059397D01*
X181516498Y-73119735D01*
X181516503Y-73119737D01*
X181671153Y-73150499D01*
X181671156Y-73150500D01*
X181671158Y-73150500D01*
X181828844Y-73150500D01*
X181828845Y-73150499D01*
X181983497Y-73119737D01*
X182129179Y-73059394D01*
X182260289Y-72971789D01*
X182371789Y-72860289D01*
X182459394Y-72729179D01*
X182519737Y-72583497D01*
X182550500Y-72428842D01*
X182550500Y-72271158D01*
X182550500Y-72271155D01*
X182550499Y-72271153D01*
X182519738Y-72116510D01*
X182519737Y-72116503D01*
X182519735Y-72116498D01*
X182459397Y-71970827D01*
X182459390Y-71970814D01*
X182371789Y-71839711D01*
X182371786Y-71839707D01*
X182260292Y-71728213D01*
X182260288Y-71728210D01*
X182129185Y-71640609D01*
X182129172Y-71640602D01*
X181983501Y-71580264D01*
X181983489Y-71580261D01*
X181828845Y-71549500D01*
X181828842Y-71549500D01*
X181671158Y-71549500D01*
X181671155Y-71549500D01*
X181516510Y-71580261D01*
X181516498Y-71580264D01*
X181370827Y-71640602D01*
X181370814Y-71640609D01*
X181239711Y-71728210D01*
X181239707Y-71728213D01*
X181128213Y-71839707D01*
X181128210Y-71839711D01*
X181040609Y-71970814D01*
X181040602Y-71970827D01*
X180980264Y-72116498D01*
X180980261Y-72116510D01*
X180949500Y-72271153D01*
X138480500Y-72271153D01*
X138480500Y-72259778D01*
X138446015Y-72042049D01*
X138411955Y-71937221D01*
X138377896Y-71832396D01*
X138377895Y-71832393D01*
X138343237Y-71764375D01*
X138277815Y-71635978D01*
X138237336Y-71580263D01*
X138148247Y-71457641D01*
X138148243Y-71457636D01*
X137992363Y-71301756D01*
X137992358Y-71301752D01*
X137852745Y-71200318D01*
X137810079Y-71144989D01*
X137804100Y-71075375D01*
X137836705Y-71013580D01*
X137852745Y-70999682D01*
X137992358Y-70898247D01*
X137992356Y-70898247D01*
X137992365Y-70898242D01*
X138148242Y-70742365D01*
X138277815Y-70564022D01*
X138377895Y-70367606D01*
X138446015Y-70157951D01*
X138480500Y-69940222D01*
X138480500Y-69719778D01*
X138446015Y-69502049D01*
X138419730Y-69421153D01*
X156199500Y-69421153D01*
X156199500Y-69578846D01*
X156230261Y-69733489D01*
X156230264Y-69733501D01*
X156290602Y-69879172D01*
X156290609Y-69879185D01*
X156378210Y-70010288D01*
X156378213Y-70010292D01*
X156489707Y-70121786D01*
X156489711Y-70121789D01*
X156620814Y-70209390D01*
X156620827Y-70209397D01*
X156766498Y-70269735D01*
X156766503Y-70269737D01*
X156921153Y-70300499D01*
X156921156Y-70300500D01*
X156921158Y-70300500D01*
X157078844Y-70300500D01*
X157078845Y-70300499D01*
X157233497Y-70269737D01*
X157379179Y-70209394D01*
X157510289Y-70121789D01*
X157621789Y-70010289D01*
X157709394Y-69879179D01*
X157769737Y-69733497D01*
X157800500Y-69578842D01*
X157800500Y-69421158D01*
X157800500Y-69421155D01*
X157800499Y-69421153D01*
X157778447Y-69310292D01*
X157769737Y-69266503D01*
X157733569Y-69179185D01*
X157709397Y-69120827D01*
X157709390Y-69120814D01*
X157621789Y-68989711D01*
X157621786Y-68989707D01*
X157510292Y-68878213D01*
X157510288Y-68878210D01*
X157420429Y-68818168D01*
X157379185Y-68790609D01*
X157379172Y-68790602D01*
X157233501Y-68730264D01*
X157233489Y-68730261D01*
X157187701Y-68721153D01*
X181999500Y-68721153D01*
X181999500Y-68878846D01*
X182030261Y-69033489D01*
X182030264Y-69033501D01*
X182090602Y-69179172D01*
X182090609Y-69179185D01*
X182178210Y-69310288D01*
X182178213Y-69310292D01*
X182289707Y-69421786D01*
X182289711Y-69421789D01*
X182420814Y-69509390D01*
X182420827Y-69509397D01*
X182566498Y-69569735D01*
X182566503Y-69569737D01*
X182721153Y-69600499D01*
X182721156Y-69600500D01*
X182721158Y-69600500D01*
X182878844Y-69600500D01*
X182878845Y-69600499D01*
X183033497Y-69569737D01*
X183179179Y-69509394D01*
X183310289Y-69421789D01*
X183421789Y-69310289D01*
X183509394Y-69179179D01*
X183569737Y-69033497D01*
X183600500Y-68878842D01*
X183600500Y-68721158D01*
X183600500Y-68721155D01*
X183600499Y-68721153D01*
X183588398Y-68660318D01*
X183569737Y-68566503D01*
X183567043Y-68560000D01*
X183509397Y-68420827D01*
X183509390Y-68420814D01*
X183421789Y-68289711D01*
X183421786Y-68289707D01*
X183310292Y-68178213D01*
X183310288Y-68178210D01*
X183220429Y-68118168D01*
X183179185Y-68090609D01*
X183179172Y-68090602D01*
X183033501Y-68030264D01*
X183033489Y-68030261D01*
X182987701Y-68021153D01*
X212956607Y-68021153D01*
X212956607Y-68178846D01*
X212987368Y-68333489D01*
X212987371Y-68333501D01*
X213047709Y-68479172D01*
X213047716Y-68479185D01*
X213135317Y-68610288D01*
X213135320Y-68610292D01*
X213246814Y-68721786D01*
X213246818Y-68721789D01*
X213377921Y-68809390D01*
X213377934Y-68809397D01*
X213523605Y-68869735D01*
X213523610Y-68869737D01*
X213678260Y-68900499D01*
X213678263Y-68900500D01*
X213678265Y-68900500D01*
X213835951Y-68900500D01*
X213835952Y-68900499D01*
X213990604Y-68869737D01*
X214136286Y-68809394D01*
X214267396Y-68721789D01*
X214378896Y-68610289D01*
X214466501Y-68479179D01*
X214526844Y-68333497D01*
X214557607Y-68178842D01*
X214557607Y-68021158D01*
X214557607Y-68021155D01*
X214557606Y-68021153D01*
X214526845Y-67866510D01*
X214526844Y-67866503D01*
X214526842Y-67866498D01*
X214466504Y-67720827D01*
X214466497Y-67720814D01*
X214378896Y-67589711D01*
X214378893Y-67589707D01*
X214267399Y-67478213D01*
X214267395Y-67478210D01*
X214136292Y-67390609D01*
X214136279Y-67390602D01*
X213990608Y-67330264D01*
X213990596Y-67330261D01*
X213835952Y-67299500D01*
X213835949Y-67299500D01*
X213678265Y-67299500D01*
X213678262Y-67299500D01*
X213523617Y-67330261D01*
X213523605Y-67330264D01*
X213377934Y-67390602D01*
X213377921Y-67390609D01*
X213246818Y-67478210D01*
X213246814Y-67478213D01*
X213135320Y-67589707D01*
X213135317Y-67589711D01*
X213047716Y-67720814D01*
X213047709Y-67720827D01*
X212987371Y-67866498D01*
X212987368Y-67866510D01*
X212956607Y-68021153D01*
X182987701Y-68021153D01*
X182878845Y-67999500D01*
X182878842Y-67999500D01*
X182721158Y-67999500D01*
X182721155Y-67999500D01*
X182566510Y-68030261D01*
X182566498Y-68030264D01*
X182420827Y-68090602D01*
X182420814Y-68090609D01*
X182289711Y-68178210D01*
X182289707Y-68178213D01*
X182178213Y-68289707D01*
X182178210Y-68289711D01*
X182090609Y-68420814D01*
X182090602Y-68420827D01*
X182030264Y-68566498D01*
X182030261Y-68566510D01*
X181999500Y-68721153D01*
X157187701Y-68721153D01*
X157078845Y-68699500D01*
X157078842Y-68699500D01*
X156921158Y-68699500D01*
X156921155Y-68699500D01*
X156766510Y-68730261D01*
X156766498Y-68730264D01*
X156620827Y-68790602D01*
X156620814Y-68790609D01*
X156489711Y-68878210D01*
X156489707Y-68878213D01*
X156378213Y-68989707D01*
X156378210Y-68989711D01*
X156290609Y-69120814D01*
X156290602Y-69120827D01*
X156230264Y-69266498D01*
X156230261Y-69266510D01*
X156199500Y-69421153D01*
X138419730Y-69421153D01*
X138404088Y-69373010D01*
X138377897Y-69292399D01*
X138377895Y-69292393D01*
X138343237Y-69224375D01*
X138277815Y-69095978D01*
X138232420Y-69033497D01*
X138148247Y-68917641D01*
X138148243Y-68917636D01*
X137992363Y-68761756D01*
X137992358Y-68761752D01*
X137852745Y-68660318D01*
X137810079Y-68604989D01*
X137804100Y-68535375D01*
X137836705Y-68473580D01*
X137852745Y-68459682D01*
X137992358Y-68358247D01*
X137992356Y-68358247D01*
X137992365Y-68358242D01*
X138148242Y-68202365D01*
X138277815Y-68024022D01*
X138377895Y-67827606D01*
X138446015Y-67617951D01*
X138480500Y-67400222D01*
X138480500Y-67179778D01*
X138446015Y-66962049D01*
X138377895Y-66752394D01*
X138377895Y-66752393D01*
X138343237Y-66684375D01*
X138277815Y-66555978D01*
X138261260Y-66533192D01*
X138148247Y-66377641D01*
X138148243Y-66377636D01*
X137992363Y-66221756D01*
X137992358Y-66221752D01*
X137814025Y-66092187D01*
X137814024Y-66092186D01*
X137814022Y-66092185D01*
X137751096Y-66060122D01*
X137617606Y-65992104D01*
X137617603Y-65992103D01*
X137407952Y-65923985D01*
X137299086Y-65906742D01*
X137190222Y-65889500D01*
X136969778Y-65889500D01*
X136897201Y-65900995D01*
X136752047Y-65923985D01*
X136542396Y-65992103D01*
X136542393Y-65992104D01*
X136345974Y-66092187D01*
X136167641Y-66221752D01*
X136167636Y-66221756D01*
X136011756Y-66377636D01*
X136011752Y-66377641D01*
X135882187Y-66555974D01*
X135782104Y-66752393D01*
X135782103Y-66752396D01*
X135713985Y-66962047D01*
X135679500Y-67179778D01*
X133500500Y-67179778D01*
X133500500Y-64921153D01*
X154699500Y-64921153D01*
X154699500Y-65078846D01*
X154730261Y-65233489D01*
X154730264Y-65233501D01*
X154790602Y-65379172D01*
X154790609Y-65379185D01*
X154878210Y-65510288D01*
X154878213Y-65510292D01*
X154989707Y-65621786D01*
X154989711Y-65621789D01*
X155120814Y-65709390D01*
X155120827Y-65709397D01*
X155266498Y-65769735D01*
X155266503Y-65769737D01*
X155421153Y-65800499D01*
X155421156Y-65800500D01*
X155421158Y-65800500D01*
X155578844Y-65800500D01*
X155578845Y-65800499D01*
X155733497Y-65769737D01*
X155879179Y-65709394D01*
X156010289Y-65621789D01*
X156121789Y-65510289D01*
X156209394Y-65379179D01*
X156269737Y-65233497D01*
X156300500Y-65078842D01*
X156300500Y-64921158D01*
X156300500Y-64921155D01*
X156300499Y-64921153D01*
X156269738Y-64766510D01*
X156269737Y-64766503D01*
X156269735Y-64766498D01*
X156209397Y-64620827D01*
X156209390Y-64620814D01*
X156121789Y-64489711D01*
X156121786Y-64489707D01*
X156010292Y-64378213D01*
X156010288Y-64378210D01*
X155879185Y-64290609D01*
X155879172Y-64290602D01*
X155733501Y-64230264D01*
X155733489Y-64230261D01*
X155578845Y-64199500D01*
X155578842Y-64199500D01*
X155421158Y-64199500D01*
X155421155Y-64199500D01*
X155266510Y-64230261D01*
X155266498Y-64230264D01*
X155120827Y-64290602D01*
X155120814Y-64290609D01*
X154989711Y-64378210D01*
X154989707Y-64378213D01*
X154878213Y-64489707D01*
X154878210Y-64489711D01*
X154790609Y-64620814D01*
X154790602Y-64620827D01*
X154730264Y-64766498D01*
X154730261Y-64766510D01*
X154699500Y-64921153D01*
X133500500Y-64921153D01*
X133500500Y-61668872D01*
X139999500Y-61668872D01*
X139999500Y-61931127D01*
X140026123Y-62133339D01*
X140033730Y-62191116D01*
X140101602Y-62444418D01*
X140101605Y-62444428D01*
X140201953Y-62686690D01*
X140201958Y-62686700D01*
X140333075Y-62913803D01*
X140492718Y-63121851D01*
X140492726Y-63121860D01*
X140678140Y-63307274D01*
X140678148Y-63307281D01*
X140886196Y-63466924D01*
X141113299Y-63598041D01*
X141113309Y-63598046D01*
X141355571Y-63698394D01*
X141355581Y-63698398D01*
X141608884Y-63766270D01*
X141868880Y-63800500D01*
X141868887Y-63800500D01*
X142131113Y-63800500D01*
X142131120Y-63800500D01*
X142391116Y-63766270D01*
X142644419Y-63698398D01*
X142886697Y-63598043D01*
X143113803Y-63466924D01*
X143321851Y-63307282D01*
X143321855Y-63307277D01*
X143321860Y-63307274D01*
X143507274Y-63121860D01*
X143507277Y-63121855D01*
X143507282Y-63121851D01*
X143666924Y-62913803D01*
X143798043Y-62686697D01*
X143898398Y-62444419D01*
X143966270Y-62191116D01*
X144000500Y-61931120D01*
X144000500Y-61668880D01*
X144000499Y-61668872D01*
X215999500Y-61668872D01*
X215999500Y-61931127D01*
X216026123Y-62133339D01*
X216033730Y-62191116D01*
X216101602Y-62444418D01*
X216101605Y-62444428D01*
X216201953Y-62686690D01*
X216201958Y-62686700D01*
X216333075Y-62913803D01*
X216492718Y-63121851D01*
X216492726Y-63121860D01*
X216678140Y-63307274D01*
X216678148Y-63307281D01*
X216886196Y-63466924D01*
X217113299Y-63598041D01*
X217113309Y-63598046D01*
X217355571Y-63698394D01*
X217355581Y-63698398D01*
X217608884Y-63766270D01*
X217868880Y-63800500D01*
X217868887Y-63800500D01*
X218131113Y-63800500D01*
X218131120Y-63800500D01*
X218391116Y-63766270D01*
X218644419Y-63698398D01*
X218886697Y-63598043D01*
X219113803Y-63466924D01*
X219321851Y-63307282D01*
X219321855Y-63307277D01*
X219321860Y-63307274D01*
X219507274Y-63121860D01*
X219507277Y-63121855D01*
X219507282Y-63121851D01*
X219666924Y-62913803D01*
X219798043Y-62686697D01*
X219898398Y-62444419D01*
X219966270Y-62191116D01*
X220000500Y-61931120D01*
X220000500Y-61668880D01*
X219966270Y-61408884D01*
X219898398Y-61155581D01*
X219898394Y-61155571D01*
X219798046Y-60913309D01*
X219798041Y-60913299D01*
X219666924Y-60686196D01*
X219507281Y-60478148D01*
X219507274Y-60478140D01*
X219321860Y-60292726D01*
X219321851Y-60292718D01*
X219113803Y-60133075D01*
X218886700Y-60001958D01*
X218886690Y-60001953D01*
X218644428Y-59901605D01*
X218644421Y-59901603D01*
X218644419Y-59901602D01*
X218391116Y-59833730D01*
X218333339Y-59826123D01*
X218131127Y-59799500D01*
X218131120Y-59799500D01*
X217868880Y-59799500D01*
X217868872Y-59799500D01*
X217637772Y-59829926D01*
X217608884Y-59833730D01*
X217355581Y-59901602D01*
X217355571Y-59901605D01*
X217113309Y-60001953D01*
X217113299Y-60001958D01*
X216886196Y-60133075D01*
X216678148Y-60292718D01*
X216492718Y-60478148D01*
X216333075Y-60686196D01*
X216201958Y-60913299D01*
X216201953Y-60913309D01*
X216101605Y-61155571D01*
X216101602Y-61155581D01*
X216033730Y-61408885D01*
X215999500Y-61668872D01*
X144000499Y-61668872D01*
X143966270Y-61408884D01*
X143898398Y-61155581D01*
X143898394Y-61155571D01*
X143798046Y-60913309D01*
X143798041Y-60913299D01*
X143666924Y-60686196D01*
X143507281Y-60478148D01*
X143507274Y-60478140D01*
X143321860Y-60292726D01*
X143321851Y-60292718D01*
X143113803Y-60133075D01*
X142886700Y-60001958D01*
X142886690Y-60001953D01*
X142644428Y-59901605D01*
X142644421Y-59901603D01*
X142644419Y-59901602D01*
X142391116Y-59833730D01*
X142333339Y-59826123D01*
X142131127Y-59799500D01*
X142131120Y-59799500D01*
X141868880Y-59799500D01*
X141868872Y-59799500D01*
X141637772Y-59829926D01*
X141608884Y-59833730D01*
X141355581Y-59901602D01*
X141355571Y-59901605D01*
X141113309Y-60001953D01*
X141113299Y-60001958D01*
X140886196Y-60133075D01*
X140678148Y-60292718D01*
X140492718Y-60478148D01*
X140333075Y-60686196D01*
X140201958Y-60913299D01*
X140201953Y-60913309D01*
X140101605Y-61155571D01*
X140101602Y-61155581D01*
X140033730Y-61408885D01*
X139999500Y-61668872D01*
X133500500Y-61668872D01*
X133500500Y-55093753D01*
X208410000Y-55093753D01*
X208410000Y-55306246D01*
X208443242Y-55516127D01*
X208443242Y-55516130D01*
X208508904Y-55718217D01*
X208605375Y-55907550D01*
X208644728Y-55961716D01*
X209277037Y-55329408D01*
X209294075Y-55392993D01*
X209359901Y-55507007D01*
X209452993Y-55600099D01*
X209567007Y-55665925D01*
X209630590Y-55682962D01*
X208998282Y-56315269D01*
X208998282Y-56315270D01*
X209052449Y-56354624D01*
X209241782Y-56451095D01*
X209443870Y-56516757D01*
X209653754Y-56550000D01*
X209866246Y-56550000D01*
X210076127Y-56516757D01*
X210076130Y-56516757D01*
X210278217Y-56451095D01*
X210467554Y-56354622D01*
X210521716Y-56315270D01*
X210521717Y-56315270D01*
X209889408Y-55682962D01*
X209952993Y-55665925D01*
X210067007Y-55600099D01*
X210160099Y-55507007D01*
X210225925Y-55392993D01*
X210242962Y-55329408D01*
X210913181Y-55999628D01*
X210946666Y-56060951D01*
X210949500Y-56087300D01*
X210949500Y-56097865D01*
X210949501Y-56097876D01*
X210955908Y-56157483D01*
X211006202Y-56292328D01*
X211006206Y-56292335D01*
X211092452Y-56407544D01*
X211092455Y-56407547D01*
X211207664Y-56493793D01*
X211207671Y-56493797D01*
X211342517Y-56544091D01*
X211342516Y-56544091D01*
X211349444Y-56544835D01*
X211402127Y-56550500D01*
X213197872Y-56550499D01*
X213257483Y-56544091D01*
X213392331Y-56493796D01*
X213507546Y-56407546D01*
X213593796Y-56292331D01*
X213644091Y-56157483D01*
X213650500Y-56097873D01*
X213650499Y-54302135D01*
X214709500Y-54302135D01*
X214709500Y-56097870D01*
X214709501Y-56097876D01*
X214715908Y-56157483D01*
X214766202Y-56292328D01*
X214766206Y-56292335D01*
X214852452Y-56407544D01*
X214852455Y-56407547D01*
X214967664Y-56493793D01*
X214967671Y-56493797D01*
X215102517Y-56544091D01*
X215102516Y-56544091D01*
X215109444Y-56544835D01*
X215162127Y-56550500D01*
X216957872Y-56550499D01*
X217017483Y-56544091D01*
X217152331Y-56493796D01*
X217267546Y-56407546D01*
X217353796Y-56292331D01*
X217402810Y-56160916D01*
X217444681Y-56104984D01*
X217510145Y-56080566D01*
X217578418Y-56095417D01*
X217606673Y-56116569D01*
X217720213Y-56230109D01*
X217892179Y-56355048D01*
X217892181Y-56355049D01*
X217892184Y-56355051D01*
X218081588Y-56451557D01*
X218283757Y-56517246D01*
X218493713Y-56550500D01*
X218493714Y-56550500D01*
X218706286Y-56550500D01*
X218706287Y-56550500D01*
X218916243Y-56517246D01*
X219118412Y-56451557D01*
X219307816Y-56355051D01*
X219394138Y-56292335D01*
X219479786Y-56230109D01*
X219479788Y-56230106D01*
X219479792Y-56230104D01*
X219630104Y-56079792D01*
X219630106Y-56079788D01*
X219630109Y-56079786D01*
X219715890Y-55961717D01*
X219755051Y-55907816D01*
X219759793Y-55898508D01*
X219807763Y-55847711D01*
X219875583Y-55830911D01*
X219941719Y-55853445D01*
X219980763Y-55898500D01*
X219985373Y-55907547D01*
X220024728Y-55961716D01*
X220657037Y-55329408D01*
X220674075Y-55392993D01*
X220739901Y-55507007D01*
X220832993Y-55600099D01*
X220947007Y-55665925D01*
X221010590Y-55682962D01*
X220378282Y-56315269D01*
X220378282Y-56315270D01*
X220432449Y-56354624D01*
X220621782Y-56451095D01*
X220823870Y-56516757D01*
X221033754Y-56550000D01*
X221246246Y-56550000D01*
X221456127Y-56516757D01*
X221456130Y-56516757D01*
X221658217Y-56451095D01*
X221847554Y-56354622D01*
X221901716Y-56315270D01*
X221901717Y-56315270D01*
X221269408Y-55682962D01*
X221332993Y-55665925D01*
X221447007Y-55600099D01*
X221540099Y-55507007D01*
X221605925Y-55392993D01*
X221622962Y-55329409D01*
X222255270Y-55961717D01*
X222255270Y-55961716D01*
X222294622Y-55907554D01*
X222391095Y-55718217D01*
X222456757Y-55516130D01*
X222456757Y-55516127D01*
X222490000Y-55306246D01*
X222490000Y-55093753D01*
X222456757Y-54883872D01*
X222456757Y-54883869D01*
X222391095Y-54681782D01*
X222294624Y-54492449D01*
X222255270Y-54438282D01*
X222255269Y-54438282D01*
X221622962Y-55070590D01*
X221605925Y-55007007D01*
X221540099Y-54892993D01*
X221447007Y-54799901D01*
X221332993Y-54734075D01*
X221269409Y-54717037D01*
X221901716Y-54084728D01*
X221847550Y-54045375D01*
X221658217Y-53948904D01*
X221456129Y-53883242D01*
X221246246Y-53850000D01*
X221033754Y-53850000D01*
X220823872Y-53883242D01*
X220823869Y-53883242D01*
X220621782Y-53948904D01*
X220432439Y-54045380D01*
X220378282Y-54084727D01*
X220378282Y-54084728D01*
X221010591Y-54717037D01*
X220947007Y-54734075D01*
X220832993Y-54799901D01*
X220739901Y-54892993D01*
X220674075Y-55007007D01*
X220657037Y-55070591D01*
X220024728Y-54438282D01*
X220024727Y-54438282D01*
X219985380Y-54492440D01*
X219985376Y-54492446D01*
X219980760Y-54501505D01*
X219932781Y-54552297D01*
X219864959Y-54569087D01*
X219798826Y-54546543D01*
X219759794Y-54501493D01*
X219755051Y-54492184D01*
X219755049Y-54492181D01*
X219755048Y-54492179D01*
X219630109Y-54320213D01*
X219479786Y-54169890D01*
X219307820Y-54044951D01*
X219118414Y-53948444D01*
X219118413Y-53948443D01*
X219118412Y-53948443D01*
X218916243Y-53882754D01*
X218916241Y-53882753D01*
X218916240Y-53882753D01*
X218754957Y-53857208D01*
X218706287Y-53849500D01*
X218493713Y-53849500D01*
X218445042Y-53857208D01*
X218283760Y-53882753D01*
X218081585Y-53948444D01*
X217892179Y-54044951D01*
X217720215Y-54169889D01*
X217606673Y-54283431D01*
X217545350Y-54316915D01*
X217475658Y-54311931D01*
X217419725Y-54270059D01*
X217402810Y-54239082D01*
X217353797Y-54107671D01*
X217353793Y-54107664D01*
X217267547Y-53992455D01*
X217267544Y-53992452D01*
X217152335Y-53906206D01*
X217152328Y-53906202D01*
X217017482Y-53855908D01*
X217017483Y-53855908D01*
X216957883Y-53849501D01*
X216957881Y-53849500D01*
X216957873Y-53849500D01*
X216957864Y-53849500D01*
X215162129Y-53849500D01*
X215162123Y-53849501D01*
X215102516Y-53855908D01*
X214967671Y-53906202D01*
X214967664Y-53906206D01*
X214852455Y-53992452D01*
X214852452Y-53992455D01*
X214766206Y-54107664D01*
X214766202Y-54107671D01*
X214715908Y-54242517D01*
X214709501Y-54302116D01*
X214709500Y-54302135D01*
X213650499Y-54302135D01*
X213650499Y-54302128D01*
X213644091Y-54242517D01*
X213593796Y-54107669D01*
X213593795Y-54107668D01*
X213593793Y-54107664D01*
X213507547Y-53992455D01*
X213507544Y-53992452D01*
X213392335Y-53906206D01*
X213392328Y-53906202D01*
X213257482Y-53855908D01*
X213257483Y-53855908D01*
X213197883Y-53849501D01*
X213197881Y-53849500D01*
X213197873Y-53849500D01*
X213197864Y-53849500D01*
X211402129Y-53849500D01*
X211402123Y-53849501D01*
X211342516Y-53855908D01*
X211207671Y-53906202D01*
X211207664Y-53906206D01*
X211092455Y-53992452D01*
X211092452Y-53992455D01*
X211006206Y-54107664D01*
X211006202Y-54107671D01*
X210955908Y-54242517D01*
X210949501Y-54302116D01*
X210949500Y-54302135D01*
X210949500Y-54312690D01*
X210929815Y-54379729D01*
X210913181Y-54400371D01*
X210242962Y-55070590D01*
X210225925Y-55007007D01*
X210160099Y-54892993D01*
X210067007Y-54799901D01*
X209952993Y-54734075D01*
X209889409Y-54717037D01*
X210521716Y-54084728D01*
X210467550Y-54045375D01*
X210278217Y-53948904D01*
X210076129Y-53883242D01*
X209866246Y-53850000D01*
X209653754Y-53850000D01*
X209443872Y-53883242D01*
X209443869Y-53883242D01*
X209241782Y-53948904D01*
X209052439Y-54045380D01*
X208998282Y-54084727D01*
X208998282Y-54084728D01*
X209630591Y-54717037D01*
X209567007Y-54734075D01*
X209452993Y-54799901D01*
X209359901Y-54892993D01*
X209294075Y-55007007D01*
X209277037Y-55070590D01*
X208644728Y-54438282D01*
X208644727Y-54438282D01*
X208605380Y-54492439D01*
X208508904Y-54681782D01*
X208443242Y-54883869D01*
X208443242Y-54883872D01*
X208410000Y-55093753D01*
X133500500Y-55093753D01*
X133500500Y-52624500D01*
X133520185Y-52557461D01*
X133572989Y-52511706D01*
X133624500Y-52500500D01*
X224375500Y-52500500D01*
X224442539Y-52520185D01*
G37*
%TD.AperFunction*%
%TD*%
M02*
