%TF.GenerationSoftware,KiCad,Pcbnew,10.0.3*%
%TF.CreationDate,2026-09-27T23:05:41+08:00*%
%TF.ProjectId,One Peace,4f6e6520-5065-4616-9365-2e6b69636164,rev?*%
%TF.SameCoordinates,Original*%
%TF.FileFunction,Copper,L3,Inr*%
%TF.FilePolarity,Positive*%
%FSLAX46Y46*%
G04 Gerber Fmt 4.6, Leading zero omitted, Abs format (unit mm)*
G04 Created by KiCad (PCBNEW 10.0.3) date 2026-09-27 23:05:41*
%MOMM*%
%LPD*%
G01*
G04 APERTURE LIST*
%TA.AperFunction,ComponentPad*%
%ADD10R,1.700000X1.700000*%
%TD*%
%TA.AperFunction,ComponentPad*%
%ADD11C,1.700000*%
%TD*%
%TA.AperFunction,ComponentPad*%
%ADD12C,0.700000*%
%TD*%
%TA.AperFunction,ComponentPad*%
%ADD13O,0.900000X2.400000*%
%TD*%
%TA.AperFunction,ComponentPad*%
%ADD14O,0.900000X1.700000*%
%TD*%
%TA.AperFunction,ComponentPad*%
%ADD15R,1.800000X1.800000*%
%TD*%
%TA.AperFunction,ComponentPad*%
%ADD16C,1.800000*%
%TD*%
%TA.AperFunction,ComponentPad*%
%ADD17C,3.000000*%
%TD*%
%TA.AperFunction,ViaPad*%
%ADD18C,0.600000*%
%TD*%
G04 APERTURE END LIST*
D10*
%TO.N,PWM*%
%TO.C,M1*%
X216060000Y-55200000D03*
D11*
%TO.N,+5V*%
X218600000Y-55200000D03*
%TO.N,GND*%
X221140000Y-55200000D03*
%TD*%
D12*
%TO.N,GND*%
%TO.C,J1*%
X170525000Y-103675000D03*
%TO.N,VBUS*%
X171375000Y-103675000D03*
%TO.N,Net-(J1-CC1)*%
X172225000Y-103675000D03*
%TO.N,D+*%
X173075000Y-103675000D03*
%TO.N,D-*%
X173925000Y-103675000D03*
%TO.N,unconnected-(J1-SBU1-PadA8)*%
X174775000Y-103675000D03*
%TO.N,VBUS*%
X175625000Y-103675000D03*
%TO.N,GND*%
X176475000Y-103675000D03*
X176475000Y-105025000D03*
%TO.N,VBUS*%
X175625000Y-105025000D03*
%TO.N,Net-(J1-CC2)*%
X174775000Y-105025000D03*
%TO.N,D+*%
X173925000Y-105025000D03*
%TO.N,D-*%
X173075000Y-105025000D03*
%TO.N,unconnected-(J1-SBU2-PadB8)*%
X172225000Y-105025000D03*
%TO.N,VBUS*%
X171375000Y-105025000D03*
%TO.N,GND*%
X170525000Y-105025000D03*
D13*
X169175000Y-104655000D03*
D14*
X169175000Y-108035000D03*
D13*
X177825000Y-104655000D03*
D14*
X177825000Y-108035000D03*
%TD*%
D10*
%TO.N,BAT+*%
%TO.C,J3*%
X212300000Y-55200000D03*
D11*
%TO.N,GND*%
X209760000Y-55200000D03*
%TD*%
D15*
%TO.N,+3V3*%
%TO.C,LCD1*%
X137080000Y-100310000D03*
D16*
%TO.N,GND*%
X137080000Y-97770000D03*
%TO.N,LCD_CS*%
X137080000Y-95230000D03*
%TO.N,RST*%
X137080000Y-92690000D03*
%TO.N,LCD_DC*%
X137080000Y-90150000D03*
%TO.N,MOSI*%
X137080000Y-87610000D03*
%TO.N,SCK*%
X137080000Y-85070000D03*
%TO.N,LED*%
X137080000Y-82530000D03*
%TO.N,MISO*%
X137080000Y-79990000D03*
%TO.N,SCK*%
X137080000Y-77450000D03*
%TO.N,TOUCH_CS*%
X137080000Y-74910000D03*
%TO.N,MOSI*%
X137080000Y-72370000D03*
%TO.N,MISO*%
X137080000Y-69830000D03*
%TO.N,unconnected-(LCD1-IRQ-Pad14)*%
X137080000Y-67290000D03*
D15*
%TO.N,unconnected-(LCD1-SD-CS-Pad15)*%
X218080000Y-87610000D03*
D16*
%TO.N,MOSI*%
X218080000Y-85070000D03*
%TO.N,MISO*%
X218080000Y-82530000D03*
%TO.N,SCK*%
X218080000Y-79990000D03*
D17*
%TO.N,*%
X142000000Y-105800000D03*
X142000000Y-61800000D03*
X218000000Y-61800000D03*
X218000000Y-105800000D03*
%TD*%
D18*
%TO.N,VBUS*%
X170300000Y-91700000D03*
X165300000Y-92600000D03*
X166200000Y-104400000D03*
X165300000Y-91400000D03*
%TO.N,GND*%
X181600000Y-63000000D03*
X170200000Y-99700000D03*
X161800000Y-102500000D03*
X181600000Y-61900000D03*
X168800000Y-63000000D03*
X162850000Y-62900000D03*
X167950000Y-62950000D03*
X179000000Y-85500000D03*
X197300000Y-55900000D03*
X179600000Y-87600000D03*
X182800000Y-69900000D03*
X158300000Y-69700000D03*
X183400000Y-101300000D03*
X168100000Y-105200000D03*
X154332500Y-65432500D03*
X182800000Y-55900000D03*
X176475000Y-102375000D03*
X201100000Y-58000000D03*
X197300000Y-58100000D03*
X156500000Y-71300000D03*
X198100000Y-55900000D03*
X175600000Y-62900000D03*
X172075000Y-98925000D03*
X182800000Y-67700000D03*
X164550000Y-62900000D03*
X165400000Y-62900000D03*
X173050000Y-62950000D03*
X158300000Y-63000000D03*
X221607500Y-69500000D03*
X172200000Y-63000000D03*
X159770000Y-85430000D03*
X167100000Y-62900000D03*
X170000000Y-98900000D03*
X194700000Y-58100000D03*
X198100000Y-58100000D03*
X174750000Y-62850000D03*
X188025000Y-106125000D03*
X162000000Y-62900000D03*
X179000000Y-62900000D03*
X185000000Y-106000000D03*
X194700000Y-55900000D03*
X222900000Y-55200000D03*
X195300000Y-107500000D03*
X178800000Y-87600000D03*
X173900000Y-62900000D03*
X207300000Y-55200000D03*
X169650000Y-62950000D03*
X139470000Y-97770000D03*
X179400000Y-103400000D03*
X187900000Y-95400000D03*
X180400000Y-85500000D03*
X201100000Y-56000000D03*
X161000000Y-85400000D03*
X170500000Y-62900000D03*
X166250000Y-62950000D03*
X165300000Y-96900000D03*
X178150000Y-62850000D03*
X181900000Y-83300000D03*
X183067500Y-103000000D03*
X161150000Y-62900000D03*
X172100000Y-96400000D03*
X186525000Y-106075000D03*
X164200000Y-98000000D03*
X158300000Y-61900000D03*
X171350000Y-62950000D03*
X176450000Y-62850000D03*
X160700000Y-63900000D03*
X177300000Y-62900000D03*
X155600000Y-63300000D03*
X170525000Y-106000000D03*
X177900000Y-87600000D03*
X180800000Y-104600000D03*
X189400000Y-106100000D03*
X167800000Y-108000000D03*
X197300000Y-63300000D03*
X187900000Y-93900000D03*
%TO.N,Net-(U3-EN)*%
X182300000Y-101100000D03*
X182300000Y-96200000D03*
%TO.N,Vout*%
X183200000Y-93900000D03*
X168700000Y-101500000D03*
%TO.N,+5V*%
X181550000Y-97600000D03*
X195575000Y-106200000D03*
X178225000Y-94275000D03*
X213757107Y-68100000D03*
%TO.N,PWM*%
X181750000Y-72350000D03*
%TO.N,+3V3*%
X155500000Y-65000000D03*
X157000000Y-69500000D03*
X180700000Y-89900000D03*
X182800000Y-68800000D03*
X179800000Y-89900000D03*
X177900000Y-89900000D03*
X178900000Y-89900000D03*
X139390000Y-100310000D03*
%TO.N,TOUCH_CS*%
X155310000Y-74910000D03*
%TO.N,RST*%
X156600000Y-75300000D03*
%TO.N,LCD_CS*%
X158400000Y-75750000D03*
%TO.N,MOSI*%
X202470000Y-85070000D03*
X164900000Y-78800000D03*
%TO.N,SCK*%
X208590000Y-79990000D03*
X161450000Y-77450000D03*
X146300000Y-77450000D03*
%TO.N,MISO*%
X162800000Y-78300000D03*
X205630000Y-82530000D03*
%TO.N,LCD_DC*%
X155810000Y-82910000D03*
%TO.N,BAT+*%
X159200000Y-88900000D03*
X187300000Y-84200000D03*
%TD*%
%TA.AperFunction,Conductor*%
%TO.N,+3V3*%
G36*
X224442539Y-52520185D02*
G01*
X224488294Y-52572989D01*
X224499500Y-52624500D01*
X224499500Y-109375500D01*
X224479815Y-109442539D01*
X224427011Y-109488294D01*
X224375500Y-109499500D01*
X178351492Y-109499500D01*
X178284453Y-109479815D01*
X178238698Y-109427011D01*
X178228754Y-109357853D01*
X178257779Y-109294297D01*
X178282601Y-109272398D01*
X178344177Y-109231253D01*
X178430908Y-109173302D01*
X178563302Y-109040908D01*
X178667322Y-108885231D01*
X178738973Y-108712251D01*
X178775500Y-108528616D01*
X178775500Y-107541384D01*
X178751585Y-107421153D01*
X194499500Y-107421153D01*
X194499500Y-107578846D01*
X194530261Y-107733489D01*
X194530264Y-107733501D01*
X194590602Y-107879172D01*
X194590609Y-107879185D01*
X194678210Y-108010288D01*
X194678213Y-108010292D01*
X194789707Y-108121786D01*
X194789711Y-108121789D01*
X194920814Y-108209390D01*
X194920827Y-108209397D01*
X195066498Y-108269735D01*
X195066503Y-108269737D01*
X195221153Y-108300499D01*
X195221156Y-108300500D01*
X195221158Y-108300500D01*
X195378844Y-108300500D01*
X195378845Y-108300499D01*
X195533497Y-108269737D01*
X195679179Y-108209394D01*
X195810289Y-108121789D01*
X195921789Y-108010289D01*
X196009394Y-107879179D01*
X196069737Y-107733497D01*
X196100500Y-107578842D01*
X196100500Y-107421158D01*
X196100500Y-107421155D01*
X196100499Y-107421153D01*
X196087887Y-107357748D01*
X196069737Y-107266503D01*
X196069735Y-107266498D01*
X196009397Y-107120827D01*
X196009390Y-107120814D01*
X195963576Y-107052249D01*
X195942698Y-106985572D01*
X195961182Y-106918191D01*
X195997788Y-106880256D01*
X196066430Y-106834390D01*
X196085289Y-106821789D01*
X196196789Y-106710289D01*
X196284394Y-106579179D01*
X196344737Y-106433497D01*
X196375500Y-106278842D01*
X196375500Y-106121158D01*
X196375500Y-106121155D01*
X196375499Y-106121153D01*
X196344737Y-105966503D01*
X196335905Y-105945181D01*
X196284397Y-105820827D01*
X196284390Y-105820814D01*
X196226190Y-105733712D01*
X196196789Y-105689711D01*
X196196786Y-105689707D01*
X196175951Y-105668872D01*
X215999500Y-105668872D01*
X215999500Y-105931127D01*
X216018949Y-106078846D01*
X216033730Y-106191116D01*
X216101602Y-106444418D01*
X216101605Y-106444428D01*
X216201953Y-106686690D01*
X216201958Y-106686700D01*
X216333075Y-106913803D01*
X216492718Y-107121851D01*
X216492726Y-107121860D01*
X216678140Y-107307274D01*
X216678148Y-107307281D01*
X216886196Y-107466924D01*
X217113299Y-107598041D01*
X217113309Y-107598046D01*
X217355571Y-107698394D01*
X217355581Y-107698398D01*
X217608884Y-107766270D01*
X217868880Y-107800500D01*
X217868887Y-107800500D01*
X218131113Y-107800500D01*
X218131120Y-107800500D01*
X218391116Y-107766270D01*
X218644419Y-107698398D01*
X218886697Y-107598043D01*
X219113803Y-107466924D01*
X219321851Y-107307282D01*
X219321855Y-107307277D01*
X219321860Y-107307274D01*
X219507274Y-107121860D01*
X219507277Y-107121855D01*
X219507282Y-107121851D01*
X219666924Y-106913803D01*
X219798043Y-106686697D01*
X219898398Y-106444419D01*
X219966270Y-106191116D01*
X220000500Y-105931120D01*
X220000500Y-105668880D01*
X219966270Y-105408884D01*
X219898398Y-105155581D01*
X219884140Y-105121158D01*
X219798046Y-104913309D01*
X219798041Y-104913299D01*
X219666924Y-104686196D01*
X219516843Y-104490609D01*
X219507282Y-104478149D01*
X219507281Y-104478148D01*
X219507274Y-104478140D01*
X219321860Y-104292726D01*
X219321851Y-104292718D01*
X219113803Y-104133075D01*
X218886700Y-104001958D01*
X218886690Y-104001953D01*
X218644428Y-103901605D01*
X218644421Y-103901603D01*
X218644419Y-103901602D01*
X218391116Y-103833730D01*
X218333339Y-103826123D01*
X218131127Y-103799500D01*
X218131120Y-103799500D01*
X217868880Y-103799500D01*
X217868872Y-103799500D01*
X217637772Y-103829926D01*
X217608884Y-103833730D01*
X217399974Y-103889707D01*
X217355581Y-103901602D01*
X217355571Y-103901605D01*
X217113309Y-104001953D01*
X217113299Y-104001958D01*
X216886196Y-104133075D01*
X216678148Y-104292718D01*
X216492718Y-104478148D01*
X216333075Y-104686196D01*
X216201958Y-104913299D01*
X216201953Y-104913309D01*
X216101605Y-105155571D01*
X216101602Y-105155581D01*
X216035977Y-105400500D01*
X216033730Y-105408885D01*
X215999500Y-105668872D01*
X196175951Y-105668872D01*
X196085292Y-105578213D01*
X196085288Y-105578210D01*
X195954185Y-105490609D01*
X195954172Y-105490602D01*
X195808501Y-105430264D01*
X195808489Y-105430261D01*
X195653845Y-105399500D01*
X195653842Y-105399500D01*
X195496158Y-105399500D01*
X195496155Y-105399500D01*
X195341510Y-105430261D01*
X195341498Y-105430264D01*
X195195827Y-105490602D01*
X195195814Y-105490609D01*
X195064711Y-105578210D01*
X195064707Y-105578213D01*
X194953213Y-105689707D01*
X194953210Y-105689711D01*
X194865609Y-105820814D01*
X194865602Y-105820827D01*
X194805264Y-105966498D01*
X194805261Y-105966510D01*
X194774500Y-106121153D01*
X194774500Y-106278846D01*
X194805261Y-106433489D01*
X194805264Y-106433501D01*
X194865602Y-106579172D01*
X194865609Y-106579185D01*
X194911423Y-106647750D01*
X194932301Y-106714428D01*
X194913816Y-106781808D01*
X194877213Y-106819743D01*
X194789707Y-106878213D01*
X194678213Y-106989707D01*
X194678210Y-106989711D01*
X194590609Y-107120814D01*
X194590602Y-107120827D01*
X194530264Y-107266498D01*
X194530261Y-107266510D01*
X194499500Y-107421153D01*
X178751585Y-107421153D01*
X178738973Y-107357749D01*
X178667322Y-107184769D01*
X178667321Y-107184768D01*
X178667318Y-107184762D01*
X178563302Y-107029092D01*
X178563299Y-107029088D01*
X178430911Y-106896700D01*
X178430907Y-106896697D01*
X178275237Y-106792681D01*
X178275228Y-106792676D01*
X178102251Y-106721027D01*
X178102243Y-106721025D01*
X177918620Y-106684500D01*
X177918616Y-106684500D01*
X177731384Y-106684500D01*
X177731379Y-106684500D01*
X177547756Y-106721025D01*
X177547748Y-106721027D01*
X177374771Y-106792676D01*
X177374762Y-106792681D01*
X177219092Y-106896697D01*
X177219088Y-106896700D01*
X177086700Y-107029088D01*
X177086697Y-107029092D01*
X176982681Y-107184762D01*
X176982676Y-107184771D01*
X176911027Y-107357748D01*
X176911025Y-107357756D01*
X176874500Y-107541379D01*
X176874500Y-108528620D01*
X176911025Y-108712243D01*
X176911027Y-108712251D01*
X176982676Y-108885228D01*
X176982681Y-108885237D01*
X177086697Y-109040907D01*
X177086700Y-109040911D01*
X177219088Y-109173299D01*
X177219092Y-109173302D01*
X177367399Y-109272398D01*
X177412204Y-109326010D01*
X177420911Y-109395335D01*
X177390757Y-109458363D01*
X177331314Y-109495082D01*
X177298508Y-109499500D01*
X169701492Y-109499500D01*
X169634453Y-109479815D01*
X169588698Y-109427011D01*
X169578754Y-109357853D01*
X169607779Y-109294297D01*
X169632601Y-109272398D01*
X169694177Y-109231253D01*
X169780908Y-109173302D01*
X169913302Y-109040908D01*
X170017322Y-108885231D01*
X170088973Y-108712251D01*
X170125500Y-108528616D01*
X170125500Y-107541384D01*
X170088973Y-107357749D01*
X170017322Y-107184769D01*
X170017321Y-107184768D01*
X170017318Y-107184762D01*
X169913302Y-107029092D01*
X169913299Y-107029088D01*
X169780911Y-106896700D01*
X169780907Y-106896697D01*
X169625237Y-106792681D01*
X169625228Y-106792676D01*
X169452251Y-106721027D01*
X169452243Y-106721025D01*
X169268620Y-106684500D01*
X169268616Y-106684500D01*
X169081384Y-106684500D01*
X169081379Y-106684500D01*
X168897756Y-106721025D01*
X168897748Y-106721027D01*
X168724771Y-106792676D01*
X168724762Y-106792681D01*
X168569092Y-106896697D01*
X168569088Y-106896700D01*
X168436700Y-107029088D01*
X168436697Y-107029092D01*
X168332681Y-107184762D01*
X168332676Y-107184771D01*
X168320230Y-107214818D01*
X168276387Y-107269220D01*
X168210092Y-107291283D01*
X168158218Y-107281923D01*
X168033501Y-107230264D01*
X168033489Y-107230261D01*
X167878845Y-107199500D01*
X167878842Y-107199500D01*
X167721158Y-107199500D01*
X167721155Y-107199500D01*
X167566510Y-107230261D01*
X167566498Y-107230264D01*
X167420827Y-107290602D01*
X167420814Y-107290609D01*
X167289711Y-107378210D01*
X167289707Y-107378213D01*
X167178213Y-107489707D01*
X167178210Y-107489711D01*
X167090609Y-107620814D01*
X167090602Y-107620827D01*
X167030264Y-107766498D01*
X167030261Y-107766510D01*
X166999500Y-107921153D01*
X166999500Y-108078846D01*
X167030261Y-108233489D01*
X167030264Y-108233501D01*
X167090602Y-108379172D01*
X167090609Y-108379185D01*
X167178210Y-108510288D01*
X167178213Y-108510292D01*
X167289707Y-108621786D01*
X167289711Y-108621789D01*
X167420814Y-108709390D01*
X167420827Y-108709397D01*
X167566498Y-108769735D01*
X167566503Y-108769737D01*
X167695695Y-108795435D01*
X167721153Y-108800499D01*
X167721156Y-108800500D01*
X167721158Y-108800500D01*
X167878844Y-108800500D01*
X167878845Y-108800499D01*
X168033497Y-108769737D01*
X168133470Y-108728326D01*
X168202939Y-108720858D01*
X168265418Y-108752133D01*
X168295483Y-108795435D01*
X168332676Y-108885227D01*
X168332681Y-108885237D01*
X168436697Y-109040907D01*
X168436700Y-109040911D01*
X168569088Y-109173299D01*
X168569092Y-109173302D01*
X168717399Y-109272398D01*
X168762204Y-109326010D01*
X168770911Y-109395335D01*
X168740757Y-109458363D01*
X168681314Y-109495082D01*
X168648508Y-109499500D01*
X133624500Y-109499500D01*
X133557461Y-109479815D01*
X133511706Y-109427011D01*
X133500500Y-109375500D01*
X133500500Y-105668872D01*
X139999500Y-105668872D01*
X139999500Y-105931127D01*
X140018949Y-106078846D01*
X140033730Y-106191116D01*
X140101602Y-106444418D01*
X140101605Y-106444428D01*
X140201953Y-106686690D01*
X140201958Y-106686700D01*
X140333075Y-106913803D01*
X140492718Y-107121851D01*
X140492726Y-107121860D01*
X140678140Y-107307274D01*
X140678148Y-107307281D01*
X140886196Y-107466924D01*
X141113299Y-107598041D01*
X141113309Y-107598046D01*
X141355571Y-107698394D01*
X141355581Y-107698398D01*
X141608884Y-107766270D01*
X141868880Y-107800500D01*
X141868887Y-107800500D01*
X142131113Y-107800500D01*
X142131120Y-107800500D01*
X142391116Y-107766270D01*
X142644419Y-107698398D01*
X142886697Y-107598043D01*
X143113803Y-107466924D01*
X143321851Y-107307282D01*
X143321855Y-107307277D01*
X143321860Y-107307274D01*
X143507274Y-107121860D01*
X143507277Y-107121855D01*
X143507282Y-107121851D01*
X143666924Y-106913803D01*
X143798043Y-106686697D01*
X143898398Y-106444419D01*
X143966270Y-106191116D01*
X144000500Y-105931120D01*
X144000500Y-105668880D01*
X143966270Y-105408884D01*
X143898398Y-105155581D01*
X143884140Y-105121158D01*
X143798046Y-104913309D01*
X143798041Y-104913299D01*
X143666924Y-104686196D01*
X143516843Y-104490609D01*
X143507282Y-104478149D01*
X143507281Y-104478148D01*
X143507274Y-104478140D01*
X143350287Y-104321153D01*
X165399500Y-104321153D01*
X165399500Y-104478846D01*
X165430261Y-104633489D01*
X165430264Y-104633501D01*
X165490602Y-104779172D01*
X165490609Y-104779185D01*
X165578210Y-104910288D01*
X165578213Y-104910292D01*
X165689707Y-105021786D01*
X165689711Y-105021789D01*
X165820814Y-105109390D01*
X165820827Y-105109397D01*
X165932303Y-105155571D01*
X165966503Y-105169737D01*
X166116131Y-105199500D01*
X166121153Y-105200499D01*
X166121156Y-105200500D01*
X166121158Y-105200500D01*
X166278844Y-105200500D01*
X166278845Y-105200499D01*
X166433497Y-105169737D01*
X166550790Y-105121153D01*
X167299500Y-105121153D01*
X167299500Y-105278846D01*
X167330261Y-105433489D01*
X167330264Y-105433501D01*
X167390602Y-105579172D01*
X167390609Y-105579185D01*
X167478210Y-105710288D01*
X167478213Y-105710292D01*
X167589707Y-105821786D01*
X167589711Y-105821789D01*
X167720814Y-105909390D01*
X167720827Y-105909397D01*
X167807219Y-105945181D01*
X167866503Y-105969737D01*
X168016131Y-105999500D01*
X168021153Y-106000499D01*
X168021156Y-106000500D01*
X168021158Y-106000500D01*
X168178844Y-106000500D01*
X168246408Y-105987059D01*
X168320274Y-105972367D01*
X168389865Y-105978594D01*
X168430664Y-106008326D01*
X168432390Y-106006601D01*
X168569088Y-106143299D01*
X168569092Y-106143302D01*
X168724762Y-106247318D01*
X168724768Y-106247321D01*
X168724769Y-106247322D01*
X168897749Y-106318973D01*
X169081379Y-106355499D01*
X169081383Y-106355500D01*
X169081384Y-106355500D01*
X169268617Y-106355500D01*
X169268618Y-106355499D01*
X169452251Y-106318973D01*
X169625231Y-106247322D01*
X169625232Y-106247321D01*
X169626546Y-106246777D01*
X169696015Y-106239308D01*
X169758495Y-106270583D01*
X169788560Y-106313885D01*
X169815604Y-106379175D01*
X169815609Y-106379185D01*
X169903210Y-106510288D01*
X169903213Y-106510292D01*
X170014707Y-106621786D01*
X170014711Y-106621789D01*
X170145814Y-106709390D01*
X170145827Y-106709397D01*
X170236101Y-106746789D01*
X170291503Y-106769737D01*
X170446153Y-106800499D01*
X170446156Y-106800500D01*
X170446158Y-106800500D01*
X170603844Y-106800500D01*
X170603845Y-106800499D01*
X170758497Y-106769737D01*
X170904179Y-106709394D01*
X171035289Y-106621789D01*
X171146789Y-106510289D01*
X171234394Y-106379179D01*
X171294737Y-106233497D01*
X171325500Y-106078842D01*
X171325500Y-105999500D01*
X171345185Y-105932461D01*
X171397989Y-105886706D01*
X171449500Y-105875500D01*
X171458768Y-105875500D01*
X171458769Y-105875499D01*
X171623082Y-105842816D01*
X171752548Y-105789188D01*
X171822016Y-105781720D01*
X171847450Y-105789188D01*
X171976918Y-105842816D01*
X172096002Y-105866503D01*
X172141228Y-105875499D01*
X172141232Y-105875500D01*
X172141233Y-105875500D01*
X172308768Y-105875500D01*
X172308769Y-105875499D01*
X172473082Y-105842816D01*
X172602548Y-105789188D01*
X172672016Y-105781720D01*
X172697450Y-105789188D01*
X172826918Y-105842816D01*
X172946002Y-105866503D01*
X172991228Y-105875499D01*
X172991232Y-105875500D01*
X172991233Y-105875500D01*
X173158768Y-105875500D01*
X173158769Y-105875499D01*
X173323082Y-105842816D01*
X173452548Y-105789188D01*
X173522016Y-105781720D01*
X173547450Y-105789188D01*
X173676918Y-105842816D01*
X173796002Y-105866503D01*
X173841228Y-105875499D01*
X173841232Y-105875500D01*
X173841233Y-105875500D01*
X174008768Y-105875500D01*
X174008769Y-105875499D01*
X174173082Y-105842816D01*
X174302548Y-105789188D01*
X174372016Y-105781720D01*
X174397450Y-105789188D01*
X174526918Y-105842816D01*
X174646002Y-105866503D01*
X174691228Y-105875499D01*
X174691232Y-105875500D01*
X174691233Y-105875500D01*
X174858768Y-105875500D01*
X174858769Y-105875499D01*
X175023082Y-105842816D01*
X175152548Y-105789188D01*
X175222016Y-105781720D01*
X175247450Y-105789188D01*
X175376918Y-105842816D01*
X175496002Y-105866503D01*
X175541228Y-105875499D01*
X175541232Y-105875500D01*
X175541233Y-105875500D01*
X175708768Y-105875500D01*
X175708769Y-105875499D01*
X175873082Y-105842816D01*
X176002548Y-105789188D01*
X176072016Y-105781720D01*
X176097450Y-105789188D01*
X176226918Y-105842816D01*
X176346002Y-105866503D01*
X176391228Y-105875499D01*
X176391232Y-105875500D01*
X176391233Y-105875500D01*
X176558768Y-105875500D01*
X176558769Y-105875499D01*
X176723082Y-105842816D01*
X176826356Y-105800037D01*
X176895824Y-105792569D01*
X176958303Y-105823844D01*
X176978811Y-105850487D01*
X176979293Y-105850166D01*
X177086697Y-106010907D01*
X177086700Y-106010911D01*
X177219088Y-106143299D01*
X177219092Y-106143302D01*
X177374762Y-106247318D01*
X177374768Y-106247321D01*
X177374769Y-106247322D01*
X177547749Y-106318973D01*
X177731379Y-106355499D01*
X177731383Y-106355500D01*
X177731384Y-106355500D01*
X177918617Y-106355500D01*
X177918618Y-106355499D01*
X178102251Y-106318973D01*
X178275231Y-106247322D01*
X178430908Y-106143302D01*
X178563302Y-106010908D01*
X178623274Y-105921153D01*
X184199500Y-105921153D01*
X184199500Y-106078846D01*
X184230261Y-106233489D01*
X184230264Y-106233501D01*
X184290602Y-106379172D01*
X184290609Y-106379185D01*
X184378210Y-106510288D01*
X184378213Y-106510292D01*
X184489707Y-106621786D01*
X184489711Y-106621789D01*
X184620814Y-106709390D01*
X184620827Y-106709397D01*
X184711101Y-106746789D01*
X184766503Y-106769737D01*
X184921153Y-106800499D01*
X184921156Y-106800500D01*
X184921158Y-106800500D01*
X185078844Y-106800500D01*
X185078845Y-106800499D01*
X185233497Y-106769737D01*
X185379179Y-106709394D01*
X185510289Y-106621789D01*
X185621789Y-106510289D01*
X185634341Y-106491502D01*
X185687951Y-106446699D01*
X185757275Y-106437990D01*
X185820304Y-106468144D01*
X185840545Y-106491503D01*
X185903210Y-106585289D01*
X186014707Y-106696786D01*
X186014711Y-106696789D01*
X186145814Y-106784390D01*
X186145827Y-106784397D01*
X186291498Y-106844735D01*
X186291503Y-106844737D01*
X186417176Y-106869735D01*
X186446153Y-106875499D01*
X186446156Y-106875500D01*
X186446158Y-106875500D01*
X186603844Y-106875500D01*
X186603845Y-106875499D01*
X186758497Y-106844737D01*
X186904179Y-106784394D01*
X187035289Y-106696789D01*
X187146789Y-106585289D01*
X187155191Y-106572713D01*
X187208802Y-106527907D01*
X187278127Y-106519198D01*
X187341155Y-106549351D01*
X187361397Y-106572711D01*
X187403210Y-106635288D01*
X187403213Y-106635292D01*
X187514707Y-106746786D01*
X187514711Y-106746789D01*
X187645814Y-106834390D01*
X187645827Y-106834397D01*
X187791498Y-106894735D01*
X187791503Y-106894737D01*
X187946153Y-106925499D01*
X187946156Y-106925500D01*
X187946158Y-106925500D01*
X188103844Y-106925500D01*
X188103845Y-106925499D01*
X188258497Y-106894737D01*
X188404179Y-106834394D01*
X188535289Y-106746789D01*
X188585292Y-106696786D01*
X188637319Y-106644760D01*
X188698642Y-106611275D01*
X188768334Y-106616259D01*
X188812681Y-106644760D01*
X188889707Y-106721786D01*
X188889711Y-106721789D01*
X189020814Y-106809390D01*
X189020827Y-106809397D01*
X189166498Y-106869735D01*
X189166503Y-106869737D01*
X189321153Y-106900499D01*
X189321156Y-106900500D01*
X189321158Y-106900500D01*
X189478844Y-106900500D01*
X189478845Y-106900499D01*
X189633497Y-106869737D01*
X189779179Y-106809394D01*
X189910289Y-106721789D01*
X190021789Y-106610289D01*
X190109394Y-106479179D01*
X190169737Y-106333497D01*
X190200500Y-106178842D01*
X190200500Y-106021158D01*
X190200500Y-106021155D01*
X190200499Y-106021153D01*
X190182857Y-105932461D01*
X190169737Y-105866503D01*
X190134619Y-105781720D01*
X190109397Y-105720827D01*
X190109390Y-105720814D01*
X190021789Y-105589711D01*
X190021786Y-105589707D01*
X189910292Y-105478213D01*
X189910288Y-105478210D01*
X189779185Y-105390609D01*
X189779172Y-105390602D01*
X189633501Y-105330264D01*
X189633489Y-105330261D01*
X189478845Y-105299500D01*
X189478842Y-105299500D01*
X189321158Y-105299500D01*
X189321155Y-105299500D01*
X189166510Y-105330261D01*
X189166498Y-105330264D01*
X189020827Y-105390602D01*
X189020814Y-105390609D01*
X188889711Y-105478210D01*
X188889707Y-105478213D01*
X188787681Y-105580240D01*
X188726358Y-105613725D01*
X188656666Y-105608741D01*
X188612319Y-105580240D01*
X188535292Y-105503213D01*
X188535288Y-105503210D01*
X188404185Y-105415609D01*
X188404172Y-105415602D01*
X188258501Y-105355264D01*
X188258489Y-105355261D01*
X188103845Y-105324500D01*
X188103842Y-105324500D01*
X187946158Y-105324500D01*
X187946155Y-105324500D01*
X187791510Y-105355261D01*
X187791498Y-105355264D01*
X187645827Y-105415602D01*
X187645814Y-105415609D01*
X187514711Y-105503210D01*
X187514707Y-105503213D01*
X187403212Y-105614708D01*
X187394804Y-105627292D01*
X187341190Y-105672095D01*
X187271864Y-105680800D01*
X187208838Y-105650642D01*
X187188602Y-105627288D01*
X187146789Y-105564711D01*
X187146786Y-105564707D01*
X187035292Y-105453213D01*
X187035288Y-105453210D01*
X186904185Y-105365609D01*
X186904172Y-105365602D01*
X186758501Y-105305264D01*
X186758489Y-105305261D01*
X186603845Y-105274500D01*
X186603842Y-105274500D01*
X186446158Y-105274500D01*
X186446155Y-105274500D01*
X186291510Y-105305261D01*
X186291498Y-105305264D01*
X186145827Y-105365602D01*
X186145814Y-105365609D01*
X186014711Y-105453210D01*
X186014707Y-105453213D01*
X185903213Y-105564707D01*
X185903209Y-105564712D01*
X185890656Y-105583499D01*
X185837043Y-105628302D01*
X185767718Y-105637008D01*
X185704691Y-105606851D01*
X185684454Y-105583495D01*
X185621792Y-105489715D01*
X185621786Y-105489707D01*
X185510292Y-105378213D01*
X185510288Y-105378210D01*
X185379185Y-105290609D01*
X185379172Y-105290602D01*
X185233501Y-105230264D01*
X185233489Y-105230261D01*
X185078845Y-105199500D01*
X185078842Y-105199500D01*
X184921158Y-105199500D01*
X184921155Y-105199500D01*
X184766510Y-105230261D01*
X184766498Y-105230264D01*
X184620827Y-105290602D01*
X184620814Y-105290609D01*
X184489711Y-105378210D01*
X184489707Y-105378213D01*
X184378213Y-105489707D01*
X184378210Y-105489711D01*
X184290609Y-105620814D01*
X184290602Y-105620827D01*
X184230264Y-105766498D01*
X184230261Y-105766510D01*
X184199500Y-105921153D01*
X178623274Y-105921153D01*
X178667322Y-105855231D01*
X178738973Y-105682251D01*
X178775500Y-105498616D01*
X178775500Y-104521153D01*
X179999500Y-104521153D01*
X179999500Y-104678846D01*
X180030261Y-104833489D01*
X180030264Y-104833501D01*
X180090602Y-104979172D01*
X180090609Y-104979185D01*
X180178210Y-105110288D01*
X180178213Y-105110292D01*
X180289707Y-105221786D01*
X180289711Y-105221789D01*
X180420814Y-105309390D01*
X180420827Y-105309397D01*
X180556520Y-105365602D01*
X180566503Y-105369737D01*
X180716131Y-105399500D01*
X180721153Y-105400499D01*
X180721156Y-105400500D01*
X180721158Y-105400500D01*
X180878844Y-105400500D01*
X180878845Y-105400499D01*
X181033497Y-105369737D01*
X181179179Y-105309394D01*
X181310289Y-105221789D01*
X181421789Y-105110289D01*
X181509394Y-104979179D01*
X181569737Y-104833497D01*
X181600500Y-104678842D01*
X181600500Y-104521158D01*
X181600500Y-104521155D01*
X181600499Y-104521153D01*
X181594422Y-104490602D01*
X181569737Y-104366503D01*
X181550955Y-104321158D01*
X181509397Y-104220827D01*
X181509390Y-104220814D01*
X181421789Y-104089711D01*
X181421786Y-104089707D01*
X181310292Y-103978213D01*
X181310288Y-103978210D01*
X181179185Y-103890609D01*
X181179172Y-103890602D01*
X181033501Y-103830264D01*
X181033489Y-103830261D01*
X180878845Y-103799500D01*
X180878842Y-103799500D01*
X180721158Y-103799500D01*
X180721155Y-103799500D01*
X180566510Y-103830261D01*
X180566498Y-103830264D01*
X180420827Y-103890602D01*
X180420814Y-103890609D01*
X180289711Y-103978210D01*
X180289706Y-103978214D01*
X180238903Y-104029016D01*
X180238883Y-104029038D01*
X180178211Y-104089711D01*
X180150738Y-104130826D01*
X180150725Y-104130842D01*
X180090612Y-104220809D01*
X180090602Y-104220827D01*
X180030264Y-104366498D01*
X180030261Y-104366510D01*
X179999500Y-104521153D01*
X178775500Y-104521153D01*
X178775500Y-104177463D01*
X178795185Y-104110424D01*
X178847989Y-104064669D01*
X178917147Y-104054725D01*
X178968392Y-104074362D01*
X179020812Y-104109389D01*
X179020827Y-104109397D01*
X179158683Y-104166498D01*
X179166503Y-104169737D01*
X179321153Y-104200499D01*
X179321156Y-104200500D01*
X179321158Y-104200500D01*
X179478844Y-104200500D01*
X179478845Y-104200499D01*
X179633497Y-104169737D01*
X179746166Y-104123067D01*
X179779172Y-104109397D01*
X179779172Y-104109396D01*
X179779179Y-104109394D01*
X179910289Y-104021789D01*
X180021789Y-103910289D01*
X180109394Y-103779179D01*
X180169737Y-103633497D01*
X180200500Y-103478842D01*
X180200500Y-103321158D01*
X180200500Y-103321155D01*
X180200499Y-103321153D01*
X180183061Y-103233489D01*
X180169737Y-103166503D01*
X180162852Y-103149880D01*
X180109397Y-103020827D01*
X180109390Y-103020814D01*
X180021789Y-102889711D01*
X180021786Y-102889707D01*
X179910292Y-102778213D01*
X179910288Y-102778210D01*
X179779185Y-102690609D01*
X179779172Y-102690602D01*
X179633501Y-102630264D01*
X179633489Y-102630261D01*
X179478845Y-102599500D01*
X179478842Y-102599500D01*
X179321158Y-102599500D01*
X179321155Y-102599500D01*
X179166510Y-102630261D01*
X179166498Y-102630264D01*
X179020827Y-102690602D01*
X179020814Y-102690609D01*
X178889711Y-102778210D01*
X178889707Y-102778213D01*
X178778213Y-102889707D01*
X178778210Y-102889711D01*
X178690609Y-103020814D01*
X178690604Y-103020823D01*
X178642834Y-103136153D01*
X178598993Y-103190556D01*
X178532699Y-103212621D01*
X178465000Y-103195342D01*
X178440592Y-103176381D01*
X178430911Y-103166700D01*
X178430907Y-103166697D01*
X178275237Y-103062681D01*
X178275228Y-103062676D01*
X178102251Y-102991027D01*
X178102243Y-102991025D01*
X177918620Y-102954500D01*
X177918616Y-102954500D01*
X177731384Y-102954500D01*
X177731379Y-102954500D01*
X177547756Y-102991025D01*
X177547748Y-102991027D01*
X177374771Y-103062676D01*
X177374764Y-103062680D01*
X177273968Y-103130030D01*
X177243665Y-103139517D01*
X177213924Y-103150611D01*
X177210568Y-103149880D01*
X177207291Y-103150907D01*
X177176676Y-103142508D01*
X177145651Y-103135759D01*
X177141935Y-103132977D01*
X177139911Y-103132422D01*
X177117397Y-103114608D01*
X177080114Y-103077325D01*
X177046629Y-103016002D01*
X177051613Y-102946310D01*
X177080114Y-102901963D01*
X177096789Y-102885289D01*
X177184394Y-102754179D01*
X177244737Y-102608497D01*
X177275500Y-102453842D01*
X177275500Y-102296158D01*
X177275500Y-102296155D01*
X177275499Y-102296153D01*
X177270245Y-102269738D01*
X177244737Y-102141503D01*
X177244735Y-102141498D01*
X177184397Y-101995827D01*
X177184390Y-101995814D01*
X177096789Y-101864711D01*
X177096786Y-101864707D01*
X176985292Y-101753213D01*
X176985288Y-101753210D01*
X176854185Y-101665609D01*
X176854172Y-101665602D01*
X176708501Y-101605264D01*
X176708489Y-101605261D01*
X176553845Y-101574500D01*
X176553842Y-101574500D01*
X176396158Y-101574500D01*
X176396155Y-101574500D01*
X176241510Y-101605261D01*
X176241498Y-101605264D01*
X176095827Y-101665602D01*
X176095814Y-101665609D01*
X175964711Y-101753210D01*
X175964707Y-101753213D01*
X175853213Y-101864707D01*
X175853210Y-101864711D01*
X175765609Y-101995814D01*
X175765602Y-101995827D01*
X175705264Y-102141498D01*
X175705261Y-102141510D01*
X175674500Y-102296153D01*
X175674500Y-102453846D01*
X175705261Y-102608489D01*
X175705264Y-102608501D01*
X175723716Y-102653048D01*
X175731185Y-102722517D01*
X175699909Y-102784996D01*
X175639820Y-102820648D01*
X175609155Y-102824500D01*
X175541228Y-102824500D01*
X175376925Y-102857182D01*
X175376913Y-102857185D01*
X175247452Y-102910810D01*
X175177983Y-102918279D01*
X175152548Y-102910810D01*
X175023086Y-102857185D01*
X175023074Y-102857182D01*
X174858771Y-102824500D01*
X174858767Y-102824500D01*
X174691233Y-102824500D01*
X174691228Y-102824500D01*
X174526925Y-102857182D01*
X174526913Y-102857185D01*
X174397452Y-102910810D01*
X174327983Y-102918279D01*
X174302548Y-102910810D01*
X174173086Y-102857185D01*
X174173074Y-102857182D01*
X174008771Y-102824500D01*
X174008767Y-102824500D01*
X173841233Y-102824500D01*
X173841228Y-102824500D01*
X173676925Y-102857182D01*
X173676913Y-102857185D01*
X173547452Y-102910810D01*
X173477983Y-102918279D01*
X173452548Y-102910810D01*
X173323086Y-102857185D01*
X173323074Y-102857182D01*
X173158771Y-102824500D01*
X173158767Y-102824500D01*
X172991233Y-102824500D01*
X172991228Y-102824500D01*
X172826925Y-102857182D01*
X172826913Y-102857185D01*
X172697452Y-102910810D01*
X172627983Y-102918279D01*
X172602548Y-102910810D01*
X172473086Y-102857185D01*
X172473074Y-102857182D01*
X172308771Y-102824500D01*
X172308767Y-102824500D01*
X172141233Y-102824500D01*
X172141228Y-102824500D01*
X171976925Y-102857182D01*
X171976913Y-102857185D01*
X171847452Y-102910810D01*
X171777983Y-102918279D01*
X171752548Y-102910810D01*
X171623086Y-102857185D01*
X171623074Y-102857182D01*
X171458771Y-102824500D01*
X171458767Y-102824500D01*
X171291233Y-102824500D01*
X171291228Y-102824500D01*
X171126925Y-102857182D01*
X171126913Y-102857185D01*
X170997452Y-102910810D01*
X170927983Y-102918279D01*
X170902548Y-102910810D01*
X170773086Y-102857185D01*
X170773074Y-102857182D01*
X170608771Y-102824500D01*
X170608767Y-102824500D01*
X170441233Y-102824500D01*
X170441228Y-102824500D01*
X170276925Y-102857182D01*
X170276917Y-102857184D01*
X170122139Y-102921295D01*
X169982838Y-103014373D01*
X169882602Y-103114609D01*
X169821279Y-103148093D01*
X169751587Y-103143109D01*
X169726030Y-103130029D01*
X169625237Y-103062681D01*
X169625228Y-103062676D01*
X169452251Y-102991027D01*
X169452243Y-102991025D01*
X169268620Y-102954500D01*
X169268616Y-102954500D01*
X169081384Y-102954500D01*
X169081379Y-102954500D01*
X168897756Y-102991025D01*
X168897748Y-102991027D01*
X168724771Y-103062676D01*
X168724762Y-103062681D01*
X168569092Y-103166697D01*
X168569088Y-103166700D01*
X168436700Y-103299088D01*
X168436697Y-103299092D01*
X168332681Y-103454762D01*
X168332676Y-103454771D01*
X168261027Y-103627748D01*
X168261025Y-103627756D01*
X168224500Y-103811379D01*
X168224500Y-104275500D01*
X168204815Y-104342539D01*
X168152011Y-104388294D01*
X168100500Y-104399500D01*
X168021155Y-104399500D01*
X167866510Y-104430261D01*
X167866498Y-104430264D01*
X167720827Y-104490602D01*
X167720814Y-104490609D01*
X167589711Y-104578210D01*
X167589707Y-104578213D01*
X167478213Y-104689707D01*
X167478210Y-104689711D01*
X167390609Y-104820814D01*
X167390602Y-104820827D01*
X167330264Y-104966498D01*
X167330261Y-104966510D01*
X167299500Y-105121153D01*
X166550790Y-105121153D01*
X166579179Y-105109394D01*
X166710289Y-105021789D01*
X166821789Y-104910289D01*
X166909394Y-104779179D01*
X166969737Y-104633497D01*
X167000500Y-104478842D01*
X167000500Y-104321158D01*
X167000500Y-104321155D01*
X167000499Y-104321153D01*
X166980543Y-104220827D01*
X166969737Y-104166503D01*
X166954966Y-104130842D01*
X166909397Y-104020827D01*
X166909390Y-104020814D01*
X166821789Y-103889711D01*
X166821786Y-103889707D01*
X166710292Y-103778213D01*
X166710288Y-103778210D01*
X166579185Y-103690609D01*
X166579172Y-103690602D01*
X166433501Y-103630264D01*
X166433489Y-103630261D01*
X166278845Y-103599500D01*
X166278842Y-103599500D01*
X166121158Y-103599500D01*
X166121155Y-103599500D01*
X165966510Y-103630261D01*
X165966498Y-103630264D01*
X165820827Y-103690602D01*
X165820814Y-103690609D01*
X165689711Y-103778210D01*
X165689707Y-103778213D01*
X165578213Y-103889707D01*
X165578210Y-103889711D01*
X165490609Y-104020814D01*
X165490602Y-104020827D01*
X165430264Y-104166498D01*
X165430261Y-104166510D01*
X165399500Y-104321153D01*
X143350287Y-104321153D01*
X143321860Y-104292726D01*
X143321851Y-104292718D01*
X143113803Y-104133075D01*
X142886700Y-104001958D01*
X142886690Y-104001953D01*
X142644428Y-103901605D01*
X142644421Y-103901603D01*
X142644419Y-103901602D01*
X142391116Y-103833730D01*
X142333339Y-103826123D01*
X142131127Y-103799500D01*
X142131120Y-103799500D01*
X141868880Y-103799500D01*
X141868872Y-103799500D01*
X141637772Y-103829926D01*
X141608884Y-103833730D01*
X141399974Y-103889707D01*
X141355581Y-103901602D01*
X141355571Y-103901605D01*
X141113309Y-104001953D01*
X141113299Y-104001958D01*
X140886196Y-104133075D01*
X140678148Y-104292718D01*
X140492718Y-104478148D01*
X140333075Y-104686196D01*
X140201958Y-104913299D01*
X140201953Y-104913309D01*
X140101605Y-105155571D01*
X140101602Y-105155581D01*
X140035977Y-105400500D01*
X140033730Y-105408885D01*
X139999500Y-105668872D01*
X133500500Y-105668872D01*
X133500500Y-102421153D01*
X160999500Y-102421153D01*
X160999500Y-102578846D01*
X161030261Y-102733489D01*
X161030264Y-102733501D01*
X161090602Y-102879172D01*
X161090609Y-102879185D01*
X161178210Y-103010288D01*
X161178213Y-103010292D01*
X161289707Y-103121786D01*
X161289711Y-103121789D01*
X161420814Y-103209390D01*
X161420827Y-103209397D01*
X161566498Y-103269735D01*
X161566503Y-103269737D01*
X161714080Y-103299092D01*
X161721153Y-103300499D01*
X161721156Y-103300500D01*
X161721158Y-103300500D01*
X161878844Y-103300500D01*
X161878845Y-103300499D01*
X162033497Y-103269737D01*
X162179179Y-103209394D01*
X162310289Y-103121789D01*
X162421789Y-103010289D01*
X162509394Y-102879179D01*
X162569737Y-102733497D01*
X162600500Y-102578842D01*
X162600500Y-102421158D01*
X162600500Y-102421155D01*
X162600499Y-102421153D01*
X162591957Y-102378210D01*
X162569737Y-102266503D01*
X162567766Y-102261745D01*
X162509397Y-102120827D01*
X162509390Y-102120814D01*
X162421789Y-101989711D01*
X162421786Y-101989707D01*
X162310292Y-101878213D01*
X162310288Y-101878210D01*
X162179185Y-101790609D01*
X162179172Y-101790602D01*
X162033501Y-101730264D01*
X162033489Y-101730261D01*
X161878845Y-101699500D01*
X161878842Y-101699500D01*
X161721158Y-101699500D01*
X161721155Y-101699500D01*
X161566510Y-101730261D01*
X161566498Y-101730264D01*
X161420827Y-101790602D01*
X161420814Y-101790609D01*
X161289711Y-101878210D01*
X161289707Y-101878213D01*
X161178213Y-101989707D01*
X161178210Y-101989711D01*
X161090609Y-102120814D01*
X161090602Y-102120827D01*
X161030264Y-102266498D01*
X161030261Y-102266510D01*
X160999500Y-102421153D01*
X133500500Y-102421153D01*
X133500500Y-67179778D01*
X135679500Y-67179778D01*
X135679500Y-67400221D01*
X135713985Y-67617952D01*
X135782103Y-67827603D01*
X135782104Y-67827606D01*
X135836057Y-67933492D01*
X135880724Y-68021155D01*
X135882187Y-68024025D01*
X136011752Y-68202358D01*
X136011756Y-68202363D01*
X136167636Y-68358243D01*
X136167641Y-68358247D01*
X136307254Y-68459682D01*
X136349920Y-68515012D01*
X136355899Y-68584625D01*
X136323293Y-68646420D01*
X136307254Y-68660318D01*
X136167641Y-68761752D01*
X136167636Y-68761756D01*
X136011756Y-68917636D01*
X136011752Y-68917641D01*
X135882187Y-69095974D01*
X135782104Y-69292393D01*
X135782103Y-69292396D01*
X135713985Y-69502047D01*
X135687939Y-69666498D01*
X135679500Y-69719778D01*
X135679500Y-69940222D01*
X135690597Y-70010288D01*
X135713985Y-70157952D01*
X135782103Y-70367603D01*
X135782104Y-70367606D01*
X135834143Y-70469735D01*
X135860664Y-70521786D01*
X135882187Y-70564025D01*
X136011752Y-70742358D01*
X136011756Y-70742363D01*
X136167636Y-70898243D01*
X136167641Y-70898247D01*
X136307254Y-70999682D01*
X136349920Y-71055012D01*
X136355899Y-71124625D01*
X136323293Y-71186420D01*
X136307254Y-71200318D01*
X136167641Y-71301752D01*
X136167636Y-71301756D01*
X136011756Y-71457636D01*
X136011752Y-71457641D01*
X135882187Y-71635974D01*
X135782104Y-71832393D01*
X135782103Y-71832396D01*
X135713985Y-72042047D01*
X135679500Y-72259778D01*
X135679500Y-72480221D01*
X135713985Y-72697952D01*
X135782103Y-72907603D01*
X135782104Y-72907606D01*
X135882187Y-73104025D01*
X136011752Y-73282358D01*
X136011756Y-73282363D01*
X136167636Y-73438243D01*
X136167641Y-73438247D01*
X136307254Y-73539682D01*
X136349920Y-73595012D01*
X136355899Y-73664625D01*
X136323293Y-73726420D01*
X136307254Y-73740318D01*
X136167641Y-73841752D01*
X136167636Y-73841756D01*
X136011756Y-73997636D01*
X136011752Y-73997641D01*
X135882187Y-74175974D01*
X135782104Y-74372393D01*
X135782103Y-74372396D01*
X135713985Y-74582047D01*
X135698754Y-74678211D01*
X135679500Y-74799778D01*
X135679500Y-75020222D01*
X135686830Y-75066503D01*
X135713985Y-75237952D01*
X135782103Y-75447603D01*
X135782104Y-75447606D01*
X135825865Y-75533489D01*
X135869636Y-75619394D01*
X135882187Y-75644025D01*
X136011752Y-75822358D01*
X136011756Y-75822363D01*
X136167636Y-75978243D01*
X136167641Y-75978247D01*
X136307254Y-76079682D01*
X136349920Y-76135012D01*
X136355899Y-76204625D01*
X136323293Y-76266420D01*
X136307254Y-76280318D01*
X136167641Y-76381752D01*
X136167636Y-76381756D01*
X136011756Y-76537636D01*
X136011752Y-76537641D01*
X135882187Y-76715974D01*
X135782104Y-76912393D01*
X135782103Y-76912396D01*
X135713985Y-77122047D01*
X135679500Y-77339778D01*
X135679500Y-77560221D01*
X135713985Y-77777952D01*
X135782103Y-77987603D01*
X135782104Y-77987606D01*
X135834588Y-78090609D01*
X135882005Y-78183669D01*
X135882187Y-78184025D01*
X136011752Y-78362358D01*
X136011756Y-78362363D01*
X136167636Y-78518243D01*
X136167641Y-78518247D01*
X136307254Y-78619682D01*
X136349920Y-78675012D01*
X136355899Y-78744625D01*
X136323293Y-78806420D01*
X136307254Y-78820318D01*
X136167641Y-78921752D01*
X136167636Y-78921756D01*
X136011756Y-79077636D01*
X136011752Y-79077641D01*
X135882187Y-79255974D01*
X135782104Y-79452393D01*
X135782103Y-79452396D01*
X135713985Y-79662047D01*
X135679500Y-79879778D01*
X135679500Y-80100221D01*
X135713985Y-80317952D01*
X135782103Y-80527603D01*
X135782104Y-80527606D01*
X135850122Y-80661096D01*
X135869636Y-80699394D01*
X135882187Y-80724025D01*
X136011752Y-80902358D01*
X136011756Y-80902363D01*
X136167636Y-81058243D01*
X136167641Y-81058247D01*
X136307254Y-81159682D01*
X136349920Y-81215012D01*
X136355899Y-81284625D01*
X136323293Y-81346420D01*
X136307254Y-81360318D01*
X136167641Y-81461752D01*
X136167636Y-81461756D01*
X136011756Y-81617636D01*
X136011752Y-81617641D01*
X135882187Y-81795974D01*
X135782104Y-81992393D01*
X135782103Y-81992396D01*
X135713985Y-82202047D01*
X135713985Y-82202049D01*
X135679500Y-82419778D01*
X135679500Y-82640222D01*
X135685517Y-82678210D01*
X135713985Y-82857952D01*
X135782103Y-83067603D01*
X135782104Y-83067606D01*
X135850122Y-83201096D01*
X135869636Y-83239394D01*
X135882187Y-83264025D01*
X136011752Y-83442358D01*
X136011756Y-83442363D01*
X136167636Y-83598243D01*
X136167641Y-83598247D01*
X136307254Y-83699682D01*
X136349920Y-83755012D01*
X136355899Y-83824625D01*
X136323293Y-83886420D01*
X136307254Y-83900318D01*
X136167641Y-84001752D01*
X136167636Y-84001756D01*
X136011756Y-84157636D01*
X136011752Y-84157641D01*
X135882187Y-84335974D01*
X135782104Y-84532393D01*
X135782103Y-84532396D01*
X135713985Y-84742047D01*
X135679500Y-84959778D01*
X135679500Y-85180221D01*
X135713985Y-85397952D01*
X135782103Y-85607603D01*
X135782104Y-85607606D01*
X135846246Y-85733489D01*
X135869636Y-85779394D01*
X135882187Y-85804025D01*
X136011752Y-85982358D01*
X136011756Y-85982363D01*
X136167636Y-86138243D01*
X136167641Y-86138247D01*
X136307254Y-86239682D01*
X136349920Y-86295012D01*
X136355899Y-86364625D01*
X136323293Y-86426420D01*
X136307254Y-86440318D01*
X136167641Y-86541752D01*
X136167636Y-86541756D01*
X136011756Y-86697636D01*
X136011752Y-86697641D01*
X135882187Y-86875974D01*
X135782104Y-87072393D01*
X135782103Y-87072396D01*
X135713985Y-87282047D01*
X135679500Y-87499778D01*
X135679500Y-87720221D01*
X135713985Y-87937952D01*
X135782103Y-88147603D01*
X135782104Y-88147606D01*
X135840429Y-88262072D01*
X135864542Y-88309397D01*
X135882187Y-88344025D01*
X136011752Y-88522358D01*
X136011756Y-88522363D01*
X136167636Y-88678243D01*
X136167641Y-88678247D01*
X136307254Y-88779682D01*
X136349920Y-88835012D01*
X136355899Y-88904625D01*
X136323293Y-88966420D01*
X136307254Y-88980318D01*
X136167641Y-89081752D01*
X136167636Y-89081756D01*
X136011756Y-89237636D01*
X136011752Y-89237641D01*
X135882187Y-89415974D01*
X135782104Y-89612393D01*
X135782103Y-89612396D01*
X135713985Y-89822047D01*
X135679500Y-90039778D01*
X135679500Y-90260221D01*
X135713985Y-90477952D01*
X135782103Y-90687603D01*
X135782104Y-90687606D01*
X135882187Y-90884025D01*
X136011752Y-91062358D01*
X136011756Y-91062363D01*
X136167636Y-91218243D01*
X136167641Y-91218247D01*
X136307254Y-91319682D01*
X136349920Y-91375012D01*
X136355899Y-91444625D01*
X136323293Y-91506420D01*
X136307254Y-91520318D01*
X136167641Y-91621752D01*
X136167636Y-91621756D01*
X136011756Y-91777636D01*
X136011752Y-91777641D01*
X135882187Y-91955974D01*
X135782104Y-92152393D01*
X135782103Y-92152396D01*
X135713985Y-92362047D01*
X135679500Y-92579778D01*
X135679500Y-92800221D01*
X135713985Y-93017952D01*
X135782103Y-93227603D01*
X135782104Y-93227606D01*
X135823780Y-93309397D01*
X135870199Y-93400499D01*
X135882187Y-93424025D01*
X136011752Y-93602358D01*
X136011756Y-93602363D01*
X136167636Y-93758243D01*
X136167641Y-93758247D01*
X136307254Y-93859682D01*
X136349920Y-93915012D01*
X136355899Y-93984625D01*
X136323293Y-94046420D01*
X136307254Y-94060318D01*
X136167641Y-94161752D01*
X136167636Y-94161756D01*
X136011756Y-94317636D01*
X136011752Y-94317641D01*
X135882187Y-94495974D01*
X135782104Y-94692393D01*
X135782103Y-94692396D01*
X135713985Y-94902047D01*
X135679500Y-95119778D01*
X135679500Y-95340221D01*
X135713985Y-95557952D01*
X135782103Y-95767603D01*
X135782104Y-95767606D01*
X135882187Y-95964025D01*
X136011752Y-96142358D01*
X136011756Y-96142363D01*
X136167636Y-96298243D01*
X136167641Y-96298247D01*
X136307254Y-96399682D01*
X136349920Y-96455012D01*
X136355899Y-96524625D01*
X136323293Y-96586420D01*
X136307254Y-96600318D01*
X136167641Y-96701752D01*
X136167636Y-96701756D01*
X136011756Y-96857636D01*
X136011752Y-96857641D01*
X135882187Y-97035974D01*
X135782104Y-97232393D01*
X135782103Y-97232396D01*
X135713985Y-97442047D01*
X135679500Y-97659778D01*
X135679500Y-97880221D01*
X135713985Y-98097952D01*
X135782103Y-98307603D01*
X135782104Y-98307606D01*
X135829437Y-98400499D01*
X135869636Y-98479394D01*
X135882187Y-98504025D01*
X136011752Y-98682358D01*
X136011756Y-98682363D01*
X136062316Y-98732923D01*
X136095801Y-98794246D01*
X136090817Y-98863938D01*
X136048945Y-98919871D01*
X136017969Y-98936785D01*
X135937918Y-98966643D01*
X135937906Y-98966649D01*
X135822812Y-99052809D01*
X135822809Y-99052812D01*
X135736649Y-99167906D01*
X135736645Y-99167913D01*
X135686403Y-99302620D01*
X135686401Y-99302627D01*
X135680000Y-99362155D01*
X135680000Y-100060000D01*
X136635432Y-100060000D01*
X136604749Y-100113145D01*
X136569993Y-100242856D01*
X136569993Y-100377144D01*
X136604749Y-100506855D01*
X136635432Y-100560000D01*
X135680000Y-100560000D01*
X135680000Y-101257844D01*
X135686401Y-101317372D01*
X135686403Y-101317379D01*
X135736645Y-101452086D01*
X135736649Y-101452093D01*
X135822809Y-101567187D01*
X135822812Y-101567190D01*
X135937906Y-101653350D01*
X135937913Y-101653354D01*
X136072620Y-101703596D01*
X136072627Y-101703598D01*
X136132155Y-101709999D01*
X136132172Y-101710000D01*
X136830000Y-101710000D01*
X136830000Y-100754567D01*
X136883145Y-100785251D01*
X137012856Y-100820007D01*
X137147144Y-100820007D01*
X137276855Y-100785251D01*
X137330000Y-100754567D01*
X137330000Y-101710000D01*
X138027828Y-101710000D01*
X138027844Y-101709999D01*
X138087372Y-101703598D01*
X138087379Y-101703596D01*
X138222086Y-101653354D01*
X138222093Y-101653350D01*
X138337187Y-101567190D01*
X138337190Y-101567187D01*
X138423350Y-101452093D01*
X138423354Y-101452086D01*
X138434891Y-101421153D01*
X167899500Y-101421153D01*
X167899500Y-101578846D01*
X167930261Y-101733489D01*
X167930264Y-101733501D01*
X167990602Y-101879172D01*
X167990609Y-101879185D01*
X168078210Y-102010288D01*
X168078213Y-102010292D01*
X168189707Y-102121786D01*
X168189711Y-102121789D01*
X168320814Y-102209390D01*
X168320827Y-102209397D01*
X168447208Y-102261745D01*
X168466503Y-102269737D01*
X168621153Y-102300499D01*
X168621156Y-102300500D01*
X168621158Y-102300500D01*
X168778844Y-102300500D01*
X168778845Y-102300499D01*
X168933497Y-102269737D01*
X169079179Y-102209394D01*
X169210289Y-102121789D01*
X169321789Y-102010289D01*
X169409394Y-101879179D01*
X169415389Y-101864707D01*
X169440166Y-101804888D01*
X169469737Y-101733497D01*
X169500500Y-101578842D01*
X169500500Y-101421158D01*
X169500500Y-101421155D01*
X169500499Y-101421153D01*
X169469737Y-101266503D01*
X169450955Y-101221158D01*
X169409397Y-101120827D01*
X169409390Y-101120814D01*
X169384763Y-101083957D01*
X169342798Y-101021153D01*
X181499500Y-101021153D01*
X181499500Y-101178846D01*
X181530261Y-101333489D01*
X181530264Y-101333501D01*
X181590602Y-101479172D01*
X181590609Y-101479185D01*
X181678210Y-101610288D01*
X181678213Y-101610292D01*
X181789707Y-101721786D01*
X181789711Y-101721789D01*
X181920814Y-101809390D01*
X181920827Y-101809397D01*
X182054359Y-101864707D01*
X182066503Y-101869737D01*
X182221153Y-101900499D01*
X182221156Y-101900500D01*
X182221158Y-101900500D01*
X182378844Y-101900500D01*
X182378845Y-101900499D01*
X182533497Y-101869737D01*
X182672026Y-101812356D01*
X182741494Y-101804888D01*
X182803973Y-101836163D01*
X182807158Y-101839237D01*
X182889710Y-101921789D01*
X182983777Y-101984642D01*
X183028582Y-102038254D01*
X183037289Y-102107579D01*
X183007135Y-102170606D01*
X182947692Y-102207326D01*
X182939078Y-102209361D01*
X182834008Y-102230261D01*
X182833998Y-102230264D01*
X182688327Y-102290602D01*
X182688314Y-102290609D01*
X182557211Y-102378210D01*
X182557207Y-102378213D01*
X182445713Y-102489707D01*
X182445710Y-102489711D01*
X182358109Y-102620814D01*
X182358102Y-102620827D01*
X182297764Y-102766498D01*
X182297761Y-102766510D01*
X182267000Y-102921153D01*
X182267000Y-103078846D01*
X182297761Y-103233489D01*
X182297764Y-103233501D01*
X182358102Y-103379172D01*
X182358109Y-103379185D01*
X182445710Y-103510288D01*
X182445713Y-103510292D01*
X182557207Y-103621786D01*
X182557211Y-103621789D01*
X182688314Y-103709390D01*
X182688327Y-103709397D01*
X182833998Y-103769735D01*
X182834003Y-103769737D01*
X182983631Y-103799500D01*
X182988653Y-103800499D01*
X182988656Y-103800500D01*
X182988658Y-103800500D01*
X183146344Y-103800500D01*
X183146345Y-103800499D01*
X183300997Y-103769737D01*
X183446679Y-103709394D01*
X183577789Y-103621789D01*
X183689289Y-103510289D01*
X183776894Y-103379179D01*
X183837237Y-103233497D01*
X183868000Y-103078842D01*
X183868000Y-102921158D01*
X183868000Y-102921155D01*
X183867999Y-102921153D01*
X183860865Y-102885289D01*
X183837237Y-102766503D01*
X183790243Y-102653048D01*
X183776897Y-102620827D01*
X183776890Y-102620814D01*
X183689289Y-102489711D01*
X183689286Y-102489707D01*
X183577792Y-102378213D01*
X183577788Y-102378210D01*
X183483722Y-102315357D01*
X183438917Y-102261745D01*
X183430210Y-102192420D01*
X183460364Y-102129392D01*
X183519807Y-102092673D01*
X183528422Y-102090638D01*
X183548744Y-102086595D01*
X183633497Y-102069737D01*
X183779179Y-102009394D01*
X183910289Y-101921789D01*
X184021789Y-101810289D01*
X184109394Y-101679179D01*
X184169737Y-101533497D01*
X184200500Y-101378842D01*
X184200500Y-101221158D01*
X184200500Y-101221155D01*
X184200499Y-101221153D01*
X184169737Y-101066503D01*
X184137929Y-100989711D01*
X184109397Y-100920827D01*
X184109390Y-100920814D01*
X184021789Y-100789711D01*
X184021786Y-100789707D01*
X183910292Y-100678213D01*
X183910288Y-100678210D01*
X183779185Y-100590609D01*
X183779172Y-100590602D01*
X183633501Y-100530264D01*
X183633489Y-100530261D01*
X183478845Y-100499500D01*
X183478842Y-100499500D01*
X183321158Y-100499500D01*
X183321155Y-100499500D01*
X183166510Y-100530261D01*
X183166498Y-100530264D01*
X183027974Y-100587642D01*
X182958504Y-100595111D01*
X182896025Y-100563835D01*
X182892841Y-100560762D01*
X182810292Y-100478213D01*
X182810288Y-100478210D01*
X182679185Y-100390609D01*
X182679172Y-100390602D01*
X182533501Y-100330264D01*
X182533489Y-100330261D01*
X182378845Y-100299500D01*
X182378842Y-100299500D01*
X182221158Y-100299500D01*
X182221155Y-100299500D01*
X182066510Y-100330261D01*
X182066498Y-100330264D01*
X181920827Y-100390602D01*
X181920814Y-100390609D01*
X181789711Y-100478210D01*
X181789707Y-100478213D01*
X181678213Y-100589707D01*
X181678210Y-100589711D01*
X181590609Y-100720814D01*
X181590602Y-100720827D01*
X181530264Y-100866498D01*
X181530261Y-100866510D01*
X181499500Y-101021153D01*
X169342798Y-101021153D01*
X169321789Y-100989711D01*
X169321786Y-100989707D01*
X169210292Y-100878213D01*
X169210288Y-100878210D01*
X169079185Y-100790609D01*
X169079172Y-100790602D01*
X168933501Y-100730264D01*
X168933489Y-100730261D01*
X168778845Y-100699500D01*
X168778842Y-100699500D01*
X168621158Y-100699500D01*
X168621155Y-100699500D01*
X168466510Y-100730261D01*
X168466498Y-100730264D01*
X168320827Y-100790602D01*
X168320814Y-100790609D01*
X168189711Y-100878210D01*
X168189707Y-100878213D01*
X168078213Y-100989707D01*
X168078210Y-100989711D01*
X167990609Y-101120814D01*
X167990602Y-101120827D01*
X167930264Y-101266498D01*
X167930261Y-101266510D01*
X167899500Y-101421153D01*
X138434891Y-101421153D01*
X138453324Y-101371733D01*
X138453324Y-101371732D01*
X138473597Y-101317376D01*
X138473598Y-101317372D01*
X138479999Y-101257844D01*
X138480000Y-101257827D01*
X138480000Y-100560000D01*
X137524568Y-100560000D01*
X137555251Y-100506855D01*
X137590007Y-100377144D01*
X137590007Y-100242856D01*
X137555251Y-100113145D01*
X137524568Y-100060000D01*
X138480000Y-100060000D01*
X138480000Y-99362172D01*
X138479999Y-99362155D01*
X138473598Y-99302627D01*
X138473596Y-99302620D01*
X138423354Y-99167913D01*
X138423350Y-99167906D01*
X138337190Y-99052812D01*
X138337187Y-99052809D01*
X138222093Y-98966649D01*
X138222087Y-98966646D01*
X138142030Y-98936786D01*
X138086097Y-98894914D01*
X138061680Y-98829450D01*
X138063485Y-98821153D01*
X169199500Y-98821153D01*
X169199500Y-98978846D01*
X169230261Y-99133489D01*
X169230264Y-99133501D01*
X169290602Y-99279172D01*
X169290609Y-99279185D01*
X169378210Y-99410288D01*
X169378213Y-99410292D01*
X169384086Y-99416165D01*
X169417571Y-99477488D01*
X169418022Y-99528037D01*
X169399500Y-99621153D01*
X169399500Y-99778846D01*
X169430261Y-99933489D01*
X169430264Y-99933501D01*
X169490602Y-100079172D01*
X169490609Y-100079185D01*
X169578210Y-100210288D01*
X169578213Y-100210292D01*
X169689707Y-100321786D01*
X169689711Y-100321789D01*
X169820814Y-100409390D01*
X169820827Y-100409397D01*
X169966498Y-100469735D01*
X169966503Y-100469737D01*
X170116131Y-100499500D01*
X170121153Y-100500499D01*
X170121156Y-100500500D01*
X170121158Y-100500500D01*
X170278844Y-100500500D01*
X170278845Y-100500499D01*
X170433497Y-100469737D01*
X170579179Y-100409394D01*
X170710289Y-100321789D01*
X170821789Y-100210289D01*
X170909394Y-100079179D01*
X170969737Y-99933497D01*
X171000500Y-99778842D01*
X171000500Y-99621158D01*
X171000500Y-99621155D01*
X171000499Y-99621153D01*
X170969738Y-99466510D01*
X170969737Y-99466503D01*
X170956808Y-99435289D01*
X170909397Y-99320827D01*
X170909390Y-99320814D01*
X170821789Y-99189711D01*
X170821786Y-99189707D01*
X170815913Y-99183834D01*
X170782428Y-99122511D01*
X170781977Y-99071961D01*
X170800500Y-98978844D01*
X170800500Y-98846153D01*
X171274500Y-98846153D01*
X171274500Y-99003846D01*
X171305261Y-99158489D01*
X171305264Y-99158501D01*
X171365602Y-99304172D01*
X171365609Y-99304185D01*
X171453210Y-99435288D01*
X171453213Y-99435292D01*
X171564707Y-99546786D01*
X171564711Y-99546789D01*
X171695814Y-99634390D01*
X171695827Y-99634397D01*
X171841498Y-99694735D01*
X171841503Y-99694737D01*
X171996153Y-99725499D01*
X171996156Y-99725500D01*
X171996158Y-99725500D01*
X172153844Y-99725500D01*
X172153845Y-99725499D01*
X172308497Y-99694737D01*
X172454179Y-99634394D01*
X172585289Y-99546789D01*
X172696789Y-99435289D01*
X172784394Y-99304179D01*
X172844737Y-99158497D01*
X172875500Y-99003842D01*
X172875500Y-98846158D01*
X172875500Y-98846155D01*
X172875499Y-98846153D01*
X172870527Y-98821158D01*
X172844737Y-98691503D01*
X172815861Y-98621789D01*
X172784397Y-98545827D01*
X172784390Y-98545814D01*
X172696789Y-98414711D01*
X172696786Y-98414707D01*
X172585292Y-98303213D01*
X172585288Y-98303210D01*
X172454185Y-98215609D01*
X172454172Y-98215602D01*
X172308501Y-98155264D01*
X172308489Y-98155261D01*
X172153845Y-98124500D01*
X172153842Y-98124500D01*
X171996158Y-98124500D01*
X171996155Y-98124500D01*
X171841510Y-98155261D01*
X171841498Y-98155264D01*
X171695827Y-98215602D01*
X171695814Y-98215609D01*
X171564711Y-98303210D01*
X171564707Y-98303213D01*
X171453213Y-98414707D01*
X171453210Y-98414711D01*
X171365609Y-98545814D01*
X171365602Y-98545827D01*
X171305264Y-98691498D01*
X171305261Y-98691510D01*
X171274500Y-98846153D01*
X170800500Y-98846153D01*
X170800500Y-98821155D01*
X170800499Y-98821153D01*
X170782949Y-98732923D01*
X170769737Y-98666503D01*
X170729972Y-98570500D01*
X170709397Y-98520827D01*
X170709390Y-98520814D01*
X170621789Y-98389711D01*
X170621786Y-98389707D01*
X170510292Y-98278213D01*
X170510288Y-98278210D01*
X170379185Y-98190609D01*
X170379172Y-98190602D01*
X170233501Y-98130264D01*
X170233489Y-98130261D01*
X170078845Y-98099500D01*
X170078842Y-98099500D01*
X169921158Y-98099500D01*
X169921155Y-98099500D01*
X169766510Y-98130261D01*
X169766498Y-98130264D01*
X169620827Y-98190602D01*
X169620814Y-98190609D01*
X169489711Y-98278210D01*
X169489707Y-98278213D01*
X169378213Y-98389707D01*
X169378210Y-98389711D01*
X169290609Y-98520814D01*
X169290602Y-98520827D01*
X169230264Y-98666498D01*
X169230261Y-98666510D01*
X169199500Y-98821153D01*
X138063485Y-98821153D01*
X138076532Y-98761177D01*
X138097681Y-98732925D01*
X138148242Y-98682365D01*
X138277815Y-98504022D01*
X138377895Y-98307606D01*
X138446015Y-98097951D01*
X138458615Y-98018394D01*
X138488542Y-97955265D01*
X138547853Y-97918333D01*
X138617716Y-97919329D01*
X138675949Y-97957939D01*
X138697675Y-97997976D01*
X138697932Y-97997870D01*
X138698944Y-98000314D01*
X138699743Y-98001786D01*
X138700260Y-98003492D01*
X138760602Y-98149172D01*
X138760609Y-98149185D01*
X138848210Y-98280288D01*
X138848213Y-98280292D01*
X138959707Y-98391786D01*
X138959711Y-98391789D01*
X139090814Y-98479390D01*
X139090827Y-98479397D01*
X139236498Y-98539735D01*
X139236503Y-98539737D01*
X139391153Y-98570499D01*
X139391156Y-98570500D01*
X139391158Y-98570500D01*
X139548844Y-98570500D01*
X139548845Y-98570499D01*
X139703497Y-98539737D01*
X139849179Y-98479394D01*
X139980289Y-98391789D01*
X140091789Y-98280289D01*
X140179394Y-98149179D01*
X140239737Y-98003497D01*
X140249331Y-97955265D01*
X140256117Y-97921153D01*
X163399500Y-97921153D01*
X163399500Y-98078846D01*
X163430261Y-98233489D01*
X163430264Y-98233501D01*
X163490602Y-98379172D01*
X163490609Y-98379185D01*
X163578210Y-98510288D01*
X163578213Y-98510292D01*
X163689707Y-98621786D01*
X163689711Y-98621789D01*
X163820814Y-98709390D01*
X163820827Y-98709397D01*
X163877625Y-98732923D01*
X163966503Y-98769737D01*
X164121153Y-98800499D01*
X164121156Y-98800500D01*
X164121158Y-98800500D01*
X164278844Y-98800500D01*
X164278845Y-98800499D01*
X164433497Y-98769737D01*
X164579179Y-98709394D01*
X164710289Y-98621789D01*
X164821789Y-98510289D01*
X164909394Y-98379179D01*
X164969737Y-98233497D01*
X165000500Y-98078842D01*
X165000500Y-97921158D01*
X165000500Y-97921155D01*
X164981915Y-97827724D01*
X164988142Y-97758132D01*
X165031005Y-97702955D01*
X165096895Y-97679710D01*
X165127724Y-97681915D01*
X165221155Y-97700500D01*
X165221158Y-97700500D01*
X165378844Y-97700500D01*
X165378845Y-97700499D01*
X165533497Y-97669737D01*
X165651592Y-97620821D01*
X165679172Y-97609397D01*
X165679172Y-97609396D01*
X165679179Y-97609394D01*
X165810289Y-97521789D01*
X165810925Y-97521153D01*
X180749500Y-97521153D01*
X180749500Y-97678846D01*
X180780261Y-97833489D01*
X180780264Y-97833501D01*
X180840602Y-97979172D01*
X180840609Y-97979185D01*
X180928210Y-98110288D01*
X180928213Y-98110292D01*
X181039707Y-98221786D01*
X181039711Y-98221789D01*
X181170814Y-98309390D01*
X181170827Y-98309397D01*
X181316498Y-98369735D01*
X181316503Y-98369737D01*
X181471153Y-98400499D01*
X181471156Y-98400500D01*
X181471158Y-98400500D01*
X181628844Y-98400500D01*
X181628845Y-98400499D01*
X181783497Y-98369737D01*
X181929179Y-98309394D01*
X182060289Y-98221789D01*
X182171789Y-98110289D01*
X182259394Y-97979179D01*
X182319737Y-97833497D01*
X182350500Y-97678842D01*
X182350500Y-97521158D01*
X182350500Y-97521155D01*
X182350499Y-97521153D01*
X182328447Y-97410292D01*
X182319737Y-97366503D01*
X182283569Y-97279185D01*
X182259397Y-97220827D01*
X182259389Y-97220812D01*
X182241067Y-97193392D01*
X182220188Y-97126715D01*
X182238672Y-97059334D01*
X182290650Y-97012644D01*
X182344168Y-97000500D01*
X182378844Y-97000500D01*
X182378845Y-97000499D01*
X182533497Y-96969737D01*
X182679179Y-96909394D01*
X182810289Y-96821789D01*
X182921789Y-96710289D01*
X183009394Y-96579179D01*
X183069737Y-96433497D01*
X183100500Y-96278842D01*
X183100500Y-96121158D01*
X183100500Y-96121155D01*
X183100499Y-96121153D01*
X183080734Y-96021789D01*
X183069737Y-95966503D01*
X183037929Y-95889711D01*
X183009397Y-95820827D01*
X183009390Y-95820814D01*
X182921789Y-95689711D01*
X182921786Y-95689707D01*
X182810292Y-95578213D01*
X182810288Y-95578210D01*
X182679185Y-95490609D01*
X182679172Y-95490602D01*
X182533501Y-95430264D01*
X182533489Y-95430261D01*
X182378845Y-95399500D01*
X182378842Y-95399500D01*
X182221158Y-95399500D01*
X182221155Y-95399500D01*
X182066510Y-95430261D01*
X182066498Y-95430264D01*
X181920827Y-95490602D01*
X181920814Y-95490609D01*
X181789711Y-95578210D01*
X181789707Y-95578213D01*
X181678213Y-95689707D01*
X181678210Y-95689711D01*
X181590609Y-95820814D01*
X181590602Y-95820827D01*
X181530264Y-95966498D01*
X181530261Y-95966510D01*
X181499500Y-96121153D01*
X181499500Y-96278846D01*
X181530261Y-96433489D01*
X181530264Y-96433501D01*
X181590602Y-96579172D01*
X181590610Y-96579187D01*
X181608933Y-96606608D01*
X181629812Y-96673285D01*
X181611328Y-96740666D01*
X181559350Y-96787356D01*
X181505832Y-96799500D01*
X181471155Y-96799500D01*
X181316510Y-96830261D01*
X181316498Y-96830264D01*
X181170827Y-96890602D01*
X181170814Y-96890609D01*
X181039711Y-96978210D01*
X181039707Y-96978213D01*
X180928213Y-97089707D01*
X180928210Y-97089711D01*
X180840609Y-97220814D01*
X180840602Y-97220827D01*
X180780264Y-97366498D01*
X180780261Y-97366510D01*
X180749500Y-97521153D01*
X165810925Y-97521153D01*
X165842371Y-97489707D01*
X165904694Y-97427385D01*
X165921786Y-97410292D01*
X165921789Y-97410289D01*
X166009394Y-97279179D01*
X166069737Y-97133497D01*
X166100500Y-96978842D01*
X166100500Y-96821158D01*
X166100500Y-96821155D01*
X166100499Y-96821153D01*
X166078447Y-96710292D01*
X166069737Y-96666503D01*
X166044928Y-96606608D01*
X166009397Y-96520827D01*
X166009390Y-96520814D01*
X165921790Y-96389712D01*
X165921784Y-96389705D01*
X165853232Y-96321153D01*
X171299500Y-96321153D01*
X171299500Y-96478846D01*
X171330261Y-96633489D01*
X171330264Y-96633501D01*
X171390602Y-96779172D01*
X171390609Y-96779185D01*
X171478210Y-96910288D01*
X171478213Y-96910292D01*
X171589707Y-97021786D01*
X171589711Y-97021789D01*
X171720814Y-97109390D01*
X171720827Y-97109397D01*
X171814534Y-97148211D01*
X171866503Y-97169737D01*
X171985424Y-97193392D01*
X172021153Y-97200499D01*
X172021156Y-97200500D01*
X172021158Y-97200500D01*
X172178844Y-97200500D01*
X172178845Y-97200499D01*
X172333497Y-97169737D01*
X172479179Y-97109394D01*
X172610289Y-97021789D01*
X172721789Y-96910289D01*
X172809394Y-96779179D01*
X172869737Y-96633497D01*
X172900500Y-96478842D01*
X172900500Y-96321158D01*
X172900500Y-96321155D01*
X172900499Y-96321153D01*
X172895942Y-96298242D01*
X172869737Y-96166503D01*
X172859736Y-96142358D01*
X172809397Y-96020827D01*
X172809390Y-96020814D01*
X172721789Y-95889711D01*
X172721786Y-95889707D01*
X172610292Y-95778213D01*
X172610288Y-95778210D01*
X172479185Y-95690609D01*
X172479172Y-95690602D01*
X172333501Y-95630264D01*
X172333489Y-95630261D01*
X172178845Y-95599500D01*
X172178842Y-95599500D01*
X172021158Y-95599500D01*
X172021155Y-95599500D01*
X171866510Y-95630261D01*
X171866498Y-95630264D01*
X171720827Y-95690602D01*
X171720814Y-95690609D01*
X171589711Y-95778210D01*
X171589707Y-95778213D01*
X171478213Y-95889707D01*
X171478210Y-95889711D01*
X171390609Y-96020814D01*
X171390602Y-96020827D01*
X171330264Y-96166498D01*
X171330261Y-96166510D01*
X171299500Y-96321153D01*
X165853232Y-96321153D01*
X165810292Y-96278213D01*
X165810288Y-96278210D01*
X165679185Y-96190609D01*
X165679172Y-96190602D01*
X165533501Y-96130264D01*
X165533489Y-96130261D01*
X165378845Y-96099500D01*
X165378842Y-96099500D01*
X165221158Y-96099500D01*
X165221155Y-96099500D01*
X165066510Y-96130261D01*
X165066498Y-96130264D01*
X164920827Y-96190602D01*
X164920814Y-96190609D01*
X164789711Y-96278210D01*
X164789707Y-96278213D01*
X164678213Y-96389707D01*
X164678210Y-96389711D01*
X164590609Y-96520814D01*
X164590602Y-96520827D01*
X164530264Y-96666498D01*
X164530261Y-96666510D01*
X164499500Y-96821153D01*
X164499500Y-96978846D01*
X164518084Y-97072276D01*
X164511857Y-97141868D01*
X164468993Y-97197045D01*
X164403103Y-97220289D01*
X164372276Y-97218084D01*
X164278846Y-97199500D01*
X164278842Y-97199500D01*
X164121158Y-97199500D01*
X164121155Y-97199500D01*
X163966510Y-97230261D01*
X163966498Y-97230264D01*
X163820827Y-97290602D01*
X163820814Y-97290609D01*
X163689711Y-97378210D01*
X163689707Y-97378213D01*
X163578213Y-97489707D01*
X163578210Y-97489711D01*
X163490609Y-97620814D01*
X163490602Y-97620827D01*
X163430264Y-97766498D01*
X163430261Y-97766510D01*
X163399500Y-97921153D01*
X140256117Y-97921153D01*
X140262140Y-97890874D01*
X140262140Y-97890873D01*
X140270499Y-97848846D01*
X140270500Y-97848844D01*
X140270500Y-97691155D01*
X140270499Y-97691153D01*
X140256509Y-97620821D01*
X140239737Y-97536503D01*
X140220354Y-97489707D01*
X140179397Y-97390827D01*
X140179390Y-97390814D01*
X140091789Y-97259711D01*
X140091786Y-97259707D01*
X139980292Y-97148213D01*
X139980288Y-97148210D01*
X139849185Y-97060609D01*
X139849172Y-97060602D01*
X139703501Y-97000264D01*
X139703489Y-97000261D01*
X139548845Y-96969500D01*
X139548842Y-96969500D01*
X139391158Y-96969500D01*
X139391155Y-96969500D01*
X139236510Y-97000261D01*
X139236498Y-97000264D01*
X139090827Y-97060602D01*
X139090814Y-97060609D01*
X138959711Y-97148210D01*
X138959707Y-97148213D01*
X138848213Y-97259707D01*
X138848210Y-97259711D01*
X138760609Y-97390814D01*
X138760602Y-97390827D01*
X138700260Y-97536507D01*
X138699742Y-97538217D01*
X138699228Y-97539000D01*
X138697932Y-97542130D01*
X138697338Y-97541883D01*
X138661435Y-97596650D01*
X138597618Y-97625096D01*
X138528553Y-97614525D01*
X138476167Y-97568292D01*
X138458615Y-97521607D01*
X138446015Y-97442049D01*
X138446013Y-97442042D01*
X138377896Y-97232396D01*
X138377895Y-97232393D01*
X138315224Y-97109397D01*
X138277815Y-97035978D01*
X138251865Y-97000261D01*
X138148247Y-96857641D01*
X138148243Y-96857636D01*
X137992363Y-96701756D01*
X137992358Y-96701752D01*
X137852745Y-96600318D01*
X137810079Y-96544989D01*
X137804100Y-96475375D01*
X137836705Y-96413580D01*
X137852745Y-96399682D01*
X137992358Y-96298247D01*
X137992356Y-96298247D01*
X137992365Y-96298242D01*
X138148242Y-96142365D01*
X138277815Y-95964022D01*
X138377895Y-95767606D01*
X138446015Y-95557951D01*
X138480500Y-95340222D01*
X138480500Y-95119778D01*
X138446015Y-94902049D01*
X138380529Y-94700500D01*
X138377896Y-94692396D01*
X138377895Y-94692393D01*
X138303760Y-94546898D01*
X138277815Y-94495978D01*
X138174551Y-94353846D01*
X138148247Y-94317641D01*
X138148243Y-94317636D01*
X138026760Y-94196153D01*
X177424500Y-94196153D01*
X177424500Y-94353846D01*
X177455261Y-94508489D01*
X177455264Y-94508501D01*
X177515602Y-94654172D01*
X177515609Y-94654185D01*
X177603210Y-94785288D01*
X177603213Y-94785292D01*
X177714707Y-94896786D01*
X177714711Y-94896789D01*
X177845814Y-94984390D01*
X177845827Y-94984397D01*
X177991498Y-95044735D01*
X177991503Y-95044737D01*
X178146153Y-95075499D01*
X178146156Y-95075500D01*
X178146158Y-95075500D01*
X178303844Y-95075500D01*
X178303845Y-95075499D01*
X178458497Y-95044737D01*
X178604179Y-94984394D01*
X178735289Y-94896789D01*
X178846789Y-94785289D01*
X178934394Y-94654179D01*
X178994737Y-94508497D01*
X179025500Y-94353842D01*
X179025500Y-94196158D01*
X179025500Y-94196155D01*
X179025499Y-94196153D01*
X179013034Y-94133489D01*
X178994737Y-94041503D01*
X178950778Y-93935375D01*
X178934397Y-93895827D01*
X178934389Y-93895813D01*
X178926468Y-93883958D01*
X178926467Y-93883957D01*
X178884503Y-93821153D01*
X182399500Y-93821153D01*
X182399500Y-93978846D01*
X182430261Y-94133489D01*
X182430264Y-94133501D01*
X182490602Y-94279172D01*
X182490609Y-94279185D01*
X182578210Y-94410288D01*
X182578213Y-94410292D01*
X182689707Y-94521786D01*
X182689711Y-94521789D01*
X182820814Y-94609390D01*
X182820827Y-94609397D01*
X182966498Y-94669735D01*
X182966503Y-94669737D01*
X183121153Y-94700499D01*
X183121156Y-94700500D01*
X183121158Y-94700500D01*
X183278844Y-94700500D01*
X183278845Y-94700499D01*
X183433497Y-94669737D01*
X183579179Y-94609394D01*
X183710289Y-94521789D01*
X183821789Y-94410289D01*
X183909394Y-94279179D01*
X183969737Y-94133497D01*
X184000500Y-93978842D01*
X184000500Y-93821158D01*
X184000500Y-93821155D01*
X184000499Y-93821153D01*
X187099500Y-93821153D01*
X187099500Y-93978846D01*
X187130261Y-94133489D01*
X187130264Y-94133501D01*
X187190602Y-94279172D01*
X187190609Y-94279185D01*
X187278210Y-94410288D01*
X187278213Y-94410292D01*
X187389707Y-94521786D01*
X187389710Y-94521788D01*
X187389711Y-94521789D01*
X187415219Y-94538833D01*
X187427289Y-94546898D01*
X187472093Y-94600511D01*
X187480800Y-94669836D01*
X187450645Y-94732863D01*
X187427289Y-94753102D01*
X187389707Y-94778213D01*
X187278213Y-94889707D01*
X187278210Y-94889711D01*
X187190609Y-95020814D01*
X187190602Y-95020827D01*
X187130264Y-95166498D01*
X187130261Y-95166510D01*
X187099500Y-95321153D01*
X187099500Y-95478846D01*
X187130261Y-95633489D01*
X187130264Y-95633501D01*
X187190602Y-95779172D01*
X187190609Y-95779185D01*
X187278210Y-95910288D01*
X187278213Y-95910292D01*
X187389707Y-96021786D01*
X187389711Y-96021789D01*
X187520814Y-96109390D01*
X187520827Y-96109397D01*
X187658683Y-96166498D01*
X187666503Y-96169737D01*
X187821153Y-96200499D01*
X187821156Y-96200500D01*
X187821158Y-96200500D01*
X187978844Y-96200500D01*
X187978845Y-96200499D01*
X188133497Y-96169737D01*
X188279179Y-96109394D01*
X188410289Y-96021789D01*
X188521789Y-95910289D01*
X188609394Y-95779179D01*
X188669737Y-95633497D01*
X188700500Y-95478842D01*
X188700500Y-95321158D01*
X188700500Y-95321155D01*
X188700499Y-95321153D01*
X188669738Y-95166510D01*
X188669737Y-95166503D01*
X188632043Y-95075500D01*
X188609397Y-95020827D01*
X188609390Y-95020814D01*
X188521789Y-94889711D01*
X188521786Y-94889707D01*
X188410292Y-94778213D01*
X188410284Y-94778207D01*
X188372712Y-94753102D01*
X188327906Y-94699490D01*
X188319199Y-94630165D01*
X188349353Y-94567138D01*
X188372712Y-94546898D01*
X188399279Y-94529145D01*
X188410289Y-94521789D01*
X188521789Y-94410289D01*
X188609394Y-94279179D01*
X188669737Y-94133497D01*
X188700500Y-93978842D01*
X188700500Y-93821158D01*
X188700500Y-93821155D01*
X188700499Y-93821153D01*
X188669738Y-93666510D01*
X188669737Y-93666503D01*
X188664231Y-93653210D01*
X188609397Y-93520827D01*
X188609390Y-93520814D01*
X188521789Y-93389711D01*
X188521786Y-93389707D01*
X188410292Y-93278213D01*
X188410288Y-93278210D01*
X188279185Y-93190609D01*
X188279172Y-93190602D01*
X188133501Y-93130264D01*
X188133489Y-93130261D01*
X187978845Y-93099500D01*
X187978842Y-93099500D01*
X187821158Y-93099500D01*
X187821155Y-93099500D01*
X187666510Y-93130261D01*
X187666498Y-93130264D01*
X187520827Y-93190602D01*
X187520814Y-93190609D01*
X187389711Y-93278210D01*
X187389707Y-93278213D01*
X187278213Y-93389707D01*
X187278210Y-93389711D01*
X187190609Y-93520814D01*
X187190602Y-93520827D01*
X187130264Y-93666498D01*
X187130261Y-93666510D01*
X187099500Y-93821153D01*
X184000499Y-93821153D01*
X183969738Y-93666510D01*
X183969737Y-93666503D01*
X183964231Y-93653210D01*
X183909397Y-93520827D01*
X183909390Y-93520814D01*
X183821789Y-93389711D01*
X183821786Y-93389707D01*
X183710292Y-93278213D01*
X183710288Y-93278210D01*
X183579185Y-93190609D01*
X183579172Y-93190602D01*
X183433501Y-93130264D01*
X183433489Y-93130261D01*
X183278845Y-93099500D01*
X183278842Y-93099500D01*
X183121158Y-93099500D01*
X183121155Y-93099500D01*
X182966510Y-93130261D01*
X182966498Y-93130264D01*
X182820827Y-93190602D01*
X182820814Y-93190609D01*
X182689711Y-93278210D01*
X182689707Y-93278213D01*
X182578213Y-93389707D01*
X182578210Y-93389711D01*
X182490609Y-93520814D01*
X182490602Y-93520827D01*
X182430264Y-93666498D01*
X182430261Y-93666510D01*
X182399500Y-93821153D01*
X178884503Y-93821153D01*
X178846789Y-93764711D01*
X178846786Y-93764707D01*
X178735292Y-93653213D01*
X178735288Y-93653210D01*
X178604185Y-93565609D01*
X178604172Y-93565602D01*
X178458501Y-93505264D01*
X178458489Y-93505261D01*
X178303845Y-93474500D01*
X178303842Y-93474500D01*
X178146158Y-93474500D01*
X178146155Y-93474500D01*
X177991510Y-93505261D01*
X177991498Y-93505264D01*
X177845827Y-93565602D01*
X177845814Y-93565609D01*
X177714711Y-93653210D01*
X177714707Y-93653213D01*
X177603213Y-93764707D01*
X177603210Y-93764711D01*
X177515609Y-93895814D01*
X177515602Y-93895827D01*
X177455264Y-94041498D01*
X177455261Y-94041510D01*
X177424500Y-94196153D01*
X138026760Y-94196153D01*
X137992363Y-94161756D01*
X137992358Y-94161752D01*
X137852745Y-94060318D01*
X137810079Y-94004989D01*
X137804100Y-93935375D01*
X137836705Y-93873580D01*
X137852745Y-93859682D01*
X137992358Y-93758247D01*
X137992356Y-93758247D01*
X137992365Y-93758242D01*
X138148242Y-93602365D01*
X138277815Y-93424022D01*
X138377895Y-93227606D01*
X138446015Y-93017951D01*
X138480500Y-92800222D01*
X138480500Y-92579778D01*
X138446015Y-92362049D01*
X138377895Y-92152394D01*
X138377895Y-92152393D01*
X138340586Y-92079172D01*
X138277815Y-91955978D01*
X138261260Y-91933192D01*
X138148247Y-91777641D01*
X138148243Y-91777636D01*
X137992363Y-91621756D01*
X137992358Y-91621752D01*
X137852745Y-91520318D01*
X137835580Y-91498059D01*
X137815985Y-91477913D01*
X137814533Y-91470765D01*
X137810079Y-91464989D01*
X137807673Y-91436987D01*
X137802080Y-91409441D01*
X137804724Y-91402641D01*
X137804100Y-91395375D01*
X137817215Y-91370518D01*
X137827402Y-91344321D01*
X137834867Y-91337063D01*
X137836705Y-91333580D01*
X137851041Y-91321153D01*
X164499500Y-91321153D01*
X164499500Y-91478846D01*
X164530261Y-91633489D01*
X164530264Y-91633501D01*
X164590602Y-91779172D01*
X164590609Y-91779185D01*
X164678210Y-91910288D01*
X164678213Y-91910292D01*
X164680240Y-91912319D01*
X164680962Y-91913642D01*
X164682076Y-91914999D01*
X164681818Y-91915210D01*
X164713725Y-91973642D01*
X164708741Y-92043334D01*
X164682001Y-92084939D01*
X164682076Y-92085001D01*
X164681552Y-92085639D01*
X164680240Y-92087681D01*
X164678213Y-92089707D01*
X164678210Y-92089711D01*
X164590609Y-92220814D01*
X164590602Y-92220827D01*
X164530264Y-92366498D01*
X164530261Y-92366510D01*
X164499500Y-92521153D01*
X164499500Y-92678846D01*
X164530261Y-92833489D01*
X164530264Y-92833501D01*
X164590602Y-92979172D01*
X164590609Y-92979185D01*
X164678210Y-93110288D01*
X164678213Y-93110292D01*
X164789707Y-93221786D01*
X164789711Y-93221789D01*
X164920814Y-93309390D01*
X164920827Y-93309397D01*
X165066498Y-93369735D01*
X165066503Y-93369737D01*
X165221153Y-93400499D01*
X165221156Y-93400500D01*
X165221158Y-93400500D01*
X165378844Y-93400500D01*
X165378845Y-93400499D01*
X165533497Y-93369737D01*
X165679179Y-93309394D01*
X165810289Y-93221789D01*
X165921789Y-93110289D01*
X166009394Y-92979179D01*
X166069737Y-92833497D01*
X166100500Y-92678842D01*
X166100500Y-92521158D01*
X166100500Y-92521155D01*
X166100499Y-92521153D01*
X166078269Y-92409397D01*
X166069737Y-92366503D01*
X166051215Y-92321786D01*
X166009397Y-92220827D01*
X166009390Y-92220814D01*
X165921789Y-92089711D01*
X165919766Y-92087688D01*
X165919043Y-92086365D01*
X165917924Y-92085001D01*
X165918182Y-92084788D01*
X165886276Y-92026368D01*
X165891255Y-91956676D01*
X165917999Y-91915060D01*
X165917924Y-91914999D01*
X165918454Y-91914351D01*
X165919766Y-91912312D01*
X165921789Y-91910289D01*
X166009394Y-91779179D01*
X166069737Y-91633497D01*
X166072192Y-91621153D01*
X169499500Y-91621153D01*
X169499500Y-91778846D01*
X169530261Y-91933489D01*
X169530264Y-91933501D01*
X169590602Y-92079172D01*
X169590609Y-92079185D01*
X169678210Y-92210288D01*
X169678213Y-92210292D01*
X169789707Y-92321786D01*
X169789711Y-92321789D01*
X169920814Y-92409390D01*
X169920827Y-92409397D01*
X170066498Y-92469735D01*
X170066503Y-92469737D01*
X170221153Y-92500499D01*
X170221156Y-92500500D01*
X170221158Y-92500500D01*
X170378844Y-92500500D01*
X170378845Y-92500499D01*
X170533497Y-92469737D01*
X170679179Y-92409394D01*
X170810289Y-92321789D01*
X170921789Y-92210289D01*
X171009394Y-92079179D01*
X171069737Y-91933497D01*
X171100500Y-91778842D01*
X171100500Y-91621158D01*
X171100500Y-91621155D01*
X171100499Y-91621153D01*
X171094476Y-91590873D01*
X171069737Y-91466503D01*
X171050475Y-91420000D01*
X171009397Y-91320827D01*
X171009390Y-91320814D01*
X170921789Y-91189711D01*
X170921786Y-91189707D01*
X170810292Y-91078213D01*
X170810288Y-91078210D01*
X170679185Y-90990609D01*
X170679172Y-90990602D01*
X170533501Y-90930264D01*
X170533489Y-90930261D01*
X170378845Y-90899500D01*
X170378842Y-90899500D01*
X170221158Y-90899500D01*
X170221155Y-90899500D01*
X170066510Y-90930261D01*
X170066498Y-90930264D01*
X169920827Y-90990602D01*
X169920814Y-90990609D01*
X169789711Y-91078210D01*
X169789707Y-91078213D01*
X169678213Y-91189707D01*
X169678210Y-91189711D01*
X169590609Y-91320814D01*
X169590602Y-91320827D01*
X169530264Y-91466498D01*
X169530261Y-91466510D01*
X169499500Y-91621153D01*
X166072192Y-91621153D01*
X166078216Y-91590874D01*
X166078216Y-91590873D01*
X166100499Y-91478846D01*
X166100500Y-91478844D01*
X166100500Y-91321155D01*
X166100499Y-91321153D01*
X166100206Y-91319682D01*
X166069737Y-91166503D01*
X166069735Y-91166498D01*
X166009397Y-91020827D01*
X166009390Y-91020814D01*
X165921789Y-90889711D01*
X165921786Y-90889707D01*
X165810292Y-90778213D01*
X165810288Y-90778210D01*
X165679185Y-90690609D01*
X165679172Y-90690602D01*
X165533501Y-90630264D01*
X165533489Y-90630261D01*
X165378845Y-90599500D01*
X165378842Y-90599500D01*
X165221158Y-90599500D01*
X165221155Y-90599500D01*
X165066510Y-90630261D01*
X165066498Y-90630264D01*
X164920827Y-90690602D01*
X164920814Y-90690609D01*
X164789711Y-90778210D01*
X164789707Y-90778213D01*
X164678213Y-90889707D01*
X164678210Y-90889711D01*
X164590609Y-91020814D01*
X164590602Y-91020827D01*
X164530264Y-91166498D01*
X164530261Y-91166510D01*
X164499500Y-91321153D01*
X137851041Y-91321153D01*
X137852702Y-91319713D01*
X137853460Y-91319161D01*
X137992365Y-91218242D01*
X138148242Y-91062365D01*
X138277815Y-90884022D01*
X138377895Y-90687606D01*
X138446015Y-90477951D01*
X138480500Y-90260222D01*
X138480500Y-90039778D01*
X138446015Y-89822049D01*
X138377895Y-89612394D01*
X138377895Y-89612393D01*
X138331727Y-89521786D01*
X138277815Y-89415978D01*
X138178430Y-89279185D01*
X138148247Y-89237641D01*
X138148243Y-89237636D01*
X137992363Y-89081756D01*
X137992358Y-89081752D01*
X137852745Y-88980318D01*
X137835564Y-88958039D01*
X137815960Y-88937866D01*
X137814516Y-88930744D01*
X137810079Y-88924989D01*
X137807671Y-88896960D01*
X137802085Y-88869388D01*
X137804721Y-88862615D01*
X137804100Y-88855375D01*
X137817229Y-88830492D01*
X137820865Y-88821153D01*
X158399500Y-88821153D01*
X158399500Y-88978846D01*
X158430261Y-89133489D01*
X158430264Y-89133501D01*
X158490602Y-89279172D01*
X158490609Y-89279185D01*
X158578210Y-89410288D01*
X158578213Y-89410292D01*
X158689707Y-89521786D01*
X158689711Y-89521789D01*
X158820814Y-89609390D01*
X158820827Y-89609397D01*
X158966498Y-89669735D01*
X158966503Y-89669737D01*
X159121153Y-89700499D01*
X159121156Y-89700500D01*
X159121158Y-89700500D01*
X159278844Y-89700500D01*
X159278845Y-89700499D01*
X159433497Y-89669737D01*
X159546166Y-89623067D01*
X159579172Y-89609397D01*
X159579172Y-89609396D01*
X159579179Y-89609394D01*
X159710289Y-89521789D01*
X159821789Y-89410289D01*
X159909394Y-89279179D01*
X159969737Y-89133497D01*
X160000500Y-88978842D01*
X160000500Y-88821158D01*
X160000500Y-88821155D01*
X160000499Y-88821153D01*
X159997846Y-88807815D01*
X159969737Y-88666503D01*
X159969735Y-88666498D01*
X159909397Y-88520827D01*
X159909390Y-88520814D01*
X159821789Y-88389711D01*
X159821786Y-88389707D01*
X159710292Y-88278213D01*
X159710288Y-88278210D01*
X159579185Y-88190609D01*
X159579172Y-88190602D01*
X159433501Y-88130264D01*
X159433489Y-88130261D01*
X159278845Y-88099500D01*
X159278842Y-88099500D01*
X159121158Y-88099500D01*
X159121155Y-88099500D01*
X158966510Y-88130261D01*
X158966498Y-88130264D01*
X158820827Y-88190602D01*
X158820814Y-88190609D01*
X158689711Y-88278210D01*
X158689707Y-88278213D01*
X158578213Y-88389707D01*
X158578210Y-88389711D01*
X158490609Y-88520814D01*
X158490602Y-88520827D01*
X158430264Y-88666498D01*
X158430261Y-88666510D01*
X158399500Y-88821153D01*
X137820865Y-88821153D01*
X137827435Y-88804279D01*
X137834875Y-88797048D01*
X137836705Y-88793580D01*
X137852745Y-88779681D01*
X137890390Y-88752331D01*
X137942120Y-88714747D01*
X137942122Y-88714746D01*
X137992358Y-88678247D01*
X137992356Y-88678247D01*
X137992365Y-88678242D01*
X138148242Y-88522365D01*
X138277815Y-88344022D01*
X138377895Y-88147606D01*
X138446015Y-87937951D01*
X138480500Y-87720222D01*
X138480500Y-87521153D01*
X177099500Y-87521153D01*
X177099500Y-87678846D01*
X177130261Y-87833489D01*
X177130264Y-87833501D01*
X177190602Y-87979172D01*
X177190609Y-87979185D01*
X177278210Y-88110288D01*
X177278213Y-88110292D01*
X177389707Y-88221786D01*
X177389711Y-88221789D01*
X177520814Y-88309390D01*
X177520827Y-88309397D01*
X177604428Y-88344025D01*
X177666503Y-88369737D01*
X177821153Y-88400499D01*
X177821156Y-88400500D01*
X177821158Y-88400500D01*
X177978844Y-88400500D01*
X177978845Y-88400499D01*
X178133497Y-88369737D01*
X178279179Y-88309394D01*
X178281110Y-88308103D01*
X178282276Y-88307737D01*
X178284546Y-88306525D01*
X178284776Y-88306955D01*
X178347786Y-88287226D01*
X178415166Y-88305710D01*
X178418850Y-88308077D01*
X178420821Y-88309394D01*
X178420824Y-88309395D01*
X178420827Y-88309397D01*
X178504428Y-88344025D01*
X178566503Y-88369737D01*
X178721153Y-88400499D01*
X178721156Y-88400500D01*
X178721158Y-88400500D01*
X178878844Y-88400500D01*
X178878845Y-88400499D01*
X179033497Y-88369737D01*
X179152548Y-88320425D01*
X179222017Y-88312956D01*
X179247453Y-88320425D01*
X179366503Y-88369737D01*
X179521153Y-88400499D01*
X179521156Y-88400500D01*
X179521158Y-88400500D01*
X179678844Y-88400500D01*
X179678845Y-88400499D01*
X179833497Y-88369737D01*
X179979179Y-88309394D01*
X180110289Y-88221789D01*
X180221789Y-88110289D01*
X180309394Y-87979179D01*
X180369737Y-87833497D01*
X180400500Y-87678842D01*
X180400500Y-87521158D01*
X180400500Y-87521155D01*
X180400499Y-87521153D01*
X180369738Y-87366510D01*
X180369737Y-87366503D01*
X180369735Y-87366498D01*
X180309397Y-87220827D01*
X180309390Y-87220814D01*
X180221789Y-87089711D01*
X180221786Y-87089707D01*
X180110292Y-86978213D01*
X180110288Y-86978210D01*
X179979185Y-86890609D01*
X179979172Y-86890602D01*
X179833501Y-86830264D01*
X179833489Y-86830261D01*
X179678845Y-86799500D01*
X179678842Y-86799500D01*
X179521158Y-86799500D01*
X179521155Y-86799500D01*
X179366510Y-86830261D01*
X179366498Y-86830264D01*
X179247452Y-86879574D01*
X179177982Y-86887043D01*
X179152548Y-86879574D01*
X179033501Y-86830264D01*
X179033489Y-86830261D01*
X178878845Y-86799500D01*
X178878842Y-86799500D01*
X178721158Y-86799500D01*
X178721155Y-86799500D01*
X178566510Y-86830261D01*
X178566498Y-86830264D01*
X178420822Y-86890604D01*
X178420820Y-86890605D01*
X178418885Y-86891899D01*
X178417717Y-86892264D01*
X178415451Y-86893476D01*
X178415221Y-86893045D01*
X178352206Y-86912773D01*
X178284827Y-86894285D01*
X178281115Y-86891899D01*
X178279179Y-86890605D01*
X178279177Y-86890604D01*
X178133501Y-86830264D01*
X178133489Y-86830261D01*
X177978845Y-86799500D01*
X177978842Y-86799500D01*
X177821158Y-86799500D01*
X177821155Y-86799500D01*
X177666510Y-86830261D01*
X177666498Y-86830264D01*
X177520827Y-86890602D01*
X177520814Y-86890609D01*
X177389711Y-86978210D01*
X177389707Y-86978213D01*
X177278213Y-87089707D01*
X177278210Y-87089711D01*
X177190609Y-87220814D01*
X177190602Y-87220827D01*
X177130264Y-87366498D01*
X177130261Y-87366510D01*
X177099500Y-87521153D01*
X138480500Y-87521153D01*
X138480500Y-87499778D01*
X138446015Y-87282049D01*
X138383522Y-87089711D01*
X138377896Y-87072396D01*
X138377895Y-87072393D01*
X138329905Y-86978210D01*
X138277815Y-86875978D01*
X138222251Y-86799500D01*
X138148247Y-86697641D01*
X138148243Y-86697636D01*
X137992363Y-86541756D01*
X137992358Y-86541752D01*
X137852745Y-86440318D01*
X137810079Y-86384989D01*
X137804100Y-86315375D01*
X137836705Y-86253580D01*
X137852745Y-86239682D01*
X137992358Y-86138247D01*
X137992356Y-86138247D01*
X137992365Y-86138242D01*
X138148242Y-85982365D01*
X138277815Y-85804022D01*
X138377895Y-85607606D01*
X138446015Y-85397951D01*
X138453428Y-85351153D01*
X158969500Y-85351153D01*
X158969500Y-85508846D01*
X159000261Y-85663489D01*
X159000264Y-85663501D01*
X159060602Y-85809172D01*
X159060609Y-85809185D01*
X159148210Y-85940288D01*
X159148213Y-85940292D01*
X159259707Y-86051786D01*
X159259711Y-86051789D01*
X159390814Y-86139390D01*
X159390827Y-86139397D01*
X159464078Y-86169738D01*
X159536503Y-86199737D01*
X159691153Y-86230499D01*
X159691156Y-86230500D01*
X159691158Y-86230500D01*
X159848844Y-86230500D01*
X159848845Y-86230499D01*
X160003497Y-86199737D01*
X160149179Y-86139394D01*
X160280289Y-86051789D01*
X160312318Y-86019760D01*
X160373640Y-85986274D01*
X160443332Y-85991258D01*
X160484939Y-86017999D01*
X160485001Y-86017924D01*
X160485647Y-86018454D01*
X160487688Y-86019766D01*
X160489711Y-86021789D01*
X160620814Y-86109390D01*
X160620827Y-86109397D01*
X160751566Y-86163550D01*
X160766503Y-86169737D01*
X160891130Y-86194527D01*
X160921153Y-86200499D01*
X160921156Y-86200500D01*
X160921158Y-86200500D01*
X161078844Y-86200500D01*
X161078845Y-86200499D01*
X161233497Y-86169737D01*
X161379179Y-86109394D01*
X161510289Y-86021789D01*
X161621789Y-85910289D01*
X161709394Y-85779179D01*
X161769737Y-85633497D01*
X161800500Y-85478842D01*
X161800500Y-85421153D01*
X178199500Y-85421153D01*
X178199500Y-85578846D01*
X178230261Y-85733489D01*
X178230264Y-85733501D01*
X178290602Y-85879172D01*
X178290609Y-85879185D01*
X178378210Y-86010288D01*
X178378213Y-86010292D01*
X178489707Y-86121786D01*
X178489711Y-86121789D01*
X178620814Y-86209390D01*
X178620827Y-86209397D01*
X178757978Y-86266206D01*
X178766503Y-86269737D01*
X178921153Y-86300499D01*
X178921156Y-86300500D01*
X178921158Y-86300500D01*
X179078844Y-86300500D01*
X179078845Y-86300499D01*
X179233497Y-86269737D01*
X179379179Y-86209394D01*
X179510289Y-86121789D01*
X179538220Y-86093858D01*
X179612319Y-86019760D01*
X179673642Y-85986275D01*
X179743334Y-85991259D01*
X179787681Y-86019760D01*
X179889707Y-86121786D01*
X179889711Y-86121789D01*
X180020814Y-86209390D01*
X180020827Y-86209397D01*
X180157978Y-86266206D01*
X180166503Y-86269737D01*
X180321153Y-86300499D01*
X180321156Y-86300500D01*
X180321158Y-86300500D01*
X180478844Y-86300500D01*
X180478845Y-86300499D01*
X180633497Y-86269737D01*
X180779179Y-86209394D01*
X180910289Y-86121789D01*
X181021789Y-86010289D01*
X181109394Y-85879179D01*
X181169737Y-85733497D01*
X181200500Y-85578842D01*
X181200500Y-85421158D01*
X181200500Y-85421155D01*
X181200499Y-85421153D01*
X181186575Y-85351153D01*
X181169737Y-85266503D01*
X181140745Y-85196510D01*
X181109397Y-85120827D01*
X181109390Y-85120814D01*
X181021789Y-84989711D01*
X181021786Y-84989707D01*
X180910292Y-84878213D01*
X180910288Y-84878210D01*
X180779185Y-84790609D01*
X180779172Y-84790602D01*
X180633501Y-84730264D01*
X180633489Y-84730261D01*
X180478845Y-84699500D01*
X180478842Y-84699500D01*
X180321158Y-84699500D01*
X180321155Y-84699500D01*
X180166510Y-84730261D01*
X180166498Y-84730264D01*
X180020827Y-84790602D01*
X180020814Y-84790609D01*
X179889711Y-84878210D01*
X179889707Y-84878213D01*
X179787681Y-84980240D01*
X179726358Y-85013725D01*
X179656666Y-85008741D01*
X179612319Y-84980240D01*
X179510292Y-84878213D01*
X179510288Y-84878210D01*
X179379185Y-84790609D01*
X179379172Y-84790602D01*
X179233501Y-84730264D01*
X179233489Y-84730261D01*
X179078845Y-84699500D01*
X179078842Y-84699500D01*
X178921158Y-84699500D01*
X178921155Y-84699500D01*
X178766510Y-84730261D01*
X178766498Y-84730264D01*
X178620827Y-84790602D01*
X178620814Y-84790609D01*
X178489711Y-84878210D01*
X178489707Y-84878213D01*
X178378213Y-84989707D01*
X178378210Y-84989711D01*
X178290609Y-85120814D01*
X178290602Y-85120827D01*
X178230264Y-85266498D01*
X178230261Y-85266510D01*
X178199500Y-85421153D01*
X161800500Y-85421153D01*
X161800500Y-85321158D01*
X161800500Y-85321155D01*
X161800499Y-85321153D01*
X161789627Y-85266498D01*
X161769737Y-85166503D01*
X161762423Y-85148846D01*
X161709397Y-85020827D01*
X161709390Y-85020814D01*
X161621789Y-84889711D01*
X161621786Y-84889707D01*
X161510292Y-84778213D01*
X161510288Y-84778210D01*
X161379185Y-84690609D01*
X161379172Y-84690602D01*
X161233501Y-84630264D01*
X161233489Y-84630261D01*
X161078845Y-84599500D01*
X161078842Y-84599500D01*
X160921158Y-84599500D01*
X160921155Y-84599500D01*
X160766510Y-84630261D01*
X160766498Y-84630264D01*
X160620827Y-84690602D01*
X160620814Y-84690609D01*
X160489711Y-84778210D01*
X160489707Y-84778213D01*
X160457681Y-84810240D01*
X160396358Y-84843725D01*
X160326666Y-84838741D01*
X160285060Y-84812001D01*
X160284999Y-84812076D01*
X160284360Y-84811552D01*
X160282319Y-84810240D01*
X160280292Y-84808213D01*
X160280288Y-84808210D01*
X160149185Y-84720609D01*
X160149172Y-84720602D01*
X160003501Y-84660264D01*
X160003489Y-84660261D01*
X159848845Y-84629500D01*
X159848842Y-84629500D01*
X159691158Y-84629500D01*
X159691155Y-84629500D01*
X159536510Y-84660261D01*
X159536498Y-84660264D01*
X159390827Y-84720602D01*
X159390814Y-84720609D01*
X159259711Y-84808210D01*
X159259707Y-84808213D01*
X159148213Y-84919707D01*
X159148210Y-84919711D01*
X159060609Y-85050814D01*
X159060602Y-85050827D01*
X159000264Y-85196498D01*
X159000261Y-85196510D01*
X158969500Y-85351153D01*
X138453428Y-85351153D01*
X138458179Y-85321155D01*
X138480500Y-85180222D01*
X138480500Y-84959778D01*
X138472519Y-84909390D01*
X138446015Y-84742049D01*
X138386771Y-84559711D01*
X138377896Y-84532396D01*
X138377895Y-84532393D01*
X138327500Y-84433489D01*
X138277815Y-84335978D01*
X138251865Y-84300261D01*
X138148247Y-84157641D01*
X138148243Y-84157636D01*
X138111760Y-84121153D01*
X186499500Y-84121153D01*
X186499500Y-84278846D01*
X186530261Y-84433489D01*
X186530264Y-84433501D01*
X186590602Y-84579172D01*
X186590609Y-84579185D01*
X186678210Y-84710288D01*
X186678213Y-84710292D01*
X186789707Y-84821786D01*
X186789711Y-84821789D01*
X186920814Y-84909390D01*
X186920827Y-84909397D01*
X187066498Y-84969735D01*
X187066503Y-84969737D01*
X187221153Y-85000499D01*
X187221156Y-85000500D01*
X187221158Y-85000500D01*
X187378844Y-85000500D01*
X187378845Y-85000499D01*
X187425831Y-84991153D01*
X201669500Y-84991153D01*
X201669500Y-85148846D01*
X201700261Y-85303489D01*
X201700264Y-85303501D01*
X201760602Y-85449172D01*
X201760609Y-85449185D01*
X201848210Y-85580288D01*
X201848213Y-85580292D01*
X201959707Y-85691786D01*
X201959711Y-85691789D01*
X202090814Y-85779390D01*
X202090827Y-85779397D01*
X202162743Y-85809185D01*
X202236503Y-85839737D01*
X202391153Y-85870499D01*
X202391156Y-85870500D01*
X202391158Y-85870500D01*
X202548844Y-85870500D01*
X202548845Y-85870499D01*
X202703497Y-85839737D01*
X202849179Y-85779394D01*
X202980289Y-85691789D01*
X203091789Y-85580289D01*
X203179394Y-85449179D01*
X203239737Y-85303497D01*
X203270500Y-85148842D01*
X203270500Y-84991158D01*
X203270500Y-84991155D01*
X203270499Y-84991153D01*
X203256287Y-84919707D01*
X203239737Y-84836503D01*
X203220726Y-84790606D01*
X203179397Y-84690827D01*
X203179390Y-84690814D01*
X203091789Y-84559711D01*
X203091786Y-84559707D01*
X202980292Y-84448213D01*
X202980288Y-84448210D01*
X202849185Y-84360609D01*
X202849172Y-84360602D01*
X202703501Y-84300264D01*
X202703489Y-84300261D01*
X202548845Y-84269500D01*
X202548842Y-84269500D01*
X202391158Y-84269500D01*
X202391155Y-84269500D01*
X202236510Y-84300261D01*
X202236498Y-84300264D01*
X202090827Y-84360602D01*
X202090814Y-84360609D01*
X201959711Y-84448210D01*
X201959707Y-84448213D01*
X201848213Y-84559707D01*
X201848210Y-84559711D01*
X201760609Y-84690814D01*
X201760602Y-84690827D01*
X201700264Y-84836498D01*
X201700261Y-84836510D01*
X201669500Y-84991153D01*
X187425831Y-84991153D01*
X187533497Y-84969737D01*
X187679179Y-84909394D01*
X187679185Y-84909390D01*
X187720232Y-84881964D01*
X187777459Y-84843725D01*
X187810289Y-84821789D01*
X187921789Y-84710289D01*
X188009394Y-84579179D01*
X188069737Y-84433497D01*
X188100500Y-84278842D01*
X188100500Y-84121158D01*
X188100500Y-84121155D01*
X188100499Y-84121153D01*
X188078269Y-84009397D01*
X188069737Y-83966503D01*
X188051215Y-83921786D01*
X188009397Y-83820827D01*
X188009390Y-83820814D01*
X187921789Y-83689711D01*
X187921786Y-83689707D01*
X187810292Y-83578213D01*
X187810288Y-83578210D01*
X187679185Y-83490609D01*
X187679172Y-83490602D01*
X187533501Y-83430264D01*
X187533489Y-83430261D01*
X187378845Y-83399500D01*
X187378842Y-83399500D01*
X187221158Y-83399500D01*
X187221155Y-83399500D01*
X187066510Y-83430261D01*
X187066498Y-83430264D01*
X186920827Y-83490602D01*
X186920814Y-83490609D01*
X186789711Y-83578210D01*
X186789707Y-83578213D01*
X186678213Y-83689707D01*
X186678210Y-83689711D01*
X186590609Y-83820814D01*
X186590602Y-83820827D01*
X186530264Y-83966498D01*
X186530261Y-83966510D01*
X186499500Y-84121153D01*
X138111760Y-84121153D01*
X137992363Y-84001756D01*
X137992358Y-84001752D01*
X137852745Y-83900318D01*
X137810079Y-83844989D01*
X137804100Y-83775375D01*
X137836705Y-83713580D01*
X137852745Y-83699682D01*
X137992358Y-83598247D01*
X137992356Y-83598247D01*
X137992365Y-83598242D01*
X138148242Y-83442365D01*
X138277815Y-83264022D01*
X138377895Y-83067606D01*
X138446015Y-82857951D01*
X138450260Y-82831153D01*
X155009500Y-82831153D01*
X155009500Y-82988846D01*
X155040261Y-83143489D01*
X155040264Y-83143501D01*
X155100602Y-83289172D01*
X155100609Y-83289185D01*
X155188210Y-83420288D01*
X155188213Y-83420292D01*
X155299707Y-83531786D01*
X155299711Y-83531789D01*
X155430814Y-83619390D01*
X155430827Y-83619397D01*
X155575139Y-83679172D01*
X155576503Y-83679737D01*
X155676773Y-83699682D01*
X155731153Y-83710499D01*
X155731156Y-83710500D01*
X155731158Y-83710500D01*
X155888844Y-83710500D01*
X155888845Y-83710499D01*
X156043497Y-83679737D01*
X156189179Y-83619394D01*
X156320289Y-83531789D01*
X156431789Y-83420289D01*
X156519394Y-83289179D01*
X156540014Y-83239397D01*
X156547571Y-83221153D01*
X181099500Y-83221153D01*
X181099500Y-83378846D01*
X181130261Y-83533489D01*
X181130264Y-83533501D01*
X181190602Y-83679172D01*
X181190609Y-83679185D01*
X181278210Y-83810288D01*
X181278213Y-83810292D01*
X181389707Y-83921786D01*
X181389711Y-83921789D01*
X181520814Y-84009390D01*
X181520827Y-84009397D01*
X181666498Y-84069735D01*
X181666503Y-84069737D01*
X181821153Y-84100499D01*
X181821156Y-84100500D01*
X181821158Y-84100500D01*
X181978844Y-84100500D01*
X181978845Y-84100499D01*
X182133497Y-84069737D01*
X182279179Y-84009394D01*
X182410289Y-83921789D01*
X182521789Y-83810289D01*
X182609394Y-83679179D01*
X182669737Y-83533497D01*
X182700500Y-83378842D01*
X182700500Y-83221158D01*
X182700500Y-83221155D01*
X182700499Y-83221153D01*
X182689849Y-83167614D01*
X182669737Y-83066503D01*
X182658879Y-83040289D01*
X182609397Y-82920827D01*
X182609390Y-82920814D01*
X182521789Y-82789711D01*
X182521786Y-82789707D01*
X182410292Y-82678213D01*
X182410288Y-82678210D01*
X182279185Y-82590609D01*
X182279172Y-82590602D01*
X182204389Y-82559627D01*
X182133501Y-82530264D01*
X182133489Y-82530261D01*
X181978845Y-82499500D01*
X181978842Y-82499500D01*
X181821158Y-82499500D01*
X181821155Y-82499500D01*
X181666510Y-82530261D01*
X181666498Y-82530264D01*
X181520827Y-82590602D01*
X181520814Y-82590609D01*
X181389711Y-82678210D01*
X181389707Y-82678213D01*
X181278213Y-82789707D01*
X181278210Y-82789711D01*
X181190609Y-82920814D01*
X181190602Y-82920827D01*
X181130264Y-83066498D01*
X181130261Y-83066510D01*
X181099500Y-83221153D01*
X156547571Y-83221153D01*
X156569745Y-83167621D01*
X156569747Y-83167614D01*
X156579737Y-83143497D01*
X156610500Y-82988842D01*
X156610500Y-82831158D01*
X156610500Y-82831155D01*
X156610499Y-82831153D01*
X156580077Y-82678213D01*
X156579737Y-82676503D01*
X156531326Y-82559627D01*
X156519397Y-82530827D01*
X156519390Y-82530814D01*
X156466162Y-82451153D01*
X204829500Y-82451153D01*
X204829500Y-82608846D01*
X204860261Y-82763489D01*
X204860264Y-82763501D01*
X204920602Y-82909172D01*
X204920609Y-82909185D01*
X205008210Y-83040288D01*
X205008213Y-83040292D01*
X205119707Y-83151786D01*
X205119711Y-83151789D01*
X205250814Y-83239390D01*
X205250827Y-83239397D01*
X205371028Y-83289185D01*
X205396503Y-83299737D01*
X205551153Y-83330499D01*
X205551156Y-83330500D01*
X205551158Y-83330500D01*
X205708844Y-83330500D01*
X205708845Y-83330499D01*
X205863497Y-83299737D01*
X206009179Y-83239394D01*
X206140289Y-83151789D01*
X206251789Y-83040289D01*
X206339394Y-82909179D01*
X206399737Y-82763497D01*
X206430500Y-82608842D01*
X206430500Y-82451158D01*
X206430500Y-82451155D01*
X206430499Y-82451153D01*
X206399738Y-82296510D01*
X206399737Y-82296503D01*
X206396302Y-82288210D01*
X206339397Y-82150827D01*
X206339390Y-82150814D01*
X206251789Y-82019711D01*
X206251786Y-82019707D01*
X206140292Y-81908213D01*
X206140288Y-81908210D01*
X206009185Y-81820609D01*
X206009172Y-81820602D01*
X205863501Y-81760264D01*
X205863489Y-81760261D01*
X205708845Y-81729500D01*
X205708842Y-81729500D01*
X205551158Y-81729500D01*
X205551155Y-81729500D01*
X205396510Y-81760261D01*
X205396498Y-81760264D01*
X205250827Y-81820602D01*
X205250814Y-81820609D01*
X205119711Y-81908210D01*
X205119707Y-81908213D01*
X205008213Y-82019707D01*
X205008210Y-82019711D01*
X204920609Y-82150814D01*
X204920602Y-82150827D01*
X204860264Y-82296498D01*
X204860261Y-82296510D01*
X204829500Y-82451153D01*
X156466162Y-82451153D01*
X156431789Y-82399711D01*
X156431786Y-82399707D01*
X156320292Y-82288213D01*
X156320288Y-82288210D01*
X156189185Y-82200609D01*
X156189172Y-82200602D01*
X156043501Y-82140264D01*
X156043489Y-82140261D01*
X155888845Y-82109500D01*
X155888842Y-82109500D01*
X155731158Y-82109500D01*
X155731155Y-82109500D01*
X155576510Y-82140261D01*
X155576498Y-82140264D01*
X155430827Y-82200602D01*
X155430814Y-82200609D01*
X155299711Y-82288210D01*
X155299707Y-82288213D01*
X155188213Y-82399707D01*
X155188210Y-82399711D01*
X155100609Y-82530814D01*
X155100602Y-82530827D01*
X155040264Y-82676498D01*
X155040261Y-82676510D01*
X155009500Y-82831153D01*
X138450260Y-82831153D01*
X138460975Y-82763501D01*
X138474483Y-82678210D01*
X138480500Y-82640222D01*
X138480500Y-82419778D01*
X138446015Y-82202049D01*
X138386771Y-82019711D01*
X138377896Y-81992396D01*
X138377895Y-81992393D01*
X138335001Y-81908210D01*
X138277815Y-81795978D01*
X138229516Y-81729500D01*
X138148247Y-81617641D01*
X138148243Y-81617636D01*
X137992363Y-81461756D01*
X137992358Y-81461752D01*
X137852745Y-81360318D01*
X137810079Y-81304989D01*
X137804100Y-81235375D01*
X137836705Y-81173580D01*
X137852745Y-81159682D01*
X137992358Y-81058247D01*
X137992356Y-81058247D01*
X137992365Y-81058242D01*
X138148242Y-80902365D01*
X138277815Y-80724022D01*
X138377895Y-80527606D01*
X138446015Y-80317951D01*
X138480500Y-80100222D01*
X138480500Y-79911153D01*
X207789500Y-79911153D01*
X207789500Y-80068846D01*
X207820261Y-80223489D01*
X207820264Y-80223501D01*
X207880602Y-80369172D01*
X207880609Y-80369185D01*
X207968210Y-80500288D01*
X207968213Y-80500292D01*
X208079707Y-80611786D01*
X208079711Y-80611789D01*
X208210814Y-80699390D01*
X208210827Y-80699397D01*
X208356498Y-80759735D01*
X208356503Y-80759737D01*
X208511153Y-80790499D01*
X208511156Y-80790500D01*
X208511158Y-80790500D01*
X208668844Y-80790500D01*
X208668845Y-80790499D01*
X208823497Y-80759737D01*
X208969179Y-80699394D01*
X209100289Y-80611789D01*
X209211789Y-80500289D01*
X209299394Y-80369179D01*
X209359737Y-80223497D01*
X209390500Y-80068842D01*
X209390500Y-79911158D01*
X209388101Y-79899095D01*
X209388101Y-79899093D01*
X209384259Y-79879778D01*
X216679500Y-79879778D01*
X216679500Y-80100221D01*
X216713985Y-80317952D01*
X216782103Y-80527603D01*
X216782104Y-80527606D01*
X216850122Y-80661096D01*
X216869636Y-80699394D01*
X216882187Y-80724025D01*
X217011752Y-80902358D01*
X217011756Y-80902363D01*
X217167636Y-81058243D01*
X217167641Y-81058247D01*
X217307254Y-81159682D01*
X217349920Y-81215012D01*
X217355899Y-81284625D01*
X217323293Y-81346420D01*
X217307254Y-81360318D01*
X217167641Y-81461752D01*
X217167636Y-81461756D01*
X217011756Y-81617636D01*
X217011752Y-81617641D01*
X216882187Y-81795974D01*
X216782104Y-81992393D01*
X216782103Y-81992396D01*
X216713985Y-82202047D01*
X216713985Y-82202049D01*
X216679500Y-82419778D01*
X216679500Y-82640222D01*
X216685517Y-82678210D01*
X216713985Y-82857952D01*
X216782103Y-83067603D01*
X216782104Y-83067606D01*
X216850122Y-83201096D01*
X216869636Y-83239394D01*
X216882187Y-83264025D01*
X217011752Y-83442358D01*
X217011756Y-83442363D01*
X217167636Y-83598243D01*
X217167641Y-83598247D01*
X217307254Y-83699682D01*
X217349920Y-83755012D01*
X217355899Y-83824625D01*
X217323293Y-83886420D01*
X217307254Y-83900318D01*
X217167641Y-84001752D01*
X217167636Y-84001756D01*
X217011756Y-84157636D01*
X217011752Y-84157641D01*
X216882187Y-84335974D01*
X216782104Y-84532393D01*
X216782103Y-84532396D01*
X216713985Y-84742047D01*
X216679500Y-84959778D01*
X216679500Y-85180221D01*
X216713985Y-85397952D01*
X216782103Y-85607603D01*
X216782104Y-85607606D01*
X216846246Y-85733489D01*
X216869636Y-85779394D01*
X216882187Y-85804025D01*
X217011752Y-85982358D01*
X217011756Y-85982363D01*
X217061928Y-86032535D01*
X217095413Y-86093858D01*
X217090429Y-86163550D01*
X217048557Y-86219483D01*
X217017581Y-86236398D01*
X216937669Y-86266203D01*
X216937664Y-86266206D01*
X216822455Y-86352452D01*
X216822452Y-86352455D01*
X216736206Y-86467664D01*
X216736202Y-86467671D01*
X216685908Y-86602517D01*
X216679501Y-86662116D01*
X216679501Y-86662123D01*
X216679500Y-86662135D01*
X216679500Y-88557870D01*
X216679501Y-88557876D01*
X216685908Y-88617483D01*
X216736202Y-88752328D01*
X216736206Y-88752335D01*
X216822452Y-88867544D01*
X216822455Y-88867547D01*
X216937664Y-88953793D01*
X216937671Y-88953797D01*
X217072517Y-89004091D01*
X217072516Y-89004091D01*
X217079444Y-89004835D01*
X217132127Y-89010500D01*
X219027872Y-89010499D01*
X219087483Y-89004091D01*
X219222331Y-88953796D01*
X219337546Y-88867546D01*
X219423796Y-88752331D01*
X219474091Y-88617483D01*
X219480500Y-88557873D01*
X219480499Y-86662128D01*
X219474091Y-86602517D01*
X219451429Y-86541758D01*
X219423797Y-86467671D01*
X219423793Y-86467664D01*
X219337547Y-86352455D01*
X219337544Y-86352452D01*
X219222335Y-86266206D01*
X219222328Y-86266202D01*
X219142419Y-86236398D01*
X219086485Y-86194527D01*
X219062068Y-86129062D01*
X219076920Y-86060789D01*
X219098069Y-86032537D01*
X219148242Y-85982365D01*
X219277815Y-85804022D01*
X219377895Y-85607606D01*
X219446015Y-85397951D01*
X219480500Y-85180222D01*
X219480500Y-84959778D01*
X219446015Y-84742049D01*
X219386771Y-84559711D01*
X219377896Y-84532396D01*
X219377895Y-84532393D01*
X219327500Y-84433489D01*
X219277815Y-84335978D01*
X219251865Y-84300261D01*
X219148247Y-84157641D01*
X219148243Y-84157636D01*
X218992363Y-84001756D01*
X218992358Y-84001752D01*
X218852745Y-83900318D01*
X218810079Y-83844989D01*
X218804100Y-83775375D01*
X218836705Y-83713580D01*
X218852745Y-83699682D01*
X218992358Y-83598247D01*
X218992356Y-83598247D01*
X218992365Y-83598242D01*
X219148242Y-83442365D01*
X219277815Y-83264022D01*
X219377895Y-83067606D01*
X219446015Y-82857951D01*
X219480500Y-82640222D01*
X219480500Y-82419778D01*
X219446015Y-82202049D01*
X219386771Y-82019711D01*
X219377896Y-81992396D01*
X219377895Y-81992393D01*
X219335001Y-81908210D01*
X219277815Y-81795978D01*
X219229516Y-81729500D01*
X219148247Y-81617641D01*
X219148243Y-81617636D01*
X218992363Y-81461756D01*
X218992358Y-81461752D01*
X218852745Y-81360318D01*
X218810079Y-81304989D01*
X218804100Y-81235375D01*
X218836705Y-81173580D01*
X218852745Y-81159682D01*
X218992358Y-81058247D01*
X218992356Y-81058247D01*
X218992365Y-81058242D01*
X219148242Y-80902365D01*
X219277815Y-80724022D01*
X219377895Y-80527606D01*
X219446015Y-80317951D01*
X219480500Y-80100222D01*
X219480500Y-79879778D01*
X219446015Y-79662049D01*
X219386771Y-79479711D01*
X219377896Y-79452396D01*
X219377895Y-79452393D01*
X219335001Y-79368210D01*
X219277815Y-79255978D01*
X219222013Y-79179172D01*
X219148247Y-79077641D01*
X219148243Y-79077636D01*
X218992363Y-78921756D01*
X218992358Y-78921752D01*
X218814025Y-78792187D01*
X218814024Y-78792186D01*
X218814022Y-78792185D01*
X218751096Y-78760122D01*
X218617606Y-78692104D01*
X218617603Y-78692103D01*
X218407952Y-78623985D01*
X218299086Y-78606742D01*
X218190222Y-78589500D01*
X217969778Y-78589500D01*
X217897201Y-78600995D01*
X217752047Y-78623985D01*
X217542396Y-78692103D01*
X217542393Y-78692104D01*
X217345974Y-78792187D01*
X217167641Y-78921752D01*
X217167636Y-78921756D01*
X217011756Y-79077636D01*
X217011752Y-79077641D01*
X216882187Y-79255974D01*
X216782104Y-79452393D01*
X216782103Y-79452396D01*
X216713985Y-79662047D01*
X216679500Y-79879778D01*
X209384259Y-79879778D01*
X209359738Y-79756508D01*
X209359737Y-79756507D01*
X209359737Y-79756503D01*
X209359735Y-79756498D01*
X209299397Y-79610827D01*
X209299390Y-79610814D01*
X209211789Y-79479711D01*
X209211786Y-79479707D01*
X209100292Y-79368213D01*
X209100288Y-79368210D01*
X208969185Y-79280609D01*
X208969172Y-79280602D01*
X208823501Y-79220264D01*
X208823489Y-79220261D01*
X208668845Y-79189500D01*
X208668842Y-79189500D01*
X208511158Y-79189500D01*
X208511155Y-79189500D01*
X208356510Y-79220261D01*
X208356498Y-79220264D01*
X208210827Y-79280602D01*
X208210814Y-79280609D01*
X208079711Y-79368210D01*
X208079707Y-79368213D01*
X207968213Y-79479707D01*
X207968210Y-79479711D01*
X207880609Y-79610814D01*
X207880602Y-79610827D01*
X207820264Y-79756498D01*
X207820261Y-79756510D01*
X207789500Y-79911153D01*
X138480500Y-79911153D01*
X138480500Y-79879778D01*
X138446015Y-79662049D01*
X138386771Y-79479711D01*
X138377896Y-79452396D01*
X138377895Y-79452393D01*
X138335001Y-79368210D01*
X138277815Y-79255978D01*
X138222013Y-79179172D01*
X138148247Y-79077641D01*
X138148243Y-79077636D01*
X137992363Y-78921756D01*
X137992358Y-78921752D01*
X137852745Y-78820318D01*
X137810079Y-78764989D01*
X137804100Y-78695375D01*
X137836705Y-78633580D01*
X137852745Y-78619682D01*
X137992358Y-78518247D01*
X137992356Y-78518247D01*
X137992365Y-78518242D01*
X138148242Y-78362365D01*
X138277815Y-78184022D01*
X138377895Y-77987606D01*
X138446015Y-77777951D01*
X138480500Y-77560222D01*
X138480500Y-77371153D01*
X145499500Y-77371153D01*
X145499500Y-77528846D01*
X145530261Y-77683489D01*
X145530264Y-77683501D01*
X145590602Y-77829172D01*
X145590609Y-77829185D01*
X145678210Y-77960288D01*
X145678213Y-77960292D01*
X145789707Y-78071786D01*
X145789711Y-78071789D01*
X145920814Y-78159390D01*
X145920827Y-78159397D01*
X146066498Y-78219735D01*
X146066503Y-78219737D01*
X146187269Y-78243759D01*
X146221153Y-78250499D01*
X146221156Y-78250500D01*
X146221158Y-78250500D01*
X146378844Y-78250500D01*
X146378845Y-78250499D01*
X146533497Y-78219737D01*
X146679179Y-78159394D01*
X146810289Y-78071789D01*
X146921789Y-77960289D01*
X147009394Y-77829179D01*
X147069737Y-77683497D01*
X147100500Y-77528842D01*
X147100500Y-77371158D01*
X147100500Y-77371155D01*
X147100499Y-77371153D01*
X160649500Y-77371153D01*
X160649500Y-77528846D01*
X160680261Y-77683489D01*
X160680264Y-77683501D01*
X160740602Y-77829172D01*
X160740609Y-77829185D01*
X160828210Y-77960288D01*
X160828213Y-77960292D01*
X160939707Y-78071786D01*
X160939711Y-78071789D01*
X161070814Y-78159390D01*
X161070827Y-78159397D01*
X161216498Y-78219735D01*
X161216503Y-78219737D01*
X161337269Y-78243759D01*
X161371153Y-78250499D01*
X161371156Y-78250500D01*
X161371158Y-78250500D01*
X161528844Y-78250500D01*
X161528845Y-78250499D01*
X161683497Y-78219737D01*
X161769714Y-78184025D01*
X161828048Y-78159863D01*
X161897517Y-78152394D01*
X161959996Y-78183669D01*
X161995648Y-78243759D01*
X161999500Y-78274424D01*
X161999500Y-78378846D01*
X162030261Y-78533489D01*
X162030264Y-78533501D01*
X162090602Y-78679172D01*
X162090609Y-78679185D01*
X162178210Y-78810288D01*
X162178213Y-78810292D01*
X162289707Y-78921786D01*
X162289711Y-78921789D01*
X162420814Y-79009390D01*
X162420827Y-79009397D01*
X162566498Y-79069735D01*
X162566503Y-79069737D01*
X162721153Y-79100499D01*
X162721156Y-79100500D01*
X162721158Y-79100500D01*
X162878844Y-79100500D01*
X162878845Y-79100499D01*
X163033497Y-79069737D01*
X163179179Y-79009394D01*
X163310289Y-78921789D01*
X163421789Y-78810289D01*
X163481348Y-78721153D01*
X164099500Y-78721153D01*
X164099500Y-78878846D01*
X164130261Y-79033489D01*
X164130264Y-79033501D01*
X164190602Y-79179172D01*
X164190609Y-79179185D01*
X164278210Y-79310288D01*
X164278213Y-79310292D01*
X164389707Y-79421786D01*
X164389711Y-79421789D01*
X164520814Y-79509390D01*
X164520827Y-79509397D01*
X164666498Y-79569735D01*
X164666503Y-79569737D01*
X164821153Y-79600499D01*
X164821156Y-79600500D01*
X164821158Y-79600500D01*
X164978844Y-79600500D01*
X164978845Y-79600499D01*
X165133497Y-79569737D01*
X165279179Y-79509394D01*
X165410289Y-79421789D01*
X165521789Y-79310289D01*
X165609394Y-79179179D01*
X165669737Y-79033497D01*
X165700500Y-78878842D01*
X165700500Y-78721158D01*
X165700500Y-78721155D01*
X165700499Y-78721153D01*
X165694721Y-78692104D01*
X165669737Y-78566503D01*
X165649747Y-78518242D01*
X165609397Y-78420827D01*
X165609390Y-78420814D01*
X165521789Y-78289711D01*
X165521786Y-78289707D01*
X165410292Y-78178213D01*
X165410288Y-78178210D01*
X165279185Y-78090609D01*
X165279172Y-78090602D01*
X165133501Y-78030264D01*
X165133489Y-78030261D01*
X164978845Y-77999500D01*
X164978842Y-77999500D01*
X164821158Y-77999500D01*
X164821155Y-77999500D01*
X164666510Y-78030261D01*
X164666498Y-78030264D01*
X164520827Y-78090602D01*
X164520814Y-78090609D01*
X164389711Y-78178210D01*
X164389707Y-78178213D01*
X164278213Y-78289707D01*
X164278210Y-78289711D01*
X164190609Y-78420814D01*
X164190602Y-78420827D01*
X164130264Y-78566498D01*
X164130261Y-78566510D01*
X164099500Y-78721153D01*
X163481348Y-78721153D01*
X163509394Y-78679179D01*
X163569737Y-78533497D01*
X163600500Y-78378842D01*
X163600500Y-78221158D01*
X163600500Y-78221155D01*
X163600499Y-78221153D01*
X163591957Y-78178210D01*
X163569737Y-78066503D01*
X163569735Y-78066498D01*
X163509397Y-77920827D01*
X163509390Y-77920814D01*
X163421789Y-77789711D01*
X163421786Y-77789707D01*
X163310292Y-77678213D01*
X163310288Y-77678210D01*
X163179185Y-77590609D01*
X163179172Y-77590602D01*
X163033501Y-77530264D01*
X163033489Y-77530261D01*
X162878845Y-77499500D01*
X162878842Y-77499500D01*
X162721158Y-77499500D01*
X162721155Y-77499500D01*
X162566510Y-77530261D01*
X162566507Y-77530262D01*
X162566506Y-77530262D01*
X162566503Y-77530263D01*
X162494175Y-77560222D01*
X162421952Y-77590137D01*
X162352482Y-77597605D01*
X162290003Y-77566329D01*
X162254351Y-77506240D01*
X162250500Y-77475575D01*
X162250500Y-77371155D01*
X162250499Y-77371153D01*
X162219738Y-77216510D01*
X162219737Y-77216503D01*
X162219735Y-77216498D01*
X162159397Y-77070827D01*
X162159390Y-77070814D01*
X162071789Y-76939711D01*
X162071786Y-76939707D01*
X161960292Y-76828213D01*
X161960288Y-76828210D01*
X161829185Y-76740609D01*
X161829172Y-76740602D01*
X161683501Y-76680264D01*
X161683489Y-76680261D01*
X161528845Y-76649500D01*
X161528842Y-76649500D01*
X161371158Y-76649500D01*
X161371155Y-76649500D01*
X161216510Y-76680261D01*
X161216498Y-76680264D01*
X161070827Y-76740602D01*
X161070814Y-76740609D01*
X160939711Y-76828210D01*
X160939707Y-76828213D01*
X160828213Y-76939707D01*
X160828210Y-76939711D01*
X160740609Y-77070814D01*
X160740602Y-77070827D01*
X160680264Y-77216498D01*
X160680261Y-77216510D01*
X160649500Y-77371153D01*
X147100499Y-77371153D01*
X147069738Y-77216510D01*
X147069737Y-77216503D01*
X147069735Y-77216498D01*
X147009397Y-77070827D01*
X147009390Y-77070814D01*
X146921789Y-76939711D01*
X146921786Y-76939707D01*
X146810292Y-76828213D01*
X146810288Y-76828210D01*
X146679185Y-76740609D01*
X146679172Y-76740602D01*
X146533501Y-76680264D01*
X146533489Y-76680261D01*
X146378845Y-76649500D01*
X146378842Y-76649500D01*
X146221158Y-76649500D01*
X146221155Y-76649500D01*
X146066510Y-76680261D01*
X146066498Y-76680264D01*
X145920827Y-76740602D01*
X145920814Y-76740609D01*
X145789711Y-76828210D01*
X145789707Y-76828213D01*
X145678213Y-76939707D01*
X145678210Y-76939711D01*
X145590609Y-77070814D01*
X145590602Y-77070827D01*
X145530264Y-77216498D01*
X145530261Y-77216510D01*
X145499500Y-77371153D01*
X138480500Y-77371153D01*
X138480500Y-77339778D01*
X138446015Y-77122049D01*
X138386771Y-76939711D01*
X138377896Y-76912396D01*
X138377895Y-76912393D01*
X138335001Y-76828210D01*
X138277815Y-76715978D01*
X138229516Y-76649500D01*
X138148247Y-76537641D01*
X138148243Y-76537636D01*
X137992363Y-76381756D01*
X137992358Y-76381752D01*
X137852745Y-76280318D01*
X137810079Y-76224989D01*
X137804100Y-76155375D01*
X137836705Y-76093580D01*
X137852745Y-76079682D01*
X137992358Y-75978247D01*
X137992356Y-75978247D01*
X137992365Y-75978242D01*
X138148242Y-75822365D01*
X138277815Y-75644022D01*
X138377895Y-75447606D01*
X138446015Y-75237951D01*
X138480500Y-75020222D01*
X138480500Y-74831153D01*
X154509500Y-74831153D01*
X154509500Y-74988846D01*
X154540261Y-75143489D01*
X154540264Y-75143501D01*
X154600602Y-75289172D01*
X154600609Y-75289185D01*
X154688210Y-75420288D01*
X154688213Y-75420292D01*
X154799707Y-75531786D01*
X154799711Y-75531789D01*
X154930814Y-75619390D01*
X154930827Y-75619397D01*
X155075156Y-75679179D01*
X155076503Y-75679737D01*
X155231153Y-75710499D01*
X155231156Y-75710500D01*
X155231158Y-75710500D01*
X155388844Y-75710500D01*
X155388845Y-75710499D01*
X155543497Y-75679737D01*
X155689179Y-75619394D01*
X155701912Y-75610885D01*
X155768589Y-75590006D01*
X155835970Y-75608489D01*
X155882661Y-75660466D01*
X155885366Y-75666530D01*
X155890604Y-75679176D01*
X155890609Y-75679185D01*
X155978210Y-75810288D01*
X155978213Y-75810292D01*
X156089707Y-75921786D01*
X156089711Y-75921789D01*
X156220814Y-76009390D01*
X156220827Y-76009397D01*
X156366498Y-76069735D01*
X156366503Y-76069737D01*
X156521153Y-76100499D01*
X156521156Y-76100500D01*
X156521158Y-76100500D01*
X156678844Y-76100500D01*
X156678845Y-76100499D01*
X156833497Y-76069737D01*
X156979179Y-76009394D01*
X157110289Y-75921789D01*
X157221789Y-75810289D01*
X157309394Y-75679179D01*
X157309395Y-75679176D01*
X157309397Y-75679173D01*
X157312719Y-75671153D01*
X157599500Y-75671153D01*
X157599500Y-75828846D01*
X157630261Y-75983489D01*
X157630264Y-75983501D01*
X157690602Y-76129172D01*
X157690609Y-76129185D01*
X157778210Y-76260288D01*
X157778213Y-76260292D01*
X157889707Y-76371786D01*
X157889711Y-76371789D01*
X158020814Y-76459390D01*
X158020827Y-76459397D01*
X158166498Y-76519735D01*
X158166503Y-76519737D01*
X158321153Y-76550499D01*
X158321156Y-76550500D01*
X158321158Y-76550500D01*
X158478844Y-76550500D01*
X158478845Y-76550499D01*
X158633497Y-76519737D01*
X158779179Y-76459394D01*
X158910289Y-76371789D01*
X159021789Y-76260289D01*
X159109394Y-76129179D01*
X159169737Y-75983497D01*
X159200500Y-75828842D01*
X159200500Y-75671158D01*
X159200500Y-75671155D01*
X159200499Y-75671153D01*
X159173117Y-75533497D01*
X159169737Y-75516503D01*
X159141198Y-75447603D01*
X159109397Y-75370827D01*
X159109390Y-75370814D01*
X159021789Y-75239711D01*
X159021786Y-75239707D01*
X158910292Y-75128213D01*
X158910288Y-75128210D01*
X158779185Y-75040609D01*
X158779172Y-75040602D01*
X158633501Y-74980264D01*
X158633489Y-74980261D01*
X158478845Y-74949500D01*
X158478842Y-74949500D01*
X158321158Y-74949500D01*
X158321155Y-74949500D01*
X158166510Y-74980261D01*
X158166498Y-74980264D01*
X158020827Y-75040602D01*
X158020814Y-75040609D01*
X157889711Y-75128210D01*
X157889707Y-75128213D01*
X157778213Y-75239707D01*
X157778210Y-75239711D01*
X157690609Y-75370814D01*
X157690602Y-75370827D01*
X157630264Y-75516498D01*
X157630261Y-75516510D01*
X157599500Y-75671153D01*
X157312719Y-75671153D01*
X157334895Y-75617614D01*
X157334895Y-75617613D01*
X157369737Y-75533497D01*
X157400500Y-75378842D01*
X157400500Y-75221158D01*
X157400500Y-75221155D01*
X157400499Y-75221153D01*
X157385052Y-75143497D01*
X157369737Y-75066503D01*
X157369735Y-75066498D01*
X157309397Y-74920827D01*
X157309390Y-74920814D01*
X157221789Y-74789711D01*
X157221786Y-74789707D01*
X157110292Y-74678213D01*
X157110288Y-74678210D01*
X156979185Y-74590609D01*
X156979172Y-74590602D01*
X156833501Y-74530264D01*
X156833489Y-74530261D01*
X156678845Y-74499500D01*
X156678842Y-74499500D01*
X156521158Y-74499500D01*
X156521155Y-74499500D01*
X156366510Y-74530261D01*
X156366498Y-74530264D01*
X156220827Y-74590602D01*
X156220815Y-74590609D01*
X156208080Y-74599118D01*
X156141402Y-74619993D01*
X156074022Y-74601506D01*
X156027334Y-74549526D01*
X156024632Y-74543466D01*
X156019395Y-74530824D01*
X156019394Y-74530821D01*
X156019392Y-74530818D01*
X156019390Y-74530814D01*
X155931789Y-74399711D01*
X155931786Y-74399707D01*
X155820292Y-74288213D01*
X155820288Y-74288210D01*
X155689185Y-74200609D01*
X155689172Y-74200602D01*
X155543501Y-74140264D01*
X155543489Y-74140261D01*
X155388845Y-74109500D01*
X155388842Y-74109500D01*
X155231158Y-74109500D01*
X155231155Y-74109500D01*
X155076510Y-74140261D01*
X155076498Y-74140264D01*
X154930827Y-74200602D01*
X154930814Y-74200609D01*
X154799711Y-74288210D01*
X154799707Y-74288213D01*
X154688213Y-74399707D01*
X154688210Y-74399711D01*
X154600609Y-74530814D01*
X154600602Y-74530827D01*
X154540264Y-74676498D01*
X154540261Y-74676510D01*
X154509500Y-74831153D01*
X138480500Y-74831153D01*
X138480500Y-74799778D01*
X138446015Y-74582049D01*
X138386771Y-74399711D01*
X138377896Y-74372396D01*
X138377895Y-74372393D01*
X138335001Y-74288210D01*
X138277815Y-74175978D01*
X138229516Y-74109500D01*
X138148247Y-73997641D01*
X138148243Y-73997636D01*
X137992363Y-73841756D01*
X137992358Y-73841752D01*
X137852745Y-73740318D01*
X137810079Y-73684989D01*
X137804100Y-73615375D01*
X137836705Y-73553580D01*
X137852745Y-73539682D01*
X137992358Y-73438247D01*
X137992356Y-73438247D01*
X137992365Y-73438242D01*
X138148242Y-73282365D01*
X138277815Y-73104022D01*
X138377895Y-72907606D01*
X138446015Y-72697951D01*
X138480500Y-72480222D01*
X138480500Y-72271153D01*
X180949500Y-72271153D01*
X180949500Y-72428846D01*
X180980261Y-72583489D01*
X180980264Y-72583501D01*
X181040602Y-72729172D01*
X181040609Y-72729185D01*
X181128210Y-72860288D01*
X181128213Y-72860292D01*
X181239707Y-72971786D01*
X181239711Y-72971789D01*
X181370814Y-73059390D01*
X181370827Y-73059397D01*
X181516498Y-73119735D01*
X181516503Y-73119737D01*
X181671153Y-73150499D01*
X181671156Y-73150500D01*
X181671158Y-73150500D01*
X181828844Y-73150500D01*
X181828845Y-73150499D01*
X181983497Y-73119737D01*
X182129179Y-73059394D01*
X182260289Y-72971789D01*
X182371789Y-72860289D01*
X182459394Y-72729179D01*
X182519737Y-72583497D01*
X182550500Y-72428842D01*
X182550500Y-72271158D01*
X182550500Y-72271155D01*
X182550499Y-72271153D01*
X182519738Y-72116510D01*
X182519737Y-72116503D01*
X182519735Y-72116498D01*
X182459397Y-71970827D01*
X182459390Y-71970814D01*
X182371789Y-71839711D01*
X182371786Y-71839707D01*
X182260292Y-71728213D01*
X182260288Y-71728210D01*
X182129185Y-71640609D01*
X182129172Y-71640602D01*
X181983501Y-71580264D01*
X181983489Y-71580261D01*
X181828845Y-71549500D01*
X181828842Y-71549500D01*
X181671158Y-71549500D01*
X181671155Y-71549500D01*
X181516510Y-71580261D01*
X181516498Y-71580264D01*
X181370827Y-71640602D01*
X181370814Y-71640609D01*
X181239711Y-71728210D01*
X181239707Y-71728213D01*
X181128213Y-71839707D01*
X181128210Y-71839711D01*
X181040609Y-71970814D01*
X181040602Y-71970827D01*
X180980264Y-72116498D01*
X180980261Y-72116510D01*
X180949500Y-72271153D01*
X138480500Y-72271153D01*
X138480500Y-72259778D01*
X138446015Y-72042049D01*
X138406940Y-71921786D01*
X138377896Y-71832396D01*
X138377895Y-71832393D01*
X138343237Y-71764375D01*
X138277815Y-71635978D01*
X138237336Y-71580263D01*
X138148247Y-71457641D01*
X138148243Y-71457636D01*
X137999857Y-71309250D01*
X137992365Y-71301758D01*
X137881422Y-71221153D01*
X155699500Y-71221153D01*
X155699500Y-71378846D01*
X155730261Y-71533489D01*
X155730264Y-71533501D01*
X155790602Y-71679172D01*
X155790609Y-71679185D01*
X155878210Y-71810288D01*
X155878213Y-71810292D01*
X155989707Y-71921786D01*
X155989711Y-71921789D01*
X156120814Y-72009390D01*
X156120827Y-72009397D01*
X156266498Y-72069735D01*
X156266503Y-72069737D01*
X156421153Y-72100499D01*
X156421156Y-72100500D01*
X156421158Y-72100500D01*
X156578844Y-72100500D01*
X156578845Y-72100499D01*
X156733497Y-72069737D01*
X156879179Y-72009394D01*
X157010289Y-71921789D01*
X157121789Y-71810289D01*
X157209394Y-71679179D01*
X157269737Y-71533497D01*
X157300500Y-71378842D01*
X157300500Y-71221158D01*
X157300500Y-71221155D01*
X157300499Y-71221153D01*
X157290766Y-71172222D01*
X157269737Y-71066503D01*
X157242059Y-70999682D01*
X157209397Y-70920827D01*
X157209390Y-70920814D01*
X157121789Y-70789711D01*
X157121786Y-70789707D01*
X157010292Y-70678213D01*
X157010288Y-70678210D01*
X156879185Y-70590609D01*
X156879172Y-70590602D01*
X156733501Y-70530264D01*
X156733489Y-70530261D01*
X156578845Y-70499500D01*
X156578842Y-70499500D01*
X156421158Y-70499500D01*
X156421155Y-70499500D01*
X156266510Y-70530261D01*
X156266498Y-70530264D01*
X156120827Y-70590602D01*
X156120814Y-70590609D01*
X155989711Y-70678210D01*
X155989707Y-70678213D01*
X155878213Y-70789707D01*
X155878210Y-70789711D01*
X155790609Y-70920814D01*
X155790602Y-70920827D01*
X155730264Y-71066498D01*
X155730261Y-71066510D01*
X155699500Y-71221153D01*
X137881422Y-71221153D01*
X137852322Y-71200011D01*
X137851842Y-71199656D01*
X137831079Y-71172222D01*
X137810079Y-71144989D01*
X137810029Y-71144408D01*
X137809677Y-71143943D01*
X137807039Y-71109604D01*
X137804100Y-71075375D01*
X137804371Y-71074860D01*
X137804327Y-71074279D01*
X137820649Y-71044009D01*
X137836705Y-71013580D01*
X137837367Y-71013005D01*
X137837489Y-71012781D01*
X137837870Y-71012569D01*
X137852745Y-70999682D01*
X137992358Y-70898247D01*
X137992356Y-70898247D01*
X137992365Y-70898242D01*
X138148242Y-70742365D01*
X138277815Y-70564022D01*
X138377895Y-70367606D01*
X138446015Y-70157951D01*
X138480500Y-69940222D01*
X138480500Y-69719778D01*
X138480500Y-69719777D01*
X138466988Y-69634463D01*
X138464880Y-69621153D01*
X157499500Y-69621153D01*
X157499500Y-69778846D01*
X157530261Y-69933489D01*
X157530264Y-69933501D01*
X157590602Y-70079172D01*
X157590609Y-70079185D01*
X157678210Y-70210288D01*
X157678213Y-70210292D01*
X157789707Y-70321786D01*
X157789711Y-70321789D01*
X157920814Y-70409390D01*
X157920827Y-70409397D01*
X158066498Y-70469735D01*
X158066503Y-70469737D01*
X158216131Y-70499500D01*
X158221153Y-70500499D01*
X158221156Y-70500500D01*
X158221158Y-70500500D01*
X158378844Y-70500500D01*
X158378845Y-70500499D01*
X158533497Y-70469737D01*
X158679179Y-70409394D01*
X158810289Y-70321789D01*
X158921789Y-70210289D01*
X159009394Y-70079179D01*
X159069737Y-69933497D01*
X159092083Y-69821158D01*
X159092084Y-69821153D01*
X181999500Y-69821153D01*
X181999500Y-69978846D01*
X182030261Y-70133489D01*
X182030264Y-70133501D01*
X182090602Y-70279172D01*
X182090609Y-70279185D01*
X182178210Y-70410288D01*
X182178213Y-70410292D01*
X182289707Y-70521786D01*
X182289711Y-70521789D01*
X182420814Y-70609390D01*
X182420827Y-70609397D01*
X182566498Y-70669735D01*
X182566503Y-70669737D01*
X182721153Y-70700499D01*
X182721156Y-70700500D01*
X182721158Y-70700500D01*
X182878844Y-70700500D01*
X182878845Y-70700499D01*
X183033497Y-70669737D01*
X183179179Y-70609394D01*
X183310289Y-70521789D01*
X183421789Y-70410289D01*
X183509394Y-70279179D01*
X183569737Y-70133497D01*
X183600500Y-69978842D01*
X183600500Y-69821158D01*
X183600500Y-69821155D01*
X183600499Y-69821153D01*
X183594476Y-69790874D01*
X183569737Y-69666503D01*
X183550955Y-69621158D01*
X183509397Y-69520827D01*
X183509390Y-69520814D01*
X183484763Y-69483957D01*
X183442798Y-69421153D01*
X220807000Y-69421153D01*
X220807000Y-69578846D01*
X220837761Y-69733489D01*
X220837764Y-69733501D01*
X220898102Y-69879172D01*
X220898109Y-69879185D01*
X220985710Y-70010288D01*
X220985713Y-70010292D01*
X221097207Y-70121786D01*
X221097211Y-70121789D01*
X221228314Y-70209390D01*
X221228327Y-70209397D01*
X221373998Y-70269735D01*
X221374003Y-70269737D01*
X221528653Y-70300499D01*
X221528656Y-70300500D01*
X221528658Y-70300500D01*
X221686344Y-70300500D01*
X221686345Y-70300499D01*
X221840997Y-70269737D01*
X221986679Y-70209394D01*
X222117789Y-70121789D01*
X222229289Y-70010289D01*
X222316894Y-69879179D01*
X222377237Y-69733497D01*
X222408000Y-69578842D01*
X222408000Y-69421158D01*
X222408000Y-69421155D01*
X222407999Y-69421153D01*
X222388043Y-69320827D01*
X222377237Y-69266503D01*
X222345429Y-69189711D01*
X222316897Y-69120827D01*
X222316890Y-69120814D01*
X222229289Y-68989711D01*
X222229286Y-68989707D01*
X222117792Y-68878213D01*
X222117788Y-68878210D01*
X221986685Y-68790609D01*
X221986672Y-68790602D01*
X221841001Y-68730264D01*
X221840989Y-68730261D01*
X221686345Y-68699500D01*
X221686342Y-68699500D01*
X221528658Y-68699500D01*
X221528655Y-68699500D01*
X221374010Y-68730261D01*
X221373998Y-68730264D01*
X221228327Y-68790602D01*
X221228314Y-68790609D01*
X221097211Y-68878210D01*
X221097207Y-68878213D01*
X220985713Y-68989707D01*
X220985710Y-68989711D01*
X220898109Y-69120814D01*
X220898102Y-69120827D01*
X220837764Y-69266498D01*
X220837761Y-69266510D01*
X220807000Y-69421153D01*
X183442798Y-69421153D01*
X183421789Y-69389711D01*
X183421786Y-69389707D01*
X183310292Y-69278213D01*
X183310288Y-69278210D01*
X183179185Y-69190609D01*
X183179172Y-69190602D01*
X183033501Y-69130264D01*
X183033489Y-69130261D01*
X182878845Y-69099500D01*
X182878842Y-69099500D01*
X182721158Y-69099500D01*
X182721155Y-69099500D01*
X182566510Y-69130261D01*
X182566498Y-69130264D01*
X182420827Y-69190602D01*
X182420814Y-69190609D01*
X182289711Y-69278210D01*
X182289707Y-69278213D01*
X182178213Y-69389707D01*
X182178210Y-69389711D01*
X182090609Y-69520814D01*
X182090602Y-69520827D01*
X182030264Y-69666498D01*
X182030261Y-69666510D01*
X181999500Y-69821153D01*
X159092084Y-69821153D01*
X159098107Y-69790875D01*
X159098107Y-69790874D01*
X159100500Y-69778844D01*
X159100500Y-69621155D01*
X159100499Y-69621153D01*
X159069737Y-69466503D01*
X159050955Y-69421158D01*
X159009397Y-69320827D01*
X159009390Y-69320814D01*
X158921789Y-69189711D01*
X158921786Y-69189707D01*
X158810292Y-69078213D01*
X158810288Y-69078210D01*
X158679185Y-68990609D01*
X158679172Y-68990602D01*
X158533501Y-68930264D01*
X158533489Y-68930261D01*
X158378845Y-68899500D01*
X158378842Y-68899500D01*
X158221158Y-68899500D01*
X158221155Y-68899500D01*
X158066510Y-68930261D01*
X158066498Y-68930264D01*
X157920827Y-68990602D01*
X157920814Y-68990609D01*
X157789711Y-69078210D01*
X157789707Y-69078213D01*
X157678213Y-69189707D01*
X157678210Y-69189711D01*
X157590609Y-69320814D01*
X157590602Y-69320827D01*
X157530264Y-69466498D01*
X157530261Y-69466510D01*
X157499500Y-69621153D01*
X138464880Y-69621153D01*
X138448987Y-69520814D01*
X138446015Y-69502049D01*
X138409513Y-69389707D01*
X138377896Y-69292396D01*
X138377895Y-69292393D01*
X138325573Y-69189707D01*
X138277815Y-69095978D01*
X138261260Y-69073192D01*
X138148247Y-68917641D01*
X138148243Y-68917636D01*
X137992363Y-68761756D01*
X137992358Y-68761752D01*
X137852745Y-68660318D01*
X137810079Y-68604989D01*
X137804100Y-68535375D01*
X137836705Y-68473580D01*
X137852745Y-68459682D01*
X137992358Y-68358247D01*
X137992356Y-68358247D01*
X137992365Y-68358242D01*
X138148242Y-68202365D01*
X138277815Y-68024022D01*
X138377895Y-67827606D01*
X138444975Y-67621153D01*
X181999500Y-67621153D01*
X181999500Y-67778846D01*
X182030261Y-67933489D01*
X182030264Y-67933501D01*
X182090602Y-68079172D01*
X182090609Y-68079185D01*
X182178210Y-68210288D01*
X182178213Y-68210292D01*
X182289707Y-68321786D01*
X182289711Y-68321789D01*
X182420814Y-68409390D01*
X182420827Y-68409397D01*
X182542228Y-68459682D01*
X182566503Y-68469737D01*
X182657387Y-68487815D01*
X182721153Y-68500499D01*
X182721156Y-68500500D01*
X182721158Y-68500500D01*
X182878844Y-68500500D01*
X182878845Y-68500499D01*
X183033497Y-68469737D01*
X183179179Y-68409394D01*
X183310289Y-68321789D01*
X183421789Y-68210289D01*
X183509394Y-68079179D01*
X183509397Y-68079172D01*
X183533429Y-68021153D01*
X212956607Y-68021153D01*
X212956607Y-68178846D01*
X212987368Y-68333489D01*
X212987371Y-68333501D01*
X213047709Y-68479172D01*
X213047716Y-68479185D01*
X213135317Y-68610288D01*
X213135320Y-68610292D01*
X213246814Y-68721786D01*
X213246818Y-68721789D01*
X213377921Y-68809390D01*
X213377934Y-68809397D01*
X213523605Y-68869735D01*
X213523610Y-68869737D01*
X213673238Y-68899500D01*
X213678260Y-68900499D01*
X213678263Y-68900500D01*
X213678265Y-68900500D01*
X213835951Y-68900500D01*
X213835952Y-68900499D01*
X213990604Y-68869737D01*
X214136286Y-68809394D01*
X214267396Y-68721789D01*
X214378896Y-68610289D01*
X214466501Y-68479179D01*
X214526844Y-68333497D01*
X214557607Y-68178842D01*
X214557607Y-68021158D01*
X214557607Y-68021155D01*
X214557606Y-68021153D01*
X214526845Y-67866510D01*
X214526844Y-67866503D01*
X214526842Y-67866498D01*
X214466504Y-67720827D01*
X214466497Y-67720814D01*
X214378896Y-67589711D01*
X214378893Y-67589707D01*
X214267399Y-67478213D01*
X214267395Y-67478210D01*
X214136292Y-67390609D01*
X214136279Y-67390602D01*
X213990608Y-67330264D01*
X213990596Y-67330261D01*
X213835952Y-67299500D01*
X213835949Y-67299500D01*
X213678265Y-67299500D01*
X213678262Y-67299500D01*
X213523617Y-67330261D01*
X213523605Y-67330264D01*
X213377934Y-67390602D01*
X213377921Y-67390609D01*
X213246818Y-67478210D01*
X213246814Y-67478213D01*
X213135320Y-67589707D01*
X213135317Y-67589711D01*
X213047716Y-67720814D01*
X213047709Y-67720827D01*
X212987371Y-67866498D01*
X212987368Y-67866510D01*
X212956607Y-68021153D01*
X183533429Y-68021153D01*
X183555603Y-67967621D01*
X183555605Y-67967614D01*
X183569737Y-67933497D01*
X183600500Y-67778842D01*
X183600500Y-67621158D01*
X183600500Y-67621155D01*
X183600499Y-67621153D01*
X183572066Y-67478211D01*
X183569737Y-67466503D01*
X183542283Y-67400222D01*
X183509397Y-67320827D01*
X183509390Y-67320814D01*
X183421789Y-67189711D01*
X183421786Y-67189707D01*
X183310292Y-67078213D01*
X183310288Y-67078210D01*
X183179185Y-66990609D01*
X183179172Y-66990602D01*
X183033501Y-66930264D01*
X183033489Y-66930261D01*
X182878845Y-66899500D01*
X182878842Y-66899500D01*
X182721158Y-66899500D01*
X182721155Y-66899500D01*
X182566510Y-66930261D01*
X182566498Y-66930264D01*
X182420827Y-66990602D01*
X182420814Y-66990609D01*
X182289711Y-67078210D01*
X182289707Y-67078213D01*
X182178213Y-67189707D01*
X182178210Y-67189711D01*
X182090609Y-67320814D01*
X182090602Y-67320827D01*
X182030264Y-67466498D01*
X182030261Y-67466510D01*
X181999500Y-67621153D01*
X138444975Y-67621153D01*
X138446015Y-67617951D01*
X138480500Y-67400222D01*
X138480500Y-67179778D01*
X138446015Y-66962049D01*
X138377895Y-66752394D01*
X138377895Y-66752393D01*
X138343237Y-66684375D01*
X138277815Y-66555978D01*
X138261260Y-66533192D01*
X138148247Y-66377641D01*
X138148243Y-66377636D01*
X137992363Y-66221756D01*
X137992358Y-66221752D01*
X137814025Y-66092187D01*
X137814024Y-66092186D01*
X137814022Y-66092185D01*
X137739642Y-66054286D01*
X137617606Y-65992104D01*
X137617603Y-65992103D01*
X137407952Y-65923985D01*
X137299086Y-65906742D01*
X137190222Y-65889500D01*
X136969778Y-65889500D01*
X136897201Y-65900995D01*
X136752047Y-65923985D01*
X136542396Y-65992103D01*
X136542393Y-65992104D01*
X136345974Y-66092187D01*
X136167641Y-66221752D01*
X136167636Y-66221756D01*
X136011756Y-66377636D01*
X136011752Y-66377641D01*
X135882187Y-66555974D01*
X135782104Y-66752393D01*
X135782103Y-66752396D01*
X135713985Y-66962047D01*
X135679500Y-67179778D01*
X133500500Y-67179778D01*
X133500500Y-65353653D01*
X153532000Y-65353653D01*
X153532000Y-65511346D01*
X153562761Y-65665989D01*
X153562764Y-65666001D01*
X153623102Y-65811672D01*
X153623109Y-65811685D01*
X153710710Y-65942788D01*
X153710713Y-65942792D01*
X153822207Y-66054286D01*
X153822211Y-66054289D01*
X153953314Y-66141890D01*
X153953327Y-66141897D01*
X154098998Y-66202235D01*
X154099003Y-66202237D01*
X154253653Y-66232999D01*
X154253656Y-66233000D01*
X154253658Y-66233000D01*
X154411344Y-66233000D01*
X154411345Y-66232999D01*
X154565997Y-66202237D01*
X154711679Y-66141894D01*
X154842789Y-66054289D01*
X154954289Y-65942789D01*
X155041894Y-65811679D01*
X155102237Y-65665997D01*
X155133000Y-65511342D01*
X155133000Y-65353658D01*
X155133000Y-65353655D01*
X155132999Y-65353653D01*
X155102238Y-65199010D01*
X155102237Y-65199003D01*
X155102235Y-65198998D01*
X155041897Y-65053327D01*
X155041890Y-65053314D01*
X154954289Y-64922211D01*
X154954286Y-64922207D01*
X154842792Y-64810713D01*
X154842788Y-64810710D01*
X154711685Y-64723109D01*
X154711672Y-64723102D01*
X154566001Y-64662764D01*
X154565989Y-64662761D01*
X154411345Y-64632000D01*
X154411342Y-64632000D01*
X154253658Y-64632000D01*
X154253655Y-64632000D01*
X154099010Y-64662761D01*
X154098998Y-64662764D01*
X153953327Y-64723102D01*
X153953314Y-64723109D01*
X153822211Y-64810710D01*
X153822207Y-64810713D01*
X153710713Y-64922207D01*
X153710710Y-64922211D01*
X153623109Y-65053314D01*
X153623102Y-65053327D01*
X153562764Y-65198998D01*
X153562761Y-65199010D01*
X153532000Y-65353653D01*
X133500500Y-65353653D01*
X133500500Y-61668872D01*
X139999500Y-61668872D01*
X139999500Y-61931127D01*
X140021668Y-62099500D01*
X140033730Y-62191116D01*
X140086942Y-62389707D01*
X140101602Y-62444418D01*
X140101605Y-62444428D01*
X140201953Y-62686690D01*
X140201958Y-62686700D01*
X140333075Y-62913803D01*
X140492718Y-63121851D01*
X140492726Y-63121860D01*
X140678140Y-63307274D01*
X140678148Y-63307281D01*
X140886196Y-63466924D01*
X141113299Y-63598041D01*
X141113309Y-63598046D01*
X141355571Y-63698394D01*
X141355581Y-63698398D01*
X141608884Y-63766270D01*
X141868880Y-63800500D01*
X141868887Y-63800500D01*
X142131113Y-63800500D01*
X142131120Y-63800500D01*
X142391116Y-63766270D01*
X142644419Y-63698398D01*
X142859286Y-63609397D01*
X142886690Y-63598046D01*
X142886691Y-63598045D01*
X142886697Y-63598043D01*
X143113803Y-63466924D01*
X143321851Y-63307282D01*
X143321855Y-63307277D01*
X143321860Y-63307274D01*
X143407981Y-63221153D01*
X154799500Y-63221153D01*
X154799500Y-63378846D01*
X154830261Y-63533489D01*
X154830264Y-63533501D01*
X154890602Y-63679172D01*
X154890609Y-63679185D01*
X154978210Y-63810288D01*
X154978213Y-63810292D01*
X155089707Y-63921786D01*
X155089711Y-63921789D01*
X155220814Y-64009390D01*
X155220827Y-64009397D01*
X155366498Y-64069735D01*
X155366503Y-64069737D01*
X155521153Y-64100499D01*
X155521156Y-64100500D01*
X155521158Y-64100500D01*
X155678844Y-64100500D01*
X155678845Y-64100499D01*
X155833497Y-64069737D01*
X155979179Y-64009394D01*
X156110289Y-63921789D01*
X156210925Y-63821153D01*
X159899500Y-63821153D01*
X159899500Y-63978846D01*
X159930261Y-64133489D01*
X159930264Y-64133501D01*
X159990602Y-64279172D01*
X159990609Y-64279185D01*
X160078210Y-64410288D01*
X160078213Y-64410292D01*
X160189707Y-64521786D01*
X160189711Y-64521789D01*
X160320814Y-64609390D01*
X160320827Y-64609397D01*
X160466498Y-64669735D01*
X160466503Y-64669737D01*
X160621153Y-64700499D01*
X160621156Y-64700500D01*
X160621158Y-64700500D01*
X160778844Y-64700500D01*
X160778845Y-64700499D01*
X160933497Y-64669737D01*
X161079179Y-64609394D01*
X161210289Y-64521789D01*
X161321789Y-64410289D01*
X161409394Y-64279179D01*
X161469737Y-64133497D01*
X161500500Y-63978842D01*
X161500500Y-63821158D01*
X161489050Y-63763596D01*
X161495277Y-63694006D01*
X161538139Y-63638828D01*
X161604028Y-63615583D01*
X161658119Y-63624844D01*
X161741537Y-63659396D01*
X161766503Y-63669737D01*
X161910586Y-63698397D01*
X161921153Y-63700499D01*
X161921156Y-63700500D01*
X161921158Y-63700500D01*
X162078844Y-63700500D01*
X162078845Y-63700499D01*
X162233497Y-63669737D01*
X162300661Y-63641917D01*
X162377548Y-63610070D01*
X162447017Y-63602601D01*
X162472452Y-63610070D01*
X162591535Y-63659395D01*
X162616503Y-63669737D01*
X162760586Y-63698397D01*
X162771153Y-63700499D01*
X162771156Y-63700500D01*
X162771158Y-63700500D01*
X162928844Y-63700500D01*
X162928845Y-63700499D01*
X163083497Y-63669737D01*
X163229179Y-63609394D01*
X163360289Y-63521789D01*
X163471789Y-63410289D01*
X163559394Y-63279179D01*
X163559795Y-63278210D01*
X163585439Y-63216301D01*
X163629279Y-63161897D01*
X163695573Y-63139832D01*
X163763273Y-63157111D01*
X163810884Y-63208248D01*
X163814561Y-63216301D01*
X163840602Y-63279172D01*
X163840609Y-63279185D01*
X163928210Y-63410288D01*
X163928213Y-63410292D01*
X164039707Y-63521786D01*
X164039711Y-63521789D01*
X164170814Y-63609390D01*
X164170827Y-63609397D01*
X164291535Y-63659395D01*
X164316503Y-63669737D01*
X164460586Y-63698397D01*
X164471153Y-63700499D01*
X164471156Y-63700500D01*
X164471158Y-63700500D01*
X164628844Y-63700500D01*
X164628845Y-63700499D01*
X164783497Y-63669737D01*
X164850661Y-63641917D01*
X164927548Y-63610070D01*
X164997017Y-63602601D01*
X165022452Y-63610070D01*
X165141535Y-63659395D01*
X165166503Y-63669737D01*
X165310586Y-63698397D01*
X165321153Y-63700499D01*
X165321156Y-63700500D01*
X165321158Y-63700500D01*
X165478844Y-63700500D01*
X165478845Y-63700499D01*
X165633497Y-63669737D01*
X165728323Y-63630458D01*
X165797792Y-63622990D01*
X165844664Y-63641916D01*
X165870821Y-63659394D01*
X165964976Y-63698394D01*
X165991520Y-63709389D01*
X166016503Y-63719737D01*
X166171153Y-63750499D01*
X166171156Y-63750500D01*
X166171158Y-63750500D01*
X166328844Y-63750500D01*
X166328845Y-63750499D01*
X166483497Y-63719737D01*
X166629179Y-63659394D01*
X166655333Y-63641917D01*
X166722008Y-63621040D01*
X166771675Y-63630459D01*
X166841537Y-63659396D01*
X166866503Y-63669737D01*
X167010586Y-63698397D01*
X167021153Y-63700499D01*
X167021156Y-63700500D01*
X167021158Y-63700500D01*
X167178844Y-63700500D01*
X167178845Y-63700499D01*
X167333497Y-63669737D01*
X167428323Y-63630458D01*
X167497792Y-63622990D01*
X167544664Y-63641916D01*
X167570821Y-63659394D01*
X167664976Y-63698394D01*
X167691520Y-63709389D01*
X167716503Y-63719737D01*
X167871153Y-63750499D01*
X167871156Y-63750500D01*
X167871158Y-63750500D01*
X168028844Y-63750500D01*
X168028845Y-63750499D01*
X168183497Y-63719737D01*
X168278323Y-63680458D01*
X168347792Y-63672990D01*
X168394664Y-63691916D01*
X168420821Y-63709394D01*
X168566503Y-63769737D01*
X168721153Y-63800499D01*
X168721156Y-63800500D01*
X168721158Y-63800500D01*
X168878844Y-63800500D01*
X168878845Y-63800499D01*
X169033497Y-63769737D01*
X169179179Y-63709394D01*
X169205333Y-63691917D01*
X169272008Y-63671040D01*
X169321675Y-63680459D01*
X169416498Y-63719735D01*
X169416503Y-63719737D01*
X169571153Y-63750499D01*
X169571156Y-63750500D01*
X169571158Y-63750500D01*
X169728844Y-63750500D01*
X169728845Y-63750499D01*
X169883497Y-63719737D01*
X170029179Y-63659394D01*
X170055333Y-63641917D01*
X170122008Y-63621040D01*
X170171675Y-63630459D01*
X170241537Y-63659396D01*
X170266503Y-63669737D01*
X170410586Y-63698397D01*
X170421153Y-63700499D01*
X170421156Y-63700500D01*
X170421158Y-63700500D01*
X170578844Y-63700500D01*
X170578845Y-63700499D01*
X170733497Y-63669737D01*
X170828323Y-63630458D01*
X170897792Y-63622990D01*
X170944664Y-63641916D01*
X170970821Y-63659394D01*
X171064976Y-63698394D01*
X171091520Y-63709389D01*
X171116503Y-63719737D01*
X171271153Y-63750499D01*
X171271156Y-63750500D01*
X171271158Y-63750500D01*
X171428844Y-63750500D01*
X171428845Y-63750499D01*
X171583497Y-63719737D01*
X171678323Y-63680458D01*
X171747792Y-63672990D01*
X171794664Y-63691916D01*
X171820821Y-63709394D01*
X171966503Y-63769737D01*
X172121153Y-63800499D01*
X172121156Y-63800500D01*
X172121158Y-63800500D01*
X172278844Y-63800500D01*
X172278845Y-63800499D01*
X172433497Y-63769737D01*
X172579179Y-63709394D01*
X172605333Y-63691917D01*
X172672008Y-63671040D01*
X172721675Y-63680459D01*
X172816498Y-63719735D01*
X172816503Y-63719737D01*
X172971153Y-63750499D01*
X172971156Y-63750500D01*
X172971158Y-63750500D01*
X173128844Y-63750500D01*
X173128845Y-63750499D01*
X173283497Y-63719737D01*
X173429179Y-63659394D01*
X173455333Y-63641917D01*
X173522008Y-63621040D01*
X173571675Y-63630459D01*
X173641537Y-63659396D01*
X173666503Y-63669737D01*
X173810586Y-63698397D01*
X173821153Y-63700499D01*
X173821156Y-63700500D01*
X173821158Y-63700500D01*
X173978844Y-63700500D01*
X173978845Y-63700499D01*
X174133497Y-63669737D01*
X174279179Y-63609394D01*
X174305333Y-63591917D01*
X174372008Y-63571040D01*
X174421675Y-63580459D01*
X174506474Y-63615583D01*
X174516503Y-63619737D01*
X174628009Y-63641917D01*
X174671153Y-63650499D01*
X174671156Y-63650500D01*
X174671158Y-63650500D01*
X174828844Y-63650500D01*
X174828845Y-63650499D01*
X174983497Y-63619737D01*
X175078323Y-63580458D01*
X175147792Y-63572990D01*
X175194664Y-63591916D01*
X175220821Y-63609394D01*
X175366503Y-63669737D01*
X175510586Y-63698397D01*
X175521153Y-63700499D01*
X175521156Y-63700500D01*
X175521158Y-63700500D01*
X175678844Y-63700500D01*
X175678845Y-63700499D01*
X175833497Y-63669737D01*
X175979179Y-63609394D01*
X176005333Y-63591917D01*
X176072008Y-63571040D01*
X176121675Y-63580459D01*
X176206474Y-63615583D01*
X176216503Y-63619737D01*
X176328009Y-63641917D01*
X176371153Y-63650499D01*
X176371156Y-63650500D01*
X176371158Y-63650500D01*
X176528844Y-63650500D01*
X176528845Y-63650499D01*
X176683497Y-63619737D01*
X176778323Y-63580458D01*
X176847792Y-63572990D01*
X176894664Y-63591916D01*
X176920821Y-63609394D01*
X177066503Y-63669737D01*
X177210586Y-63698397D01*
X177221153Y-63700499D01*
X177221156Y-63700500D01*
X177221158Y-63700500D01*
X177378844Y-63700500D01*
X177378845Y-63700499D01*
X177533497Y-63669737D01*
X177679179Y-63609394D01*
X177705333Y-63591917D01*
X177772008Y-63571040D01*
X177821675Y-63580459D01*
X177906474Y-63615583D01*
X177916503Y-63619737D01*
X178028009Y-63641917D01*
X178071153Y-63650499D01*
X178071156Y-63650500D01*
X178071158Y-63650500D01*
X178228844Y-63650500D01*
X178228845Y-63650499D01*
X178383497Y-63619737D01*
X178478323Y-63580458D01*
X178547792Y-63572990D01*
X178594664Y-63591916D01*
X178620821Y-63609394D01*
X178766503Y-63669737D01*
X178910586Y-63698397D01*
X178921153Y-63700499D01*
X178921156Y-63700500D01*
X178921158Y-63700500D01*
X179078844Y-63700500D01*
X179078845Y-63700499D01*
X179233497Y-63669737D01*
X179379179Y-63609394D01*
X179510289Y-63521789D01*
X179621789Y-63410289D01*
X179709394Y-63279179D01*
X179769737Y-63133497D01*
X179800500Y-62978842D01*
X179800500Y-62821158D01*
X179800500Y-62821155D01*
X179800499Y-62821153D01*
X179772066Y-62678211D01*
X179769737Y-62666503D01*
X179767113Y-62660167D01*
X179709397Y-62520827D01*
X179709390Y-62520814D01*
X179621789Y-62389711D01*
X179621786Y-62389707D01*
X179510292Y-62278213D01*
X179510288Y-62278210D01*
X179379185Y-62190609D01*
X179379172Y-62190602D01*
X179233501Y-62130264D01*
X179233489Y-62130261D01*
X179078845Y-62099500D01*
X179078842Y-62099500D01*
X178921158Y-62099500D01*
X178921155Y-62099500D01*
X178766510Y-62130261D01*
X178766503Y-62130263D01*
X178671675Y-62169541D01*
X178602206Y-62177009D01*
X178555335Y-62158082D01*
X178529187Y-62140611D01*
X178529183Y-62140609D01*
X178529179Y-62140606D01*
X178529175Y-62140604D01*
X178529171Y-62140602D01*
X178383501Y-62080264D01*
X178383489Y-62080261D01*
X178228845Y-62049500D01*
X178228842Y-62049500D01*
X178071158Y-62049500D01*
X178071155Y-62049500D01*
X177916510Y-62080261D01*
X177916498Y-62080264D01*
X177770828Y-62140602D01*
X177770810Y-62140612D01*
X177744660Y-62158084D01*
X177677982Y-62178959D01*
X177628322Y-62169540D01*
X177533501Y-62130264D01*
X177533489Y-62130261D01*
X177378845Y-62099500D01*
X177378842Y-62099500D01*
X177221158Y-62099500D01*
X177221155Y-62099500D01*
X177066510Y-62130261D01*
X177066503Y-62130263D01*
X176971675Y-62169541D01*
X176902206Y-62177009D01*
X176855335Y-62158082D01*
X176829187Y-62140611D01*
X176829183Y-62140609D01*
X176829179Y-62140606D01*
X176829175Y-62140604D01*
X176829171Y-62140602D01*
X176683501Y-62080264D01*
X176683489Y-62080261D01*
X176528845Y-62049500D01*
X176528842Y-62049500D01*
X176371158Y-62049500D01*
X176371155Y-62049500D01*
X176216510Y-62080261D01*
X176216498Y-62080264D01*
X176070828Y-62140602D01*
X176070810Y-62140612D01*
X176044660Y-62158084D01*
X175977982Y-62178959D01*
X175928322Y-62169540D01*
X175833501Y-62130264D01*
X175833489Y-62130261D01*
X175678845Y-62099500D01*
X175678842Y-62099500D01*
X175521158Y-62099500D01*
X175521155Y-62099500D01*
X175366510Y-62130261D01*
X175366503Y-62130263D01*
X175271675Y-62169541D01*
X175202206Y-62177009D01*
X175155335Y-62158082D01*
X175129187Y-62140611D01*
X175129183Y-62140609D01*
X175129179Y-62140606D01*
X175129175Y-62140604D01*
X175129171Y-62140602D01*
X174983501Y-62080264D01*
X174983489Y-62080261D01*
X174828845Y-62049500D01*
X174828842Y-62049500D01*
X174671158Y-62049500D01*
X174671155Y-62049500D01*
X174516510Y-62080261D01*
X174516498Y-62080264D01*
X174370828Y-62140602D01*
X174370810Y-62140612D01*
X174344660Y-62158084D01*
X174277982Y-62178959D01*
X174228322Y-62169540D01*
X174133501Y-62130264D01*
X174133489Y-62130261D01*
X173978845Y-62099500D01*
X173978842Y-62099500D01*
X173821158Y-62099500D01*
X173821155Y-62099500D01*
X173666510Y-62130261D01*
X173666498Y-62130264D01*
X173520828Y-62190602D01*
X173520810Y-62190612D01*
X173494660Y-62208084D01*
X173427982Y-62228959D01*
X173378322Y-62219540D01*
X173283501Y-62180264D01*
X173283489Y-62180261D01*
X173128845Y-62149500D01*
X173128842Y-62149500D01*
X172971158Y-62149500D01*
X172971155Y-62149500D01*
X172816510Y-62180261D01*
X172816498Y-62180264D01*
X172670828Y-62240602D01*
X172670810Y-62240612D01*
X172644660Y-62258084D01*
X172577982Y-62278959D01*
X172528322Y-62269540D01*
X172433501Y-62230264D01*
X172433489Y-62230261D01*
X172278845Y-62199500D01*
X172278842Y-62199500D01*
X172121158Y-62199500D01*
X172121155Y-62199500D01*
X171966510Y-62230261D01*
X171966503Y-62230263D01*
X171871675Y-62269541D01*
X171802206Y-62277009D01*
X171755335Y-62258082D01*
X171729187Y-62240611D01*
X171729183Y-62240609D01*
X171729179Y-62240606D01*
X171729175Y-62240604D01*
X171729171Y-62240602D01*
X171583501Y-62180264D01*
X171583489Y-62180261D01*
X171428845Y-62149500D01*
X171428842Y-62149500D01*
X171271158Y-62149500D01*
X171271155Y-62149500D01*
X171116510Y-62180261D01*
X171116503Y-62180263D01*
X171021675Y-62219541D01*
X170952206Y-62227009D01*
X170905335Y-62208082D01*
X170879187Y-62190611D01*
X170879183Y-62190609D01*
X170879179Y-62190606D01*
X170879175Y-62190604D01*
X170879171Y-62190602D01*
X170733501Y-62130264D01*
X170733489Y-62130261D01*
X170578845Y-62099500D01*
X170578842Y-62099500D01*
X170421158Y-62099500D01*
X170421155Y-62099500D01*
X170266510Y-62130261D01*
X170266498Y-62130264D01*
X170120828Y-62190602D01*
X170120810Y-62190612D01*
X170094660Y-62208084D01*
X170027982Y-62228959D01*
X169978322Y-62219540D01*
X169883501Y-62180264D01*
X169883489Y-62180261D01*
X169728845Y-62149500D01*
X169728842Y-62149500D01*
X169571158Y-62149500D01*
X169571155Y-62149500D01*
X169416510Y-62180261D01*
X169416498Y-62180264D01*
X169270828Y-62240602D01*
X169270810Y-62240612D01*
X169244660Y-62258084D01*
X169177982Y-62278959D01*
X169128322Y-62269540D01*
X169033501Y-62230264D01*
X169033489Y-62230261D01*
X168878845Y-62199500D01*
X168878842Y-62199500D01*
X168721158Y-62199500D01*
X168721155Y-62199500D01*
X168566510Y-62230261D01*
X168566503Y-62230263D01*
X168471675Y-62269541D01*
X168402206Y-62277009D01*
X168355335Y-62258082D01*
X168329187Y-62240611D01*
X168329183Y-62240609D01*
X168329179Y-62240606D01*
X168329175Y-62240604D01*
X168329171Y-62240602D01*
X168183501Y-62180264D01*
X168183489Y-62180261D01*
X168028845Y-62149500D01*
X168028842Y-62149500D01*
X167871158Y-62149500D01*
X167871155Y-62149500D01*
X167716510Y-62180261D01*
X167716503Y-62180263D01*
X167621675Y-62219541D01*
X167552206Y-62227009D01*
X167505335Y-62208082D01*
X167479187Y-62190611D01*
X167479183Y-62190609D01*
X167479179Y-62190606D01*
X167479175Y-62190604D01*
X167479171Y-62190602D01*
X167333501Y-62130264D01*
X167333489Y-62130261D01*
X167178845Y-62099500D01*
X167178842Y-62099500D01*
X167021158Y-62099500D01*
X167021155Y-62099500D01*
X166866510Y-62130261D01*
X166866498Y-62130264D01*
X166720828Y-62190602D01*
X166720810Y-62190612D01*
X166694660Y-62208084D01*
X166627982Y-62228959D01*
X166578322Y-62219540D01*
X166483501Y-62180264D01*
X166483489Y-62180261D01*
X166328845Y-62149500D01*
X166328842Y-62149500D01*
X166171158Y-62149500D01*
X166171155Y-62149500D01*
X166016510Y-62180261D01*
X166016503Y-62180263D01*
X165921675Y-62219541D01*
X165852206Y-62227009D01*
X165805335Y-62208082D01*
X165779187Y-62190611D01*
X165779183Y-62190609D01*
X165779179Y-62190606D01*
X165779175Y-62190604D01*
X165779171Y-62190602D01*
X165633501Y-62130264D01*
X165633489Y-62130261D01*
X165478845Y-62099500D01*
X165478842Y-62099500D01*
X165321158Y-62099500D01*
X165321155Y-62099500D01*
X165166510Y-62130261D01*
X165166498Y-62130264D01*
X165022452Y-62189930D01*
X164952983Y-62197399D01*
X164927548Y-62189930D01*
X164783501Y-62130264D01*
X164783489Y-62130261D01*
X164628845Y-62099500D01*
X164628842Y-62099500D01*
X164471158Y-62099500D01*
X164471155Y-62099500D01*
X164316510Y-62130261D01*
X164316498Y-62130264D01*
X164170827Y-62190602D01*
X164170814Y-62190609D01*
X164039711Y-62278210D01*
X164039707Y-62278213D01*
X163928213Y-62389707D01*
X163928210Y-62389711D01*
X163840609Y-62520814D01*
X163840604Y-62520823D01*
X163814561Y-62583699D01*
X163770720Y-62638102D01*
X163704426Y-62660167D01*
X163636727Y-62642888D01*
X163589116Y-62591751D01*
X163585439Y-62583699D01*
X163559395Y-62520823D01*
X163559390Y-62520814D01*
X163471789Y-62389711D01*
X163471786Y-62389707D01*
X163360292Y-62278213D01*
X163360288Y-62278210D01*
X163229185Y-62190609D01*
X163229172Y-62190602D01*
X163083501Y-62130264D01*
X163083489Y-62130261D01*
X162928845Y-62099500D01*
X162928842Y-62099500D01*
X162771158Y-62099500D01*
X162771155Y-62099500D01*
X162616510Y-62130261D01*
X162616498Y-62130264D01*
X162472452Y-62189930D01*
X162402983Y-62197399D01*
X162377548Y-62189930D01*
X162233501Y-62130264D01*
X162233489Y-62130261D01*
X162078845Y-62099500D01*
X162078842Y-62099500D01*
X161921158Y-62099500D01*
X161921155Y-62099500D01*
X161766510Y-62130261D01*
X161766498Y-62130264D01*
X161622452Y-62189930D01*
X161552983Y-62197399D01*
X161527548Y-62189930D01*
X161383501Y-62130264D01*
X161383489Y-62130261D01*
X161228845Y-62099500D01*
X161228842Y-62099500D01*
X161071158Y-62099500D01*
X161071155Y-62099500D01*
X160916510Y-62130261D01*
X160916498Y-62130264D01*
X160770827Y-62190602D01*
X160770814Y-62190609D01*
X160639711Y-62278210D01*
X160639707Y-62278213D01*
X160528213Y-62389707D01*
X160528210Y-62389711D01*
X160440609Y-62520814D01*
X160440602Y-62520827D01*
X160380264Y-62666498D01*
X160380261Y-62666510D01*
X160349500Y-62821153D01*
X160349500Y-62821158D01*
X160349500Y-62978842D01*
X160349501Y-62978846D01*
X160367152Y-63067587D01*
X160360924Y-63137178D01*
X160318060Y-63192355D01*
X160314425Y-63194879D01*
X160189711Y-63278210D01*
X160189707Y-63278213D01*
X160078213Y-63389707D01*
X160078210Y-63389711D01*
X159990609Y-63520814D01*
X159990602Y-63520827D01*
X159930264Y-63666498D01*
X159930261Y-63666510D01*
X159899500Y-63821153D01*
X156210925Y-63821153D01*
X156221789Y-63810289D01*
X156309394Y-63679179D01*
X156369737Y-63533497D01*
X156400500Y-63378842D01*
X156400500Y-63221158D01*
X156400500Y-63221155D01*
X156400499Y-63221153D01*
X156372192Y-63078846D01*
X156369737Y-63066503D01*
X156333427Y-62978842D01*
X156309397Y-62920827D01*
X156309390Y-62920814D01*
X156221789Y-62789711D01*
X156221786Y-62789707D01*
X156110292Y-62678213D01*
X156110288Y-62678210D01*
X155979185Y-62590609D01*
X155979172Y-62590602D01*
X155833501Y-62530264D01*
X155833489Y-62530261D01*
X155678845Y-62499500D01*
X155678842Y-62499500D01*
X155521158Y-62499500D01*
X155521155Y-62499500D01*
X155366510Y-62530261D01*
X155366498Y-62530264D01*
X155220827Y-62590602D01*
X155220814Y-62590609D01*
X155089711Y-62678210D01*
X155089707Y-62678213D01*
X154978213Y-62789707D01*
X154978210Y-62789711D01*
X154890609Y-62920814D01*
X154890602Y-62920827D01*
X154830264Y-63066498D01*
X154830261Y-63066510D01*
X154799500Y-63221153D01*
X143407981Y-63221153D01*
X143507274Y-63121860D01*
X143507277Y-63121855D01*
X143507282Y-63121851D01*
X143666924Y-62913803D01*
X143798043Y-62686697D01*
X143801559Y-62678210D01*
X143867550Y-62518892D01*
X143898398Y-62444419D01*
X143966270Y-62191116D01*
X144000500Y-61931120D01*
X144000500Y-61821153D01*
X157499500Y-61821153D01*
X157499500Y-61978846D01*
X157530261Y-62133489D01*
X157530264Y-62133501D01*
X157590602Y-62279172D01*
X157590609Y-62279185D01*
X157658713Y-62381109D01*
X157679591Y-62447787D01*
X157661107Y-62515167D01*
X157658713Y-62518891D01*
X157590609Y-62620814D01*
X157590602Y-62620827D01*
X157530264Y-62766498D01*
X157530261Y-62766510D01*
X157499500Y-62921153D01*
X157499500Y-63078846D01*
X157530261Y-63233489D01*
X157530264Y-63233501D01*
X157590602Y-63379172D01*
X157590609Y-63379185D01*
X157678210Y-63510288D01*
X157678213Y-63510292D01*
X157789707Y-63621786D01*
X157789711Y-63621789D01*
X157920814Y-63709390D01*
X157920827Y-63709397D01*
X158020060Y-63750500D01*
X158066503Y-63769737D01*
X158221153Y-63800499D01*
X158221156Y-63800500D01*
X158221158Y-63800500D01*
X158378844Y-63800500D01*
X158378845Y-63800499D01*
X158533497Y-63769737D01*
X158679179Y-63709394D01*
X158810289Y-63621789D01*
X158921789Y-63510289D01*
X159009394Y-63379179D01*
X159069737Y-63233497D01*
X159100500Y-63078842D01*
X159100500Y-62921158D01*
X159100500Y-62921155D01*
X159100499Y-62921153D01*
X159099037Y-62913803D01*
X159069737Y-62766503D01*
X159036678Y-62686690D01*
X159009397Y-62620827D01*
X159009393Y-62620820D01*
X159009389Y-62620814D01*
X158941284Y-62518888D01*
X158920408Y-62452214D01*
X158938892Y-62384834D01*
X158941257Y-62381152D01*
X159009394Y-62279179D01*
X159069737Y-62133497D01*
X159100500Y-61978842D01*
X159100500Y-61821158D01*
X159100500Y-61821155D01*
X159100499Y-61821153D01*
X180799500Y-61821153D01*
X180799500Y-61978846D01*
X180830261Y-62133489D01*
X180830264Y-62133501D01*
X180890602Y-62279172D01*
X180890609Y-62279185D01*
X180958713Y-62381109D01*
X180979591Y-62447787D01*
X180961107Y-62515167D01*
X180958713Y-62518891D01*
X180890609Y-62620814D01*
X180890602Y-62620827D01*
X180830264Y-62766498D01*
X180830261Y-62766510D01*
X180799500Y-62921153D01*
X180799500Y-63078846D01*
X180830261Y-63233489D01*
X180830264Y-63233501D01*
X180890602Y-63379172D01*
X180890609Y-63379185D01*
X180978210Y-63510288D01*
X180978213Y-63510292D01*
X181089707Y-63621786D01*
X181089711Y-63621789D01*
X181220814Y-63709390D01*
X181220827Y-63709397D01*
X181320060Y-63750500D01*
X181366503Y-63769737D01*
X181521153Y-63800499D01*
X181521156Y-63800500D01*
X181521158Y-63800500D01*
X181678844Y-63800500D01*
X181678845Y-63800499D01*
X181833497Y-63769737D01*
X181979179Y-63709394D01*
X182110289Y-63621789D01*
X182221789Y-63510289D01*
X182309394Y-63379179D01*
X182369737Y-63233497D01*
X182372193Y-63221153D01*
X196499500Y-63221153D01*
X196499500Y-63378846D01*
X196530261Y-63533489D01*
X196530264Y-63533501D01*
X196590602Y-63679172D01*
X196590609Y-63679185D01*
X196678210Y-63810288D01*
X196678213Y-63810292D01*
X196789707Y-63921786D01*
X196789711Y-63921789D01*
X196920814Y-64009390D01*
X196920827Y-64009397D01*
X197066498Y-64069735D01*
X197066503Y-64069737D01*
X197221153Y-64100499D01*
X197221156Y-64100500D01*
X197221158Y-64100500D01*
X197378844Y-64100500D01*
X197378845Y-64100499D01*
X197533497Y-64069737D01*
X197679179Y-64009394D01*
X197810289Y-63921789D01*
X197921789Y-63810289D01*
X198009394Y-63679179D01*
X198069737Y-63533497D01*
X198100500Y-63378842D01*
X198100500Y-63221158D01*
X198100500Y-63221155D01*
X198100499Y-63221153D01*
X198072192Y-63078846D01*
X198069737Y-63066503D01*
X198033427Y-62978842D01*
X198009397Y-62920827D01*
X198009390Y-62920814D01*
X197921789Y-62789711D01*
X197921786Y-62789707D01*
X197810292Y-62678213D01*
X197810288Y-62678210D01*
X197679185Y-62590609D01*
X197679172Y-62590602D01*
X197533501Y-62530264D01*
X197533489Y-62530261D01*
X197378845Y-62499500D01*
X197378842Y-62499500D01*
X197221158Y-62499500D01*
X197221155Y-62499500D01*
X197066510Y-62530261D01*
X197066498Y-62530264D01*
X196920827Y-62590602D01*
X196920814Y-62590609D01*
X196789711Y-62678210D01*
X196789707Y-62678213D01*
X196678213Y-62789707D01*
X196678210Y-62789711D01*
X196590609Y-62920814D01*
X196590602Y-62920827D01*
X196530264Y-63066498D01*
X196530261Y-63066510D01*
X196499500Y-63221153D01*
X182372193Y-63221153D01*
X182373158Y-63216301D01*
X182378216Y-63190874D01*
X182378216Y-63190873D01*
X182400499Y-63078846D01*
X182400500Y-63078844D01*
X182400500Y-62921155D01*
X182400499Y-62921153D01*
X182399037Y-62913803D01*
X182369737Y-62766503D01*
X182336678Y-62686690D01*
X182309397Y-62620827D01*
X182309393Y-62620820D01*
X182309389Y-62620814D01*
X182241284Y-62518888D01*
X182220408Y-62452214D01*
X182238892Y-62384834D01*
X182241257Y-62381152D01*
X182309394Y-62279179D01*
X182369737Y-62133497D01*
X182400500Y-61978842D01*
X182400500Y-61821158D01*
X182400500Y-61821155D01*
X182400499Y-61821153D01*
X182374215Y-61689012D01*
X182370208Y-61668872D01*
X215999500Y-61668872D01*
X215999500Y-61931127D01*
X216021668Y-62099500D01*
X216033730Y-62191116D01*
X216086942Y-62389707D01*
X216101602Y-62444418D01*
X216101605Y-62444428D01*
X216201953Y-62686690D01*
X216201958Y-62686700D01*
X216333075Y-62913803D01*
X216492718Y-63121851D01*
X216492726Y-63121860D01*
X216678140Y-63307274D01*
X216678148Y-63307281D01*
X216886196Y-63466924D01*
X217113299Y-63598041D01*
X217113309Y-63598046D01*
X217355571Y-63698394D01*
X217355581Y-63698398D01*
X217608884Y-63766270D01*
X217868880Y-63800500D01*
X217868887Y-63800500D01*
X218131113Y-63800500D01*
X218131120Y-63800500D01*
X218391116Y-63766270D01*
X218644419Y-63698398D01*
X218859286Y-63609397D01*
X218886690Y-63598046D01*
X218886691Y-63598045D01*
X218886697Y-63598043D01*
X219113803Y-63466924D01*
X219321851Y-63307282D01*
X219321855Y-63307277D01*
X219321860Y-63307274D01*
X219507274Y-63121860D01*
X219507277Y-63121855D01*
X219507282Y-63121851D01*
X219666924Y-62913803D01*
X219798043Y-62686697D01*
X219801559Y-62678210D01*
X219867550Y-62518892D01*
X219898398Y-62444419D01*
X219966270Y-62191116D01*
X220000500Y-61931120D01*
X220000500Y-61668880D01*
X219966270Y-61408884D01*
X219898398Y-61155581D01*
X219898394Y-61155571D01*
X219798046Y-60913309D01*
X219798041Y-60913299D01*
X219666924Y-60686196D01*
X219507281Y-60478148D01*
X219507274Y-60478140D01*
X219321860Y-60292726D01*
X219321851Y-60292718D01*
X219113803Y-60133075D01*
X218886700Y-60001958D01*
X218886690Y-60001953D01*
X218644428Y-59901605D01*
X218644421Y-59901603D01*
X218644419Y-59901602D01*
X218391116Y-59833730D01*
X218333339Y-59826123D01*
X218131127Y-59799500D01*
X218131120Y-59799500D01*
X217868880Y-59799500D01*
X217868872Y-59799500D01*
X217637772Y-59829926D01*
X217608884Y-59833730D01*
X217355581Y-59901602D01*
X217355571Y-59901605D01*
X217113309Y-60001953D01*
X217113299Y-60001958D01*
X216886196Y-60133075D01*
X216678148Y-60292718D01*
X216492718Y-60478148D01*
X216333075Y-60686196D01*
X216201958Y-60913299D01*
X216201953Y-60913309D01*
X216101605Y-61155571D01*
X216101602Y-61155581D01*
X216038868Y-61389711D01*
X216033730Y-61408885D01*
X215999500Y-61668872D01*
X182370208Y-61668872D01*
X182369738Y-61666508D01*
X182369737Y-61666507D01*
X182369737Y-61666503D01*
X182369735Y-61666498D01*
X182309397Y-61520827D01*
X182309390Y-61520814D01*
X182221789Y-61389711D01*
X182221786Y-61389707D01*
X182110292Y-61278213D01*
X182110288Y-61278210D01*
X181979185Y-61190609D01*
X181979172Y-61190602D01*
X181833501Y-61130264D01*
X181833489Y-61130261D01*
X181678845Y-61099500D01*
X181678842Y-61099500D01*
X181521158Y-61099500D01*
X181521155Y-61099500D01*
X181366510Y-61130261D01*
X181366498Y-61130264D01*
X181220827Y-61190602D01*
X181220814Y-61190609D01*
X181089711Y-61278210D01*
X181089707Y-61278213D01*
X180978213Y-61389707D01*
X180978210Y-61389711D01*
X180890609Y-61520814D01*
X180890602Y-61520827D01*
X180830264Y-61666498D01*
X180830261Y-61666510D01*
X180799500Y-61821153D01*
X159100499Y-61821153D01*
X159070211Y-61668886D01*
X159069737Y-61666503D01*
X159069735Y-61666498D01*
X159009397Y-61520827D01*
X159009390Y-61520814D01*
X158921789Y-61389711D01*
X158921786Y-61389707D01*
X158810292Y-61278213D01*
X158810288Y-61278210D01*
X158679185Y-61190609D01*
X158679172Y-61190602D01*
X158533501Y-61130264D01*
X158533489Y-61130261D01*
X158378845Y-61099500D01*
X158378842Y-61099500D01*
X158221158Y-61099500D01*
X158221155Y-61099500D01*
X158066510Y-61130261D01*
X158066498Y-61130264D01*
X157920827Y-61190602D01*
X157920814Y-61190609D01*
X157789711Y-61278210D01*
X157789707Y-61278213D01*
X157678213Y-61389707D01*
X157678210Y-61389711D01*
X157590609Y-61520814D01*
X157590602Y-61520827D01*
X157530264Y-61666498D01*
X157530261Y-61666510D01*
X157499500Y-61821153D01*
X144000500Y-61821153D01*
X144000500Y-61668880D01*
X143966270Y-61408884D01*
X143898398Y-61155581D01*
X143898394Y-61155571D01*
X143798046Y-60913309D01*
X143798041Y-60913299D01*
X143666924Y-60686196D01*
X143507281Y-60478148D01*
X143507274Y-60478140D01*
X143321860Y-60292726D01*
X143321851Y-60292718D01*
X143113803Y-60133075D01*
X142886700Y-60001958D01*
X142886690Y-60001953D01*
X142644428Y-59901605D01*
X142644421Y-59901603D01*
X142644419Y-59901602D01*
X142391116Y-59833730D01*
X142333339Y-59826123D01*
X142131127Y-59799500D01*
X142131120Y-59799500D01*
X141868880Y-59799500D01*
X141868872Y-59799500D01*
X141637772Y-59829926D01*
X141608884Y-59833730D01*
X141355581Y-59901602D01*
X141355571Y-59901605D01*
X141113309Y-60001953D01*
X141113299Y-60001958D01*
X140886196Y-60133075D01*
X140678148Y-60292718D01*
X140492718Y-60478148D01*
X140333075Y-60686196D01*
X140201958Y-60913299D01*
X140201953Y-60913309D01*
X140101605Y-61155571D01*
X140101602Y-61155581D01*
X140038868Y-61389711D01*
X140033730Y-61408885D01*
X139999500Y-61668872D01*
X133500500Y-61668872D01*
X133500500Y-58021153D01*
X193899500Y-58021153D01*
X193899500Y-58178846D01*
X193930261Y-58333489D01*
X193930264Y-58333501D01*
X193990602Y-58479172D01*
X193990609Y-58479185D01*
X194078210Y-58610288D01*
X194078213Y-58610292D01*
X194189707Y-58721786D01*
X194189711Y-58721789D01*
X194320814Y-58809390D01*
X194320827Y-58809397D01*
X194466498Y-58869735D01*
X194466503Y-58869737D01*
X194621153Y-58900499D01*
X194621156Y-58900500D01*
X194621158Y-58900500D01*
X194778844Y-58900500D01*
X194778845Y-58900499D01*
X194933497Y-58869737D01*
X195079179Y-58809394D01*
X195210289Y-58721789D01*
X195321789Y-58610289D01*
X195409394Y-58479179D01*
X195469737Y-58333497D01*
X195500500Y-58178842D01*
X195500500Y-58021158D01*
X195500500Y-58021155D01*
X195500499Y-58021153D01*
X196499500Y-58021153D01*
X196499500Y-58178846D01*
X196530261Y-58333489D01*
X196530264Y-58333501D01*
X196590602Y-58479172D01*
X196590609Y-58479185D01*
X196678210Y-58610288D01*
X196678213Y-58610292D01*
X196789707Y-58721786D01*
X196789711Y-58721789D01*
X196920814Y-58809390D01*
X196920827Y-58809397D01*
X197066498Y-58869735D01*
X197066503Y-58869737D01*
X197221153Y-58900499D01*
X197221156Y-58900500D01*
X197221158Y-58900500D01*
X197378844Y-58900500D01*
X197378845Y-58900499D01*
X197533497Y-58869737D01*
X197652548Y-58820425D01*
X197722017Y-58812956D01*
X197747453Y-58820425D01*
X197866503Y-58869737D01*
X198021153Y-58900499D01*
X198021156Y-58900500D01*
X198021158Y-58900500D01*
X198178844Y-58900500D01*
X198178845Y-58900499D01*
X198333497Y-58869737D01*
X198479179Y-58809394D01*
X198610289Y-58721789D01*
X198721789Y-58610289D01*
X198809394Y-58479179D01*
X198869737Y-58333497D01*
X198900500Y-58178842D01*
X198900500Y-58021158D01*
X198900500Y-58021155D01*
X198884209Y-57939258D01*
X198884209Y-57939257D01*
X198880608Y-57921153D01*
X200299500Y-57921153D01*
X200299500Y-58078846D01*
X200330261Y-58233489D01*
X200330264Y-58233501D01*
X200390602Y-58379172D01*
X200390609Y-58379185D01*
X200478210Y-58510288D01*
X200478213Y-58510292D01*
X200589707Y-58621786D01*
X200589711Y-58621789D01*
X200720814Y-58709390D01*
X200720827Y-58709397D01*
X200866498Y-58769735D01*
X200866503Y-58769737D01*
X200995926Y-58795481D01*
X201021153Y-58800499D01*
X201021156Y-58800500D01*
X201021158Y-58800500D01*
X201178844Y-58800500D01*
X201178845Y-58800499D01*
X201333497Y-58769737D01*
X201479179Y-58709394D01*
X201610289Y-58621789D01*
X201721789Y-58510289D01*
X201809394Y-58379179D01*
X201869737Y-58233497D01*
X201900500Y-58078842D01*
X201900500Y-57921158D01*
X201900500Y-57921155D01*
X201900499Y-57921153D01*
X201869738Y-57766510D01*
X201869737Y-57766503D01*
X201850812Y-57720814D01*
X201809397Y-57620827D01*
X201809390Y-57620814D01*
X201721789Y-57489711D01*
X201721786Y-57489707D01*
X201610292Y-57378213D01*
X201610288Y-57378210D01*
X201479185Y-57290609D01*
X201479172Y-57290602D01*
X201333501Y-57230264D01*
X201333489Y-57230261D01*
X201178845Y-57199500D01*
X201178842Y-57199500D01*
X201021158Y-57199500D01*
X201021155Y-57199500D01*
X200866510Y-57230261D01*
X200866498Y-57230264D01*
X200720827Y-57290602D01*
X200720814Y-57290609D01*
X200589711Y-57378210D01*
X200589707Y-57378213D01*
X200478213Y-57489707D01*
X200478210Y-57489711D01*
X200390609Y-57620814D01*
X200390602Y-57620827D01*
X200330264Y-57766498D01*
X200330261Y-57766510D01*
X200299500Y-57921153D01*
X198880608Y-57921153D01*
X198869738Y-57866510D01*
X198869737Y-57866503D01*
X198828314Y-57766498D01*
X198809397Y-57720827D01*
X198809390Y-57720814D01*
X198721789Y-57589711D01*
X198721786Y-57589707D01*
X198610292Y-57478213D01*
X198610288Y-57478210D01*
X198479185Y-57390609D01*
X198479172Y-57390602D01*
X198333501Y-57330264D01*
X198333489Y-57330261D01*
X198178845Y-57299500D01*
X198178842Y-57299500D01*
X198021158Y-57299500D01*
X198021155Y-57299500D01*
X197866510Y-57330261D01*
X197866498Y-57330264D01*
X197747452Y-57379574D01*
X197677982Y-57387043D01*
X197652548Y-57379574D01*
X197533501Y-57330264D01*
X197533489Y-57330261D01*
X197378845Y-57299500D01*
X197378842Y-57299500D01*
X197221158Y-57299500D01*
X197221155Y-57299500D01*
X197066510Y-57330261D01*
X197066498Y-57330264D01*
X196920827Y-57390602D01*
X196920814Y-57390609D01*
X196789711Y-57478210D01*
X196789707Y-57478213D01*
X196678213Y-57589707D01*
X196678210Y-57589711D01*
X196590609Y-57720814D01*
X196590602Y-57720827D01*
X196530264Y-57866498D01*
X196530261Y-57866510D01*
X196499500Y-58021153D01*
X195500499Y-58021153D01*
X195484209Y-57939257D01*
X195469737Y-57866503D01*
X195428314Y-57766498D01*
X195409397Y-57720827D01*
X195409390Y-57720814D01*
X195321789Y-57589711D01*
X195321786Y-57589707D01*
X195210292Y-57478213D01*
X195210288Y-57478210D01*
X195079185Y-57390609D01*
X195079172Y-57390602D01*
X194933501Y-57330264D01*
X194933489Y-57330261D01*
X194778845Y-57299500D01*
X194778842Y-57299500D01*
X194621158Y-57299500D01*
X194621155Y-57299500D01*
X194466510Y-57330261D01*
X194466498Y-57330264D01*
X194320827Y-57390602D01*
X194320814Y-57390609D01*
X194189711Y-57478210D01*
X194189707Y-57478213D01*
X194078213Y-57589707D01*
X194078210Y-57589711D01*
X193990609Y-57720814D01*
X193990602Y-57720827D01*
X193930264Y-57866498D01*
X193930261Y-57866510D01*
X193899500Y-58021153D01*
X133500500Y-58021153D01*
X133500500Y-55821153D01*
X181999500Y-55821153D01*
X181999500Y-55978846D01*
X182030261Y-56133489D01*
X182030264Y-56133501D01*
X182090602Y-56279172D01*
X182090609Y-56279185D01*
X182178210Y-56410288D01*
X182178213Y-56410292D01*
X182289707Y-56521786D01*
X182289711Y-56521789D01*
X182420814Y-56609390D01*
X182420827Y-56609397D01*
X182566498Y-56669735D01*
X182566503Y-56669737D01*
X182721153Y-56700499D01*
X182721156Y-56700500D01*
X182721158Y-56700500D01*
X182878844Y-56700500D01*
X182878845Y-56700499D01*
X183033497Y-56669737D01*
X183179179Y-56609394D01*
X183310289Y-56521789D01*
X183421789Y-56410289D01*
X183509394Y-56279179D01*
X183569737Y-56133497D01*
X183600500Y-55978842D01*
X183600500Y-55821158D01*
X183600500Y-55821155D01*
X183600499Y-55821153D01*
X193899500Y-55821153D01*
X193899500Y-55978846D01*
X193930261Y-56133489D01*
X193930264Y-56133501D01*
X193990602Y-56279172D01*
X193990609Y-56279185D01*
X194078210Y-56410288D01*
X194078213Y-56410292D01*
X194189707Y-56521786D01*
X194189711Y-56521789D01*
X194320814Y-56609390D01*
X194320827Y-56609397D01*
X194466498Y-56669735D01*
X194466503Y-56669737D01*
X194621153Y-56700499D01*
X194621156Y-56700500D01*
X194621158Y-56700500D01*
X194778844Y-56700500D01*
X194778845Y-56700499D01*
X194933497Y-56669737D01*
X195079179Y-56609394D01*
X195210289Y-56521789D01*
X195321789Y-56410289D01*
X195409394Y-56279179D01*
X195469737Y-56133497D01*
X195500500Y-55978842D01*
X195500500Y-55821158D01*
X195500500Y-55821155D01*
X195500499Y-55821153D01*
X196499500Y-55821153D01*
X196499500Y-55978846D01*
X196530261Y-56133489D01*
X196530264Y-56133501D01*
X196590602Y-56279172D01*
X196590609Y-56279185D01*
X196678210Y-56410288D01*
X196678213Y-56410292D01*
X196789707Y-56521786D01*
X196789711Y-56521789D01*
X196920814Y-56609390D01*
X196920827Y-56609397D01*
X197066498Y-56669735D01*
X197066503Y-56669737D01*
X197221153Y-56700499D01*
X197221156Y-56700500D01*
X197221158Y-56700500D01*
X197378844Y-56700500D01*
X197378845Y-56700499D01*
X197533497Y-56669737D01*
X197652548Y-56620425D01*
X197722017Y-56612956D01*
X197747453Y-56620425D01*
X197866503Y-56669737D01*
X198021153Y-56700499D01*
X198021156Y-56700500D01*
X198021158Y-56700500D01*
X198178844Y-56700500D01*
X198178845Y-56700499D01*
X198333497Y-56669737D01*
X198479179Y-56609394D01*
X198610289Y-56521789D01*
X198721789Y-56410289D01*
X198809394Y-56279179D01*
X198869737Y-56133497D01*
X198900500Y-55978842D01*
X198900500Y-55921153D01*
X200299500Y-55921153D01*
X200299500Y-56078846D01*
X200330261Y-56233489D01*
X200330264Y-56233501D01*
X200390602Y-56379172D01*
X200390609Y-56379185D01*
X200478210Y-56510288D01*
X200478213Y-56510292D01*
X200589707Y-56621786D01*
X200589711Y-56621789D01*
X200720814Y-56709390D01*
X200720827Y-56709397D01*
X200866498Y-56769735D01*
X200866503Y-56769737D01*
X201021153Y-56800499D01*
X201021156Y-56800500D01*
X201021158Y-56800500D01*
X201178844Y-56800500D01*
X201178845Y-56800499D01*
X201333497Y-56769737D01*
X201479179Y-56709394D01*
X201610289Y-56621789D01*
X201721789Y-56510289D01*
X201809394Y-56379179D01*
X201869737Y-56233497D01*
X201900500Y-56078842D01*
X201900500Y-55921158D01*
X201900500Y-55921155D01*
X201900499Y-55921153D01*
X201896104Y-55899056D01*
X201869737Y-55766503D01*
X201826306Y-55661650D01*
X201809397Y-55620827D01*
X201809390Y-55620814D01*
X201721789Y-55489711D01*
X201721786Y-55489707D01*
X201610292Y-55378213D01*
X201610288Y-55378210D01*
X201479185Y-55290609D01*
X201479172Y-55290602D01*
X201333501Y-55230264D01*
X201333489Y-55230261D01*
X201178845Y-55199500D01*
X201178842Y-55199500D01*
X201021158Y-55199500D01*
X201021155Y-55199500D01*
X200866510Y-55230261D01*
X200866498Y-55230264D01*
X200720827Y-55290602D01*
X200720814Y-55290609D01*
X200589711Y-55378210D01*
X200589707Y-55378213D01*
X200478213Y-55489707D01*
X200478210Y-55489711D01*
X200390609Y-55620814D01*
X200390602Y-55620827D01*
X200330264Y-55766498D01*
X200330261Y-55766510D01*
X200299500Y-55921153D01*
X198900500Y-55921153D01*
X198900500Y-55821158D01*
X198900500Y-55821155D01*
X198900499Y-55821153D01*
X198878447Y-55710292D01*
X198869737Y-55666503D01*
X198833569Y-55579185D01*
X198809397Y-55520827D01*
X198809390Y-55520814D01*
X198721789Y-55389711D01*
X198721786Y-55389707D01*
X198610292Y-55278213D01*
X198610288Y-55278210D01*
X198479185Y-55190609D01*
X198479172Y-55190602D01*
X198333501Y-55130264D01*
X198333489Y-55130261D01*
X198287701Y-55121153D01*
X206499500Y-55121153D01*
X206499500Y-55278846D01*
X206530261Y-55433489D01*
X206530264Y-55433501D01*
X206590602Y-55579172D01*
X206590609Y-55579185D01*
X206678210Y-55710288D01*
X206678213Y-55710292D01*
X206789707Y-55821786D01*
X206789711Y-55821789D01*
X206920814Y-55909390D01*
X206920827Y-55909397D01*
X207066498Y-55969735D01*
X207066503Y-55969737D01*
X207221153Y-56000499D01*
X207221156Y-56000500D01*
X207221158Y-56000500D01*
X207378844Y-56000500D01*
X207378845Y-56000499D01*
X207533497Y-55969737D01*
X207679179Y-55909394D01*
X207810289Y-55821789D01*
X207921789Y-55710289D01*
X208009394Y-55579179D01*
X208069737Y-55433497D01*
X208100500Y-55278842D01*
X208100500Y-55121158D01*
X208095041Y-55093713D01*
X208409500Y-55093713D01*
X208409500Y-55306286D01*
X208438551Y-55489711D01*
X208442754Y-55516243D01*
X208505803Y-55710288D01*
X208508444Y-55718414D01*
X208604951Y-55907820D01*
X208729890Y-56079786D01*
X208880213Y-56230109D01*
X209052179Y-56355048D01*
X209052181Y-56355049D01*
X209052184Y-56355051D01*
X209241588Y-56451557D01*
X209443757Y-56517246D01*
X209653713Y-56550500D01*
X209653714Y-56550500D01*
X209866286Y-56550500D01*
X209866287Y-56550500D01*
X210076243Y-56517246D01*
X210278412Y-56451557D01*
X210467816Y-56355051D01*
X210572255Y-56279172D01*
X210639784Y-56230110D01*
X210639784Y-56230109D01*
X210639792Y-56230104D01*
X210753329Y-56116566D01*
X210814648Y-56083084D01*
X210884340Y-56088068D01*
X210940274Y-56129939D01*
X210957189Y-56160917D01*
X211006202Y-56292328D01*
X211006206Y-56292335D01*
X211092452Y-56407544D01*
X211092455Y-56407547D01*
X211207664Y-56493793D01*
X211207671Y-56493797D01*
X211342517Y-56544091D01*
X211342516Y-56544091D01*
X211349444Y-56544835D01*
X211402127Y-56550500D01*
X213197872Y-56550499D01*
X213257483Y-56544091D01*
X213392331Y-56493796D01*
X213507546Y-56407546D01*
X213593796Y-56292331D01*
X213644091Y-56157483D01*
X213650500Y-56097873D01*
X213650499Y-54302135D01*
X214709500Y-54302135D01*
X214709500Y-56097870D01*
X214709501Y-56097876D01*
X214715908Y-56157483D01*
X214766202Y-56292328D01*
X214766206Y-56292335D01*
X214852452Y-56407544D01*
X214852455Y-56407547D01*
X214967664Y-56493793D01*
X214967671Y-56493797D01*
X215102517Y-56544091D01*
X215102516Y-56544091D01*
X215109444Y-56544835D01*
X215162127Y-56550500D01*
X216957872Y-56550499D01*
X217017483Y-56544091D01*
X217152331Y-56493796D01*
X217267546Y-56407546D01*
X217353796Y-56292331D01*
X217402810Y-56160916D01*
X217444681Y-56104984D01*
X217510145Y-56080566D01*
X217578418Y-56095417D01*
X217606673Y-56116569D01*
X217720213Y-56230109D01*
X217892179Y-56355048D01*
X217892181Y-56355049D01*
X217892184Y-56355051D01*
X218081588Y-56451557D01*
X218283757Y-56517246D01*
X218493713Y-56550500D01*
X218493714Y-56550500D01*
X218706286Y-56550500D01*
X218706287Y-56550500D01*
X218916243Y-56517246D01*
X219118412Y-56451557D01*
X219307816Y-56355051D01*
X219394138Y-56292335D01*
X219479786Y-56230109D01*
X219479788Y-56230106D01*
X219479792Y-56230104D01*
X219630104Y-56079792D01*
X219630106Y-56079788D01*
X219630109Y-56079786D01*
X219753902Y-55909397D01*
X219755051Y-55907816D01*
X219759514Y-55899054D01*
X219807488Y-55848259D01*
X219875308Y-55831463D01*
X219941444Y-55853999D01*
X219980486Y-55899056D01*
X219984951Y-55907820D01*
X220109890Y-56079786D01*
X220260213Y-56230109D01*
X220432179Y-56355048D01*
X220432181Y-56355049D01*
X220432184Y-56355051D01*
X220621588Y-56451557D01*
X220823757Y-56517246D01*
X221033713Y-56550500D01*
X221033714Y-56550500D01*
X221246286Y-56550500D01*
X221246287Y-56550500D01*
X221456243Y-56517246D01*
X221658412Y-56451557D01*
X221847816Y-56355051D01*
X221934138Y-56292335D01*
X222019786Y-56230109D01*
X222019788Y-56230106D01*
X222019792Y-56230104D01*
X222170104Y-56079792D01*
X222170106Y-56079788D01*
X222170109Y-56079786D01*
X222297915Y-55903875D01*
X222299923Y-55905334D01*
X222343976Y-55865188D01*
X222412864Y-55853517D01*
X222467187Y-55873557D01*
X222520812Y-55909389D01*
X222520827Y-55909397D01*
X222666498Y-55969735D01*
X222666503Y-55969737D01*
X222821153Y-56000499D01*
X222821156Y-56000500D01*
X222821158Y-56000500D01*
X222978844Y-56000500D01*
X222978845Y-56000499D01*
X223133497Y-55969737D01*
X223279179Y-55909394D01*
X223410289Y-55821789D01*
X223521789Y-55710289D01*
X223609394Y-55579179D01*
X223669737Y-55433497D01*
X223700500Y-55278842D01*
X223700500Y-55121158D01*
X223700500Y-55121155D01*
X223700499Y-55121153D01*
X223669738Y-54966510D01*
X223669737Y-54966503D01*
X223635463Y-54883757D01*
X223609397Y-54820827D01*
X223609390Y-54820814D01*
X223521789Y-54689711D01*
X223521786Y-54689707D01*
X223410292Y-54578213D01*
X223410288Y-54578210D01*
X223279185Y-54490609D01*
X223279172Y-54490602D01*
X223133501Y-54430264D01*
X223133489Y-54430261D01*
X222978845Y-54399500D01*
X222978842Y-54399500D01*
X222821158Y-54399500D01*
X222821155Y-54399500D01*
X222666510Y-54430261D01*
X222666498Y-54430264D01*
X222520827Y-54490602D01*
X222520814Y-54490609D01*
X222467186Y-54526443D01*
X222400508Y-54547321D01*
X222333128Y-54528836D01*
X222299419Y-54495032D01*
X222297915Y-54496125D01*
X222170109Y-54320213D01*
X222019786Y-54169890D01*
X221847820Y-54044951D01*
X221658414Y-53948444D01*
X221658413Y-53948443D01*
X221658412Y-53948443D01*
X221456243Y-53882754D01*
X221456241Y-53882753D01*
X221456240Y-53882753D01*
X221294957Y-53857208D01*
X221246287Y-53849500D01*
X221033713Y-53849500D01*
X220985042Y-53857208D01*
X220823760Y-53882753D01*
X220621585Y-53948444D01*
X220432179Y-54044951D01*
X220260213Y-54169890D01*
X220109890Y-54320213D01*
X219984949Y-54492182D01*
X219980484Y-54500946D01*
X219932509Y-54551742D01*
X219864688Y-54568536D01*
X219798553Y-54545998D01*
X219759516Y-54500946D01*
X219755050Y-54492182D01*
X219630109Y-54320213D01*
X219479786Y-54169890D01*
X219307820Y-54044951D01*
X219118414Y-53948444D01*
X219118413Y-53948443D01*
X219118412Y-53948443D01*
X218916243Y-53882754D01*
X218916241Y-53882753D01*
X218916240Y-53882753D01*
X218754957Y-53857208D01*
X218706287Y-53849500D01*
X218493713Y-53849500D01*
X218445042Y-53857208D01*
X218283760Y-53882753D01*
X218081585Y-53948444D01*
X217892179Y-54044951D01*
X217720215Y-54169889D01*
X217606673Y-54283431D01*
X217545350Y-54316915D01*
X217475658Y-54311931D01*
X217419725Y-54270059D01*
X217402810Y-54239082D01*
X217353797Y-54107671D01*
X217353793Y-54107664D01*
X217267547Y-53992455D01*
X217267544Y-53992452D01*
X217152335Y-53906206D01*
X217152328Y-53906202D01*
X217017482Y-53855908D01*
X217017483Y-53855908D01*
X216957883Y-53849501D01*
X216957881Y-53849500D01*
X216957873Y-53849500D01*
X216957864Y-53849500D01*
X215162129Y-53849500D01*
X215162123Y-53849501D01*
X215102516Y-53855908D01*
X214967671Y-53906202D01*
X214967664Y-53906206D01*
X214852455Y-53992452D01*
X214852452Y-53992455D01*
X214766206Y-54107664D01*
X214766202Y-54107671D01*
X214715908Y-54242517D01*
X214709501Y-54302116D01*
X214709500Y-54302135D01*
X213650499Y-54302135D01*
X213650499Y-54302128D01*
X213644091Y-54242517D01*
X213642810Y-54239083D01*
X213593797Y-54107671D01*
X213593793Y-54107664D01*
X213507547Y-53992455D01*
X213507544Y-53992452D01*
X213392335Y-53906206D01*
X213392328Y-53906202D01*
X213257482Y-53855908D01*
X213257483Y-53855908D01*
X213197883Y-53849501D01*
X213197881Y-53849500D01*
X213197873Y-53849500D01*
X213197864Y-53849500D01*
X211402129Y-53849500D01*
X211402123Y-53849501D01*
X211342516Y-53855908D01*
X211207671Y-53906202D01*
X211207664Y-53906206D01*
X211092455Y-53992452D01*
X211092452Y-53992455D01*
X211006206Y-54107664D01*
X211006203Y-54107669D01*
X210957189Y-54239083D01*
X210915317Y-54295016D01*
X210849853Y-54319433D01*
X210781580Y-54304581D01*
X210753326Y-54283430D01*
X210639786Y-54169890D01*
X210467820Y-54044951D01*
X210278414Y-53948444D01*
X210278413Y-53948443D01*
X210278412Y-53948443D01*
X210076243Y-53882754D01*
X210076241Y-53882753D01*
X210076240Y-53882753D01*
X209914957Y-53857208D01*
X209866287Y-53849500D01*
X209653713Y-53849500D01*
X209605042Y-53857208D01*
X209443760Y-53882753D01*
X209241585Y-53948444D01*
X209052179Y-54044951D01*
X208880213Y-54169890D01*
X208729890Y-54320213D01*
X208604951Y-54492179D01*
X208508444Y-54681585D01*
X208442753Y-54883760D01*
X208409500Y-55093713D01*
X208095041Y-55093713D01*
X208069737Y-54966503D01*
X208035463Y-54883757D01*
X208009397Y-54820827D01*
X208009390Y-54820814D01*
X207921789Y-54689711D01*
X207921786Y-54689707D01*
X207810292Y-54578213D01*
X207810288Y-54578210D01*
X207679185Y-54490609D01*
X207679172Y-54490602D01*
X207533501Y-54430264D01*
X207533489Y-54430261D01*
X207378845Y-54399500D01*
X207378842Y-54399500D01*
X207221158Y-54399500D01*
X207221155Y-54399500D01*
X207066510Y-54430261D01*
X207066498Y-54430264D01*
X206920827Y-54490602D01*
X206920814Y-54490609D01*
X206789711Y-54578210D01*
X206789707Y-54578213D01*
X206678213Y-54689707D01*
X206678210Y-54689711D01*
X206590609Y-54820814D01*
X206590602Y-54820827D01*
X206530264Y-54966498D01*
X206530261Y-54966510D01*
X206499500Y-55121153D01*
X198287701Y-55121153D01*
X198178845Y-55099500D01*
X198178842Y-55099500D01*
X198021158Y-55099500D01*
X198021155Y-55099500D01*
X197866510Y-55130261D01*
X197866498Y-55130264D01*
X197747452Y-55179574D01*
X197677982Y-55187043D01*
X197652548Y-55179574D01*
X197533501Y-55130264D01*
X197533489Y-55130261D01*
X197378845Y-55099500D01*
X197378842Y-55099500D01*
X197221158Y-55099500D01*
X197221155Y-55099500D01*
X197066510Y-55130261D01*
X197066498Y-55130264D01*
X196920827Y-55190602D01*
X196920814Y-55190609D01*
X196789711Y-55278210D01*
X196789707Y-55278213D01*
X196678213Y-55389707D01*
X196678210Y-55389711D01*
X196590609Y-55520814D01*
X196590602Y-55520827D01*
X196530264Y-55666498D01*
X196530261Y-55666510D01*
X196499500Y-55821153D01*
X195500499Y-55821153D01*
X195478447Y-55710292D01*
X195469737Y-55666503D01*
X195433569Y-55579185D01*
X195409397Y-55520827D01*
X195409390Y-55520814D01*
X195321789Y-55389711D01*
X195321786Y-55389707D01*
X195210292Y-55278213D01*
X195210288Y-55278210D01*
X195079185Y-55190609D01*
X195079172Y-55190602D01*
X194933501Y-55130264D01*
X194933489Y-55130261D01*
X194778845Y-55099500D01*
X194778842Y-55099500D01*
X194621158Y-55099500D01*
X194621155Y-55099500D01*
X194466510Y-55130261D01*
X194466498Y-55130264D01*
X194320827Y-55190602D01*
X194320814Y-55190609D01*
X194189711Y-55278210D01*
X194189707Y-55278213D01*
X194078213Y-55389707D01*
X194078210Y-55389711D01*
X193990609Y-55520814D01*
X193990602Y-55520827D01*
X193930264Y-55666498D01*
X193930261Y-55666510D01*
X193899500Y-55821153D01*
X183600499Y-55821153D01*
X183578447Y-55710292D01*
X183569737Y-55666503D01*
X183533569Y-55579185D01*
X183509397Y-55520827D01*
X183509390Y-55520814D01*
X183421789Y-55389711D01*
X183421786Y-55389707D01*
X183310292Y-55278213D01*
X183310288Y-55278210D01*
X183179185Y-55190609D01*
X183179172Y-55190602D01*
X183033501Y-55130264D01*
X183033489Y-55130261D01*
X182878845Y-55099500D01*
X182878842Y-55099500D01*
X182721158Y-55099500D01*
X182721155Y-55099500D01*
X182566510Y-55130261D01*
X182566498Y-55130264D01*
X182420827Y-55190602D01*
X182420814Y-55190609D01*
X182289711Y-55278210D01*
X182289707Y-55278213D01*
X182178213Y-55389707D01*
X182178210Y-55389711D01*
X182090609Y-55520814D01*
X182090602Y-55520827D01*
X182030264Y-55666498D01*
X182030261Y-55666510D01*
X181999500Y-55821153D01*
X133500500Y-55821153D01*
X133500500Y-52624500D01*
X133520185Y-52557461D01*
X133572989Y-52511706D01*
X133624500Y-52500500D01*
X224375500Y-52500500D01*
X224442539Y-52520185D01*
G37*
%TD.AperFunction*%
%TD*%
M02*
