M48
; DRILL file KiCad 10.0.3 date 2026-09-27T23:05:35
; FORMAT={-:-/ absolute / metric / decimal}
; #@! TF.CreationDate,2026-09-27T23:05:35+08:00
; #@! TF.GenerationSoftware,Kicad,Pcbnew,10.0.3
; #@! TF.FileFunction,Plated,1,4,PTH
FMAT,2
METRIC
; #@! TA.AperFunction,Plated,PTH,ViaDrill
T1C0.300
; #@! TA.AperFunction,Plated,PTH,ComponentDrill
T2C0.400
; #@! TA.AperFunction,Plated,PTH,ComponentDrill
T3C0.600
; #@! TA.AperFunction,Plated,PTH,ComponentDrill
T4C1.000
; #@! TA.AperFunction,Plated,PTH,ComponentDrill
T5C1.020
; #@! TA.AperFunction,Plated,PTH,ComponentDrill
T6C3.000
%
G90
G05
T1
X139.39Y-100.31
X139.47Y-97.77
X146.3Y-77.45
X154.332Y-65.432
X155.31Y-74.91
X155.5Y-65.0
X155.6Y-63.3
X155.81Y-82.91
X156.5Y-71.3
X156.6Y-75.3
X157.0Y-69.5
X158.3Y-61.9
X158.3Y-63.0
X158.3Y-69.7
X158.4Y-75.75
X159.2Y-88.9
X159.77Y-85.43
X160.7Y-63.9
X161.0Y-85.4
X161.15Y-62.9
X161.45Y-77.45
X161.8Y-102.5
X162.0Y-62.9
X162.8Y-78.3
X162.85Y-62.9
X164.2Y-98.0
X164.55Y-62.9
X164.9Y-78.8
X165.3Y-91.4
X165.3Y-92.6
X165.3Y-96.9
X165.4Y-62.9
X166.2Y-104.4
X166.25Y-62.95
X167.1Y-62.9
X167.8Y-108.0
X167.95Y-62.95
X168.1Y-105.2
X168.7Y-101.5
X168.8Y-63.0
X169.65Y-62.95
X170.0Y-98.9
X170.2Y-99.7
X170.3Y-91.7
X170.5Y-62.9
X170.525Y-106.0
X171.35Y-62.95
X172.075Y-98.925
X172.1Y-96.4
X172.2Y-63.0
X173.05Y-62.95
X173.9Y-62.9
X174.75Y-62.85
X175.6Y-62.9
X176.45Y-62.85
X176.475Y-102.375
X177.3Y-62.9
X177.9Y-87.6
X177.9Y-89.9
X178.15Y-62.85
X178.225Y-94.275
X178.8Y-87.6
X178.9Y-89.9
X179.0Y-62.9
X179.0Y-85.5
X179.4Y-103.4
X179.6Y-87.6
X179.8Y-89.9
X180.4Y-85.5
X180.7Y-89.9
X180.8Y-104.6
X181.55Y-97.6
X181.6Y-61.9
X181.6Y-63.0
X181.75Y-72.35
X181.9Y-83.3
X182.3Y-96.2
X182.3Y-101.1
X182.8Y-55.9
X182.8Y-67.7
X182.8Y-68.8
X182.8Y-69.9
X183.067Y-103.0
X183.2Y-93.9
X183.4Y-101.3
X185.0Y-106.0
X186.525Y-106.075
X187.3Y-84.2
X187.9Y-93.9
X187.9Y-95.4
X188.025Y-106.125
X189.4Y-106.1
X194.7Y-55.9
X194.7Y-58.1
X195.3Y-107.5
X195.575Y-106.2
X197.3Y-55.9
X197.3Y-58.1
X197.3Y-63.3
X198.1Y-55.9
X198.1Y-58.1
X201.1Y-56.0
X201.1Y-58.0
X202.47Y-85.07
X205.63Y-82.53
X207.3Y-55.2
X208.59Y-79.99
X213.757Y-68.1
X221.607Y-69.5
X222.9Y-55.2
T2
X170.525Y-103.675
X170.525Y-105.025
X171.375Y-103.675
X171.375Y-105.025
X172.225Y-103.675
X172.225Y-105.025
X173.075Y-103.675
X173.075Y-105.025
X173.925Y-103.675
X173.925Y-105.025
X174.775Y-103.675
X174.775Y-105.025
X175.625Y-103.675
X175.625Y-105.025
X176.475Y-103.675
X176.475Y-105.025
T4
X209.76Y-55.2
X212.3Y-55.2
X216.06Y-55.2
X218.6Y-55.2
X221.14Y-55.2
T5
X137.08Y-67.29
X137.08Y-69.83
X137.08Y-72.37
X137.08Y-74.91
X137.08Y-77.45
X137.08Y-79.99
X137.08Y-82.53
X137.08Y-85.07
X137.08Y-87.61
X137.08Y-90.15
X137.08Y-92.69
X137.08Y-95.23
X137.08Y-97.77
X137.08Y-100.31
X218.08Y-79.99
X218.08Y-82.53
X218.08Y-85.07
X218.08Y-87.61
T6
X142.0Y-61.8
X142.0Y-105.8
X218.0Y-61.8
X218.0Y-105.8
T3
G00X169.175Y-103.905
M15
G01X169.175Y-105.405
M16
G05
G00X169.175Y-107.635
M15
G01X169.175Y-108.435
M16
G05
G00X177.825Y-103.905
M15
G01X177.825Y-105.405
M16
G05
G00X177.825Y-107.635
M15
G01X177.825Y-108.435
M16
G05
M30
