%TF.GenerationSoftware,KiCad,Pcbnew,10.0.3*%
%TF.CreationDate,2026-09-27T23:05:41+08:00*%
%TF.ProjectId,One Peace,4f6e6520-5065-4616-9365-2e6b69636164,rev?*%
%TF.SameCoordinates,Original*%
%TF.FileFunction,Copper,L4,Bot*%
%TF.FilePolarity,Positive*%
%FSLAX46Y46*%
G04 Gerber Fmt 4.6, Leading zero omitted, Abs format (unit mm)*
G04 Created by KiCad (PCBNEW 10.0.3) date 2026-09-27 23:05:41*
%MOMM*%
%LPD*%
G01*
G04 APERTURE LIST*
%TA.AperFunction,ComponentPad*%
%ADD10R,1.700000X1.700000*%
%TD*%
%TA.AperFunction,ComponentPad*%
%ADD11C,1.700000*%
%TD*%
%TA.AperFunction,ComponentPad*%
%ADD12C,0.700000*%
%TD*%
%TA.AperFunction,ComponentPad*%
%ADD13O,0.900000X2.400000*%
%TD*%
%TA.AperFunction,ComponentPad*%
%ADD14O,0.900000X1.700000*%
%TD*%
%TA.AperFunction,ComponentPad*%
%ADD15R,1.800000X1.800000*%
%TD*%
%TA.AperFunction,ComponentPad*%
%ADD16C,1.800000*%
%TD*%
%TA.AperFunction,ComponentPad*%
%ADD17C,3.000000*%
%TD*%
%TA.AperFunction,ViaPad*%
%ADD18C,0.600000*%
%TD*%
%TA.AperFunction,Conductor*%
%ADD19C,0.450000*%
%TD*%
%TA.AperFunction,Conductor*%
%ADD20C,0.350000*%
%TD*%
%TA.AperFunction,Conductor*%
%ADD21C,0.500000*%
%TD*%
%TA.AperFunction,Conductor*%
%ADD22C,0.200000*%
%TD*%
%TA.AperFunction,Conductor*%
%ADD23C,0.400000*%
%TD*%
%TA.AperFunction,Conductor*%
%ADD24C,1.000000*%
%TD*%
G04 APERTURE END LIST*
D10*
%TO.P,M1,1,PWM_1*%
%TO.N,PWM*%
X216060000Y-55200000D03*
D11*
%TO.P,M1,2,+_2*%
%TO.N,+5V*%
X218600000Y-55200000D03*
%TO.P,M1,3,-_3*%
%TO.N,GND*%
X221140000Y-55200000D03*
%TD*%
D12*
%TO.P,J1,A1,GND_A1*%
%TO.N,GND*%
X170525000Y-103675000D03*
%TO.P,J1,A4,VBUS_A4*%
%TO.N,VBUS*%
X171375000Y-103675000D03*
%TO.P,J1,A5,CC1_A5*%
%TO.N,Net-(J1-CC1)*%
X172225000Y-103675000D03*
%TO.P,J1,A6,D+_A6*%
%TO.N,D+*%
X173075000Y-103675000D03*
%TO.P,J1,A7,D-_A7*%
%TO.N,D-*%
X173925000Y-103675000D03*
%TO.P,J1,A8,SBU1_A8*%
%TO.N,unconnected-(J1-SBU1-PadA8)*%
X174775000Y-103675000D03*
%TO.P,J1,A9,VBUS_A9*%
%TO.N,VBUS*%
X175625000Y-103675000D03*
%TO.P,J1,A12,GND_A12*%
%TO.N,GND*%
X176475000Y-103675000D03*
%TO.P,J1,B1,GND_B1*%
X176475000Y-105025000D03*
%TO.P,J1,B4,VBUS_B4*%
%TO.N,VBUS*%
X175625000Y-105025000D03*
%TO.P,J1,B5,CC2_B5*%
%TO.N,Net-(J1-CC2)*%
X174775000Y-105025000D03*
%TO.P,J1,B6,D+_B6*%
%TO.N,D+*%
X173925000Y-105025000D03*
%TO.P,J1,B7,D-_B7*%
%TO.N,D-*%
X173075000Y-105025000D03*
%TO.P,J1,B8,SBU2_B8*%
%TO.N,unconnected-(J1-SBU2-PadB8)*%
X172225000Y-105025000D03*
%TO.P,J1,B9,VBUS_B9*%
%TO.N,VBUS*%
X171375000Y-105025000D03*
%TO.P,J1,B12,GND_B12*%
%TO.N,GND*%
X170525000Y-105025000D03*
D13*
%TO.P,J1,SH,SHIELD_SH*%
X169175000Y-104655000D03*
D14*
X169175000Y-108035000D03*
D13*
X177825000Y-104655000D03*
D14*
X177825000Y-108035000D03*
%TD*%
D10*
%TO.P,J3,1,Pin_1_1*%
%TO.N,BAT+*%
X212300000Y-55200000D03*
D11*
%TO.P,J3,2,Pin_2_2*%
%TO.N,GND*%
X209760000Y-55200000D03*
%TD*%
D15*
%TO.P,LCD1,1,VCC_1*%
%TO.N,+3V3*%
X137080000Y-100310000D03*
D16*
%TO.P,LCD1,2,GND_2*%
%TO.N,GND*%
X137080000Y-97770000D03*
%TO.P,LCD1,3,CS_3*%
%TO.N,LCD_CS*%
X137080000Y-95230000D03*
%TO.P,LCD1,4,RST_4*%
%TO.N,RST*%
X137080000Y-92690000D03*
%TO.P,LCD1,5,D/C_5*%
%TO.N,LCD_DC*%
X137080000Y-90150000D03*
%TO.P,LCD1,6,SID_6*%
%TO.N,MOSI*%
X137080000Y-87610000D03*
%TO.P,LCD1,7,SCL_7*%
%TO.N,SCK*%
X137080000Y-85070000D03*
%TO.P,LCD1,8,LED_8*%
%TO.N,LED*%
X137080000Y-82530000D03*
%TO.P,LCD1,9,SDO_9*%
%TO.N,MISO*%
X137080000Y-79990000D03*
%TO.P,LCD1,10,CLK_10*%
%TO.N,SCK*%
X137080000Y-77450000D03*
%TO.P,LCD1,11,CS_11*%
%TO.N,TOUCH_CS*%
X137080000Y-74910000D03*
%TO.P,LCD1,12,DIN_12*%
%TO.N,MOSI*%
X137080000Y-72370000D03*
%TO.P,LCD1,13,OUT_13*%
%TO.N,MISO*%
X137080000Y-69830000D03*
%TO.P,LCD1,14,IRQ_14*%
%TO.N,unconnected-(LCD1-IRQ-Pad14)*%
X137080000Y-67290000D03*
D15*
%TO.P,LCD1,15,SD-CS_15*%
%TO.N,unconnected-(LCD1-SD-CS-Pad15)*%
X218080000Y-87610000D03*
D16*
%TO.P,LCD1,16,SD-MOSI_16*%
%TO.N,MOSI*%
X218080000Y-85070000D03*
%TO.P,LCD1,17,SD-SIMO_17*%
%TO.N,MISO*%
X218080000Y-82530000D03*
%TO.P,LCD1,18,SD-SCK_18*%
%TO.N,SCK*%
X218080000Y-79990000D03*
D17*
%TO.P,LCD1,*%
%TO.N,*%
X142000000Y-105800000D03*
X142000000Y-61800000D03*
X218000000Y-61800000D03*
X218000000Y-105800000D03*
%TD*%
D18*
%TO.N,VBUS*%
X170300000Y-91700000D03*
X165300000Y-92600000D03*
X166200000Y-104400000D03*
X165300000Y-91400000D03*
%TO.N,GND*%
X181600000Y-63000000D03*
X170200000Y-99700000D03*
X161800000Y-102500000D03*
X181600000Y-61900000D03*
X168800000Y-63000000D03*
X162850000Y-62900000D03*
X167950000Y-62950000D03*
X179000000Y-85500000D03*
X197300000Y-55900000D03*
X179600000Y-87600000D03*
X182800000Y-69900000D03*
X158300000Y-69700000D03*
X183400000Y-101300000D03*
X168100000Y-105200000D03*
X154332500Y-65432500D03*
X182800000Y-55900000D03*
X176475000Y-102375000D03*
X201100000Y-58000000D03*
X197300000Y-58100000D03*
X156500000Y-71300000D03*
X198100000Y-55900000D03*
X175600000Y-62900000D03*
X172075000Y-98925000D03*
X182800000Y-67700000D03*
X164550000Y-62900000D03*
X165400000Y-62900000D03*
X173050000Y-62950000D03*
X158300000Y-63000000D03*
X221607500Y-69500000D03*
X172200000Y-63000000D03*
X159770000Y-85430000D03*
X167100000Y-62900000D03*
X170000000Y-98900000D03*
X194700000Y-58100000D03*
X198100000Y-58100000D03*
X174750000Y-62850000D03*
X188025000Y-106125000D03*
X162000000Y-62900000D03*
X179000000Y-62900000D03*
X185000000Y-106000000D03*
X194700000Y-55900000D03*
X222900000Y-55200000D03*
X195300000Y-107500000D03*
X178800000Y-87600000D03*
X173900000Y-62900000D03*
X207300000Y-55200000D03*
X169650000Y-62950000D03*
X139470000Y-97770000D03*
X179400000Y-103400000D03*
X187900000Y-95400000D03*
X180400000Y-85500000D03*
X201100000Y-56000000D03*
X161000000Y-85400000D03*
X170500000Y-62900000D03*
X166250000Y-62950000D03*
X165300000Y-96900000D03*
X178150000Y-62850000D03*
X181900000Y-83300000D03*
X183067500Y-103000000D03*
X161150000Y-62900000D03*
X172100000Y-96400000D03*
X186525000Y-106075000D03*
X164200000Y-98000000D03*
X158300000Y-61900000D03*
X171350000Y-62950000D03*
X176450000Y-62850000D03*
X160700000Y-63900000D03*
X177300000Y-62900000D03*
X155600000Y-63300000D03*
X170525000Y-106000000D03*
X177900000Y-87600000D03*
X180800000Y-104600000D03*
X189400000Y-106100000D03*
X167800000Y-108000000D03*
X197300000Y-63300000D03*
X187900000Y-93900000D03*
%TO.N,Net-(U3-EN)*%
X182300000Y-101100000D03*
X182300000Y-96200000D03*
%TO.N,Vout*%
X183200000Y-93900000D03*
X168700000Y-101500000D03*
%TO.N,+5V*%
X181550000Y-97600000D03*
X195575000Y-106200000D03*
X178225000Y-94275000D03*
X213757107Y-68100000D03*
%TO.N,PWM*%
X181750000Y-72350000D03*
%TO.N,+3V3*%
X155500000Y-65000000D03*
X157000000Y-69500000D03*
X180700000Y-89900000D03*
X182800000Y-68800000D03*
X179800000Y-89900000D03*
X177900000Y-89900000D03*
X178900000Y-89900000D03*
X139390000Y-100310000D03*
%TO.N,TOUCH_CS*%
X155310000Y-74910000D03*
%TO.N,RST*%
X156600000Y-75300000D03*
%TO.N,LCD_CS*%
X158400000Y-75750000D03*
%TO.N,MOSI*%
X202470000Y-85070000D03*
X164900000Y-78800000D03*
%TO.N,SCK*%
X208590000Y-79990000D03*
X161450000Y-77450000D03*
X146300000Y-77450000D03*
%TO.N,MISO*%
X162800000Y-78300000D03*
X205630000Y-82530000D03*
%TO.N,LCD_DC*%
X155810000Y-82910000D03*
%TO.N,BAT+*%
X159200000Y-88900000D03*
X187300000Y-84200000D03*
%TD*%
%TO.N,VBUS*%
D19*
X166200000Y-104400000D02*
X166300000Y-104400000D01*
X167825000Y-105925000D02*
X168625000Y-106725000D01*
X167375000Y-105475000D02*
X167375000Y-105500305D01*
X168625000Y-106725000D02*
X174419974Y-106725000D01*
D20*
X169600000Y-90400000D02*
X170300000Y-91100000D01*
X165300000Y-91100000D02*
X166000000Y-90400000D01*
D19*
X174419974Y-106725000D02*
X175625000Y-105519974D01*
X166300000Y-104400000D02*
X167375000Y-105475000D01*
X175625000Y-105519974D02*
X175625000Y-105025000D01*
D20*
X165300000Y-93800000D02*
X165300000Y-92600000D01*
X166200000Y-94700000D02*
X165300000Y-93800000D01*
D19*
X171375000Y-105025000D02*
X171375000Y-103675000D01*
D20*
X170300000Y-91100000D02*
X170300000Y-91700000D01*
X166200000Y-104400000D02*
X166200000Y-94700000D01*
X166000000Y-90400000D02*
X169600000Y-90400000D01*
D19*
X175625000Y-103675000D02*
X175625000Y-105025000D01*
X167375000Y-105500305D02*
X167799695Y-105925000D01*
D20*
X165300000Y-92600000D02*
X165300000Y-91400000D01*
D19*
X167799695Y-105925000D02*
X167825000Y-105925000D01*
D20*
X165300000Y-91400000D02*
X165300000Y-91100000D01*
%TO.N,GND*%
D21*
X176475000Y-103675000D02*
X176475000Y-102375000D01*
X170525000Y-105025000D02*
X170525000Y-106000000D01*
D22*
X169175000Y-104655000D02*
X168645000Y-104655000D01*
D23*
X169175000Y-108035000D02*
X169140000Y-108000000D01*
D24*
X137080000Y-97770000D02*
X139470000Y-97770000D01*
D21*
X170525000Y-105025000D02*
X170525000Y-103675000D01*
X176475000Y-105025000D02*
X176475000Y-103675000D01*
D22*
X168645000Y-104655000D02*
X168100000Y-105200000D01*
D23*
X177825000Y-104655000D02*
X179080000Y-103400000D01*
X177825000Y-108035000D02*
X177825000Y-104655000D01*
X179080000Y-103400000D02*
X179400000Y-103400000D01*
X169140000Y-108000000D02*
X167800000Y-108000000D01*
%TO.N,Net-(U3-EN)*%
D22*
X182300000Y-96200000D02*
X182300000Y-101100000D01*
%TO.N,Vout*%
D24*
X183200000Y-93900000D02*
X181800000Y-93900000D01*
X169400000Y-97500000D02*
X168700000Y-98200000D01*
X178200000Y-97500000D02*
X169400000Y-97500000D01*
X181800000Y-93900000D02*
X178200000Y-97500000D01*
X168700000Y-98200000D02*
X168700000Y-101500000D01*
%TO.N,+5V*%
D19*
X195900000Y-105500000D02*
X195100000Y-104700000D01*
X195100000Y-104700000D02*
X183100000Y-104700000D01*
D24*
X180900000Y-91400000D02*
X178225000Y-94075000D01*
X213757107Y-68100000D02*
X213757107Y-77942893D01*
X200300000Y-91400000D02*
X180900000Y-91400000D01*
D19*
X195575000Y-106200000D02*
X195900000Y-105875000D01*
X183100000Y-104700000D02*
X181550000Y-103150000D01*
D24*
X178225000Y-94075000D02*
X178225000Y-94275000D01*
D19*
X181550000Y-103150000D02*
X181550000Y-97600000D01*
X195900000Y-105875000D02*
X195900000Y-105500000D01*
D24*
X213757107Y-77942893D02*
X200300000Y-91400000D01*
%TO.N,PWM*%
D22*
X198950000Y-72350000D02*
X216060000Y-55240000D01*
X216060000Y-55240000D02*
X216060000Y-55200000D01*
X181750000Y-72350000D02*
X198950000Y-72350000D01*
%TO.N,+3V3*%
D24*
X137080000Y-100310000D02*
X139390000Y-100310000D01*
%TO.N,TOUCH_CS*%
D22*
X155310000Y-74910000D02*
X137080000Y-74910000D01*
%TO.N,RST*%
X149510000Y-92690000D02*
X137080000Y-92690000D01*
X156600000Y-85600000D02*
X149510000Y-92690000D01*
X156600000Y-75300000D02*
X156600000Y-85600000D01*
%TO.N,LCD_CS*%
X157600000Y-87400000D02*
X149770000Y-95230000D01*
X157600000Y-76550000D02*
X157600000Y-87400000D01*
X149770000Y-95230000D02*
X137080000Y-95230000D01*
X158400000Y-75750000D02*
X157600000Y-76550000D01*
%TO.N,MOSI*%
X164900000Y-78800000D02*
X167300000Y-81200000D01*
X198600000Y-81200000D02*
X202470000Y-85070000D01*
X135400000Y-85930000D02*
X137080000Y-87610000D01*
X135400000Y-74050000D02*
X135400000Y-85930000D01*
X167300000Y-81200000D02*
X198600000Y-81200000D01*
X137080000Y-72370000D02*
X135400000Y-74050000D01*
%TO.N,SCK*%
X203300000Y-74700000D02*
X164200000Y-74700000D01*
X164200000Y-74700000D02*
X161450000Y-77450000D01*
X208590000Y-79990000D02*
X203300000Y-74700000D01*
X146050000Y-77450000D02*
X146300000Y-77450000D01*
X137080000Y-85070000D02*
X138430000Y-85070000D01*
X138430000Y-85070000D02*
X146050000Y-77450000D01*
%TO.N,MISO*%
X164000000Y-77100000D02*
X200200000Y-77100000D01*
X162800000Y-78300000D02*
X164000000Y-77100000D01*
X200200000Y-77100000D02*
X205630000Y-82530000D01*
%TO.N,LCD_DC*%
X155810000Y-82910000D02*
X155790000Y-82910000D01*
X155790000Y-82910000D02*
X148550000Y-90150000D01*
X148550000Y-90150000D02*
X137080000Y-90150000D01*
%TO.N,D+*%
X173075000Y-103675000D02*
X173075000Y-104175000D01*
X173075000Y-104175000D02*
X173925000Y-105025000D01*
%TO.N,BAT+*%
D23*
X159200000Y-88900000D02*
X163900000Y-84200000D01*
X163900000Y-84200000D02*
X187300000Y-84200000D01*
%TD*%
%TA.AperFunction,Conductor*%
%TO.N,+5V*%
G36*
X181836009Y-97637517D02*
G01*
X181843710Y-97642085D01*
X181845948Y-97650603D01*
X181776323Y-98187238D01*
X181771860Y-98195002D01*
X181764720Y-98197433D01*
X181335280Y-98197433D01*
X181327007Y-98194006D01*
X181323677Y-98187238D01*
X181254051Y-97650600D01*
X181256385Y-97641958D01*
X181263989Y-97637517D01*
X181548336Y-97596672D01*
X181551664Y-97596672D01*
X181836009Y-97637517D01*
G37*
%TD.AperFunction*%
%TD*%
M02*
